<svg width="220" height="220" viewBox="0 0 220 220" fill="none" xmlns="http://www.w3.org/2000/svg">
<path d="M55.1759 171.6C55.1759 171.6 8.49188 46.596 9.41588 45.188C10.3399 43.78 91.4759 41.888 93.4999 43.076C95.5239 44.264 145.156 160.424 144.188 161.788C143.22 163.152 57.6399 172.612 55.1759 171.6Z" fill="white"/>
<path d="M55.704 171.6L54.912 169.444C54.164 167.464 53.416 165.44 52.668 163.46C51.524 160.424 50.38 157.344 49.236 154.308C47.828 150.436 46.376 146.608 44.924 142.736C43.296 138.292 41.624 133.892 39.996 129.448C38.236 124.696 36.476 119.9 34.716 115.148C32.912 110.264 31.108 105.38 29.348 100.496C27.588 95.744 25.872 90.9921 24.156 86.24C22.572 81.84 20.988 77.44 19.36 73.04C18.656 71.06 17.908 69.036 17.204 67.056C16.852 66.132 16.544 65.208 16.192 64.24C15.884 63.36 15.576 62.524 15.312 61.776C14.256 58.828 13.244 55.836 12.232 52.888C11.572 50.996 10.956 49.104 10.384 47.168C10.296 46.86 10.208 46.5961 10.164 46.3321L10.076 46.024C10.076 45.98 10.076 45.936 10.032 45.8921C9.98796 45.6721 10.076 46.112 10.032 45.98C10.032 45.936 9.98796 45.848 9.98796 45.804C10.032 45.628 9.94396 46.0241 9.98796 45.8921C9.89996 46.1121 9.81196 46.024 10.076 45.98L10.208 45.936C10.34 45.892 10.12 45.936 10.252 45.936L10.648 45.848C11.044 45.804 11.396 45.76 11.792 45.716C12.936 45.584 14.124 45.496 15.268 45.408C18.876 45.144 22.44 45.012 26.048 44.836C30.8 44.66 35.552 44.4841 40.304 44.3521C45.54 44.1761 50.776 44.044 56.012 43.956C61.072 43.868 66.132 43.7361 71.192 43.6921C75.416 43.6481 79.64 43.604 83.864 43.604C86.548 43.604 89.276 43.604 91.96 43.736C92.532 43.78 93.104 43.8681 93.676 43.9121C93.544 43.9121 93.544 43.8241 93.632 43.9121C93.72 44.0001 93.5 43.824 93.544 43.824C93.456 43.736 93.368 43.648 93.28 43.56C93.412 43.692 93.368 43.868 93.236 43.516C93.28 43.604 93.324 43.692 93.368 43.78C93.676 44.308 93.94 44.88 94.248 45.408C94.292 45.496 94.336 45.5841 94.38 45.6721L94.424 45.76L94.732 46.376C94.952 46.86 95.216 47.344 95.436 47.828C96.668 50.424 97.856 53.064 99.044 55.704C100.628 59.268 102.212 62.788 103.796 66.3521C105.644 70.576 107.492 74.8001 109.34 79.0241C111.364 83.6441 113.344 88.308 115.368 92.972C117.436 97.7681 119.504 102.608 121.528 107.404C123.552 112.156 125.532 116.864 127.556 121.616C129.404 125.972 131.208 130.372 133.056 134.728C134.64 138.512 136.18 142.252 137.72 146.036C138.908 148.94 140.096 151.844 141.24 154.792C141.636 155.848 142.076 156.904 142.472 157.96C142.648 158.4 142.78 158.796 142.912 159.236L142.956 159.368C143.044 159.588 142.868 159.148 142.912 159.28L143 159.544C143.044 159.72 143.088 159.852 143.176 160.028C143.264 160.292 143.352 160.512 143.396 160.776C143.44 160.864 143.44 160.952 143.484 161.04C143.44 160.776 143.572 161.26 143.484 161.04C143.484 161.172 143.484 160.776 143.572 160.82C143.44 160.864 143.264 160.908 143.132 160.996C142.78 161.084 142.648 161.128 142.34 161.172C141.9 161.26 141.504 161.348 141.064 161.392C139.876 161.612 138.644 161.788 137.456 161.964C133.848 162.492 130.24 162.976 126.632 163.416C121.924 164.032 117.26 164.56 112.552 165.132C107.36 165.748 102.168 166.32 96.976 166.892C91.872 167.464 86.768 167.992 81.62 168.52C77.176 168.96 72.732 169.4 68.288 169.796C65.12 170.06 61.908 170.368 58.696 170.544C57.772 170.588 56.892 170.632 55.968 170.676C55.704 170.676 55.396 170.676 55.132 170.676H54.868C54.692 170.676 54.824 170.676 54.824 170.676C54.384 170.5 54.384 171.028 54.472 171.336C54.604 171.864 54.912 172.304 55.352 172.568C55.836 172.7 56.32 172.744 56.804 172.7C57.772 172.7 58.74 172.612 59.708 172.568C62.964 172.348 66.264 172.084 69.52 171.776C74.052 171.38 78.584 170.896 83.072 170.456C88.264 169.928 93.412 169.4 98.604 168.828C103.84 168.256 109.076 167.684 114.312 167.068C119.02 166.54 123.684 165.968 128.348 165.352C131.868 164.912 135.388 164.428 138.952 163.944C140.712 163.68 142.648 163.548 144.408 162.976C145.288 162.668 144.672 161.392 144.452 160.776C143.836 158.884 143.088 156.992 142.34 155.1C141.196 152.152 140.008 149.204 138.82 146.256C137.28 142.428 135.696 138.644 134.112 134.816C132.264 130.372 130.416 125.972 128.568 121.572C126.544 116.82 124.564 112.024 122.496 107.272C120.428 102.432 118.36 97.548 116.292 92.708C114.268 88.044 112.244 83.3801 110.22 78.6721C108.372 74.4481 106.524 70.224 104.676 65.956C103.136 62.436 101.552 58.872 99.968 55.352C98.824 52.7561 97.636 50.2041 96.404 47.6521C95.7 46.2001 95.04 44.704 94.248 43.34C94.028 42.856 93.632 42.4161 93.148 42.1521C92.576 41.9761 91.96 41.9321 91.344 41.9321C88.66 41.8001 85.976 41.8 83.248 41.8C79.024 41.8 74.756 41.8 70.532 41.888C65.428 41.976 60.324 42.0641 55.22 42.1521C49.94 42.2841 44.66 42.416 39.38 42.548C34.628 42.636 29.832 42.812 25.08 42.988C21.472 43.12 17.908 43.296 14.3 43.56C13.156 43.648 12.056 43.736 10.912 43.868C10.296 43.868 9.63596 43.956 9.06396 44.176C8.35996 44.528 8.97596 46.0241 9.15196 46.5521C9.67996 48.4441 10.34 50.292 10.956 52.184C11.968 55.132 12.98 58.08 14.036 61.028C15.4 64.9 16.764 68.7721 18.172 72.6441C19.756 77.0441 21.34 81.444 22.968 85.8441C24.728 90.6401 26.488 95.48 28.248 100.276C30.052 105.16 31.856 110.088 33.66 114.972C35.42 119.812 37.224 124.652 39.028 129.492C40.656 133.936 42.328 138.38 43.956 142.824C45.408 146.696 46.816 150.568 48.268 154.484C49.412 157.52 50.556 160.6 51.7 163.636C52.448 165.616 53.196 167.596 53.944 169.576C54.208 170.236 54.472 170.94 54.692 171.6C54.824 171.908 55.22 172.656 55.66 172.612C56.1 172.568 55.792 171.864 55.704 171.6Z" fill="#575757"/>
<path d="M49.9838 60.676C50.4238 59.84 50.9078 59.004 51.4798 58.256C51.9198 57.596 52.4478 57.024 53.0638 56.496C53.2838 56.32 53.5038 56.144 53.7238 56.012L53.9438 55.924C53.7238 56.012 53.9879 55.88 54.0319 55.88C54.0759 55.88 53.7678 55.924 53.9878 55.88C53.6358 55.924 54.2518 55.924 53.9438 55.88C53.9878 55.88 54.0758 55.88 54.1198 55.924C54.2078 55.968 54.2958 56.012 54.3838 56.1C54.2518 56.012 54.4279 56.144 54.4719 56.188C54.5159 56.276 54.6038 56.364 54.6478 56.452C54.8678 56.848 54.9998 57.244 55.0438 57.684C55.2198 58.96 55.2638 60.236 55.0878 61.512C54.9558 62.964 54.6479 64.416 54.2519 65.824C53.9439 67.012 53.4598 68.156 52.7998 69.168C52.6678 69.344 52.4919 69.564 52.3159 69.74L52.2278 69.828C52.0958 69.96 52.3598 69.74 52.2278 69.828C52.1838 69.872 52.1399 69.872 52.0959 69.916C51.9199 70.048 52.2719 69.872 52.0959 69.916C51.8319 70.004 52.3159 69.872 52.0519 69.916C52.0959 69.916 52.5359 69.872 52.3159 69.872C52.4479 69.872 52.6238 69.96 52.4478 69.872C52.2718 69.784 52.4038 69.872 52.4478 69.872C52.4038 69.828 52.3159 69.828 52.2719 69.784C51.5679 69.256 51.1718 68.376 51.3038 67.452C51.5238 66.264 51.9638 65.12 52.6678 64.152C53.4598 62.92 54.3838 61.776 55.4398 60.764C56.4518 59.752 57.5518 58.872 58.6958 58.08C59.1798 57.772 59.6639 57.508 60.1919 57.288L60.3239 57.244C60.1039 57.332 60.5439 57.156 60.3239 57.244L60.6319 57.156C60.9399 57.068 60.4558 57.2 60.7198 57.156C61.0718 57.068 60.5878 57.156 60.8078 57.156C61.0278 57.156 60.5878 57.2 60.8958 57.156C60.9398 57.156 61.0718 57.2 60.8078 57.156C60.8518 57.156 60.8959 57.156 60.9398 57.2C61.0279 57.288 60.8958 57.2 60.8958 57.2C60.9398 57.2 60.9838 57.244 61.0278 57.244C61.2038 57.376 61.0279 57.2 61.1599 57.332C61.6878 58.036 61.9519 58.916 61.9519 59.796C61.9959 60.72 61.8639 61.688 61.5119 62.524C61.3799 62.832 61.2478 63.14 61.0278 63.448C60.9398 63.58 60.8078 63.668 60.7198 63.8C60.7638 63.8 60.8078 63.712 60.7198 63.8C60.8078 63.756 60.8959 63.712 60.9839 63.712C61.2919 63.58 61.5998 63.58 61.9078 63.712C61.9078 63.712 61.8639 63.712 61.8199 63.58C61.7759 63.492 61.7759 63.404 61.7319 63.316C61.6879 63.096 61.7318 62.92 61.7758 62.7C61.9518 62.128 62.2158 61.556 62.5678 61.072C63.4038 59.84 64.5039 58.74 65.7799 57.948C66.0438 57.772 66.2638 57.64 66.5278 57.552C66.5718 57.552 66.7919 57.464 66.5719 57.552L66.8358 57.464C66.9238 57.42 66.9239 57.376 66.7919 57.464L66.9678 57.42H66.9239C67.0119 57.376 66.9678 57.376 66.8799 57.42C66.8799 57.42 67.1879 57.464 66.9239 57.42C66.9679 57.42 67.0559 57.464 67.0998 57.464C67.2318 57.508 66.9239 57.376 67.1439 57.464C67.3639 57.596 67.5398 57.772 67.6278 57.948C68.2878 59.048 68.5958 60.324 68.5958 61.644C68.5958 62.084 68.5519 62.524 68.4199 62.92C68.3759 63.096 68.2879 63.228 68.1999 63.36C68.1999 63.36 68.1119 63.448 68.1119 63.492C68.2439 63.052 69.1678 63.404 69.2558 63.272C69.1678 63.184 69.1238 63.096 69.0799 63.008C69.0359 62.788 69.0359 62.568 69.0799 62.392C69.1679 61.732 69.3878 61.116 69.6958 60.5C70.0038 59.84 70.3559 59.268 70.7519 58.696C70.9279 58.432 71.1479 58.168 71.4119 57.948C71.4999 57.86 71.5878 57.772 71.6758 57.684C71.7198 57.64 72.0718 57.376 71.8958 57.508C71.9398 57.464 71.9838 57.464 72.0278 57.464C71.8078 57.508 72.2478 57.42 72.0278 57.464C72.0718 57.464 71.5879 57.508 71.7199 57.508C71.8519 57.508 71.4559 57.464 71.4999 57.464C71.5879 57.464 71.4559 57.376 71.5439 57.464C71.6319 57.552 71.6319 57.508 71.6319 57.508L71.7199 57.596C71.7639 57.64 71.8079 57.728 71.8519 57.772C72.2479 58.344 74.3598 57.816 73.9199 57.156C72.7759 55.616 70.4879 56.584 69.4319 57.684C68.2439 58.916 67.4079 60.456 67.0119 62.128C66.9239 62.656 66.7919 63.316 67.1439 63.8C67.8479 64.636 69.4758 64.416 70.1358 63.668C70.7958 62.92 70.8839 61.6 70.7519 60.632C70.6639 59.84 70.4878 59.004 70.1358 58.256C70.0038 57.772 69.7398 57.332 69.3878 56.98C68.0238 55.66 65.7359 56.496 64.3719 57.332C62.7879 58.3 61.4239 59.62 60.4119 61.204C59.7959 62.128 58.8278 64.416 60.6758 64.636C62.9638 64.944 63.9759 62.348 64.1519 60.5C64.3279 58.872 63.9318 56.452 61.9958 56.1C60.5438 55.836 59.0479 56.496 57.7719 57.2C54.7359 58.96 52.1839 61.468 50.3359 64.504C49.6319 65.648 48.9718 67.056 49.0598 68.464C49.1478 69.74 50.0718 70.796 51.3478 70.972C54.6478 71.456 55.9239 67.32 56.5398 64.856C56.9798 63.14 57.1999 61.38 57.2439 59.62C57.2439 58.388 57.2439 56.936 56.5839 55.836C55.6159 54.252 53.1079 54.824 51.8319 55.616C50.2919 56.584 49.1918 58.212 48.2678 59.752C48.0918 60.06 47.8718 60.412 47.7398 60.72C47.5198 61.16 48.3558 61.248 48.6198 61.248C49.1478 61.204 49.7638 61.072 49.9838 60.676Z" fill="#575757"/>
<path d="M58.5638 138.248C60.3678 140.008 62.2598 141.724 64.1958 143.352C65.4278 144.452 66.7918 145.376 68.2438 146.168C70.1798 147.136 72.9078 147.708 74.6238 146.124C75.1958 145.508 75.7238 144.848 76.1638 144.1C76.9118 142.956 77.5718 141.724 78.2318 140.536C79.7278 137.764 81.1358 134.904 82.4998 132.088C83.3798 130.284 84.2598 128.436 85.0958 126.588C85.3158 126.148 84.6118 125.444 84.3478 125.224C83.6878 124.74 82.9398 124.432 82.1478 124.344C81.3558 124.168 80.5198 124.212 79.7718 124.432C79.2438 124.564 78.8038 124.96 78.6278 125.444L78.4958 125.752L78.6718 125.312C76.6478 129.668 74.5798 133.98 72.3358 138.16C71.3238 140.052 70.3118 142.12 68.9038 143.748C68.8158 143.836 68.6838 143.968 68.5958 144.056C68.5078 144.188 69.0798 143.66 68.8598 143.836C68.8158 143.88 68.7718 143.88 68.7278 143.924C69.2558 143.44 70.6638 143.528 71.2798 143.616C70.8838 143.528 72.3798 143.924 71.8518 143.748C71.4558 143.616 72.7758 144.188 72.2038 143.88C71.9838 143.748 71.7638 143.66 71.5438 143.528C71.3238 143.396 72.2478 143.968 71.8958 143.748L71.7638 143.66L71.2798 143.352C70.7078 142.956 70.1358 142.472 69.5638 142.032C68.2878 141.02 67.0998 139.92 65.8678 138.82C65.4278 138.424 65.0318 138.028 64.5918 137.632C64.3278 137.368 64.0198 137.06 64.6358 137.676L64.5038 137.544C63.3598 136.444 61.7318 135.916 60.1478 136.136C59.5758 136.224 58.7838 136.356 58.4758 136.884C58.2118 137.324 58.2558 137.896 58.5638 138.248Z" fill="#CD5357"/>
<path d="M39.512 90.244L45.54 89.892L59.884 89.056L77.264 88.044L92.312 87.164L97.24 86.9C98.032 86.856 98.824 86.856 99.572 86.768H99.66C100.276 86.724 99.264 84.876 98.604 84.92L92.576 85.272L78.188 86.108L60.808 87.12L45.76 88L40.92 88.22C40.128 88.264 39.336 88.264 38.588 88.352H38.5C37.884 88.396 38.852 90.244 39.512 90.244Z" fill="#CD5357"/>
<path d="M41.2278 101.112L47.2559 100.76L61.6439 99.9239L79.0238 98.9119L94.0718 98.0319C96.4918 97.8999 98.9118 97.8119 101.332 97.5919H101.42C101.948 97.5039 102.388 97.2839 102.74 96.8879C102.916 96.7119 103.268 96.1839 102.784 96.2279L96.7558 96.5799L82.3678 97.4159L64.9878 98.4279L49.9398 99.3079C47.5198 99.4399 45.0999 99.5279 42.6799 99.7479H42.5919C42.0639 99.8359 41.6239 100.056 41.2719 100.452C41.1399 100.584 40.7438 101.156 41.2278 101.112Z" fill="#CD5357"/>
<path d="M46.376 112.728L52.404 112.376L66.748 111.54L84.128 110.528L99.176 109.648L104.104 109.384C104.896 109.384 105.688 109.34 106.436 109.252H106.524C106.964 109.208 106.436 108.46 106.348 108.372C106.084 108.064 105.644 107.58 105.204 107.624L99.22 107.976L84.832 108.812L67.452 109.824L52.404 110.704L47.476 110.968C46.684 110.968 45.892 111.012 45.144 111.1C45.1 111.1 45.056 111.1 45.056 111.1C44.616 111.144 45.144 111.892 45.232 111.98C45.496 112.288 45.936 112.728 46.376 112.728Z" fill="#CD5357"/>
<path d="M39.6439 86.9C40.4359 86.02 41.1399 85.096 41.8439 84.128C42.5479 83.16 44.0879 81.048 41.9759 80.608C40.2159 80.256 39.4239 82.324 39.2919 83.688C39.1599 85.404 39.5999 87.296 41.3159 88.088C43.3399 89.012 45.5399 87.824 46.9039 86.328C47.5639 85.624 48.1359 84.788 48.5319 83.908C48.8839 83.292 49.1039 82.544 49.1039 81.84C49.0159 81.004 48.2239 80.432 47.4319 80.52C47.3879 80.52 47.2999 80.52 47.2559 80.564C46.5079 80.784 45.9359 81.356 45.7159 82.104C45.1439 83.556 45.3639 85.536 46.4639 86.68C48.0479 88.352 50.5999 88.088 52.2719 86.768C53.6799 85.668 54.6919 84.128 55.1319 82.412C55.3079 81.752 55.3079 81.004 54.7359 80.52C53.9439 79.992 52.8879 80.168 52.3159 80.96C51.3919 82.148 51.4799 84.26 52.0519 85.58C52.3599 86.416 53.1079 87.076 53.9879 87.296C55.0439 87.516 56.1439 86.988 56.9799 86.328C57.7719 85.668 58.4319 84.876 58.9159 83.952C59.3119 83.292 59.7519 82.412 59.7079 81.576C59.6639 80.564 58.4319 80.124 57.5959 80.52C57.0239 80.872 56.5839 81.444 56.4519 82.104C55.8799 83.732 56.3199 85.668 57.9479 86.504C59.8399 87.472 62.2159 86.812 63.5799 85.272C64.1959 84.568 64.6799 83.82 64.9879 82.94C65.2519 82.324 65.3839 81.708 65.3839 81.048C65.2959 80.256 64.5919 79.728 63.7999 79.816C63.6679 79.816 63.5359 79.86 63.4039 79.948C62.7879 80.212 62.4359 80.872 62.2159 81.488C61.6879 82.808 61.3359 84.92 62.6559 85.932C63.4919 86.548 64.5919 86.46 65.5159 86.064C65.8679 85.888 66.0439 85.492 65.9119 85.096C65.8679 85.008 65.8239 84.964 65.7799 84.876C65.3839 84.436 64.7679 84.304 64.2839 84.524C64.1519 84.568 64.0639 84.612 63.9319 84.656C63.7999 84.656 63.8879 84.612 63.9319 84.656C63.7999 84.568 63.9319 84.656 63.9759 84.7C63.8439 84.612 64.1959 84.832 64.0639 84.744C63.9319 84.656 64.1519 84.788 64.1079 84.788C63.9759 84.568 64.0639 84.788 64.1079 84.788C64.0639 84.744 63.9759 84.436 64.0199 84.612C63.9319 84.26 63.9319 83.908 63.9759 83.556C64.0199 83.292 64.0639 83.028 64.1519 82.72C64.1959 82.588 64.2399 82.412 64.2839 82.28C64.2839 82.236 64.3279 82.192 64.3279 82.104C64.4159 81.928 64.2839 82.192 64.3719 82.016C64.4599 81.84 64.5919 81.62 64.6799 81.444C64.7679 81.312 64.6799 81.488 64.6359 81.488C64.6799 81.444 64.6799 81.444 64.7239 81.4C64.2399 81.62 63.6679 81.532 63.3159 81.18C63.1839 81.048 63.2719 81.004 63.2279 80.96C63.1839 80.916 63.2279 80.872 63.2279 80.96C63.2279 81.004 63.2279 81.092 63.2279 81.136C63.2279 81.312 63.2279 80.96 63.2279 81.092C63.2279 81.136 63.2279 81.18 63.2279 81.268C63.2279 81.356 63.1839 81.488 63.1839 81.62C63.0519 82.148 62.8759 82.632 62.6119 83.072C62.3479 83.6 61.9519 84.084 61.5119 84.524C61.0719 84.92 60.5439 85.184 59.9719 85.272C60.0599 85.272 59.6639 85.272 59.5759 85.272C59.4439 85.272 59.3119 85.272 59.2239 85.228C58.8719 85.184 59.3119 85.272 59.1359 85.228C59.0479 85.184 59.0039 85.184 58.9159 85.14C59.1359 85.272 58.6519 84.92 58.8279 85.096C58.6079 84.876 58.4759 84.612 58.4759 84.304C58.4319 84.172 58.4319 84.04 58.4319 83.864C58.4319 83.776 58.4319 83.688 58.4319 83.6C58.4319 83.468 58.4759 83.336 58.4759 83.204C58.5199 83.072 58.5199 82.94 58.5639 82.808C58.5639 82.72 58.6959 82.412 58.6519 82.588C58.7399 82.412 58.8279 82.236 58.9599 82.06C59.0479 81.928 58.9159 82.104 58.9159 82.104C58.9599 82.06 59.0039 82.016 59.0039 82.016C59.0039 82.016 58.7839 82.104 58.9159 82.06C58.5639 82.192 58.1679 82.148 57.8599 81.884C57.5079 81.62 57.6839 81.664 57.5519 81.444V81.576C57.5519 81.576 57.5959 81.4 57.5519 81.532C57.5519 81.576 57.5519 81.62 57.5519 81.664C57.5079 81.928 57.4199 82.148 57.3319 82.368C57.0239 83.072 56.6279 83.688 56.1439 84.26C55.7039 84.832 55.1759 85.272 54.5599 85.536C54.4719 85.58 54.3839 85.624 54.2519 85.624C54.2079 85.624 54.3839 85.624 54.2959 85.624C54.5599 85.712 54.4279 85.668 54.3839 85.668C54.2079 85.624 54.4719 85.756 54.4279 85.668C54.2519 85.492 54.3839 85.58 54.4279 85.668L54.2959 85.492C54.4279 85.624 54.2079 85.36 54.2079 85.316C54.1639 85.184 54.1199 85.052 54.0759 84.92C54.1199 85.008 54.0319 84.7 54.0319 84.656C53.9879 84.48 53.9879 84.304 53.9439 84.128C53.8999 83.556 53.9439 83.028 54.0759 82.456C54.1199 82.368 54.1199 82.236 54.1639 82.148C54.0759 82.324 54.2519 82.016 54.2959 81.972C54.3399 81.928 54.3399 81.884 54.3839 81.884C54.2519 82.06 54.3399 81.928 54.3839 81.884C54.5159 81.796 54.4279 81.884 54.3399 81.884C54.5599 81.884 53.9879 81.928 54.0319 81.928C53.6799 81.928 53.3279 81.708 53.1519 81.4C53.1959 81.488 53.1519 81.488 53.1519 81.312V81.4C53.1519 81.4 53.1079 81.664 53.1519 81.488C53.1519 81.62 53.1079 81.752 53.0639 81.84C52.7559 82.984 52.1399 84.084 51.3039 84.92C50.8639 85.404 50.3359 85.756 49.7199 86.02C49.4999 86.064 49.3239 86.108 49.1039 86.108C49.0159 86.108 48.9279 86.108 48.8839 86.108C49.0599 86.108 48.8839 86.108 48.8399 86.108C48.7959 86.108 48.4879 86.02 48.7079 86.108C48.6199 86.064 48.5319 86.02 48.4439 85.976C48.6199 86.064 48.3559 85.888 48.2679 85.844C48.0479 85.668 48.3559 85.932 48.2239 85.8C48.1799 85.756 48.1359 85.668 48.0919 85.624C48.0479 85.58 48.0039 85.536 48.0039 85.492C48.0919 85.624 48.0039 85.492 48.0039 85.448C47.9159 85.272 47.8279 85.096 47.7839 84.92C47.6519 84.436 47.6519 83.952 47.6959 83.424C47.7399 82.984 47.8719 82.544 48.1359 82.192C48.0919 82.236 48.0919 82.192 48.2239 82.104C48.3559 82.016 48.0479 82.148 48.0919 82.148C47.7399 82.192 47.3879 82.06 47.1239 81.796C47.0359 81.708 46.9919 81.576 47.0359 81.708C47.0799 81.84 46.9479 81.488 46.9919 81.664C46.9919 81.708 46.9919 81.752 46.9919 81.796C46.9919 81.796 47.0359 81.576 46.9919 81.752C46.9479 81.928 46.9479 81.972 46.9479 82.104C46.9039 82.324 46.8159 82.544 46.7279 82.764C46.4639 83.38 46.1119 83.996 45.6719 84.524C45.2759 85.096 44.7479 85.58 44.1759 86.02C43.9559 86.196 43.6919 86.328 43.3839 86.46C43.2959 86.504 43.1639 86.548 43.0319 86.548C42.8999 86.592 42.7239 86.636 42.5919 86.592C42.5039 86.592 42.4159 86.592 42.3279 86.592C42.3719 86.592 42.5479 86.636 42.3279 86.592C42.2839 86.592 42.1959 86.548 42.1519 86.548C42.1959 86.548 42.4159 86.636 42.1519 86.548C42.0199 86.46 42.3719 86.724 42.1519 86.548L42.0199 86.46C41.7999 86.284 42.1079 86.548 42.0199 86.416C41.9759 86.372 41.9319 86.284 41.8439 86.24C41.7559 86.108 41.9319 86.416 41.7999 86.196L41.7119 86.02C41.6679 85.888 41.6239 85.756 41.5799 85.668C41.5799 85.668 41.5359 85.536 41.4919 85.404C41.4479 85.228 41.4479 85.052 41.4039 84.876C41.3599 84.348 41.4039 83.776 41.5359 83.248C41.5799 83.116 41.6239 82.984 41.6239 82.852C41.7119 82.632 41.6239 82.808 41.7119 82.676C41.7559 82.588 41.7999 82.5 41.8439 82.368C41.9319 82.28 42.0639 82.104 41.9319 82.192C42.0639 82.06 42.1519 82.104 41.9759 82.148C42.1079 82.104 41.8879 82.192 41.8879 82.192C41.4039 82.192 40.9199 81.884 40.7439 81.444C40.7879 81.532 40.7439 81.356 40.7439 81.312C40.7439 81.268 40.7439 81.444 40.6999 81.444C40.6119 81.708 40.6559 81.444 40.6999 81.444C40.6999 81.488 40.6559 81.532 40.6559 81.532C40.6119 81.62 40.5679 81.708 40.5239 81.796C40.3919 82.016 40.2599 82.28 40.0839 82.5C39.4239 83.468 38.7199 84.392 37.9719 85.316L37.5319 85.844C37.1799 86.284 37.6639 86.856 38.0599 87.032C38.6759 87.428 39.2919 87.34 39.6439 86.9Z" fill="#575757"/>
<path d="M70.3121 85.184C71.1041 84.304 71.8081 83.38 72.5121 82.412C72.9521 81.884 73.3481 81.268 73.6121 80.608C73.9201 79.772 73.0841 79.376 72.3361 79.244C70.7081 78.98 70.1361 80.608 70.0041 81.928C69.8721 83.644 70.4441 85.316 72.1161 86.02C74.1401 86.9 76.2081 86.064 77.6601 84.524C78.3201 83.82 78.8481 83.028 79.2441 82.192C79.5961 81.62 79.7721 80.96 79.7721 80.256C79.6841 79.42 78.4521 79.068 77.7041 79.112C77.0881 79.2 76.5601 79.64 76.3841 80.256C75.8121 81.664 76.0761 83.6 77.2201 84.656C78.8481 86.064 81.2241 86.152 82.9841 84.876C84.3481 83.82 85.3601 82.324 85.8001 80.652C85.9321 80.124 85.9761 79.64 85.4921 79.244C84.8321 78.716 83.6001 78.452 82.9841 79.2C82.0601 80.256 82.1481 82.368 82.7201 83.556C83.1601 84.392 83.9521 85.008 84.8761 85.184C85.8441 85.36 86.9001 85.096 87.6481 84.436C88.4401 83.776 89.1001 82.984 89.6281 82.06C89.9801 81.488 90.4201 80.652 90.3321 79.948C90.2001 79.112 88.7481 78.716 88.0881 79.024C87.5601 79.244 87.2521 79.86 87.1201 80.344C86.5921 82.016 87.1201 83.644 88.7481 84.392C90.6401 85.316 92.9281 84.876 94.3801 83.336C95.2161 82.412 96.1841 80.784 96.0081 79.42C95.8761 78.584 94.6001 78.188 93.8961 78.408C93.3681 78.584 93.0601 79.2 92.8841 79.684C92.3561 80.96 92.0921 82.94 93.4561 83.776C94.3361 84.304 95.4361 84.392 96.4041 83.996C96.8441 83.82 96.4481 83.424 96.2281 83.292C95.8761 83.072 95.1721 82.808 94.7321 83.028C94.5561 83.116 94.3801 83.16 94.2041 83.204C94.2481 83.204 94.2481 83.116 94.1161 83.204H94.2041C94.0721 83.204 94.1161 83.204 94.2921 83.248C94.4681 83.292 94.6881 83.424 94.8641 83.512C94.7761 83.468 94.8201 83.424 94.8641 83.512C94.8641 83.424 94.7761 83.336 94.7321 83.292C94.5561 82.808 94.5121 82.28 94.6001 81.796C94.6441 81.224 94.8201 80.696 95.0401 80.168C95.1281 79.992 95.2161 79.816 95.3481 79.64C95.3921 79.596 95.4801 79.552 95.5241 79.464C95.5681 79.376 95.4801 79.464 95.4801 79.464C95.7441 79.068 93.9841 78.628 93.8961 78.98C93.8961 78.98 93.8521 78.804 93.8521 78.98C93.8521 79.024 93.8521 79.024 93.8521 79.068C93.8521 79.2 93.8521 79.112 93.8521 79.2C93.8521 79.42 93.8081 79.64 93.7641 79.86C93.6321 80.388 93.4121 80.916 93.1481 81.444C92.5761 82.544 91.6081 83.6 90.3321 83.82C90.2001 83.864 90.0681 83.864 89.9361 83.864C89.8481 83.864 89.7601 83.864 89.6721 83.864C89.7601 83.864 89.4961 83.864 89.6281 83.864C89.5841 83.82 89.4961 83.776 89.4521 83.732C89.1441 83.336 89.0121 82.852 89.0121 82.324C89.0121 81.796 89.1441 81.268 89.3641 80.828C89.4521 80.652 89.5401 80.476 89.6281 80.344C89.6721 80.3 89.7601 80.256 89.7601 80.212C89.7601 80.168 89.8481 80.124 89.8041 80.168C89.7601 80.212 89.7601 80.212 89.8041 80.168C89.4961 80.212 89.1881 80.124 88.9681 79.948C88.8801 79.904 88.2201 79.684 88.2201 79.64C88.2201 79.596 88.2201 79.728 88.2201 79.728L88.1761 79.948C88.1321 80.212 88.0441 80.476 87.9121 80.74C87.6041 81.4 87.2521 82.06 86.7681 82.632C86.2841 83.248 85.7121 83.776 85.0081 84.128C84.8761 84.172 84.7441 84.26 84.6121 84.304C84.4801 84.348 84.4361 84.304 84.6561 84.348C84.7441 84.348 85.0521 84.568 85.1401 84.524C85.0961 84.524 84.9641 84.348 84.9201 84.26C84.3481 83.336 84.3481 81.928 84.6121 80.916C84.6561 80.696 84.7441 80.476 84.8761 80.256C84.9201 80.212 84.9641 80.124 85.0081 80.08C85.0521 80.036 85.0961 79.992 85.1841 79.948H85.1401C84.6561 80.036 84.1721 79.904 83.8201 79.552C83.8201 79.552 83.6881 79.42 83.6881 79.376C83.6881 79.42 83.7321 79.508 83.7321 79.596C83.7321 79.772 83.6881 79.948 83.6441 80.124C83.3361 81.356 82.6761 82.456 81.7961 83.38C81.3561 83.864 80.7841 84.304 80.1681 84.568C79.9041 84.7 79.6401 84.744 79.3321 84.744H79.1121C79.0681 84.744 79.0681 84.7 79.0681 84.744C78.8921 84.656 78.7601 84.48 78.6721 84.348C78.4961 84.128 78.3641 83.864 78.3201 83.556C78.1441 82.984 78.1001 82.412 78.1881 81.84C78.2761 81.356 78.4521 80.916 78.7161 80.52C78.8041 80.432 78.8921 80.344 79.0241 80.256C79.1121 80.168 79.0241 80.3 78.9801 80.256L77.7481 79.86C77.7041 79.816 77.6601 79.772 77.6601 79.728C77.6601 79.684 77.7041 79.816 77.7041 79.904C77.7481 80.872 76.9121 82.148 76.3401 82.984C75.5481 84.04 74.3601 85.272 72.9521 85.316H72.8641C72.6881 85.316 72.8201 85.36 72.7761 85.316C72.7321 85.272 72.9521 85.316 72.9521 85.404C72.9081 85.272 72.9521 85.404 72.9081 85.36C72.8641 85.316 72.8201 85.272 72.7321 85.228C72.7321 85.272 72.6001 85.052 72.5561 84.964C72.2921 84.48 72.1601 83.952 72.1161 83.38C72.0281 82.5 72.1601 81.136 72.8641 80.432C72.9521 80.388 72.9961 80.3 73.0841 80.256C73.1721 80.168 73.0841 80.3 73.0401 80.256C73.1281 80.476 71.6761 79.64 71.6321 79.684C71.5441 79.728 71.6761 79.596 71.6321 79.684C71.6761 79.596 71.6321 79.728 71.5881 79.772C71.4121 80.212 71.1921 80.608 70.9281 80.96C70.2681 81.928 69.5641 82.852 68.8161 83.732L68.3761 84.26C67.8921 84.788 69.9161 85.58 70.3121 85.14V85.184Z" fill="#575757"/>
<path d="M44.132 96.492C44.924 95.612 45.628 94.688 46.332 93.72C46.772 93.192 47.124 92.62 47.388 92.004C47.52 91.608 47.476 91.388 46.992 91.476C46.112 91.608 44.924 92.048 44.44 92.796C44.088 93.412 43.868 94.072 43.868 94.776C43.736 96.14 44.088 97.944 45.628 98.34C46.684 98.604 47.916 98.12 48.884 97.724C49.852 97.328 50.688 96.756 51.436 96.008C52.096 95.348 52.624 94.556 53.02 93.72C53.284 93.192 53.636 92.444 53.592 91.828C53.548 91.212 52.712 91.52 52.272 91.652C51.436 91.96 50.644 92.268 50.292 93.104C49.764 94.38 49.852 96.272 50.952 97.24C51.612 97.768 52.536 97.988 53.372 97.812C54.604 97.592 55.792 97.152 56.848 96.404C58.212 95.392 59.18 93.94 59.664 92.312C59.752 92.004 59.928 91.344 59.576 91.168C59.312 91.036 58.74 91.256 58.52 91.344C57.948 91.476 57.42 91.784 56.98 92.18C56.1 93.148 56.188 95.216 56.716 96.316C56.936 96.932 57.508 97.372 58.168 97.372C58.696 97.328 59.268 97.152 59.752 96.932C60.368 96.712 60.984 96.404 61.512 96.008C62.348 95.392 63.008 94.6 63.536 93.72C63.888 93.148 64.372 92.356 64.328 91.652C64.284 90.816 62.7 91.696 62.348 91.828C61.776 92.092 61.336 92.576 61.16 93.148C60.676 94.468 60.808 96.184 62.304 96.756C63.316 97.152 64.416 96.932 65.384 96.58C66.484 96.272 67.452 95.7 68.288 94.908C69.168 93.984 70.092 92.444 70.004 91.124C69.96 90.332 69.08 90.816 68.64 90.992C67.936 91.168 67.32 91.696 67.012 92.356C66.572 93.28 65.956 95.524 67.144 96.184C67.936 96.624 69.168 96.008 69.916 95.7C70.048 95.656 70.708 95.392 70.576 95.26C70.444 95.128 69.388 95.612 69.3 95.656C70.268 95.26 69.696 95.612 69.256 95.392C69.08 95.26 68.904 95.084 68.816 94.908C68.64 94.424 68.552 93.896 68.64 93.368C68.684 92.796 68.86 92.224 69.08 91.652C69.168 91.432 69.3 91.212 69.432 91.036C69.476 90.992 69.564 90.904 69.608 90.86C69.74 90.684 67.804 91.08 67.936 91.52C68.156 92.312 67.848 93.192 67.496 93.94C67.232 94.556 66.836 95.084 66.396 95.568C66.176 95.788 65.912 95.964 65.692 96.184C65.648 96.228 65.604 96.228 65.604 96.272C65.604 96.228 66.352 96.052 66.22 96.052C66.088 96.052 65.824 96.096 65.604 96.096C64.24 96.096 63.228 95.304 63.184 93.896C63.14 93.368 63.272 92.796 63.448 92.312C63.536 92.092 63.624 91.916 63.756 91.696C63.8 91.652 63.888 91.564 63.932 91.52C63.976 91.476 64.02 91.432 63.976 91.476C62.26 91.872 61.732 92.092 62.348 92.092H62.392C62.436 92.224 62.524 92.268 62.524 92.4C62.524 92.62 62.48 92.884 62.392 93.104C62.128 93.808 61.776 94.512 61.336 95.128C60.852 95.744 60.324 96.316 59.664 96.8C59.312 97.064 60.764 96.58 60.412 96.536C60.368 96.536 60.28 96.536 60.236 96.536C60.104 96.536 60.016 96.492 59.884 96.448C59.664 96.36 59.444 96.184 59.312 95.964C58.608 95.04 58.564 93.588 58.828 92.532C58.872 92.268 58.96 92.004 59.092 91.784C59.136 91.696 59.18 91.608 59.268 91.52C59.752 90.772 58.212 92.4 57.86 91.96C57.904 92.004 57.992 92.048 58.036 92.136C58.08 92.312 58.08 92.488 58.08 92.62C57.948 93.808 57.2 95.04 56.408 95.964C56.188 96.228 55.968 96.448 55.704 96.668C55.484 96.844 55.176 97.02 55 97.196C54.956 97.24 55.704 96.976 55.572 96.976C55.44 96.976 55.396 97.02 55.308 97.02C55.132 97.02 54.956 97.02 54.78 97.02C54.384 96.976 54.032 96.888 53.724 96.668C52.668 96.008 52.36 94.644 52.492 93.5C52.536 92.972 52.668 92.444 52.976 91.96C53.02 91.872 53.108 91.828 53.152 91.74L53.24 91.696C53.152 91.828 51.7 92.18 51.788 92.268C51.876 92.356 51.964 92.356 52.008 92.488C52.052 92.928 52.008 93.368 51.788 93.764C51.26 95.128 50.424 96.316 49.324 97.24C49.192 97.372 49.016 97.46 48.84 97.592C48.796 97.636 48.752 97.636 48.708 97.68L48.62 97.724C48.796 97.636 48.972 97.592 49.148 97.504C48.84 97.504 48.576 97.504 48.268 97.504C45.936 97.108 45.98 93.28 47.124 91.828C47.652 91.124 46.596 93.588 45.804 92.268C45.76 92.224 45.848 92.312 45.848 92.312C45.892 92.4 45.892 92.532 45.892 92.62C45.76 93.06 45.54 93.456 45.276 93.808C44.616 94.82 43.868 95.744 43.076 96.668L42.636 97.196C42.548 97.328 43.34 97.108 43.428 97.064C43.868 96.976 44.308 96.756 44.66 96.492H44.132Z" fill="#575757"/>
<path d="M74.7119 95.612C75.4599 94.732 76.2079 93.808 76.9119 92.84C77.5279 92.004 79.1999 89.936 77.3079 89.452C75.4159 88.968 74.6239 91.036 74.4479 92.488C74.2719 94.116 74.7559 95.92 76.3399 96.668C78.3639 97.636 80.6959 96.448 82.1039 94.952C82.7639 94.248 83.3359 93.412 83.7759 92.532C84.1279 91.96 84.3039 91.3 84.3479 90.596C84.3479 89.672 83.4239 89.232 82.5879 89.364C81.8399 89.496 81.1799 90.024 80.9159 90.772C80.3439 92.18 80.4759 94.116 81.5319 95.26C83.0719 96.888 85.6679 96.668 87.3399 95.436C88.7919 94.336 89.8479 92.796 90.3319 91.036C90.4639 90.464 90.5519 89.804 90.0239 89.364C89.2319 88.836 88.1759 88.968 87.5599 89.672C86.5919 90.816 86.6359 92.928 87.1639 94.204C87.4719 95.04 88.1759 95.656 89.0119 95.876C90.1559 96.14 91.2559 95.612 92.1359 94.952C92.9279 94.292 93.5879 93.5 94.0719 92.62C94.5119 91.96 94.8199 91.212 94.9079 90.376C94.9079 89.276 93.4999 88.968 92.7079 89.408C92.1799 89.716 91.8279 90.244 91.6519 90.816C91.0799 92.4 91.3439 94.292 92.9719 95.084C94.9079 96.052 97.3279 95.436 98.7359 93.896C99.6599 92.884 100.584 91.256 100.54 89.848C100.496 88.924 99.5279 88.44 98.6919 88.748C98.0759 89.012 97.5919 89.54 97.4159 90.156C96.8879 91.388 96.4479 93.544 97.7239 94.512C98.5159 95.128 99.6599 95.04 100.584 94.688C100.98 94.512 101.376 94.16 101.068 93.676C100.672 93.28 100.1 93.104 99.5719 93.324L99.3079 93.412C99.2639 93.412 99.0439 93.5 99.2199 93.456C99.1759 93.456 99.0879 93.5 99.0439 93.5C99.2199 93.588 99.1759 93.5 99.0879 93.5C99.3079 93.544 99.1759 93.544 99.3519 93.588C99.1759 93.5 99.3959 93.632 99.3959 93.632C99.3959 93.632 99.3079 93.5 99.2639 93.456C99.3519 93.632 99.2199 93.28 99.2199 93.236C99.1759 93.148 99.1759 93.016 99.1759 92.928C99.1759 92.972 99.1759 92.708 99.1759 92.62C99.1759 92.488 99.1759 92.312 99.1759 92.18C99.2199 91.652 99.3519 91.124 99.5719 90.64C99.6159 90.508 99.6599 90.42 99.7479 90.288C99.8359 90.156 99.9239 90.024 99.7919 90.2C99.8359 90.156 99.9679 90.068 99.9679 89.98C99.9679 89.98 99.7919 90.068 99.8799 90.024C99.3959 90.244 98.8239 90.156 98.3839 89.76C98.4719 89.848 98.2959 89.584 98.3399 89.672C98.3839 89.76 98.3399 89.76 98.3839 89.76C98.3399 89.76 98.3839 89.584 98.3839 89.804C98.3839 90.024 98.3399 90.2 98.2959 90.42C98.1639 90.904 97.9879 91.388 97.7239 91.872C97.4599 92.4 97.0639 92.928 96.6239 93.324C96.4039 93.5 96.1839 93.676 95.9639 93.808C95.7439 93.94 95.4799 94.028 95.2599 94.072C94.8199 94.204 94.3359 94.072 93.9839 93.764C94.0719 93.852 93.8959 93.632 93.8519 93.588C93.8079 93.5 93.7639 93.456 93.7639 93.368C93.6759 93.148 93.6319 92.884 93.6319 92.664C93.5879 92.18 93.6759 91.696 93.8959 91.256C93.9399 91.168 93.9839 91.08 94.0279 90.948C94.0719 90.816 94.2479 90.684 94.1159 90.816C94.1599 90.772 94.2919 90.684 94.2919 90.64C94.1599 90.948 93.1039 90.684 92.9719 90.596C92.8399 90.508 92.7519 90.376 92.7959 90.332C92.7959 90.42 92.7519 90.508 92.7519 90.596C92.7079 90.86 92.6199 91.08 92.5319 91.3C92.2679 91.96 91.8719 92.576 91.4319 93.148C91.0359 93.676 90.5079 94.16 89.8919 94.512C89.8479 94.556 89.7599 94.556 89.6719 94.6C89.3639 94.732 89.7599 94.556 89.6279 94.6C89.3639 94.556 89.4959 94.644 89.6279 94.6C89.5839 94.6 89.4079 94.6 89.6719 94.6C89.5839 94.6 89.7159 94.644 89.7159 94.6C89.7159 94.556 89.5399 94.468 89.6719 94.6C89.6279 94.556 89.5839 94.468 89.5399 94.424C89.0119 93.676 88.9679 92.224 89.2319 91.212C89.2759 91.036 89.3639 90.86 89.4519 90.684C89.4519 90.64 89.5399 90.552 89.4519 90.684C89.4959 90.64 89.4959 90.596 89.5399 90.552C89.6279 90.508 89.3639 90.596 89.4959 90.552C89.6279 90.508 89.1879 90.64 89.2319 90.64C88.8799 90.684 88.5279 90.552 88.2639 90.332C88.1759 90.288 88.1319 90.2 88.2199 90.288C88.2199 90.288 88.2639 90.508 88.2199 90.2C88.2199 90.42 88.2199 90.596 88.1759 90.816C87.8679 91.96 87.2519 93.016 86.4159 93.896C86.0199 94.336 85.5359 94.688 84.9639 94.952C84.8319 94.996 84.6999 95.04 84.5679 95.084C84.7879 95.04 84.1279 95.128 84.3919 95.128C84.1279 95.172 83.9079 95.128 83.6879 94.996C83.5119 94.908 83.3799 94.776 83.2919 94.644C83.1159 94.424 82.9839 94.204 82.9399 93.94C82.7639 93.412 82.7199 92.84 82.8079 92.312C82.8519 91.872 82.9839 91.476 83.2039 91.124C83.1599 91.168 83.2919 91.036 83.3359 90.992C83.2039 91.124 83.2479 91.036 83.2919 91.036C83.3359 91.036 83.0719 91.124 83.2479 91.08C82.8959 91.168 82.5439 91.124 82.2799 90.904C82.3239 90.948 82.0599 90.596 82.1039 90.684C82.1479 90.772 82.1039 90.816 82.1039 90.728C82.1039 90.64 82.1039 90.86 82.1039 90.904C82.1039 90.948 82.0599 91.124 82.0599 91.212C82.0159 91.432 81.9279 91.652 81.8399 91.872C81.5759 92.488 81.2679 93.06 80.8719 93.588C80.4759 94.16 79.9919 94.644 79.4199 95.084C79.1559 95.26 78.8919 95.436 78.5839 95.568C78.3639 95.656 78.0999 95.744 77.8359 95.744C77.9679 95.744 77.3519 95.7 77.6599 95.744C77.6159 95.744 77.5279 95.7 77.4839 95.7C77.7039 95.788 77.4839 95.7 77.4399 95.7C77.3079 95.612 77.1759 95.48 77.0439 95.348C76.7799 94.952 76.6039 94.468 76.5599 93.984C76.5159 93.412 76.5599 92.796 76.6919 92.224C76.7359 92.004 76.8239 91.828 76.9119 91.608C76.9559 91.52 76.9999 91.388 77.0439 91.3C77.1759 91.124 76.9999 91.3 77.1759 91.124C77.2199 91.08 77.2639 91.036 77.2639 91.036C77.2639 91.036 77.0879 91.124 77.2199 91.08C77.2639 91.036 77.0439 91.124 77.0439 91.124C76.6919 91.168 76.2959 91.036 76.0319 90.772C76.0319 90.728 75.8999 90.64 75.9879 90.684C76.1639 90.772 75.9439 90.464 75.9879 90.596C76.0319 90.728 75.9879 90.684 75.9879 90.552C75.8559 90.992 75.6359 91.388 75.3279 91.74C74.6679 92.664 74.0079 93.588 73.2599 94.424C73.1279 94.6 72.9519 94.776 72.8199 94.952C72.0719 95.612 74.0959 96.272 74.7119 95.612Z" fill="#575757"/>
<path d="M47.2999 107.668C48.0479 106.788 48.7959 105.864 49.4999 104.896C49.7639 104.5 51.6119 102.168 50.2479 102.08C49.3679 102.036 48.3999 102.784 47.9159 103.488C47.5199 104.148 47.2999 104.896 47.2119 105.644C47.0799 107.008 47.3879 108.9 48.8839 109.428C50.8639 110.132 53.1519 108.636 54.4719 107.228C55.1759 106.48 55.7479 105.644 56.1879 104.764C56.5399 104.148 56.7599 103.488 56.8039 102.784C56.7599 102.08 56.2319 101.992 55.6159 102.168C54.7359 102.432 53.9879 103.092 53.6359 103.928C53.0639 105.204 53.1079 107.14 54.1639 108.196C55.7039 109.78 58.2119 108.9 59.7079 107.756C61.1599 106.656 62.2599 105.116 62.7879 103.356C62.9199 102.96 63.1399 102.168 62.6999 101.86C61.9959 101.376 60.7639 102.344 60.3239 102.872C59.3999 104.016 59.3999 105.908 59.8839 107.272C60.6759 109.384 62.9639 108.46 64.3279 107.404C65.2079 106.7 65.9559 105.864 66.5279 104.896C66.9239 104.236 67.4079 103.4 67.4519 102.608C67.4959 101.816 66.6159 101.904 66.0879 102.168C65.3399 102.52 64.7239 103.18 64.4599 103.972C63.9759 105.292 64.0199 107.096 65.3839 107.8C67.3199 108.812 69.8279 107.58 71.1919 106.172C72.1599 105.16 73.1279 103.532 73.1279 102.08C73.1279 101.464 72.7319 101.244 72.1159 101.464C71.2799 101.772 70.6199 102.388 70.2679 103.224C69.7839 104.28 69.2119 106.436 70.3119 107.272C71.0159 107.8 72.0279 107.448 72.6879 107.14C72.9959 107.008 73.6999 106.612 73.6999 106.172C73.6999 105.732 72.9519 105.996 72.7319 106.084C72.5999 106.172 72.4239 106.172 72.2919 106.128C72.1159 106.084 71.9839 105.996 71.8959 105.82C71.6759 105.38 71.5439 104.896 71.6319 104.412C71.6759 103.84 71.8079 103.312 71.9839 102.784C72.0279 102.652 72.0719 102.52 72.1599 102.432C72.2039 102.388 72.2039 102.3 72.2479 102.256C72.2919 102.212 72.3359 102.168 72.3359 102.124C72.3359 102.168 72.2039 102.256 72.2919 102.168C72.0719 102.344 71.8079 102.52 71.5439 102.608C71.6759 102.564 71.0599 102.652 71.1039 102.652C71.0159 102.652 71.1039 102.564 71.1039 102.696C71.1039 102.564 71.1039 102.74 71.1039 102.784C71.1039 103.004 71.1039 103.18 71.0599 103.356C70.9279 103.884 70.7519 104.368 70.5319 104.808C70.2679 105.336 69.9599 105.776 69.5199 106.172C69.3879 106.304 69.6959 105.996 69.4319 106.216L69.2559 106.348C69.4319 106.216 69.2559 106.348 69.2119 106.348C68.9479 106.524 69.3439 106.304 69.1679 106.392C68.9479 106.524 68.6839 106.612 68.3759 106.612C67.0999 106.7 66.0879 105.996 65.9999 104.676C65.9559 104.148 66.0439 103.664 66.2199 103.18C66.2639 103.092 66.3079 102.96 66.3519 102.872C66.4399 102.696 66.3519 102.872 66.4399 102.696C66.4839 102.652 66.3959 102.74 66.3079 102.828C66.4839 102.696 65.8679 103.048 65.7799 103.092C65.6479 103.092 65.5159 103.092 65.3839 103.092C65.3839 103.092 65.3839 103.18 65.3839 103.136C65.3839 103.224 65.3839 103.312 65.3839 103.4C65.3399 103.62 65.2959 103.84 65.1639 104.06C64.8999 104.72 64.5479 105.336 64.1079 105.908C63.9319 106.172 63.7119 106.392 63.4919 106.612C63.4479 106.656 63.1399 106.876 63.2719 106.788C63.1839 106.876 63.0519 106.92 62.9639 106.964C62.8319 107.008 62.6999 107.008 62.5679 106.964C62.3479 106.876 62.1719 106.744 62.0399 106.524C61.3799 105.6 61.3359 104.192 61.5999 103.136C61.6439 102.916 61.7319 102.74 61.8199 102.52L61.8639 102.476C61.8199 102.52 61.7759 102.564 61.7319 102.608C61.5559 102.74 61.3799 102.872 61.1599 102.916C61.0719 102.916 60.8519 102.916 60.8079 102.916C60.8519 102.872 60.8519 102.916 60.8519 102.916C60.8519 102.916 60.9399 103.136 60.8959 103.004C60.9399 103.18 60.8959 103.4 60.8519 103.576C60.5879 104.72 60.0159 105.732 59.1799 106.612C59.0039 106.832 58.7839 107.008 58.5639 107.184C58.7399 107.052 58.2559 107.36 58.3879 107.272C58.5199 107.184 58.2119 107.36 58.2119 107.36C58.0359 107.448 58.2559 107.36 58.0799 107.404C57.5079 107.536 56.8919 107.492 56.3639 107.184C55.3079 106.612 55.0439 105.248 55.1759 104.148C55.2199 103.928 55.2639 103.664 55.3079 103.444C55.3519 103.224 55.4399 103.048 55.5719 102.872C55.6599 102.74 55.5719 102.916 55.5279 102.916C55.7039 102.872 55.4399 103.004 55.3959 103.004C55.2199 103.136 54.9999 103.224 54.7799 103.268C54.6479 103.268 54.7799 103.268 54.7799 103.356C54.8239 103.796 54.6919 104.192 54.5159 104.588C54.2959 105.204 53.9439 105.776 53.5919 106.304C53.1959 106.832 52.7559 107.316 52.2279 107.712C52.3599 107.624 51.9199 107.888 52.0079 107.844C52.0959 107.8 51.6119 108.02 51.7879 107.932C51.5239 108.02 51.2159 108.064 50.9519 108.02C49.7639 107.932 49.2359 106.744 49.1479 105.732C49.1039 105.16 49.1039 104.544 49.2359 103.972C49.2799 103.752 49.3679 103.532 49.4559 103.312C49.4559 103.268 49.6319 103.004 49.5439 103.092C49.6319 102.96 49.8079 102.872 49.6319 102.96C49.8079 102.872 49.4999 103.048 49.4999 103.048C49.3679 103.136 49.2359 103.224 49.1039 103.268C48.9719 103.312 48.8839 103.312 48.7959 103.268L48.7519 103.224C48.7519 103.224 48.7079 103.444 48.7519 103.312C48.5759 103.708 48.3999 104.06 48.1359 104.412C47.4759 105.38 46.7279 106.304 46.0239 107.184L45.5839 107.712C45.2759 108.064 45.5399 108.328 45.9359 108.284C46.5079 108.372 46.9919 108.108 47.2999 107.668Z" fill="#575757"/>
<path d="M76.076 107.14L77 106.612L77.132 106.524C77.22 106.48 77.308 106.392 77.396 106.304C77.484 106.216 77.528 106.128 77.528 105.996C77.528 105.908 77.528 105.776 77.484 105.688C77.44 105.556 77.396 105.468 77.308 105.424C77.088 105.248 76.824 105.116 76.56 105.116C76.296 105.072 75.988 105.116 75.768 105.248L74.844 105.776L74.712 105.864C74.624 105.908 74.536 105.996 74.448 106.084C74.316 106.26 74.272 106.48 74.36 106.7C74.404 106.832 74.448 106.92 74.536 106.964C74.756 107.14 75.02 107.272 75.284 107.316C75.548 107.316 75.812 107.272 76.076 107.14Z" fill="#575757"/>
<path d="M100.98 48.048C102.388 47.432 103.664 46.64 104.852 45.672C105.028 45.584 105.072 45.408 105.028 45.232C104.94 45.056 104.764 44.88 104.588 44.792C104.324 44.66 104.06 44.616 103.752 44.616C103.532 44.616 103.268 44.66 103.048 44.792C102.476 45.232 101.904 45.672 101.288 46.024C100.98 46.2 100.672 46.376 100.364 46.552C100.188 46.64 100.056 46.728 99.8799 46.816L99.7479 46.86C99.7479 46.86 99.6159 46.948 99.7039 46.904C99.7919 46.86 99.6599 46.904 99.6599 46.904L99.4839 46.992C99.3079 47.08 99.1319 47.168 99.0879 47.344C99.0879 47.52 99.1759 47.696 99.3519 47.784C99.5719 47.96 99.8359 48.048 100.1 48.092C100.364 48.136 100.628 48.136 100.892 48.048H100.98Z" fill="#CD5357"/>
<path d="M97.6799 42.944C97.9439 41.272 98.4279 39.644 99.0439 38.06C99.2199 37.576 98.8679 36.96 98.4279 36.74C97.9879 36.52 97.4159 36.432 97.1959 36.96C96.4919 38.676 96.0079 40.436 95.6999 42.24C95.6119 42.768 96.1399 43.34 96.6239 43.472C97.1079 43.604 97.5919 43.472 97.6799 42.944Z" fill="#CD5357"/>
<path d="M130.504 156.904C130.504 156.904 123.596 160.16 112.508 154C101.42 147.84 97.1521 139.216 97.1521 132.22C97.1521 125.224 108.724 115.28 108.724 115.28L145.2 142.076C145.2 142.032 137.104 156.112 130.504 156.904Z" fill="#CD5357"/>
<path d="M126.06 113.916C126.06 113.916 114.092 108.372 107.448 116.6C100.804 124.828 105.512 139.392 116.6 145.2C127.688 151.008 142.34 148.06 145.2 142.076C148.06 136.092 126.06 113.916 126.06 113.916Z" fill="white"/>
<path d="M126.984 113.432C124.476 112.332 121.792 111.716 119.064 111.628C114.004 111.452 108.724 113.652 105.82 117.92C103.18 121.792 102.872 126.764 104.06 131.208C105.424 136.224 108.372 140.624 112.508 143.748C117.216 147.268 123.244 148.852 129.052 148.808C134.156 148.764 139.788 147.532 143.836 144.32C144.936 143.44 146.212 142.208 146.388 140.712C146.52 139.568 146.124 138.336 145.684 137.28C144.32 133.936 142.076 130.944 139.92 128.084C137.5 124.916 134.904 121.88 132.22 118.932C130.592 117.172 128.964 115.412 127.292 113.696L127.072 113.432C126.72 113.124 125.048 114.356 125.092 114.4C126.192 115.5 127.292 116.688 128.392 117.832C130.812 120.428 133.188 123.068 135.432 125.796C137.896 128.7 140.14 131.78 142.12 135.036C142.912 136.312 143.572 137.632 144.056 139.04C144.364 139.964 144.672 141.108 144.364 142.12C143.924 143.572 142.516 144.804 141.284 145.508C140.932 145.728 140.58 145.904 140.228 146.036C139.788 146.212 139.304 146.432 138.82 146.564C137.632 146.96 136.4 147.224 135.168 147.4C129.492 148.28 123.684 147.488 118.448 145.068C113.784 142.824 110 139.128 107.712 134.508C105.688 130.416 104.72 125.576 105.908 121.088C106.48 118.888 107.58 116.908 109.164 115.28C109.604 114.84 110.088 114.444 110.572 114.048C110.924 113.828 111.276 113.608 111.628 113.432C112.596 113.036 113.564 112.772 114.576 112.64C117.92 112.2 121.44 112.86 124.52 114.092C124.696 114.18 124.916 114.224 125.092 114.312C125.4 114.444 126.104 113.96 126.368 113.828C126.5 113.916 127.204 113.52 126.984 113.432Z" fill="#575757"/>
<path d="M147.62 83.908C147.62 83.908 117.744 119.636 116.424 122.056C115.104 124.476 116.028 129.36 120.78 134.508C125.532 139.656 131.824 138.16 132.44 137.896C133.056 137.632 168.432 94.644 168.432 94.644L147.62 83.908Z" fill="#CD5357"/>
<path d="M154 67.672C154 67.672 146.036 76.032 145.816 77.528C145.596 79.024 144.056 85.36 152.592 93.28C161.128 101.2 170.984 98.692 173.624 96.668C176.264 94.644 181.456 86.768 181.456 86.768L154 67.672Z" fill="white"/>
<path d="M153.384 66.748C150.876 69.3 148.544 71.984 146.3 74.756C145.816 75.284 145.464 75.856 145.156 76.516C145.024 76.912 144.98 77.352 144.936 77.792C144.716 79.596 144.892 81.4 145.42 83.116C146.3 86.196 148.104 89.012 150.172 91.432C152.68 94.336 155.672 96.844 159.236 98.296C161.964 99.396 164.912 99.88 167.816 99.616C169.796 99.44 171.864 99 173.58 97.988C174.328 97.504 174.988 96.888 175.56 96.228C176.44 95.304 177.232 94.292 177.98 93.28C179.256 91.608 180.532 89.848 181.72 88.088L181.94 87.78C182.248 87.296 181.368 86.196 180.972 85.976L171.644 79.464L156.904 69.212L153.56 66.88C153.164 66.616 153.34 67.276 153.384 67.452C153.56 67.936 153.868 68.332 154.264 68.684L163.592 75.152L178.332 85.448L181.72 87.78L180.752 85.932C179.916 87.164 179.08 88.396 178.2 89.628C176.836 91.652 175.296 93.5 173.58 95.216C172.304 96.316 170.764 97.108 169.092 97.416C166.584 97.988 164.032 97.988 161.524 97.504C158.224 96.8 155.188 95.26 152.68 93.016C150.304 90.904 148.104 88.396 146.916 85.404C146.256 83.732 145.948 81.928 146.08 80.168C146.124 79.684 146.168 79.156 146.256 78.672C146.344 78.188 146.564 77.792 146.872 77.396C148.104 75.724 149.424 74.14 150.832 72.644C151.932 71.368 153.076 70.136 154.264 68.904C154.308 68.816 154.396 68.772 154.484 68.684C154.968 68.2 153.604 66.528 153.384 66.748Z" fill="#575757"/>
<path d="M114.972 123.024C114.18 124.916 114.62 127.248 115.324 129.052C117.348 133.54 121.176 136.972 125.884 138.512C128.524 139.172 131.648 138.952 134.024 137.5C134.464 137.148 134.86 136.752 135.168 136.312L137.588 133.408L142.252 127.864C142.56 127.424 142.472 126.852 142.032 126.544C141.988 126.544 141.988 126.5 141.944 126.5C141.416 126.28 140.8 126.412 140.448 126.896L133.672 134.948L132.704 136.092L133.144 135.696C132.968 135.828 132.748 135.916 132.528 136.048C132.44 136.092 132.308 136.136 132.176 136.18C132.044 136.224 132.044 136.224 132 136.268C132.264 136.136 132.132 136.224 132.088 136.224C131.736 136.356 131.384 136.444 131.032 136.576C130.284 136.796 129.492 136.884 128.7 136.84C127.6 136.796 126.544 136.62 125.532 136.224C122.892 135.212 120.516 133.144 118.844 130.9C117.656 129.36 116.908 127.512 116.732 125.576C116.732 125.796 116.732 125.312 116.732 125.268C116.732 125.092 116.732 124.916 116.732 124.74C116.732 124.476 116.776 124.212 116.82 123.948C116.864 123.772 116.776 124.212 116.82 124.036L116.864 123.86L116.908 123.684L116.952 123.508C117.128 123.024 116.864 122.496 116.38 122.32C116.336 122.32 116.292 122.276 116.248 122.276C115.764 122.144 115.192 122.496 114.972 123.024Z" fill="#575757"/>
<path d="M178.596 69.2119C178.596 69.2119 172.656 63.5359 164.912 63.4039C157.168 63.2719 155.32 66.2199 153.956 67.7159C152.592 69.2119 153.692 79.9479 163.504 85.5359C173.316 91.1239 177.98 89.2319 181.412 86.8119C184.844 84.3919 185.46 74.8439 178.596 69.2119Z" fill="#CD5357"/>
<path d="M152.9 69.4759C152.856 70.5319 152.944 71.5879 153.164 72.6439C153.648 75.1519 154.572 77.5279 155.936 79.6839C158.048 82.8079 160.864 85.3599 164.164 87.1639C166.848 88.7039 169.884 89.6279 172.964 89.8039C174.416 89.8919 175.868 89.7159 177.232 89.2759C177.628 89.1439 178.288 88.8799 178.508 88.4399C178.728 87.9999 178.156 88.1759 177.98 88.2639H177.936C177.716 88.3519 178.112 88.2199 177.98 88.2639C177.76 88.3079 177.584 88.3519 177.364 88.3959C177.056 88.4399 176.792 88.4839 176.484 88.5279C176.044 88.5719 175.604 88.5719 175.12 88.5719C172.26 88.5279 169.488 87.7799 166.98 86.4599C161.26 83.5999 156.684 78.6279 155.276 72.2919C154.968 71.0599 154.836 69.8279 154.88 68.5959C154.88 68.2439 154.176 68.5959 154 68.6399C153.736 68.7279 152.9 69.1239 152.9 69.4759Z" fill="#575757"/>
<path d="M180.224 124.3C180.224 124.3 156.728 98.032 144.54 93.676C132.352 89.32 121.44 89.54 120.12 91.96C118.8 94.38 122.98 96.008 128.128 97.504C133.364 99 138.336 100.584 138.336 100.584C138.336 100.584 105.82 110.44 121.176 112.684C121.176 112.684 109.78 120.164 125.928 119.108C125.928 119.108 120.604 123.42 127.776 124.212C134.948 125.004 142.516 125.136 142.516 125.136C142.516 125.136 142.956 141.856 167.684 135.564C167.64 135.564 173.932 126.104 180.224 124.3Z" fill="white"/>
<path d="M181.148 123.86C178.992 121.484 176.792 119.152 174.548 116.82C169.884 112.024 165.088 107.316 159.984 103.004C157.432 100.804 154.792 98.7359 152.02 96.7999C149.864 95.2159 147.488 93.9399 145.024 92.9719C140.14 91.1679 134.992 90.0239 129.8 89.5839C127.908 89.4079 126.016 89.4079 124.168 89.5839C122.892 89.7159 121.484 89.9359 120.34 90.5959C119.196 91.2559 118.492 92.3999 118.932 93.6759C119.504 95.3479 121.66 96.2279 123.156 96.7999C125.62 97.7679 128.216 98.4279 130.724 99.1759C132.792 99.7919 134.816 100.408 136.884 101.068L137.852 101.376L138.028 99.8359C134.508 100.892 131.032 102.08 127.644 103.444C125.092 104.412 122.584 105.512 120.12 106.788C119.196 107.272 118.272 107.844 117.436 108.504C116.82 108.944 116.336 109.56 116.072 110.308C115.412 112.728 119.46 113.3 120.956 113.52L120.604 112.024C119.372 112.816 118.228 113.784 117.26 114.884C116.688 115.544 116.16 116.38 116.204 117.304C116.248 118.448 117.348 119.152 118.316 119.46C120.736 120.252 123.508 120.076 125.972 119.9L125.092 118.536C123.772 119.592 122.012 121.792 123.464 123.42C124.08 124.036 124.828 124.432 125.664 124.608C127.028 124.916 128.436 125.136 129.8 125.18C132.528 125.444 135.3 125.62 138.028 125.752C139.524 125.796 141.02 125.884 142.516 125.928L141.372 125.18C141.416 126.236 141.636 127.292 141.988 128.26C142.692 130.46 143.968 132.44 145.728 133.98C148.456 136.356 152.064 137.456 155.628 137.676C158.312 137.852 160.996 137.676 163.636 137.192C164.428 137.06 165.22 136.928 166.012 136.752L167.244 136.488C167.728 136.356 168.256 136.312 168.608 135.872C168.828 135.608 169.004 135.344 169.18 135.036C170.368 133.408 171.6 131.868 173.008 130.416C174.768 128.568 176.748 126.764 179.036 125.62C179.52 125.356 180.048 125.18 180.576 125.004C181.016 124.872 181.5 124.432 181.28 123.948C181.06 123.464 180.356 123.332 179.872 123.464C177.056 124.3 174.592 126.192 172.524 128.216C170.72 129.976 169.048 131.868 167.552 133.892C167.244 134.288 166.936 134.728 166.672 135.124L167.288 134.684C163.592 135.608 159.588 136.268 155.936 136.004C155.188 135.96 154.44 135.872 153.692 135.74C153.12 135.652 152.548 135.52 151.976 135.344C151.404 135.168 150.832 134.948 150.26 134.684L149.908 134.508C149.776 134.42 150.128 134.596 149.864 134.508L149.732 134.42C149.512 134.288 149.248 134.156 149.028 134.024C148.588 133.76 148.148 133.452 147.752 133.144L147.576 132.968L147.4 132.88C147.224 132.704 147.048 132.572 146.872 132.396C146.564 132.088 146.256 131.736 145.992 131.384C145.86 131.208 145.772 131.076 145.64 130.9L145.464 130.636C145.596 130.812 145.42 130.592 145.376 130.504C144.98 129.888 144.672 129.228 144.364 128.524C144.232 128.216 144.144 127.908 144.012 127.6C143.968 127.468 143.924 127.336 143.88 127.204C143.88 127.116 143.836 127.072 143.836 126.984C143.792 126.764 143.88 127.16 143.836 126.94C143.66 126.324 143.572 125.664 143.528 125.004C143.528 124.432 142.824 124.256 142.384 124.256H141.504H141.196H140.844L139.48 124.212C137.06 124.124 134.64 123.948 132.264 123.772C130.9 123.684 129.536 123.552 128.128 123.376C127.6 123.332 127.072 123.244 126.588 123.112C126.28 123.024 125.928 122.892 125.62 122.76C125.576 122.716 125.224 122.496 125.356 122.628C125.268 122.54 125.18 122.452 125.092 122.364C125.224 122.54 125.048 122.276 125.048 122.188C125.004 122.056 125.048 122.188 125.048 122.232C125.048 122.144 125.048 122.056 125.004 122.012C125.004 121.968 125.004 121.924 125.004 121.88C124.96 122.012 125.004 121.66 125.004 121.88C125.004 121.792 125.048 121.704 125.048 121.616C125.092 121.528 125.136 121.396 125.18 121.308C125.092 121.528 125.268 121.132 125.312 121.088C125.444 120.868 125.576 120.692 125.752 120.472C125.796 120.428 125.84 120.384 125.884 120.34C125.752 120.472 126.016 120.164 125.884 120.34C125.972 120.252 126.06 120.164 126.104 120.076C126.28 119.9 126.412 119.768 126.588 119.636C127.38 119.02 126.412 118.228 125.708 118.272C124.476 118.36 123.244 118.404 121.968 118.36C121.528 118.36 121.044 118.316 120.604 118.272L120.076 118.184L119.768 118.14C119.724 118.14 119.328 118.052 119.592 118.096C119.328 118.008 119.064 117.92 118.8 117.832C118.536 117.744 118.888 117.92 118.668 117.788L118.404 117.612C118.228 117.524 118.536 117.788 118.448 117.656L118.36 117.568C118.272 117.48 118.228 117.304 118.316 117.568C118.272 117.524 118.272 117.392 118.228 117.348C118.14 117.216 118.228 117.524 118.228 117.304C118.228 117.216 118.228 117.172 118.228 117.084C118.228 116.996 118.184 117.26 118.228 117.04C118.228 116.952 118.272 116.908 118.272 116.82C118.272 116.732 118.448 116.424 118.316 116.688C118.492 116.336 118.712 116.028 118.932 115.764C118.976 115.72 119.24 115.412 119.02 115.632L119.196 115.412C119.372 115.236 119.504 115.104 119.68 114.928C119.988 114.664 120.296 114.4 120.604 114.136C120.912 113.872 121.132 113.696 121.44 113.52C121.484 113.476 121.616 113.344 121.704 113.344C121.572 113.344 121.44 113.52 121.616 113.432C122.364 112.948 122.144 112.068 121.264 111.936C120.912 111.892 120.604 111.848 120.252 111.76L119.856 111.672C119.812 111.672 119.548 111.584 119.812 111.672L119.548 111.628C119.328 111.584 119.108 111.496 118.888 111.408L118.624 111.32C118.316 111.188 118.756 111.408 118.492 111.276C118.36 111.188 118.272 111.1 118.14 111.012C118.184 111.012 118.448 111.188 118.14 111.012C118.008 110.748 118.096 111.012 118.14 111.012C118.14 110.968 118.096 110.924 118.052 110.88C118.008 110.704 118.052 110.836 118.052 110.924C118.052 110.88 118.052 110.792 118.052 110.748V110.704C118.052 110.616 117.964 110.924 118.052 110.792C118.14 110.66 118.228 110.396 118.096 110.66C118.184 110.528 118.228 110.396 118.316 110.308L118.448 110.132C118.228 110.396 118.448 110.132 118.492 110.088C118.624 109.956 118.756 109.824 118.888 109.736C119.064 109.604 119.196 109.472 119.372 109.34C119.46 109.296 119.548 109.208 119.636 109.164C119.372 109.34 119.724 109.12 119.812 109.076C120.252 108.812 120.692 108.548 121.132 108.284C122.232 107.712 123.332 107.184 124.432 106.656C125.048 106.392 125.62 106.128 126.236 105.864C126.5 105.732 126.808 105.644 127.072 105.512L127.336 105.424C127.6 105.292 127.116 105.512 127.424 105.38L127.952 105.204C130.24 104.324 132.572 103.488 134.904 102.696C136.136 102.3 137.368 101.86 138.644 101.508C139.436 101.288 139.7 100.276 138.82 99.9679C135.256 98.8239 131.648 97.7679 128.04 96.7119C126.016 96.0959 123.772 95.5239 121.968 94.3359C121.704 94.1599 121.484 93.9839 121.308 93.7639C121.176 93.5879 121.044 93.4119 121 93.1919C120.912 92.9279 120.956 92.6639 121.088 92.4439C121.132 92.3999 121.132 92.3559 121.132 92.3559C121.176 92.3119 121.176 92.2679 121.22 92.2239C121.132 92.3119 121.088 92.3559 121.22 92.2679L121.352 92.0479C121.264 92.1359 121.264 92.0919 121.44 92.0039C121.616 91.9159 121.66 91.9159 121.748 91.8279L121.88 91.7839C122.1 91.6959 121.704 91.8279 121.924 91.7839C122.144 91.7399 122.452 91.6079 122.716 91.5639L123.156 91.4759L123.42 91.4319C123.508 91.4319 123.464 91.4319 123.376 91.4319L123.596 91.3879C125.18 91.1679 126.808 91.1239 128.436 91.2119C133.232 91.5199 137.984 92.4879 142.56 94.0279C145.156 94.9079 147.62 96.1399 149.864 97.6799C152.46 99.4399 155.012 101.332 157.388 103.4C162.36 107.58 167.024 112.112 171.6 116.732C174.152 119.372 176.616 122.056 179.168 124.696L179.256 124.828C180.004 125.576 181.984 124.784 181.148 123.86Z" fill="#575757"/>
<path d="M140.404 107.844C135.608 108.988 130.768 110.044 125.928 110.968C124.212 111.32 122.496 111.628 120.78 111.892C120.384 111.892 120.076 112.244 120.076 112.64C120.076 112.728 120.076 112.772 120.12 112.86C120.384 113.344 120.956 113.608 121.484 113.52C127.512 112.596 133.452 111.232 139.392 109.868L141.064 109.472C142.516 109.164 141.504 107.58 140.404 107.844Z" fill="#575757"/>
<path d="M142.428 116.38C138.292 116.864 134.156 117.392 130.02 118.008C128.524 118.228 127.028 118.448 125.532 118.756C125.312 118.8 124.608 119.02 124.828 119.372C125.048 119.724 125.928 119.548 126.192 119.504C127.292 119.284 128.524 119.108 129.756 118.932C131.164 118.712 132.572 118.536 133.98 118.316C136.356 118.008 138.732 117.7 141.108 117.392L142.516 117.216C142.736 117.172 143.616 117.04 143.572 116.688C143.528 116.336 142.648 116.336 142.428 116.38Z" fill="#575757"/>
<path d="M186.648 181.852L186.384 181.676L186.252 181.588L185.812 181.236C184.888 180.532 183.964 179.828 183.084 179.124C180.268 176.88 177.54 174.46 174.988 171.864C171.952 168.916 169.268 165.572 167.024 162.008C164.956 158.664 163.284 154.792 163.24 150.788C163.152 146.344 164.736 141.944 166.98 138.16C169.4 134.156 172.568 130.636 176.352 127.864C179.74 125.4 183.744 123.464 187.968 123.156C189.86 123.024 191.796 123.288 193.556 123.992C195.668 124.916 197.648 126.192 199.364 127.776C202.532 130.592 205.128 134.024 206.976 137.852C208.12 140.052 209.088 142.34 209.792 144.716C209.836 144.848 209.836 144.936 209.88 145.068C210.056 145.552 210.364 145.948 210.804 146.256C210.936 146.388 211.508 146.74 211.376 146.256C210.848 144.364 210.188 142.56 209.352 140.8C207.548 136.752 205.172 133.012 202.224 129.712C200.464 127.732 198.484 126.016 196.328 124.476C194.48 123.2 192.5 122.1 190.256 121.66C186.12 120.824 181.852 122.1 178.2 124.08C173.976 126.412 170.324 129.624 167.464 133.496C164.648 137.236 162.492 141.636 161.832 146.3C161.216 150.568 162.228 154.704 164.12 158.532C166.188 162.712 169.092 166.496 172.216 169.928C175.076 173.052 178.156 176 181.412 178.728C183.216 180.268 185.108 181.72 187 183.128L187.264 183.304C187.616 183.524 187.748 183.348 187.616 182.996C187.44 182.556 187.088 182.16 186.648 181.852Z" fill="#575757"/>
<path d="M168.036 150.524C167.772 151.14 167.42 152.24 168.212 152.636C168.344 152.724 168.52 152.724 168.652 152.768C169.092 152.812 169.532 152.856 169.972 152.812C170.412 152.812 170.808 152.724 171.204 152.548C171.556 152.328 171.776 151.888 171.776 151.448C171.688 150.876 171.38 150.392 170.94 150.04C170.852 149.952 170.5 149.952 170.456 149.952C170.192 149.952 169.884 149.952 169.62 149.952C169.4 149.952 169.18 149.996 168.96 150.04C168.916 150.04 168.784 150.084 168.872 150.172L169.004 150.304L168.96 150.26C169.532 150.832 169.972 151.756 169.312 152.416L169.356 152.372C169.312 152.416 169.224 152.504 169.136 152.548L169.004 152.592H168.96C168.916 152.636 169.048 152.548 168.96 152.592C168.872 152.636 169.048 152.592 169.048 152.592H170.544H170.5C170.588 152.636 170.5 152.592 170.456 152.592C170.368 152.548 170.324 152.504 170.236 152.416L170.28 152.46C169.796 151.932 170.104 151.096 170.368 150.524C170.412 150.48 170.016 150.392 170.06 150.436C169.796 150.392 169.532 150.392 169.268 150.392C169.004 150.392 168.74 150.392 168.476 150.436C168.256 150.436 168.08 150.436 168.036 150.524Z" fill="#575757"/>
<path d="M170.984 163.592C174.812 155.144 180.708 147.796 188.1 142.208L188.98 141.548L189.464 141.196C189.64 141.064 189.464 141.196 189.42 141.196L189.772 140.976C190.432 140.536 191.048 140.096 191.708 139.7L191.62 139.744L191.884 139.568L192.368 139.26C192.72 139.04 193.028 138.864 193.38 138.688C193.424 138.644 193.556 138.6 193.6 138.556C193.468 138.732 193.292 138.732 193.512 138.6L194.04 138.336C194.392 138.16 194.7 137.984 195.052 137.808C195.14 137.764 195.448 137.588 195.14 137.764C194.832 137.94 195.184 137.72 195.228 137.72L195.844 137.412C196.24 137.236 196.636 137.016 197.032 136.84L196.944 136.884L197.252 136.752L197.868 136.488L199.1 136.004L199.452 135.872L200.068 135.652C200.464 135.52 200.904 135.344 201.3 135.212C202.092 134.948 202.884 134.684 203.676 134.464C204.644 134.156 205.568 133.716 206.404 133.144C206.624 133.012 207.152 132.748 207.196 132.484C207.24 132.22 207.064 132.308 206.888 132.352C199.848 134.332 193.248 137.5 187.264 141.68C181.676 145.552 176.792 150.304 172.788 155.76C170.588 158.796 168.696 162.008 167.156 165.44C166.936 165.88 168.608 165.132 168.696 165.088C169.224 164.868 169.708 164.56 170.192 164.252C170.456 164.12 170.852 163.9 170.984 163.592Z" fill="#575757"/>
</svg>
