<svg width="218" height="166" viewBox="0 0 218 166" fill="none" xmlns="http://www.w3.org/2000/svg">
<path d="M200.414 7.3635L200.391 7.34619L213.099 4.16348L206.59 13.5603L206.581 13.5725L206.573 13.5849L206.5 13.6955L206.495 13.7029L206.49 13.7103C193.198 34.213 179.83 54.8305 165.911 76.2836C165.449 76.3255 164.83 76.3867 164.073 76.4732C162.312 76.6746 159.804 77.0132 156.791 77.5634C150.772 78.6627 142.703 80.6132 134.535 84.0224C118.235 90.8257 101.261 103.577 99.8703 127.187C99.8495 127.34 99.8409 127.476 99.8358 127.585C99.7592 128.614 99.7337 129.638 99.7623 130.68C99.7599 131.121 99.771 131.582 99.8011 132.039C100.051 140.899 102.402 151.067 107.477 162.761C107.173 162.778 106.87 162.795 106.567 162.812C89.1823 163.797 71.9822 164.772 55.5893 159.682L55.5888 159.682C22.6514 149.463 1.73192 126.235 2.48893 100.6L2.48896 100.599C3.25293 74.141 25.7463 51.0841 60.0221 42.5C82.8387 36.7859 105.656 31.0773 128.472 25.3691L128.473 25.3687C151.288 19.6607 174.102 13.9529 196.912 8.24047L200.414 7.3635Z" stroke="white" stroke-opacity="0.5" stroke-width="4"/>
</svg>
