<svg width="218" height="166" viewBox="0 0 218 166" fill="none" xmlns="http://www.w3.org/2000/svg">
<path d="M212.932 49.0851L212.938 49.0856C222.165 83.098 200.356 113.272 157.05 124.236L157.05 124.237C124.006 132.611 90.9181 140.871 57.8271 149.133C42.7179 152.905 27.6081 156.677 12.5016 160.46L5.1015 162.314C13.2608 150.093 21.2317 138.315 29.0478 126.769L29.5395 126.042C37.9491 113.62 46.1805 101.46 54.2691 89.3109C54.8679 89.2537 55.7352 89.1628 56.8289 89.0263C59.0207 88.7526 62.1251 88.2955 65.801 87.5595C73.1423 86.0895 82.8154 83.4966 92.0582 78.9996C101.298 74.5042 110.193 68.0641 115.846 58.8594C121.52 49.62 123.856 37.708 120.169 22.4554L120.168 22.4488C120.15 22.3755 120.13 22.2936 120.109 22.2056C120.05 21.9557 119.979 21.6575 119.898 21.3733C119.75 20.7597 119.585 20.1356 119.388 19.503C119.383 19.4849 119.378 19.4634 119.371 19.4394C119.364 19.4152 119.355 19.3866 119.344 19.3543C117.878 14.2262 115.761 8.75032 112.888 2.89754C113.687 2.87167 114.447 2.84799 115.173 2.82533C118.264 2.72893 120.766 2.65092 123.239 2.5005L123.242 2.50029C166.489 -0.19871 205.194 20.5974 212.932 49.0851Z" stroke="white" stroke-opacity="0.5" stroke-width="4"/>
</svg>
