<svg width="215" height="215" viewBox="0 0 215 215" fill="none" xmlns="http://www.w3.org/2000/svg">
<path d="M62.7801 16.34H14.3621V78.303H62.7801V16.34Z" fill="white"/>
<path d="M61.8771 77.873H19.3931C17.4581 77.873 15.4801 77.787 13.5451 77.873H13.4591L15.3941 78.733V17.0709C15.3941 17.0279 15.3941 16.7269 15.3511 16.7269C15.4801 16.7269 15.6521 16.7269 15.7811 16.7269H63.7691L61.8341 15.8669V75.3359C61.7911 76.1529 61.7911 76.9269 61.8341 77.7439C61.8341 77.7869 61.8341 77.83 61.8341 77.83C61.8341 78.045 62.6081 78.3029 62.7371 78.3889C62.8231 78.4319 63.7691 78.7759 63.7691 78.6469V19.2639C63.8121 18.4469 63.8121 17.6729 63.7691 16.8559C63.7691 16.8129 63.7691 16.7699 63.7691 16.7699C63.7691 16.5549 63.0811 16.3399 62.9521 16.2539C62.6081 16.0819 62.2211 15.9529 61.8341 15.9099H14.1471C13.9321 15.8669 13.7171 15.8669 13.5021 15.9099C13.4591 15.9099 13.4591 15.9099 13.4161 15.9099H13.3731V75.3789C13.3301 76.1959 13.3301 76.9699 13.3731 77.7869C13.3731 77.8299 13.3731 77.873 13.3731 77.873C13.3731 78.088 14.0611 78.3029 14.1471 78.3889C14.4911 78.6039 14.8781 78.6899 15.2651 78.7759H62.9521C63.1671 78.8189 63.3821 78.8189 63.5971 78.7759C63.6401 78.7759 63.6401 78.7759 63.6831 78.7759C63.8551 78.7759 63.1241 78.346 63.0811 78.303C62.7371 78.045 62.3071 77.916 61.8771 77.873Z" fill="#575757"/>
<path d="M38.9151 21.2849H18.3611V45.0639H38.9151V21.2849Z" fill="#CD5357"/>
<path d="M32.2931 28.0359C32.2931 28.0359 30.5301 25.0259 26.3591 25.3699C22.1881 25.7139 20.4681 30.1429 21.0701 34.3999C21.6721 38.6569 23.3921 39.8609 23.3921 39.8609C23.3921 39.8609 21.1131 42.2689 21.4571 42.6989C21.8011 43.1289 27.3911 44.5909 30.3151 43.4729C33.2391 42.3549 31.8201 38.8719 31.8201 38.8719L32.2931 28.0359Z" fill="white"/>
<path d="M33.024 27.735C31.347 24.897 27.09 23.994 24.209 25.284C19.866 27.262 19.565 32.981 20.855 36.98C21.242 38.098 21.801 39.56 22.79 40.291V39.517C22.059 40.291 21.199 41.151 20.769 42.183C20.253 43.473 22.145 43.731 23.005 43.946C24.811 44.419 26.66 44.591 28.509 44.505C30.186 44.376 32.078 43.817 32.766 42.097C33.153 40.979 33.11 39.732 32.594 38.614L32.637 38.958L33.024 29.455L33.11 28.122C33.153 27.219 31.562 27.262 31.519 28.079L31.132 38.27C31.132 38.485 31.132 38.7 31.089 38.872C31.089 38.915 31.089 38.915 31.089 38.958C31.089 39.087 31.132 39.173 31.175 39.302C31.218 39.431 31.132 39.216 31.175 39.259C31.476 40.033 31.519 40.893 31.347 41.667C31.003 42.914 29.67 43.215 28.552 43.301C27.133 43.387 25.714 43.258 24.338 42.957C23.736 42.828 23.134 42.656 22.532 42.484C22.403 42.398 22.317 42.355 22.188 42.312C22.274 42.312 22.274 42.613 22.36 42.656C22.317 42.656 22.403 42.527 22.403 42.484C22.79 41.667 23.521 40.936 24.123 40.248C24.338 40.033 24.338 39.689 24.123 39.474C23.521 38.958 23.091 38.27 22.833 37.539C22.016 35.647 21.715 33.583 21.887 31.519C22.102 29.756 22.747 27.907 24.252 26.875C25.757 25.843 27.735 25.843 29.326 26.531C30.014 26.832 30.616 27.262 31.132 27.778C31.347 27.95 31.519 28.165 31.648 28.423C31.949 28.982 33.497 28.466 33.024 27.735Z" fill="#575757"/>
<path d="M31.863 27.95C32.723 29.541 32.852 30.1 33.325 30.96C33.669 31.519 34.314 31.863 34.959 31.863C37.109 32.121 37.496 32.723 36.851 33.11C36.077 33.54 34.099 33.884 34.099 33.884C34.658 35.862 33.755 37.969 31.906 38.872C31.906 38.872 30.487 39.775 28.036 37.238C26.273 35.389 26.445 31.648 26.445 31.648C26.445 31.648 29.971 28.552 31.863 27.95Z" fill="white"/>
<path d="M31.2181 27.52C31.7341 28.509 32.1211 29.584 32.6801 30.53C33.3681 31.562 34.4861 32.207 35.6901 32.379C36.0771 32.422 36.4211 32.508 36.7651 32.594C36.8941 32.637 37.0231 32.68 37.1521 32.723L36.4641 32.207C36.4641 32.25 36.5071 32.25 36.5071 32.293C36.4641 32.379 36.4641 32.465 36.3781 32.551C36.2491 32.68 36.0771 32.766 35.9051 32.809C35.1311 33.11 34.3141 33.325 33.4541 33.411V33.454C33.7551 34.486 33.6261 35.604 33.1531 36.55C32.5941 37.582 31.4761 38.743 30.1861 38.528C28.1651 38.184 27.4341 35.733 27.1761 33.97C27.1331 33.626 27.0901 33.282 27.0901 32.938C27.0471 32.68 27.0471 32.422 27.0901 32.207C27.1761 31.992 27.4771 31.777 27.6921 31.648C28.4231 31.046 29.1971 30.444 29.9711 29.928C30.7451 29.326 31.6051 28.853 32.5511 28.466C32.3791 28.251 32.1641 28.079 31.9491 27.907C31.7771 27.778 31.3901 27.434 31.2181 27.52C29.8851 27.907 28.6811 28.853 27.6061 29.713C27.1331 30.057 26.6601 30.444 26.2301 30.831C26.1011 30.917 25.8431 31.089 25.8001 31.218C25.7141 31.605 25.7141 31.992 25.8001 32.336C25.8431 33.024 25.9291 33.669 26.1011 34.314C26.5311 36.034 27.6061 37.238 29.0251 38.27C29.8851 38.872 31.0891 39.732 32.2501 39.431C33.2391 39.173 34.1421 38.141 34.5291 37.281C34.9161 36.421 35.0021 35.432 34.7871 34.486L34.7441 34.314C34.9161 34.314 35.0881 34.314 35.2171 34.271C35.9051 34.142 36.5931 33.97 37.2381 33.712C37.7111 33.497 37.9691 33.239 37.5821 32.809C36.9801 32.207 36.2491 31.777 35.3891 31.562C34.9161 31.433 34.4431 31.433 33.9701 31.304C33.8841 31.261 33.7981 31.261 33.7121 31.218C33.4541 31.132 33.5831 31.218 34.0991 31.519C34.0561 31.433 34.0131 31.347 33.9701 31.304C33.8841 31.175 33.7981 31.003 33.7551 30.874C33.3681 30.014 32.9811 29.197 32.5511 28.38C32.3361 28.122 32.0781 27.907 31.7771 27.735C31.6911 27.692 31.1751 27.434 31.2181 27.52Z" fill="#575757"/>
<path d="M31.9059 31.003C31.7339 31.046 31.6049 31.261 31.6909 31.433C31.6909 31.433 31.691 31.476 31.734 31.476C31.906 31.82 32.3359 31.605 32.2929 31.261C32.2929 31.089 32.164 30.96 31.992 30.96C31.9489 31.003 31.9059 31.003 31.9059 31.003Z" fill="#575757"/>
<path d="M31.089 34.873C31.347 35.174 31.648 35.432 31.992 35.647C32.293 35.819 32.594 35.905 32.938 35.991C33.411 36.034 33.884 35.991 34.314 35.819C34.529 35.733 34.658 35.475 34.572 35.26C34.572 35.217 34.572 35.217 34.529 35.217C34.357 35.002 34.056 34.959 33.798 35.088C33.927 35.045 33.798 35.088 33.755 35.088L33.626 35.131C33.583 35.131 33.54 35.131 33.497 35.131H33.454C33.368 35.131 33.325 35.131 33.239 35.131C33.153 35.131 33.325 35.131 33.239 35.131H33.11C33.067 35.131 32.981 35.088 32.895 35.088L32.809 35.045L32.68 34.873L32.594 34.83H32.551L32.594 34.873C32.422 34.744 32.25 34.615 32.121 34.486L32.078 34.4C32.121 34.443 32.207 34.529 32.078 34.4L32.035 34.357C31.863 34.142 31.562 34.099 31.304 34.228C31.089 34.314 30.917 34.615 31.089 34.873Z" fill="#575757"/>
<path d="M29.928 41.194C31.476 41.323 32.895 42.011 34.013 43.043C34.185 43.215 34.658 42.914 34.83 42.828C34.873 42.785 35.561 42.398 35.432 42.269C34.271 41.194 32.809 40.506 31.261 40.334C30.917 40.334 30.573 40.463 30.315 40.678C30.186 40.764 30.057 40.85 29.928 40.979C29.885 41.065 29.799 41.194 29.928 41.194Z" fill="#575757"/>
<path d="M22.102 41.323C21.543 41.968 21.113 42.699 20.812 43.473C20.812 43.559 20.812 43.645 20.855 43.731C20.941 43.903 21.027 44.075 21.113 44.247C21.199 44.419 21.328 44.591 21.457 44.72C21.457 44.72 21.629 44.935 21.629 44.892C21.93 44.118 22.36 43.387 22.919 42.742C22.962 42.699 22.876 42.527 22.876 42.484C22.79 42.312 22.704 42.14 22.618 41.968C22.618 41.925 22.188 41.28 22.102 41.323Z" fill="#575757"/>
<path d="M23.3062 40.0329C24.6392 40.0759 25.8432 40.6779 27.1332 40.8499C28.5522 41.0219 30.0142 40.7639 31.3042 40.0759C31.3902 40.0329 31.8202 39.8179 31.5192 39.7749C31.1322 39.7749 30.7882 39.9039 30.4442 40.0759C29.5842 40.5059 28.5092 40.2479 27.6492 40.0329C26.6602 39.6889 25.6282 39.4739 24.5962 39.3879C24.2092 39.4309 23.8652 39.5169 23.5212 39.6889C23.4352 39.7749 23.0052 40.0329 23.3062 40.0329Z" fill="#575757"/>
<path d="M45.365 33.5829C45.365 33.2819 45.408 32.9379 45.58 32.6799C45.666 32.5509 45.752 32.4649 45.838 32.3359C45.838 32.3359 45.967 32.2499 45.967 32.2069C45.967 32.1639 45.967 32.1209 45.795 32.2069C45.58 32.1639 45.537 32.1639 45.709 32.2929C45.838 32.6369 46.053 32.9809 46.139 33.2819C46.268 33.7119 46.397 34.0989 46.483 34.5289C46.87 36.2489 46.784 38.0549 46.311 39.7749C46.225 40.1189 45.838 41.4089 45.451 41.3229C45.408 41.3229 45.408 41.2799 45.365 41.1939C45.279 40.8929 45.58 40.3769 45.709 40.1619C46.354 38.9579 47.515 38.1409 48.891 37.9689C49.665 37.8399 50.439 38.3559 50.611 39.1299C50.912 40.1619 50.998 41.2799 50.826 42.3549L51.729 41.4519C51.944 41.5379 52.03 41.5379 51.987 41.4519V41.4089C52.03 41.3659 52.03 41.1939 52.073 41.1079C52.288 40.8069 52.546 40.5059 52.847 40.2909C53.019 40.1189 53.793 39.5169 53.922 40.0759C54.137 41.3229 56.201 40.7639 55.986 39.6029C55.814 38.6999 54.997 38.0119 54.094 37.9689C53.019 37.8399 52.073 38.4419 51.299 39.1729C50.525 39.9039 49.794 40.6349 49.88 41.7099C49.966 42.6559 50.783 43.3869 51.729 43.3009C51.815 43.3009 51.901 43.3009 51.987 43.2579C52.46 43.1719 52.804 42.7849 52.89 42.3549C53.105 40.9359 52.976 39.4739 52.503 38.0979C52.03 36.8079 50.783 35.9909 49.407 36.0769C46.827 36.1629 44.548 37.7539 43.559 40.1189C43.258 40.7209 43.172 41.4519 43.344 42.0969C43.559 42.6559 44.032 43.0429 44.634 43.1719C46.01 43.5159 47.171 42.5699 47.773 41.4089C48.977 39.0439 49.063 35.9479 48.375 33.4539C48.031 32.1639 47.386 29.9279 45.58 30.4009C44.032 30.7879 43.258 32.6369 43.301 34.0989C43.344 34.6579 44.032 34.8729 44.462 34.7869C45.021 34.6579 45.408 34.1419 45.365 33.5829Z" fill="#575757"/>
<path d="M19.565 55.1689H19.694C19.823 55.1689 19.952 55.1689 20.081 55.1259C20.21 55.1259 20.296 55.0399 20.425 54.9969C20.511 54.9539 20.597 54.8249 20.64 54.7389C20.683 54.6529 20.726 54.5239 20.726 54.4379L20.683 54.2229C20.64 54.0509 20.511 53.9219 20.382 53.8359L20.167 53.7069C19.995 53.6209 19.823 53.5779 19.608 53.5349H19.479C19.35 53.5349 19.221 53.5349 19.092 53.5779C18.963 53.5779 18.877 53.6639 18.748 53.7069C18.662 53.7499 18.576 53.8789 18.533 53.9649C18.49 54.0509 18.447 54.1799 18.447 54.2659L18.49 54.4809C18.533 54.6529 18.662 54.7819 18.791 54.8679L19.006 55.0399C19.178 55.1259 19.393 55.1689 19.565 55.1689Z" fill="#575757"/>
<path d="M24.8539 54.9969C25.4989 54.9969 26.1439 54.7389 26.6169 54.3089C26.9609 53.9649 27.3479 53.4489 27.1329 52.9329C26.9609 52.6749 26.7459 52.4599 26.4449 52.2879C26.1869 52.0729 25.6709 51.5999 25.2839 51.5569C24.6819 51.5139 24.7679 52.4169 24.8539 52.8039C25.0689 53.4489 25.7139 53.9219 26.2299 54.3089C26.8749 54.7819 27.6059 55.2119 28.4229 55.1689C29.5409 55.1259 31.2179 54.0509 30.2289 52.8039C30.0999 52.6319 28.6809 51.3849 28.5089 51.5999C27.5199 52.7179 29.7989 54.0939 30.5729 54.4809C31.0459 54.7389 31.7339 55.1259 32.2929 54.9969C33.0239 54.7819 33.0669 53.9219 33.1099 53.2769L31.3899 51.9869C31.3469 53.1909 32.7229 54.0509 33.6689 54.5669C34.3569 54.9969 35.2599 54.7389 35.6899 54.0509C35.7759 53.9219 35.8189 53.7499 35.8619 53.6209C35.9049 53.4059 35.2169 52.9759 35.0879 52.8899C34.7869 52.6749 34.4859 52.5029 34.1419 52.3739C34.0559 52.8469 33.7119 53.2769 33.2389 53.4489C33.1099 53.4919 32.9379 53.5349 32.8089 53.5349C32.5079 53.5349 32.2499 53.2769 32.9379 53.7929C33.6259 54.3089 33.3249 54.1369 33.2389 53.8359C33.1529 53.6639 33.1529 53.4919 33.1529 53.3199C33.1529 53.0619 32.5079 52.7179 32.3789 52.5889C32.2929 52.5459 31.4329 52.0299 31.4329 52.0729C31.4329 52.7609 31.2609 53.9219 30.2719 53.7929C30.0569 53.7499 29.8849 53.6639 29.6699 53.5779L29.5409 53.4919C30.2289 54.1369 30.4439 54.2659 30.2289 53.9219C30.1859 53.4919 30.0569 53.3199 30.3579 52.9329L28.6379 51.7289C29.4119 52.7179 28.2079 53.7069 27.3049 53.9219C27.0039 54.0079 26.7029 54.0079 26.4019 53.9649C26.1009 53.9219 25.7999 53.7069 26.4879 54.1799C27.1759 54.6529 26.8319 54.4809 26.7459 54.2229C26.6599 53.9649 26.5309 52.8039 27.0469 52.9329L25.7139 52.0729L25.7999 52.1159L25.4559 51.7719C25.7569 52.2449 25.3269 52.8039 24.9829 53.1049C24.5099 53.5349 23.9509 53.7499 23.3059 53.7499C23.1339 53.7499 23.7789 54.2659 23.8219 54.3089C23.9939 54.4809 24.5099 54.9969 24.8539 54.9969Z" fill="#575757"/>
<path d="M19.909 61.4469H20.038C20.167 61.4469 20.296 61.4469 20.425 61.4039C20.554 61.4039 20.64 61.3179 20.769 61.2749C20.855 61.2319 20.941 61.1029 20.984 61.0169C21.027 60.9309 21.07 60.8019 21.07 60.7159L21.027 60.5009C20.984 60.3289 20.855 60.1999 20.726 60.1139L20.511 59.9419C20.339 59.8559 20.167 59.8129 19.952 59.7699H19.823C19.694 59.7699 19.565 59.7699 19.436 59.8129C19.307 59.8129 19.221 59.8989 19.092 59.9419C19.006 59.9849 18.92 60.1139 18.877 60.1999C18.834 60.2859 18.791 60.4149 18.791 60.5009L18.834 60.7159C18.877 60.8879 19.006 61.0169 19.135 61.1029L19.35 61.2749C19.522 61.3609 19.737 61.4469 19.909 61.4469Z" fill="#575757"/>
<path d="M25.198 61.2749C25.843 61.2749 26.488 61.0169 26.961 60.5869C27.305 60.2429 27.692 59.7269 27.434 59.2109C27.262 58.9529 27.047 58.7379 26.746 58.5659C26.488 58.3509 25.972 57.8779 25.585 57.8349C24.983 57.7919 25.069 58.7379 25.155 59.0819C25.37 59.7269 26.015 60.1999 26.574 60.5869C27.262 61.0599 27.95 61.4899 28.81 61.4469C29.928 61.4039 31.605 60.3289 30.616 59.0819C30.487 58.9099 29.068 57.6629 28.896 57.8779C27.907 58.9959 30.186 60.3719 30.96 60.7589C31.433 61.0169 32.121 61.4039 32.637 61.2749C33.368 61.0599 33.411 60.1999 33.454 59.5549L31.734 58.3079C31.691 59.5119 33.067 60.3719 34.013 60.8879C34.701 61.3179 35.604 61.0599 36.034 60.3719C36.12 60.2429 36.163 60.0709 36.206 59.9419C36.249 59.7269 35.561 59.2969 35.432 59.2109C35.131 58.9959 34.83 58.8239 34.486 58.6949C34.4 59.2109 34.013 59.5979 33.54 59.7699C33.411 59.8129 33.239 59.8559 33.11 59.8559C32.809 59.8559 32.551 59.5979 33.239 60.1139C33.927 60.6299 33.626 60.4579 33.54 60.1569C33.497 59.9849 33.454 59.8129 33.454 59.5979C33.454 59.3399 32.809 58.9959 32.68 58.8669C32.594 58.8239 31.734 58.3079 31.734 58.3509C31.691 59.0389 31.562 60.2429 30.573 60.0709C30.358 60.0279 30.186 59.9419 29.971 59.8559L29.842 59.8129C30.53 60.4579 30.745 60.5869 30.53 60.2429C30.487 59.8129 30.358 59.6409 30.659 59.2539L28.939 58.0499C29.713 59.0819 28.509 60.0279 27.606 60.2429C27.305 60.3289 27.004 60.3289 26.703 60.2859C26.359 60.2429 26.101 60.0279 26.746 60.5009C27.391 60.9739 27.09 60.8019 27.004 60.5439C26.918 60.2859 26.789 59.1249 27.305 59.2539L25.972 58.3939L26.058 58.4369L25.714 58.0929C26.015 58.5659 25.585 59.1249 25.241 59.4259C24.811 59.8559 24.209 60.1139 23.607 60.1139C23.435 60.1139 24.08 60.6299 24.123 60.6729C24.338 60.7589 24.854 61.2749 25.198 61.2749Z" fill="#575757"/>
<path d="M19.995 68.069H20.124C20.253 68.069 20.382 68.069 20.511 68.026C20.64 68.026 20.726 67.94 20.855 67.897C20.941 67.854 21.027 67.725 21.07 67.639C21.113 67.553 21.156 67.424 21.156 67.338L21.07 67.08C21.027 66.908 20.898 66.779 20.769 66.693L20.554 66.521C20.382 66.435 20.21 66.392 19.995 66.349H19.866C19.737 66.349 19.608 66.349 19.479 66.392C19.35 66.392 19.264 66.478 19.135 66.521C19.049 66.564 18.963 66.693 18.92 66.779C18.877 66.865 18.834 66.994 18.834 67.08L18.877 67.295C18.92 67.467 19.049 67.596 19.178 67.682L19.393 67.854C19.608 67.983 19.78 68.026 19.995 68.069Z" fill="#575757"/>
<path d="M25.2841 67.8539C25.9291 67.8539 26.5741 67.5959 27.0471 67.1659C27.3911 66.8219 27.7781 66.3059 27.5201 65.7899C27.3481 65.5319 27.1331 65.3169 26.8321 65.1449C26.5741 64.9299 26.0581 64.4569 25.6711 64.4139C25.0691 64.3709 25.1551 65.3169 25.2411 65.6609C25.4561 66.3059 26.1011 66.7789 26.6601 67.1659C27.3051 67.6389 28.0361 68.0689 28.8531 68.0259C29.9711 67.9829 31.6481 66.9079 30.6591 65.6609C30.5301 65.4889 29.1111 64.2419 28.9391 64.4569C27.9501 65.5749 30.2291 66.9509 31.0031 67.3379C31.4761 67.5959 32.1641 67.9829 32.6801 67.8539C33.4111 67.6389 33.4541 66.7789 33.4971 66.1339L31.7771 64.8869C31.7341 66.0909 33.1101 66.9509 34.0561 67.4669C34.7441 67.8969 35.6471 67.6389 36.0771 66.9509C36.1631 66.8219 36.2061 66.6499 36.2491 66.5209C36.2921 66.3059 35.6041 65.8759 35.4751 65.7899C35.1741 65.5749 34.8731 65.4029 34.5291 65.2739C34.4431 65.7899 34.0991 66.1769 33.6261 66.3489C33.4971 66.3919 33.3251 66.4349 33.1961 66.4349C32.8951 66.4349 32.6371 66.1769 33.3251 66.6929C34.0131 67.2089 33.7121 67.0369 33.6261 66.7359C33.5831 66.5639 33.5401 66.3919 33.5401 66.1769C33.5401 65.9189 32.9381 65.5749 32.7661 65.4459C32.6801 65.4029 31.8201 64.8869 31.8201 64.9299C31.8201 65.6179 31.6481 66.8219 30.6591 66.6499C30.4441 66.6069 30.2721 66.5209 30.0571 66.4349L29.9281 66.3919C30.6161 67.0369 30.8311 67.1659 30.6161 66.7789C30.5731 66.3919 30.4441 66.1769 30.7451 65.7899L29.0251 64.5859C29.7991 65.6179 28.5951 66.5639 27.6921 66.7789C27.3911 66.8649 27.0901 66.8649 26.7891 66.8219C26.4881 66.7789 26.1871 66.5639 26.8321 67.0369C27.4771 67.5099 27.1761 67.3379 27.0901 67.0799C27.0041 66.8219 26.8751 65.6609 27.4341 65.7899L26.1011 64.9299L26.1871 64.9729L25.8431 64.6289C26.1441 65.1019 25.7141 65.6609 25.3701 65.9619C24.9401 66.3919 24.3381 66.6499 23.7361 66.6499C23.5641 66.6499 24.2091 67.1659 24.2521 67.2089C24.4241 67.3379 24.9401 67.8969 25.2841 67.8539Z" fill="#575757"/>
<path d="M42.6131 54.8679H42.7421C42.8711 54.8679 43.0001 54.8679 43.1291 54.8249C43.2581 54.8249 43.3441 54.7389 43.4731 54.6959C43.5591 54.6529 43.6451 54.5669 43.6881 54.4379C43.7311 54.3519 43.7741 54.2229 43.7741 54.0939L43.7311 53.8789C43.6881 53.7069 43.5591 53.5779 43.4301 53.4919L43.2151 53.3629C43.0431 53.2769 42.8711 53.2339 42.6561 53.1909H42.5271C42.3981 53.1909 42.2691 53.1909 42.1401 53.2339C42.0111 53.2339 41.9251 53.3199 41.7961 53.3629C41.7101 53.4059 41.6241 53.5349 41.5811 53.6209C41.5381 53.7069 41.4951 53.8359 41.4951 53.9219L41.5381 54.1369C41.5811 54.2659 41.7101 54.4379 41.8391 54.5239L42.0541 54.6529C42.2261 54.8249 42.4411 54.8679 42.6131 54.8679Z" fill="#575757"/>
<path d="M47.9021 54.6959C48.5471 54.6959 49.1921 54.4379 49.6651 54.0079C50.0091 53.6639 50.3961 53.1479 50.1381 52.6319C49.9661 52.3739 49.7511 52.1589 49.4501 51.9869C49.1921 51.7719 48.6761 51.2989 48.2891 51.2559C47.6871 51.2129 47.7731 52.1589 47.8591 52.5029C48.0741 53.1479 48.7191 53.6209 49.2781 54.0079C49.8801 54.5239 50.6541 54.8679 51.4711 54.8679C52.5891 54.8249 54.2661 53.7499 53.2771 52.5029C53.1481 52.3309 51.7291 51.0839 51.5571 51.2989C50.5681 52.4169 52.8471 53.7929 53.6211 54.1799C54.0941 54.4379 54.7821 54.8249 55.2981 54.6959C56.0291 54.4809 56.0721 53.6209 56.1151 52.9759L54.3951 51.7289C54.3521 52.9329 55.7281 53.7929 56.6741 54.3089C57.3621 54.7389 58.2651 54.4809 58.6951 53.7929C58.7811 53.6639 58.8241 53.4919 58.8671 53.3629C58.9101 53.1479 58.2221 52.7179 58.0501 52.6319C57.7491 52.4169 57.4481 52.2449 57.1041 52.1159C57.0181 52.5889 56.6741 53.0189 56.2011 53.1909C56.0721 53.2339 55.9001 53.2769 55.7711 53.2769C55.4701 53.2769 55.2121 53.0189 55.9001 53.5349C56.5881 54.0509 56.2871 53.8789 56.1581 53.5779C56.1151 53.4059 56.0721 53.2339 56.0721 53.0189C56.0721 52.7609 55.4701 52.4169 55.2551 52.2879C55.1691 52.2449 54.3091 51.7289 54.3091 51.7719C54.3091 52.4599 54.1371 53.6209 53.1481 53.4919C52.9331 53.4489 52.7611 53.3629 52.5461 53.2769L52.4171 53.1909C53.1051 53.8359 53.3201 53.9649 53.1051 53.6209C53.0621 53.1909 52.9331 53.0189 53.2341 52.6319L51.5141 51.4279C52.2881 52.4169 51.0841 53.4059 50.1811 53.6209C49.8801 53.7069 49.5791 53.7069 49.2781 53.6639C48.9771 53.6209 48.6761 53.4059 49.3211 53.8789C49.9661 54.3519 49.6651 54.1799 49.5791 53.9219C49.4931 53.6639 49.3211 52.5029 49.9231 52.6319L48.5901 51.7719L48.6761 51.8149L48.3321 51.4709C48.6331 51.9439 48.2031 52.5029 47.8591 52.8039C47.4291 53.2339 46.8271 53.4919 46.2251 53.4919C46.0531 53.4919 46.6981 54.0079 46.7411 54.0509C47.0421 54.2229 47.5581 54.7389 47.9021 54.6959Z" fill="#575757"/>
<path d="M42.9571 61.146H43.0861C43.2151 61.146 43.3441 61.146 43.4731 61.103C43.6021 61.103 43.6881 61.017 43.8171 60.974C43.9031 60.931 43.9891 60.845 44.0321 60.716C44.0751 60.63 44.1181 60.501 44.1181 60.415L44.0751 60.2C44.0321 60.028 43.9031 59.899 43.7741 59.813L43.5591 59.641C43.3871 59.555 43.2151 59.512 43.0001 59.469H42.8711C42.7421 59.469 42.6131 59.469 42.4841 59.512C42.3551 59.512 42.2691 59.598 42.1401 59.641C42.0541 59.684 41.9681 59.813 41.9251 59.899C41.8821 59.985 41.8391 60.114 41.8391 60.2L41.8821 60.415C41.9251 60.587 42.0541 60.716 42.1831 60.802L42.3981 60.974C42.5701 61.06 42.7851 61.146 42.9571 61.146Z" fill="#575757"/>
<path d="M48.2461 60.9739C48.8911 60.9739 49.5361 60.7159 50.0091 60.2859C50.3531 59.9419 50.7401 59.4259 50.4821 58.9099C50.3101 58.6519 50.0951 58.4369 49.7941 58.2649C49.5361 58.0499 49.0201 57.5769 48.6331 57.5339C48.0311 57.4909 48.1171 58.4369 48.2031 58.7809C48.4181 59.4259 49.0631 59.8989 49.6221 60.2859C50.2671 60.7589 50.9981 61.1889 51.8151 61.1459C52.9331 61.1029 54.6101 60.0279 53.6211 58.7809C53.4921 58.6089 52.0731 57.3619 51.9011 57.5769C50.9121 58.6949 53.1911 60.0709 53.9651 60.4579C54.4381 60.7159 55.1261 61.1029 55.6421 60.9739C56.3731 60.7589 56.4161 59.8989 56.4591 59.2539L54.7391 58.0069C54.6961 59.2109 56.0721 60.0709 57.0181 60.5869C57.7061 61.0169 58.6091 60.7589 59.0391 60.0709C59.1251 59.9419 59.1681 59.7699 59.2111 59.6409C59.2541 59.4259 58.5661 58.9959 58.3941 58.9099C58.0931 58.6949 57.7921 58.5229 57.4481 58.3939C57.3621 58.8669 57.0181 59.2969 56.5451 59.4689C56.4161 59.5119 56.2441 59.5549 56.1151 59.5549C55.8141 59.5549 55.5131 59.2969 56.2441 59.8129C56.9751 60.3289 56.6311 60.1569 56.5021 59.8559C56.4591 59.6839 56.4161 59.5119 56.4161 59.2969C56.4161 59.0389 55.8141 58.6949 55.5991 58.5659C55.5131 58.5229 54.6531 58.0069 54.6531 58.0499C54.6531 58.7379 54.4811 59.8989 53.4921 59.7699C53.2771 59.7269 53.1051 59.6409 52.8901 59.5549L52.7611 59.5119C53.4491 60.1569 53.6641 60.2859 53.4491 59.9419C53.4061 59.5119 53.2771 59.3399 53.5781 58.9529L51.8581 57.7489C52.6321 58.7809 51.4281 59.7269 50.5251 59.9419C50.2241 60.0279 49.9231 60.0279 49.6221 59.9849C49.3211 59.9419 49.0201 59.7269 49.6651 60.1999C50.3101 60.6729 50.0091 60.5009 49.9231 60.2429C49.8371 59.9849 49.6651 58.8239 50.2671 58.9529L48.9341 58.0929L49.0201 58.1359L48.6761 57.7919C48.9771 58.2649 48.5471 58.8239 48.2031 59.1249C47.7731 59.5549 47.1711 59.8129 46.5691 59.8129C46.3971 59.8129 47.0421 60.3289 47.0851 60.3719C47.3861 60.4579 47.9021 61.0169 48.2461 60.9739Z" fill="#575757"/>
<path d="M43.043 67.7679H43.172C43.301 67.7679 43.4301 67.7679 43.5591 67.7249C43.6881 67.7249 43.774 67.6389 43.903 67.5959C43.989 67.5529 44.075 67.4239 44.118 67.3379C44.161 67.2519 44.2041 67.1229 44.2041 67.0369L44.161 66.8219C44.118 66.6499 43.989 66.5209 43.86 66.4349L43.645 66.2629C43.473 66.1769 43.301 66.1339 43.086 66.0909H42.957C42.828 66.0909 42.699 66.0909 42.57 66.1339C42.441 66.1339 42.355 66.2199 42.226 66.2629C42.14 66.3059 42.054 66.4349 42.011 66.5209C41.968 66.6069 41.925 66.7359 41.925 66.8219L41.968 67.0369C42.011 67.2089 42.1401 67.3379 42.2691 67.4239L42.4841 67.5959C42.6561 67.6819 42.828 67.7249 43.043 67.7679Z" fill="#575757"/>
<path d="M48.332 67.553C48.977 67.553 49.622 67.295 50.095 66.865C50.439 66.521 50.826 66.005 50.611 65.489C50.439 65.231 50.224 65.016 49.923 64.844C49.665 64.629 49.149 64.156 48.762 64.113C48.16 64.07 48.203 65.016 48.332 65.36C48.547 66.005 49.192 66.478 49.708 66.865C50.353 67.338 51.084 67.768 51.901 67.725C53.019 67.682 54.696 66.607 53.707 65.36C53.578 65.188 52.159 63.941 51.987 64.156C50.998 65.274 53.277 66.65 54.051 67.037C54.524 67.295 55.212 67.682 55.728 67.553C56.459 67.338 56.545 66.478 56.545 65.833L54.825 64.586C54.782 65.79 56.158 66.65 57.104 67.166C57.792 67.596 58.695 67.338 59.125 66.65C59.211 66.521 59.254 66.349 59.297 66.22C59.34 66.005 58.652 65.575 58.523 65.489C58.222 65.274 57.921 65.102 57.577 64.973C57.491 65.446 57.147 65.876 56.674 66.048C56.545 66.091 56.373 66.134 56.244 66.134C55.943 66.134 55.642 65.876 56.373 66.392C57.104 66.908 56.76 66.736 56.674 66.435C56.631 66.263 56.588 66.091 56.588 65.876C56.588 65.618 55.986 65.274 55.814 65.145C55.728 65.102 54.868 64.586 54.868 64.629C54.825 65.317 54.696 66.478 53.707 66.349C53.492 66.306 53.32 66.22 53.105 66.134L52.976 66.091C53.664 66.736 53.879 66.865 53.664 66.478C53.621 66.091 53.492 65.876 53.793 65.489L52.073 64.285C52.847 65.317 51.643 66.263 50.74 66.478C50.439 66.564 50.138 66.564 49.837 66.521C49.536 66.478 49.235 66.263 49.88 66.736C50.525 67.209 50.267 67.037 50.138 66.779C50.009 66.521 49.88 65.36 50.482 65.489L49.149 64.629L49.235 64.672L48.891 64.328C49.192 64.801 48.762 65.36 48.418 65.661C47.988 66.091 47.386 66.349 46.784 66.349C46.612 66.349 47.257 66.865 47.3 66.908C47.429 67.08 47.988 67.596 48.332 67.553Z" fill="#575757"/>
<path d="M200.638 109.865H152.22V171.828H200.638V109.865Z" fill="white"/>
<path d="M201.455 171.441H153.768C153.553 171.398 153.338 171.398 153.123 171.441H153.037L153.209 171.527V112.058C153.209 111.241 153.252 110.424 153.209 109.65C153.209 109.607 153.209 109.564 153.209 109.564L151.317 110.295H199.004C199.219 110.338 199.434 110.338 199.649 110.295H199.735L199.563 110.209V171.269C199.52 171.527 199.52 171.828 199.563 172.086C199.563 172.129 199.563 172.172 199.563 172.172C199.563 172.344 201.627 172.043 201.627 171.527V110.467C201.67 110.209 201.67 109.908 201.627 109.65C201.627 109.607 201.627 109.564 201.627 109.564C201.584 109.521 201.498 109.478 201.455 109.478H153.037C152.607 109.478 152.22 109.564 151.833 109.736C151.661 109.822 151.145 109.951 151.145 110.209V171.269C151.102 171.527 151.102 171.828 151.145 172.086C151.145 172.129 151.145 172.172 151.145 172.172C151.188 172.215 151.274 172.258 151.317 172.258H199.735C200.251 172.258 200.724 172.129 201.154 171.914C201.326 171.828 201.928 171.441 201.455 171.441Z" fill="#575757"/>
<path d="M176.773 114.81H156.219V138.589H176.773V114.81Z" fill="#CD5357"/>
<path d="M183.18 127.151C183.18 126.85 183.223 126.506 183.395 126.248C183.438 126.119 183.567 126.033 183.653 125.904C183.653 125.904 183.782 125.818 183.782 125.775C183.782 125.732 183.782 125.689 183.567 125.775C183.352 125.732 183.309 125.732 183.481 125.861C183.61 126.205 183.825 126.506 183.911 126.85C184.04 127.28 184.169 127.667 184.255 128.097C184.642 129.817 184.556 131.623 184.083 133.343C183.997 133.687 183.61 134.977 183.223 134.891C183.18 134.891 183.18 134.848 183.137 134.762C183.051 134.461 183.352 133.945 183.481 133.687C184.126 132.483 185.287 131.666 186.663 131.494C187.437 131.365 188.211 131.881 188.383 132.655C188.684 133.687 188.77 134.805 188.598 135.88L189.501 134.977C189.716 135.063 189.802 135.063 189.759 134.977V134.934C189.802 134.891 189.802 134.719 189.845 134.633C190.06 134.332 190.318 134.031 190.619 133.816C190.791 133.644 191.565 133.042 191.694 133.601C191.909 134.848 193.973 134.289 193.758 133.128C193.586 132.225 192.769 131.537 191.866 131.494C190.791 131.365 189.845 131.967 189.071 132.698C188.297 133.429 187.566 134.203 187.652 135.235C187.738 136.181 188.555 136.912 189.501 136.826C189.587 136.826 189.673 136.826 189.759 136.783C190.232 136.697 190.576 136.31 190.662 135.88C190.877 134.461 190.748 132.999 190.275 131.623C189.802 130.333 188.555 129.516 187.179 129.602C184.599 129.688 182.32 131.279 181.331 133.644C181.03 134.246 180.944 134.977 181.116 135.622C181.331 136.181 181.804 136.568 182.406 136.697C183.782 137.041 184.943 136.052 185.545 134.934C186.749 132.569 186.835 129.516 186.147 126.979C185.803 125.689 185.158 123.453 183.352 123.926C181.804 124.313 180.987 126.162 181.073 127.624C181.116 128.183 181.761 128.398 182.234 128.312C182.836 128.183 183.223 127.71 183.18 127.151Z" fill="#575757"/>
<path d="M157.423 148.737H157.552C157.681 148.737 157.81 148.737 157.939 148.694C158.068 148.694 158.154 148.608 158.283 148.565C158.369 148.522 158.455 148.436 158.498 148.307C158.541 148.221 158.584 148.092 158.584 147.963L158.541 147.748C158.498 147.576 158.369 147.447 158.24 147.361L158.025 147.189C157.853 147.103 157.681 147.06 157.466 147.017H157.337C157.208 147.017 157.079 147.017 156.95 147.06C156.821 147.06 156.735 147.146 156.606 147.189C156.52 147.232 156.434 147.361 156.391 147.447C156.348 147.533 156.305 147.662 156.305 147.748L156.348 147.963C156.391 148.135 156.52 148.264 156.649 148.35L156.864 148.522C157.036 148.651 157.208 148.694 157.423 148.737Z" fill="#575757"/>
<path d="M162.712 148.522C163.357 148.522 164.002 148.264 164.475 147.834C164.819 147.49 165.206 146.974 164.948 146.458C164.776 146.2 164.518 145.985 164.26 145.813C164.002 145.598 163.443 145.125 163.099 145.082C162.497 145.039 162.583 145.942 162.669 146.329C162.884 146.974 163.529 147.447 164.088 147.834C164.69 148.35 165.464 148.694 166.281 148.694C167.399 148.651 169.076 147.576 168.087 146.329C167.958 146.157 166.539 144.91 166.367 145.125C165.378 146.243 167.657 147.619 168.431 148.006C168.904 148.264 169.592 148.651 170.151 148.522C170.882 148.307 170.925 147.447 170.968 146.802L169.248 145.512C169.205 146.716 170.581 147.576 171.527 148.092C172.215 148.522 173.118 148.307 173.548 147.576C173.634 147.447 173.677 147.275 173.72 147.146C173.763 146.931 173.075 146.501 172.903 146.415C172.602 146.2 172.301 146.028 171.957 145.899C171.871 146.372 171.527 146.802 171.054 146.974C170.925 147.017 170.753 147.06 170.624 147.06C170.323 147.06 170.065 146.802 170.753 147.318C171.441 147.834 171.14 147.662 171.011 147.361C170.968 147.189 170.925 147.017 170.925 146.802C170.925 146.544 170.28 146.2 170.108 146.071C170.022 146.028 169.162 145.512 169.162 145.555C169.162 146.243 168.99 147.404 168.001 147.275C167.786 147.232 167.614 147.146 167.399 147.06L167.27 147.017C167.958 147.662 168.173 147.791 167.958 147.447C167.915 147.017 167.786 146.845 168.087 146.458L166.367 145.254C167.141 146.286 165.937 147.232 165.034 147.447C164.733 147.533 164.432 147.533 164.131 147.49C163.83 147.447 163.529 147.232 164.174 147.705C164.819 148.178 164.561 148.006 164.432 147.748C164.303 147.49 164.217 146.329 164.733 146.458L163.4 145.598L163.443 145.641L163.099 145.297C163.4 145.77 162.97 146.329 162.626 146.63C162.196 147.06 161.594 147.318 160.992 147.318C160.82 147.318 161.465 147.834 161.508 147.877C161.809 148.006 162.368 148.522 162.712 148.522Z" fill="#575757"/>
<path d="M157.767 154.972H157.896C158.025 154.972 158.154 154.972 158.283 154.929C158.412 154.929 158.498 154.843 158.627 154.8C158.713 154.757 158.799 154.628 158.842 154.542C158.885 154.456 158.928 154.327 158.928 154.241L158.885 154.026C158.842 153.854 158.713 153.725 158.584 153.639L158.369 153.467C158.197 153.381 158.025 153.338 157.81 153.295H157.681C157.552 153.295 157.423 153.295 157.294 153.338C157.165 153.338 157.079 153.424 156.95 153.467C156.864 153.51 156.778 153.639 156.735 153.725C156.692 153.811 156.649 153.94 156.649 154.026L156.692 154.241C156.735 154.413 156.864 154.542 156.993 154.628L157.208 154.8C157.38 154.929 157.552 154.972 157.767 154.972Z" fill="#575757"/>
<path d="M163.056 154.8C163.701 154.8 164.346 154.542 164.819 154.112C165.163 153.768 165.55 153.252 165.292 152.736C165.12 152.478 164.905 152.263 164.604 152.091C164.346 151.876 163.83 151.403 163.443 151.36C162.841 151.317 162.927 152.22 163.013 152.607C163.228 153.252 163.873 153.725 164.432 154.112C165.077 154.585 165.808 155.015 166.625 154.972C167.743 154.929 169.42 153.854 168.431 152.607C168.302 152.435 166.883 151.188 166.711 151.403C165.722 152.521 168.001 153.897 168.775 154.284C169.248 154.542 169.936 154.929 170.452 154.8C171.183 154.585 171.226 153.725 171.269 153.08L169.549 151.79C169.506 152.994 170.882 153.854 171.828 154.37C172.516 154.8 173.419 154.542 173.849 153.854C173.935 153.725 173.978 153.553 174.021 153.424C174.064 153.209 173.376 152.779 173.204 152.693C172.903 152.478 172.602 152.306 172.258 152.177C172.172 152.65 171.828 153.08 171.355 153.252C171.226 153.295 171.054 153.338 170.925 153.338C170.624 153.338 170.366 153.08 171.054 153.596C171.742 154.112 171.441 153.94 171.312 153.639C171.269 153.467 171.226 153.295 171.226 153.08C171.226 152.822 170.581 152.478 170.409 152.349C170.323 152.306 169.463 151.79 169.463 151.833C169.463 152.521 169.291 153.682 168.302 153.553C168.087 153.51 167.915 153.424 167.7 153.338L167.571 153.295C168.259 153.94 168.474 154.069 168.259 153.725C168.216 153.295 168.087 153.123 168.388 152.736L166.668 151.532C167.442 152.564 166.238 153.51 165.335 153.725C165.034 153.811 164.733 153.811 164.432 153.768C164.131 153.725 163.83 153.51 164.475 153.983C165.12 154.456 164.862 154.284 164.733 154.026C164.604 153.768 164.518 152.607 165.077 152.736L163.744 151.876L163.787 151.919L163.443 151.575C163.744 152.048 163.314 152.607 162.97 152.908C162.54 153.338 161.938 153.596 161.336 153.596C161.164 153.596 161.809 154.112 161.852 154.155C162.153 154.284 162.712 154.8 163.056 154.8Z" fill="#575757"/>
<path d="M157.81 161.594H157.939C158.068 161.594 158.197 161.594 158.326 161.551C158.455 161.551 158.541 161.465 158.67 161.422C158.842 161.293 158.971 161.078 158.971 160.863L158.928 160.648C158.885 160.476 158.756 160.347 158.627 160.261L158.412 160.089C158.24 160.003 158.068 159.96 157.853 159.917H157.724C157.595 159.917 157.466 159.917 157.337 159.96C157.208 159.96 157.122 160.046 156.993 160.089C156.907 160.132 156.821 160.261 156.778 160.347C156.735 160.433 156.692 160.562 156.692 160.648L156.735 160.863C156.778 160.992 156.907 161.164 157.036 161.25L157.251 161.422C157.423 161.508 157.638 161.594 157.81 161.594Z" fill="#575757"/>
<path d="M163.099 161.422C163.744 161.422 164.389 161.164 164.862 160.734C165.206 160.39 165.593 159.874 165.335 159.358C165.163 159.1 164.948 158.885 164.647 158.713C164.389 158.498 163.873 158.025 163.486 157.982C162.884 157.939 162.97 158.842 163.056 159.229C163.271 159.874 163.916 160.347 164.475 160.734C165.12 161.207 165.851 161.637 166.668 161.594C167.786 161.551 169.463 160.476 168.474 159.229C168.345 159.057 166.926 157.81 166.754 158.025C165.765 159.143 168.044 160.519 168.818 160.906C169.291 161.164 169.979 161.551 170.495 161.422C171.226 161.207 171.269 160.347 171.312 159.702L169.592 158.412C169.549 159.616 170.925 160.476 171.871 160.992C172.559 161.422 173.462 161.164 173.892 160.476C173.978 160.347 174.021 160.175 174.064 160.046C174.107 159.831 173.419 159.401 173.247 159.315C172.946 159.1 172.645 158.928 172.301 158.799C172.215 159.272 171.871 159.702 171.398 159.874C171.269 159.917 171.097 159.96 170.968 159.96C170.667 159.96 170.366 159.702 171.097 160.218C171.828 160.734 171.484 160.562 171.355 160.261C171.312 160.089 171.269 159.917 171.269 159.702C171.269 159.444 170.624 159.1 170.452 158.971C170.366 158.928 169.506 158.412 169.506 158.455C169.506 159.143 169.334 160.304 168.345 160.175C168.13 160.132 167.958 160.046 167.743 159.96L167.614 159.917C168.302 160.562 168.517 160.691 168.302 160.347C168.259 159.917 168.13 159.745 168.431 159.358L166.711 158.154C167.485 159.186 166.281 160.132 165.378 160.347C165.077 160.433 164.776 160.433 164.475 160.39C164.174 160.347 163.873 160.132 164.518 160.605C165.163 161.078 164.905 160.906 164.776 160.648C164.647 160.39 164.561 159.229 165.12 159.358L163.787 158.498L163.83 158.541L163.486 158.197C163.787 158.67 163.357 159.229 163.013 159.53C162.583 159.96 161.981 160.218 161.379 160.218C161.207 160.218 161.852 160.734 161.895 160.777C162.239 160.906 162.755 161.422 163.099 161.422Z" fill="#575757"/>
<path d="M180.471 148.393H180.6C180.729 148.393 180.858 148.393 180.987 148.35C181.116 148.35 181.202 148.264 181.331 148.221C181.417 148.178 181.503 148.049 181.546 147.963C181.589 147.877 181.632 147.748 181.632 147.662L181.589 147.447C181.546 147.275 181.417 147.146 181.288 147.06L181.073 146.888C180.901 146.802 180.729 146.759 180.514 146.716H180.385C180.256 146.716 180.127 146.716 179.998 146.759C179.869 146.759 179.783 146.845 179.654 146.888C179.568 146.931 179.482 147.017 179.439 147.146C179.396 147.232 179.353 147.361 179.353 147.49L179.396 147.705C179.439 147.877 179.568 148.006 179.697 148.092L179.912 148.264C180.084 148.35 180.256 148.393 180.471 148.393Z" fill="#575757"/>
<path d="M185.76 148.221C186.405 148.221 187.007 147.963 187.48 147.533C187.824 147.189 188.211 146.673 187.953 146.157C187.781 145.899 187.566 145.684 187.265 145.512C187.007 145.297 186.491 144.824 186.104 144.781C185.502 144.738 185.588 145.641 185.674 146.028C185.889 146.673 186.534 147.146 187.093 147.533C187.695 148.049 188.469 148.393 189.286 148.393C190.404 148.35 192.081 147.275 191.092 146.028C190.963 145.856 189.544 144.609 189.372 144.824C188.383 145.942 190.662 147.318 191.436 147.705C191.909 147.963 192.597 148.35 193.113 148.221C193.844 148.006 193.887 147.146 193.93 146.501L192.21 145.211C192.167 146.415 193.543 147.275 194.489 147.791C195.177 148.221 196.08 148.006 196.51 147.275C196.596 147.146 196.639 146.974 196.682 146.845C196.725 146.63 196.037 146.2 195.865 146.114C195.564 145.899 195.263 145.727 194.919 145.598C194.833 146.114 194.489 146.501 194.016 146.673C193.887 146.716 193.715 146.759 193.586 146.759C193.285 146.759 193.027 146.501 193.715 147.017C194.403 147.533 194.102 147.361 193.973 147.06C193.93 146.888 193.887 146.716 193.887 146.501C193.887 146.243 193.242 145.899 193.07 145.77C192.984 145.727 192.124 145.211 192.124 145.254C192.124 145.942 191.952 147.103 190.963 146.974C190.748 146.931 190.576 146.845 190.361 146.759L190.232 146.716C190.92 147.361 191.135 147.49 190.92 147.103C190.877 146.716 190.748 146.501 191.049 146.114L189.329 144.91C190.103 145.942 188.899 146.888 187.996 147.103C187.695 147.189 187.394 147.189 187.093 147.146C186.792 147.103 186.491 146.888 187.136 147.361C187.781 147.834 187.523 147.662 187.394 147.404C187.265 147.146 187.179 145.985 187.738 146.114L186.405 145.254L186.448 145.297L186.104 144.953C186.405 145.426 185.975 145.985 185.631 146.286C185.201 146.716 184.599 146.974 183.997 146.974C183.825 146.974 184.47 147.49 184.513 147.533C184.857 147.705 185.416 148.221 185.76 148.221Z" fill="#575757"/>
<path d="M180.815 154.671H180.944C181.073 154.671 181.202 154.671 181.331 154.628C181.46 154.628 181.546 154.542 181.675 154.499C181.761 154.456 181.847 154.37 181.89 154.241C181.933 154.155 181.976 154.026 181.976 153.897L181.933 153.682C181.89 153.51 181.761 153.381 181.632 153.295L181.417 153.123C181.245 153.037 181.073 152.994 180.858 152.951H180.729C180.6 152.951 180.471 152.951 180.342 152.994C180.213 152.994 180.127 153.08 179.998 153.123C179.912 153.166 179.826 153.295 179.783 153.381C179.74 153.467 179.697 153.596 179.697 153.682L179.74 153.897C179.783 154.069 179.912 154.198 180.041 154.284L180.256 154.456C180.428 154.628 180.6 154.671 180.815 154.671Z" fill="#575757"/>
<path d="M186.104 154.499C186.749 154.499 187.394 154.241 187.867 153.811C188.211 153.467 188.598 152.951 188.34 152.435C188.168 152.177 187.953 151.962 187.652 151.79C187.394 151.575 186.878 151.102 186.491 151.059C185.889 151.016 185.932 151.962 186.061 152.306C186.276 152.951 186.921 153.424 187.48 153.811C188.082 154.327 188.856 154.671 189.673 154.671C190.791 154.628 192.468 153.553 191.479 152.306C191.35 152.134 189.931 150.887 189.759 151.102C188.77 152.22 191.049 153.596 191.823 153.983C192.296 154.241 192.984 154.628 193.5 154.499C194.231 154.284 194.274 153.424 194.317 152.779L192.597 151.489C192.554 152.693 193.93 153.553 194.876 154.069C195.564 154.499 196.467 154.284 196.897 153.553C196.983 153.424 197.026 153.252 197.069 153.123C197.112 152.908 196.424 152.478 196.252 152.392C195.951 152.177 195.65 152.005 195.306 151.876C195.22 152.349 194.876 152.779 194.403 152.951C194.274 152.994 194.102 153.037 193.973 153.037C193.672 153.037 193.371 152.779 194.102 153.295C194.833 153.811 194.489 153.639 194.403 153.338C194.36 153.166 194.317 152.994 194.317 152.779C194.317 152.521 193.672 152.177 193.5 152.048C193.414 152.005 192.554 151.489 192.554 151.532C192.554 152.22 192.382 153.381 191.393 153.252C191.178 153.209 191.006 153.123 190.791 153.037L190.662 152.994C191.35 153.639 191.565 153.768 191.35 153.424C191.307 152.994 191.178 152.822 191.479 152.435L189.759 151.231C190.533 152.263 189.329 153.209 188.426 153.424C188.125 153.51 187.824 153.51 187.523 153.467C187.222 153.424 186.921 153.209 187.566 153.682C188.211 154.155 187.953 153.983 187.824 153.725C187.695 153.467 187.609 152.306 188.168 152.435L186.835 151.575L186.878 151.618L186.534 151.274C186.835 151.747 186.405 152.306 186.061 152.607C185.631 153.037 185.029 153.295 184.427 153.295C184.255 153.295 184.9 153.811 184.943 153.854C185.244 153.983 185.76 154.499 186.104 154.499Z" fill="#575757"/>
<path d="M180.858 161.293H180.987C181.116 161.293 181.245 161.293 181.374 161.25C181.503 161.25 181.589 161.164 181.718 161.121C181.804 161.078 181.89 160.992 181.933 160.863C181.976 160.777 182.019 160.648 182.019 160.519L181.976 160.304C181.933 160.132 181.804 160.003 181.675 159.917L181.46 159.745C181.288 159.659 181.116 159.616 180.901 159.573H180.772C180.643 159.573 180.514 159.573 180.385 159.616C180.256 159.616 180.17 159.702 180.041 159.745C179.955 159.788 179.869 159.917 179.826 160.003C179.783 160.089 179.74 160.218 179.74 160.304L179.783 160.519C179.826 160.691 179.955 160.82 180.084 160.906L180.299 161.078C180.471 161.207 180.686 161.293 180.858 161.293Z" fill="#575757"/>
<path d="M186.147 161.121C186.792 161.121 187.437 160.863 187.91 160.433C188.254 160.089 188.641 159.573 188.383 159.057C188.211 158.799 187.996 158.584 187.695 158.412C187.437 158.197 186.921 157.724 186.534 157.681C185.932 157.638 185.975 158.541 186.104 158.928C186.319 159.573 186.964 160.046 187.48 160.433C188.082 160.949 188.856 161.293 189.673 161.293C190.791 161.25 192.468 160.175 191.479 158.928C191.35 158.756 189.931 157.509 189.759 157.724C188.77 158.842 191.049 160.218 191.823 160.605C192.296 160.863 192.984 161.25 193.5 161.121C194.231 160.906 194.317 160.046 194.317 159.401L192.597 158.111C192.554 159.315 193.93 160.175 194.876 160.691C195.564 161.121 196.467 160.906 196.897 160.175C196.983 160.046 197.026 159.874 197.069 159.745C197.112 159.53 196.424 159.1 196.295 159.014C195.994 158.799 195.693 158.627 195.349 158.498C195.263 158.971 194.919 159.401 194.446 159.573C194.317 159.616 194.145 159.659 194.016 159.659C193.715 159.659 193.414 159.401 194.145 159.917C194.876 160.433 194.532 160.261 194.446 159.96C194.403 159.788 194.36 159.616 194.36 159.401C194.36 159.143 193.715 158.799 193.586 158.67C193.5 158.627 192.64 158.111 192.64 158.154C192.597 158.842 192.468 160.003 191.479 159.874C191.264 159.831 191.092 159.745 190.877 159.659L190.748 159.616C191.436 160.261 191.651 160.39 191.436 160.046C191.393 159.616 191.264 159.444 191.565 159.057L189.845 157.853C190.619 158.885 189.415 159.831 188.512 160.046C188.211 160.132 187.91 160.132 187.609 160.089C187.308 160.046 187.007 159.831 187.652 160.304C188.297 160.777 188.039 160.605 187.91 160.347C187.781 160.089 187.652 158.928 188.211 159.057L186.878 158.197L186.964 158.24L186.62 157.81C186.921 158.283 186.491 158.842 186.147 159.143C185.717 159.573 185.115 159.831 184.513 159.831C184.341 159.831 184.986 160.347 185.029 160.39C185.287 160.605 185.803 161.121 186.147 161.121Z" fill="#575757"/>
<path d="M168.474 123.969C168.474 123.969 169.291 126.119 170.839 126.592C172.387 127.065 175.526 127.667 175.311 129.258C175.096 130.849 172.86 130.677 171.656 129.946C171.656 129.946 170.538 134.074 167.786 134.289C165.034 134.504 164.174 133.429 163.4 135.02C163.4 135.02 159.444 136.74 160.261 133.558C160.39 133.085 161.379 126.721 165.722 126.162C165.722 126.205 168.13 126.033 168.474 123.969Z" fill="white"/>
<path d="M167.7 124.012C168.044 124.872 168.517 125.603 169.162 126.248C170.108 127.194 171.398 127.366 172.602 127.753C173.247 127.968 174.752 128.355 174.451 129.301C174.15 130.247 172.645 129.903 172 129.516C171.699 129.344 170.968 129.215 170.839 129.731C170.452 131.107 169.635 132.784 168.302 133.515C167.27 134.031 166.023 133.73 164.905 133.644C163.787 133.558 163.099 133.859 162.583 134.848L162.97 134.547C162.712 134.676 162.454 134.762 162.153 134.805C161.938 134.848 161.766 134.891 161.551 134.934C161.422 134.934 161.293 134.977 161.164 134.934C161.336 134.934 160.777 134.891 161.035 134.934C160.863 134.891 161.078 134.977 161.035 134.934C160.992 134.891 160.992 134.891 161.035 134.934C161.078 134.977 160.992 134.848 160.992 134.848C160.949 134.547 160.949 134.246 161.035 133.945C161.121 133.644 161.164 133.343 161.25 132.999C161.852 130.548 163.142 127.366 165.98 126.893C167.485 126.635 168.947 125.947 169.291 124.313C169.463 123.539 167.915 123.023 167.786 123.754C167.7 124.356 167.313 124.915 166.754 125.259C166.539 125.388 166.324 125.474 166.109 125.56C166.023 125.603 165.894 125.603 165.808 125.646C165.722 125.689 165.507 125.689 165.679 125.689C164.518 125.818 163.443 126.291 162.583 127.065C160.949 128.527 160.089 130.806 159.616 132.913C159.444 133.73 159.143 134.676 159.659 135.407C160.304 136.353 161.551 136.353 162.54 136.138C162.884 136.052 163.228 135.966 163.572 135.837C163.615 135.794 163.701 135.794 163.787 135.751C164.088 135.622 164.131 135.364 164.346 135.149C164.475 134.977 164.518 134.934 164.647 134.934C164.561 134.934 164.776 134.934 164.819 134.934C164.948 134.934 165.034 134.934 165.163 134.977C165.937 135.063 166.668 135.106 167.442 135.106C168.99 135.063 170.452 134.246 171.226 132.87C171.742 132.096 172.129 131.279 172.387 130.376L171.226 130.548C172.215 131.15 173.419 131.365 174.537 131.15C175.526 130.978 176.214 129.989 176.042 129C176.042 128.957 176.042 128.957 176.042 128.914C175.784 127.882 174.623 127.323 173.72 126.979C173.204 126.764 172.645 126.635 172.129 126.463C171.656 126.377 171.226 126.205 170.796 126.033C170.108 125.56 169.549 124.829 169.291 124.012C168.947 123.238 167.399 123.152 167.7 124.012Z" fill="#575757"/>
<path d="M160.046 129.903C160.046 129.903 157.767 130.204 157.552 128.957C157.337 127.71 158.713 128.183 158.713 128.183C158.713 128.183 157.423 125.517 159.702 125.388C159.702 125.388 158.068 123.281 159.788 121.776C161.508 120.271 164.26 121.733 164.26 121.733C164.26 121.733 164.518 119.067 166.797 119.712C169.076 120.357 168.259 121.862 168.259 121.862C168.259 121.862 169.678 122.249 169.592 123.152C169.506 124.055 168.345 124.27 168.345 124.27C168.345 124.27 167.571 126.85 165.636 126.205L163.271 129.215C163.572 130.032 163.4 130.935 162.884 131.623C162.067 132.784 159.702 131.58 160.046 129.903Z" fill="#575757"/>
<path d="M160.605 129.473C159.96 129.602 159.315 129.516 158.756 129.258C158.584 129.172 158.455 129.043 158.369 128.871C158.326 128.742 158.283 128.613 158.283 128.484C158.283 128.441 158.326 128.097 158.326 128.097C158.455 128.312 157.251 128.355 157.681 128.527C157.724 128.527 157.81 128.527 157.853 128.527C157.939 128.527 158.025 128.57 158.111 128.57C158.369 128.656 159.659 128.14 159.487 127.796C159.358 127.495 159.229 127.194 159.186 126.85C159.143 126.592 159.1 126.334 159.143 126.076C159.186 125.947 159.229 125.818 159.272 125.689C159.315 125.646 159.315 125.603 159.358 125.56C159.401 125.603 158.584 125.818 159.186 125.732C159.358 125.732 160.691 125.216 160.476 124.958C160.218 124.614 160.046 124.227 159.917 123.84C159.702 123.152 159.745 121.948 160.476 121.518C160.992 121.217 161.938 121.475 162.497 121.604C162.884 121.69 163.271 121.862 163.615 122.034C163.916 122.206 164.948 121.647 164.991 121.346C165.034 121.045 165.077 120.787 165.206 120.529C165.249 120.4 165.292 120.271 165.378 120.185C165.421 120.099 165.593 119.97 165.593 119.884C165.593 119.798 165.421 120.013 165.421 119.97L165.937 120.013C166.883 120.185 168.087 121.002 167.571 122.12C167.571 122.163 167.571 122.206 167.614 122.206C168.087 122.292 168.474 122.55 168.775 122.937C168.861 123.066 168.904 123.195 168.904 123.367C168.904 123.582 168.775 123.711 168.732 123.883C168.732 123.969 168.732 123.883 168.732 123.926C168.732 123.969 168.861 123.883 168.904 123.84C168.818 123.926 168.947 123.84 168.818 123.84C168.474 123.883 167.786 124.184 167.657 124.528C167.571 124.829 167.442 125.087 167.27 125.345C167.184 125.517 166.883 125.732 166.84 125.904C166.883 125.818 167.098 125.904 166.926 125.861C166.754 125.818 166.496 125.818 166.324 125.775C165.937 125.646 165.206 126.119 164.991 126.42L163.787 127.925L163.013 128.957C162.884 129.086 162.712 129.258 162.626 129.473C162.54 129.731 162.712 130.032 162.712 130.29C162.755 130.634 162.669 131.021 162.54 131.365C162.497 131.451 162.196 131.881 162.239 131.924C162.712 131.752 162.841 131.666 162.669 131.709C162.626 131.709 162.583 131.709 162.54 131.709C162.067 131.666 161.594 131.451 161.25 131.107C160.863 130.72 160.648 130.161 160.734 129.602C160.777 129.344 160.175 129.559 160.089 129.602C159.874 129.688 159.315 129.903 159.272 130.204C159.057 131.666 160.519 132.784 161.895 132.44C163.443 132.053 164.604 130.462 164.002 128.871L163.959 129.043L166.324 126.033L164.991 126.678C166.754 127.194 168.603 125.689 169.076 124.055L167.872 124.786C168.775 124.614 170.28 123.926 170.237 122.851C170.194 122.378 169.85 121.948 169.377 121.776C169.248 121.69 169.076 121.604 168.904 121.561C168.861 121.561 168.861 121.69 168.947 121.561C169.076 121.303 169.076 121.002 168.99 120.701C168.861 120.228 168.517 119.841 168.044 119.626C166.84 119.024 165.378 119.239 164.432 120.185C163.873 120.701 163.529 121.389 163.486 122.12L164.862 121.432C163.314 120.572 161.422 120.572 159.917 121.432C158.971 121.991 158.197 122.851 158.24 124.012C158.283 124.7 158.541 125.302 158.928 125.861L160.218 125.087C159.186 125.173 157.724 125.732 157.595 126.936C157.552 127.538 157.681 128.14 157.939 128.656L159.315 127.882C158.326 127.538 156.391 128.226 156.778 129.516C157.036 130.505 158.584 130.505 159.401 130.419C159.788 130.376 160.132 130.204 160.433 129.989C160.562 129.817 160.949 129.43 160.605 129.473Z" fill="#575757"/>
<path d="M165.98 126.764C165.98 126.764 165.894 124.915 164.561 125.13C163.228 125.345 162.196 129.301 164.518 129.473" fill="white"/>
<path d="M166.539 127.108C166.496 126.506 166.324 125.904 166.023 125.388C165.593 124.7 164.69 124.055 163.873 124.528C163.357 124.915 162.97 125.431 162.841 126.076C162.626 126.764 162.583 127.495 162.755 128.226C162.97 129.258 163.83 130.032 164.862 130.161C164.991 130.161 165.077 130.032 165.077 129.946C165.12 129.774 165.077 129.602 164.991 129.43C164.862 129.129 164.604 128.742 164.217 128.742H164.174H164.088L163.916 128.699L163.83 128.656C163.873 128.699 164.002 128.699 163.83 128.656L163.787 128.613C163.658 128.527 163.83 128.656 163.787 128.613L163.744 128.57C163.658 128.484 163.873 128.742 163.787 128.613L163.744 128.57C163.658 128.484 163.83 128.785 163.787 128.613L163.744 128.57C163.658 128.441 163.83 128.785 163.787 128.656L163.744 128.613C163.658 128.441 163.787 128.742 163.744 128.613C163.701 128.484 163.701 128.484 163.701 128.441C163.658 128.269 163.701 128.57 163.701 128.398C163.701 128.226 163.701 128.14 163.701 127.968C163.701 127.796 163.701 128.054 163.701 127.968C163.701 127.882 163.701 127.925 163.701 127.882L163.744 127.667C163.787 127.538 163.787 127.366 163.83 127.237C163.83 127.194 163.873 127.108 163.873 127.065C163.873 127.022 163.916 126.936 163.873 127.022L163.916 126.936C163.959 126.807 164.045 126.678 164.088 126.549C164.131 126.463 164.217 126.334 164.303 126.248L164.432 126.119L164.475 126.076C164.389 126.162 164.475 126.076 164.518 126.076C164.604 126.033 164.69 125.947 164.733 125.904L164.862 125.861C164.733 125.904 164.819 125.861 164.819 125.861C164.819 125.861 164.905 125.861 164.948 125.861C165.034 125.861 165.12 125.861 165.163 125.861C165.077 125.861 165.249 125.904 165.249 125.904C165.206 125.861 165.378 125.947 165.249 125.904L165.335 125.947C165.292 125.947 165.206 125.818 165.292 125.947C165.378 126.076 165.163 125.818 165.249 125.904C165.249 125.947 165.335 126.033 165.249 125.904C165.163 125.775 165.249 125.904 165.249 125.947C165.335 126.076 165.163 125.775 165.206 125.861C165.249 125.947 165.249 125.947 165.249 125.99L165.292 126.033C165.335 126.162 165.249 125.818 165.292 125.99C165.292 126.033 165.335 126.119 165.335 126.162C165.335 126.205 165.335 126.291 165.378 126.334C165.378 126.334 165.335 126.119 165.378 126.248C165.378 126.291 165.378 126.291 165.378 126.334V126.463C165.421 126.85 165.636 127.237 165.937 127.452C166.238 127.538 166.496 127.409 166.539 127.108Z" fill="#575757"/>
<path d="M168.302 130.462C168.302 130.677 168.345 130.935 168.431 131.15C168.56 131.58 168.818 131.967 169.162 132.225C169.42 132.44 169.764 132.526 170.108 132.569C170.28 132.569 170.452 132.569 170.624 132.483C170.839 132.397 171.011 132.311 171.14 132.182C171.226 132.096 171.398 131.967 171.355 131.838C171.355 131.709 171.269 131.623 171.14 131.623C171.011 131.623 170.882 131.58 170.71 131.537L170.839 131.58C170.624 131.494 170.409 131.365 170.237 131.193L170.323 131.279C170.065 130.978 169.85 130.591 169.807 130.161V130.247C169.807 130.118 169.764 130.032 169.764 129.903C169.764 129.559 169.248 129.688 169.076 129.774C168.861 129.86 168.689 129.946 168.56 130.075C168.388 130.204 168.259 130.333 168.302 130.462Z" fill="#575757"/>
<path d="M168.861 126.807C168.99 126.893 169.076 127.065 168.99 127.194V127.237C168.818 127.495 168.474 127.28 168.56 127.022C168.56 126.893 168.689 126.807 168.861 126.807Z" fill="#575757"/>
<path d="M168.56 137.643C168.474 137.557 168.603 137.686 168.56 137.643L168.431 137.557L168.216 137.385C168.087 137.256 167.958 137.127 167.786 136.998C167.528 136.74 167.27 136.482 167.012 136.224C166.883 136.095 166.797 135.966 166.668 135.837L166.453 135.622C166.41 135.579 166.41 135.579 166.367 135.536C166.41 135.579 166.453 135.665 166.367 135.536C166.109 135.235 165.894 134.934 165.679 134.633C165.507 134.418 165.12 134.074 164.862 134.375C164.69 134.719 164.733 135.106 164.948 135.407C165.894 136.74 167.055 137.944 168.302 138.976C168.474 139.105 168.732 139.105 168.861 138.933C168.904 138.847 168.947 138.761 168.947 138.675C169.076 138.288 168.904 137.901 168.56 137.643Z" fill="#575757"/>
<path d="M158.67 134.074C157.638 134.719 156.864 135.708 156.52 136.869C156.391 137.256 156.821 137.6 157.122 137.686C157.423 137.772 157.939 137.686 158.068 137.299C158.111 137.084 158.197 136.912 158.283 136.697L158.197 136.869C158.412 136.439 158.67 136.009 159.057 135.665L158.928 135.794C159.186 135.493 159.53 135.278 159.831 135.063C159.96 134.977 160.046 134.805 160.046 134.633C160.003 134.461 159.917 134.289 159.788 134.16C159.487 133.902 159.057 133.859 158.67 134.074Z" fill="#575757"/>
<path d="M112.359 187.351C112.359 187.351 111.886 198.144 112.144 198.144C112.402 198.144 116.745 198.015 116.745 198.015V193.715L118.852 198.445L133.214 197.585C133.214 197.585 133.687 196.037 130.462 194.317C127.237 192.597 122.034 190.146 122.034 190.146L121.905 183.739L112.359 187.351Z" fill="#575757"/>
<path d="M112.058 187.394C111.972 189.501 111.886 191.608 111.843 193.672C111.8 194.919 111.757 196.123 111.8 197.37C111.8 197.499 111.757 198.015 111.843 198.144C111.929 198.273 112.531 198.187 112.703 198.187L116.616 198.058C116.659 198.058 117.003 198.058 117.003 197.972V193.672L116.487 193.758L118.594 198.488C118.594 198.531 118.766 198.531 118.809 198.488L131.408 197.714L133.171 197.628C133.214 197.628 133.472 197.628 133.515 197.542C133.773 196.639 132.784 195.65 132.182 195.177C131.236 194.489 130.247 193.93 129.172 193.457C128.14 192.941 127.108 192.425 126.119 191.909C125.302 191.522 124.485 191.092 123.625 190.705L122.765 190.275C122.679 190.232 122.421 190.189 122.335 190.06C122.292 189.802 122.292 189.544 122.292 189.286L122.249 187.265L122.206 183.61C122.206 183.524 121.776 183.61 121.733 183.653L113.391 186.878L112.187 187.351C111.972 187.437 112.488 187.394 112.574 187.351L120.916 184.126L122.12 183.653L121.647 183.696L121.776 190.103C123.281 190.791 124.786 191.522 126.248 192.253C127.409 192.812 128.613 193.414 129.774 194.016C130.849 194.575 132.053 195.22 132.655 196.295C132.913 196.639 132.999 197.069 132.956 197.499L133.3 197.413L120.701 198.187L118.938 198.273H119.153L117.046 193.543C117.003 193.457 116.53 193.543 116.53 193.629V197.929L116.917 197.843L113.606 197.929L112.746 197.972C112.66 197.972 112.574 197.972 112.445 197.972C112.273 197.972 112.402 197.929 112.402 197.972C112.359 197.757 112.316 197.499 112.359 197.241C112.273 194.704 112.445 192.124 112.531 189.587C112.574 188.77 112.574 187.996 112.617 187.179C112.617 187.265 112.058 187.308 112.058 187.394Z" fill="#575757"/>
<path d="M102.34 187.136C102.34 187.136 102.856 198.402 102.555 198.402C102.254 198.402 97.438 198.23 97.438 198.23V193.715L95.116 198.66L79.12 197.8C79.12 197.8 78.604 196.166 82.216 194.36C85.828 192.554 91.59 190.017 91.59 190.017L91.719 183.309L102.34 187.136Z" fill="#575757"/>
<path d="M102.082 187.093C102.168 189.243 102.254 191.436 102.34 193.586C102.383 194.876 102.426 196.166 102.383 197.413C102.383 197.585 102.383 197.757 102.383 197.929C102.34 198.058 102.34 198.144 102.34 198.273C102.383 198.316 102.512 198.273 102.469 198.273C102.426 198.273 102.34 198.273 102.297 198.273H101.48L97.3951 198.144L97.7391 198.23V193.715C97.7391 193.586 97.2661 193.586 97.2231 193.672L94.8581 198.617L95.1161 198.574L81.0981 197.8L79.1201 197.671L79.3781 197.757C79.3351 197.413 79.3781 197.069 79.5501 196.768C80.1091 195.607 81.4421 194.876 82.5601 194.317C84.9681 193.07 87.4621 191.952 89.9561 190.877L91.8481 190.06C91.8481 190.06 91.8911 190.06 91.8911 190.017L92.0201 183.309H91.5471L100.835 186.663L102.168 187.136C102.254 187.179 102.77 187.136 102.555 187.05L93.2671 183.696L91.9341 183.223C91.8911 183.223 91.4611 183.137 91.4611 183.223L91.4181 186.577L91.3751 188.899V189.587C91.3751 189.63 91.3321 189.931 91.4181 189.845C91.3751 189.888 91.2031 189.931 91.1171 189.974L90.2141 190.361L87.5911 191.522C86.4731 192.038 85.3551 192.554 84.2371 193.07C83.1191 193.586 82.0871 194.059 81.0981 194.661C80.2811 195.177 79.4211 195.822 78.9911 196.725C78.8191 197.026 78.7761 197.327 78.8621 197.671C78.8621 197.757 79.0771 197.757 79.1201 197.757L93.1381 198.574L95.1161 198.703C95.2021 198.703 95.3741 198.746 95.3741 198.66L97.7391 193.715L97.2231 193.672V198.23C97.2231 198.316 97.5241 198.316 97.5671 198.316L101.265 198.445C101.738 198.488 102.254 198.531 102.727 198.488C102.985 198.445 102.942 198.273 102.985 198.015C103.071 196.854 102.985 195.65 102.985 194.489C102.942 192.984 102.899 191.436 102.813 189.931C102.77 189.028 102.727 188.082 102.684 187.179C102.598 187.007 102.082 187.007 102.082 187.093Z" fill="#575757"/>
<path d="M94.6 96.062C94.6 96.062 84.409 184.513 87.29 186.749C90.171 188.985 106.21 185.459 106.21 185.459L108.145 167.184L109.091 187.05C109.091 187.05 121.604 190.275 126.076 188.641C126.076 188.641 132.483 104.662 132.483 92.493C132.483 80.324 94.6 96.062 94.6 96.062Z" fill="#575757"/>
<path d="M93.5681 96.32C93.4391 97.438 93.3101 98.513 93.1811 99.631C92.8371 102.555 92.5361 105.522 92.1921 108.489C91.7191 112.703 91.2891 116.917 90.8161 121.174C90.3001 126.119 89.7841 131.107 89.2681 136.052C88.7521 141.212 88.2361 146.415 87.7631 151.575C87.3331 156.391 86.9031 161.25 86.5591 166.066C86.2581 169.979 86.0001 173.892 85.8281 177.848C85.6561 180.342 85.6561 182.836 85.7851 185.287C85.7851 185.889 85.9141 186.491 86.1291 187.05C86.4301 187.437 86.8601 187.738 87.3331 187.824C88.3651 188.125 89.3971 188.254 90.4721 188.211C93.1381 188.211 95.8041 187.996 98.4701 187.523C100.706 187.179 102.899 186.792 105.135 186.362C105.479 186.276 105.823 186.233 106.167 186.147C106.597 186.061 107.156 185.717 107.199 185.201L107.844 179.052L108.876 169.205L109.134 166.926L107.113 167.442L107.457 174.15L107.973 184.857L108.102 187.308C108.102 187.48 108.231 187.652 108.403 187.738C112.832 188.856 117.433 189.802 122.034 189.845C123.496 189.888 124.958 189.716 126.377 189.243C126.764 189.114 127.065 188.813 127.151 188.383C127.28 186.749 127.409 185.115 127.538 183.481C127.839 179.267 128.183 175.053 128.484 170.796C128.914 164.905 129.344 159.057 129.774 153.166C130.247 146.63 130.72 140.094 131.15 133.558C131.58 127.323 132.01 121.088 132.397 114.853C132.698 109.865 133.042 104.834 133.3 99.846C133.386 98.126 133.472 96.406 133.515 94.686C133.558 93.396 133.73 91.977 133.343 90.687C132.87 89.053 131.365 88.064 129.774 87.591C127.581 86.989 125.259 87.032 123.023 87.204C117.347 87.72 111.757 89.311 106.382 91.031C102.555 92.278 98.7281 93.611 94.9871 95.116L94.3851 95.374C94.0411 95.503 93.4821 95.933 93.6541 96.406C93.8261 96.879 94.5571 96.707 94.9011 96.578C97.5241 95.46 100.233 94.514 102.942 93.568L103.845 93.267L104.017 93.224L104.103 93.181L104.619 93.009L106.511 92.407C107.844 91.977 109.177 91.59 110.553 91.203C113.305 90.386 116.1 89.741 118.895 89.225L119.411 89.139L119.626 89.096H119.755L120.787 88.924C121.432 88.838 122.034 88.752 122.679 88.709C123.324 88.666 123.883 88.623 124.442 88.623C124.7 88.623 124.958 88.623 125.259 88.623C125.302 88.623 125.56 88.623 125.345 88.623H125.517L125.99 88.666C126.506 88.709 127.022 88.752 127.495 88.838C127.71 88.881 127.925 88.924 128.14 88.967C128.011 88.924 128.355 89.01 128.14 88.967L128.312 89.01L128.656 89.139C129.387 89.311 130.032 89.698 130.548 90.257C130.591 90.3 130.677 90.386 130.72 90.429C130.763 90.472 130.935 90.687 130.806 90.558C130.892 90.73 131.021 90.859 131.107 91.031C131.193 91.203 131.236 91.332 131.322 91.504C131.365 91.59 131.365 91.676 131.408 91.762C131.408 91.848 131.451 91.891 131.451 91.977C131.537 92.579 131.537 93.181 131.494 93.826C131.451 95.288 131.408 96.75 131.322 98.212C131.107 102.813 130.849 107.414 130.548 111.972C130.161 117.992 129.774 124.012 129.344 130.032C128.914 136.568 128.441 143.104 127.968 149.597C127.538 155.66 127.108 161.68 126.635 167.743C126.291 172.387 125.947 177.031 125.603 181.675C125.431 183.954 125.259 186.276 125.087 188.598C125.087 188.684 125.087 188.813 125.087 188.899L125.861 188.039C126.119 187.953 125.818 188.039 125.732 188.082C125.646 188.125 125.474 188.125 125.345 188.168L125.087 188.211H125.001L124.7 188.254C124.098 188.297 123.496 188.34 122.894 188.34C121.518 188.297 120.142 188.211 118.809 188.039C116.272 187.738 113.778 187.265 111.284 186.706L110.166 186.448L109.822 186.362H109.908L110.209 186.792L109.865 180.084L109.349 169.377L109.22 166.926C109.177 165.937 107.242 166.668 107.199 167.442L106.554 173.591L105.522 183.438L105.264 185.674L106.296 184.728C102.512 185.631 98.6851 186.276 94.8151 186.663C94.1701 186.706 93.4821 186.749 92.8371 186.792C92.5361 186.792 92.2351 186.792 91.8911 186.792H91.1601C90.6441 186.792 90.1281 186.749 89.6121 186.663C89.5261 186.663 89.3971 186.663 89.3111 186.62L89.0531 186.577C88.9671 186.534 88.9241 186.534 88.8381 186.534C88.7521 186.491 88.6661 186.448 88.5371 186.448L88.3221 186.362C88.1501 186.276 88.4081 186.362 88.2361 186.319C88.1931 186.319 88.1501 186.233 88.1071 186.233C88.2791 186.319 88.1501 186.362 88.1071 186.19C88.0641 186.104 88.0641 185.975 88.0211 185.889L87.9781 185.717C88.0211 185.846 87.9781 185.76 87.9781 185.631C87.6771 183.524 87.8061 181.288 87.8491 179.181C87.9781 175.526 88.1931 171.828 88.4511 168.173C88.7951 163.486 89.1821 158.842 89.5691 154.198C89.9991 149.081 90.5151 144.007 91.0311 138.89C91.5041 133.859 92.0201 128.871 92.5791 123.84C93.0521 119.454 93.5251 115.025 93.9981 110.639C94.3421 107.371 94.7291 104.146 95.0731 100.878C95.2451 99.33 95.4601 97.739 95.5891 96.148L95.6321 95.933C95.7181 94.901 93.6541 95.503 93.5681 96.32Z" fill="#575757"/>
<path d="M110.252 127.28L109.822 133.171L108.79 147.318L107.586 164.389L106.554 179.138L106.21 183.997C106.081 184.771 106.038 185.545 106.038 186.319C106.038 186.362 106.038 186.405 106.038 186.405C106.038 186.706 106.726 186.319 106.812 186.276C107.027 186.147 107.844 185.803 107.887 185.459L108.317 179.568L109.349 165.421L110.553 148.35L111.628 133.601L111.972 128.742C112.101 127.968 112.144 127.194 112.144 126.42C112.144 126.377 112.144 126.334 112.144 126.334C112.144 126.033 111.456 126.42 111.37 126.463C111.112 126.592 110.295 126.936 110.252 127.28Z" fill="white"/>
<path d="M190.619 60.974C186.663 48.16 133.687 57.104 133.687 57.104L110.596 63.812L111.241 64.844C107.672 64.242 104.361 65.704 101.523 68.499C97.3089 67.123 82.0439 65.274 63.6399 102.254C53.6639 122.335 77.2709 131.279 85.2259 115.326L89.6979 107.844C89.8699 110.252 90.4719 112.617 91.4179 114.81C91.4179 114.81 132.139 117.863 133.171 116.874C133.773 116.272 131.795 98.728 126.549 84.151L162.884 65.833L173.849 79.335C173.763 79.335 194.575 73.788 190.619 60.974Z" fill="#CD5357"/>
<path d="M191.694 60.931C191.006 58.781 189.157 57.405 187.179 56.459C184.47 55.169 181.46 54.61 178.536 54.223C171.054 53.234 163.357 53.492 155.832 54.051C149.554 54.481 143.276 55.212 137.041 56.115C135.837 56.287 134.633 56.459 133.429 56.674C131.838 56.932 130.29 57.577 128.742 58.007L110.424 63.339L110.037 63.468C109.822 63.511 109.392 63.683 109.564 63.984L110.166 65.016L111.714 64.5C107.457 63.855 103.587 65.403 100.534 68.327L102.211 68.198C98.7711 67.08 94.9441 67.424 91.5471 68.585C84.6671 70.95 79.1631 76.54 74.7771 82.13C70.8641 87.204 67.4671 92.579 64.5001 98.255C62.0491 102.899 59.4691 107.801 60.1141 113.219C60.5011 116.702 62.4361 119.884 65.3601 121.819C68.4561 123.754 72.2401 124.442 75.8091 123.668C79.5931 122.894 82.9041 120.615 85.0111 117.39C85.7851 116.229 86.4301 114.939 87.1611 113.735L90.0421 108.919L90.6011 107.973L88.5801 107.93C88.7951 110.381 89.3971 112.789 90.3431 115.025C90.4291 115.24 90.9021 115.283 91.1171 115.326C93.8261 115.541 96.5351 115.713 99.2011 115.928C104.834 116.315 110.424 116.702 116.057 117.003C120.83 117.261 125.646 117.605 130.462 117.605C131.064 117.605 131.709 117.605 132.311 117.562C132.827 117.519 133.601 117.519 134.031 117.175C134.375 116.917 134.332 116.272 134.332 115.885C134.332 114.767 134.203 113.692 134.074 112.617C133.128 104.06 131.322 95.675 128.699 87.462C128.312 86.301 127.968 85.183 127.538 84.065L127.28 84.495L139.578 78.303L159.143 68.456L163.615 66.22L161.809 66.048L171.398 77.873L172.731 79.507C173.075 79.894 173.892 79.851 174.322 79.722C176.773 79.034 179.138 78.131 181.417 76.97C185.244 75.078 189.243 72.412 191.178 68.456C192.296 66.134 192.468 63.425 191.694 60.931C191.479 60.243 189.415 60.501 189.544 60.974C190.232 63.124 190.189 65.446 189.415 67.553C188.598 69.488 187.308 71.208 185.717 72.541C182.793 75.121 179.181 76.884 175.526 78.217L175.01 78.389C174.795 78.475 175.01 78.389 174.924 78.432L174.666 78.518L173.892 78.776L173.204 78.991L174.795 79.206L165.206 67.381L163.873 65.747C163.529 65.317 162.54 65.36 162.067 65.575L149.769 71.767L130.247 81.614L125.775 83.85C125.56 83.936 125.431 84.065 125.517 84.28C128.484 92.665 130.548 101.351 131.666 110.166C131.967 112.273 132.354 114.466 132.182 116.616C132.182 116.659 132.182 116.702 132.182 116.745C132.182 116.745 132.311 116.659 132.354 116.616C132.397 116.573 132.612 116.53 132.397 116.616C132.569 116.573 132.655 116.53 132.397 116.616H132.225H131.967C131.666 116.616 131.365 116.616 131.107 116.616C130.29 116.616 129.473 116.616 128.656 116.616H127.968H127.624H127.28L125.603 116.573C123.023 116.487 120.486 116.358 117.906 116.186C112.359 115.885 106.812 115.498 101.222 115.111C99.1151 114.982 97.0081 114.81 94.9011 114.681C93.8691 114.595 92.7941 114.466 91.7621 114.466H91.5901L92.3641 114.767C91.4181 112.574 90.8591 110.252 90.6871 107.887C90.6011 107.242 88.8381 107.371 88.5801 107.801L84.2801 115.025C83.4201 116.487 82.6461 117.906 81.4851 119.153C80.3241 120.443 78.8621 121.475 77.2711 122.163C76.5401 122.507 75.7661 122.722 74.9921 122.894C74.3041 123.023 73.6161 123.109 72.8851 123.109H72.7561C72.6701 123.109 72.5411 123.109 72.4551 123.109C72.2831 123.109 72.1111 123.066 71.9391 123.066C71.5951 123.023 71.2081 122.98 70.8641 122.894C70.1331 122.722 69.4021 122.507 68.7571 122.163C65.8331 120.787 63.5971 118.25 62.7371 115.111C61.5331 110.811 62.6941 106.296 64.6291 102.383C67.5101 96.492 70.8211 90.816 74.6051 85.398C78.9481 79.335 84.2801 73.1 91.1601 69.961C91.7191 69.703 92.2351 69.488 92.8371 69.273L93.0521 69.187L93.0951 69.144L93.4391 69.015C93.6971 68.929 93.9551 68.843 94.2561 68.8C94.5571 68.757 94.7291 68.671 94.9871 68.628L95.1591 68.585C94.9441 68.628 95.3741 68.542 95.1591 68.585C95.2881 68.585 95.4171 68.542 95.5461 68.542C95.7611 68.499 95.9761 68.456 96.1911 68.456L96.5351 68.413H96.6641C96.4491 68.413 96.9651 68.37 96.6641 68.413C97.0511 68.37 97.4811 68.37 97.8681 68.37C98.0401 68.37 98.1261 68.37 97.8681 68.37H98.1691C98.3411 68.37 98.5561 68.37 98.7281 68.413C98.9001 68.456 99.0291 68.456 99.2011 68.456C99.0721 68.413 99.4591 68.499 99.2011 68.456L99.4591 68.499C99.7171 68.542 99.9751 68.585 100.276 68.671C100.362 68.671 100.706 68.8 100.534 68.714L100.749 68.8C101.179 68.929 102.039 69.015 102.426 68.671C104.619 66.564 107.5 64.715 110.682 65.231C110.94 65.274 112.617 65.274 112.23 64.715L111.585 63.683L111.112 64.199L127.194 59.512C129.473 58.867 131.795 58.265 134.074 57.534C134.418 57.448 133.988 57.534 134.031 57.534C134.16 57.534 134.246 57.491 134.375 57.491L136.052 57.233C141.599 56.373 147.146 55.728 152.736 55.255C159.917 54.653 167.571 54.223 174.795 54.825C177.848 55.083 180.901 55.47 183.696 56.373C185.717 57.061 187.824 58.007 189.028 59.856C189.286 60.2 189.458 60.63 189.587 61.017C189.759 61.662 191.866 61.404 191.694 60.931Z" fill="#CD5357"/>
<path d="M162.798 65.833L157.38 68.456C157.38 68.456 145.555 67.94 147.619 74.519C147.619 74.519 144.609 75.852 145.383 79.636C146.157 83.42 152.736 83.549 152.736 83.549C152.736 83.549 150.199 88.193 157.853 87.892C157.853 87.892 157.552 93.009 164.002 90.902C170.452 88.795 173.763 79.335 173.763 79.335L162.798 65.833Z" fill="white"/>
<path d="M162.325 65.016L156.907 67.639L157.466 67.553C156.004 67.51 154.585 67.596 153.166 67.811C151.016 68.155 148.393 68.8 147.103 70.692C146.329 71.896 146.157 73.358 146.63 74.691L147.189 73.702C144.91 74.734 143.921 77.314 144.351 79.722C144.867 82.474 147.877 83.678 150.328 84.151C151.102 84.323 151.919 84.409 152.736 84.452L151.79 83.248C151.489 83.85 151.317 84.495 151.317 85.14C151.317 86.688 152.392 87.763 153.768 88.322C155.101 88.752 156.477 88.924 157.853 88.795L156.821 87.806C156.778 88.623 156.95 89.44 157.337 90.128C158.111 91.676 159.874 92.321 161.551 92.235C166.41 92.02 170.065 88.408 172.43 84.495C173.247 83.162 173.978 81.743 174.58 80.281C174.666 80.066 174.795 79.851 174.838 79.593C175.01 79.077 174.666 78.733 174.365 78.389L168.818 71.595L165.593 67.596C164.991 66.822 164.389 66.048 163.744 65.317L163.658 65.188C162.927 64.285 161.207 65.317 162.067 66.392L171.656 78.26L172.989 79.894L172.774 78.991C171.871 81.571 170.495 84.022 168.732 86.129C167.399 87.763 165.808 89.182 163.83 89.913C162.841 90.3 161.809 90.472 160.777 90.386C160.519 90.343 160.261 90.3 160.046 90.171L159.831 90.042C159.659 89.956 159.917 90.128 159.788 90.042C159.659 89.956 159.573 89.827 159.444 89.698C159.616 89.87 159.358 89.569 159.315 89.483L159.229 89.311L159.186 89.225C159.1 89.053 159.229 89.354 159.186 89.268C159.1 89.01 159.014 88.795 158.971 88.537C158.971 88.408 158.928 88.322 158.928 88.193C158.971 88.451 158.928 88.279 158.928 88.15C158.928 88.064 158.928 87.978 158.928 87.935C158.885 87.376 158.455 86.946 157.896 86.946C157.122 86.989 156.348 86.946 155.574 86.86C155.359 86.817 155.144 86.774 154.929 86.731L154.542 86.602L154.37 86.516C154.499 86.559 154.499 86.559 154.37 86.516L154.155 86.387C154.112 86.344 153.811 86.172 154.026 86.344C153.897 86.258 153.768 86.129 153.682 86C153.854 86.215 153.682 86 153.639 85.957C153.596 85.914 153.553 85.828 153.51 85.742C153.424 85.57 153.553 85.914 153.51 85.742C153.51 85.656 153.467 85.613 153.467 85.527C153.467 85.441 153.424 85.398 153.424 85.312C153.381 85.14 153.424 85.527 153.424 85.355C153.424 85.183 153.424 85.097 153.424 84.925C153.424 84.753 153.467 84.71 153.467 84.581C153.381 84.839 153.467 84.452 153.467 84.581C153.467 84.538 153.51 84.495 153.51 84.452C153.596 84.237 153.682 83.979 153.768 83.764C154.112 83.162 153.338 82.56 152.822 82.56C152.349 82.56 151.833 82.517 151.36 82.431L151.059 82.388C150.801 82.345 151.188 82.431 150.887 82.345C150.586 82.259 150.371 82.216 150.07 82.173C149.597 82.044 149.081 81.872 148.608 81.7C147.748 81.313 146.931 80.797 146.544 79.851C146.329 79.249 146.286 78.604 146.329 77.959C146.372 77.443 146.544 76.927 146.845 76.454C147.017 76.239 147.189 76.024 147.361 75.809L147.49 75.723C147.576 75.637 147.662 75.594 147.748 75.508C147.834 75.422 148.006 75.336 148.135 75.25C148.006 75.336 147.963 75.336 148.092 75.293C148.479 75.164 148.737 74.734 148.651 74.304C148.565 74.089 148.522 73.874 148.479 73.659C148.479 73.573 148.436 73.487 148.436 73.358C148.436 73.315 148.436 73.229 148.436 73.186C148.436 73.014 148.436 72.799 148.479 72.627C148.479 72.541 148.479 72.455 148.522 72.369C148.565 72.283 148.522 72.412 148.522 72.412C148.522 72.412 148.565 72.326 148.565 72.283C148.608 72.111 148.694 71.982 148.737 71.81C148.78 71.638 148.737 71.81 148.78 71.767C148.823 71.681 148.866 71.595 148.952 71.509C149.038 71.38 149.124 71.294 149.253 71.165C149.339 71.079 149.21 71.208 149.21 71.208L149.339 71.122C149.425 71.079 149.468 70.993 149.554 70.95C149.683 70.864 149.855 70.735 149.984 70.649L150.199 70.52C150.027 70.606 150.242 70.52 150.285 70.477C150.629 70.305 150.973 70.176 151.317 70.047C151.489 70.004 151.661 69.918 151.833 69.875C151.661 69.918 151.833 69.875 151.919 69.875L152.263 69.789C152.65 69.703 152.994 69.617 153.381 69.574C154.069 69.445 154.757 69.402 155.488 69.359H155.746C155.531 69.359 155.832 69.359 155.746 69.359H156.176H156.864C157.122 69.359 157.337 69.359 157.595 69.359C158.154 69.23 158.67 69.015 159.143 68.714L163.4 66.65C164.561 66.048 163.4 64.5 162.325 65.016Z" fill="#575757"/>
<path d="M164.776 83.807C164.776 83.807 162.067 87.892 157.853 87.892L164.776 83.807Z" fill="white"/>
<path d="M163.873 83.205C163.744 83.42 163.572 83.635 163.4 83.807C163.314 83.893 163.228 84.022 163.142 84.108L162.97 84.28C162.798 84.452 163.013 84.237 162.927 84.323C162.669 84.581 162.411 84.839 162.153 85.054C161.852 85.312 161.508 85.57 161.207 85.785C161.035 85.914 160.82 86.043 160.648 86.129C160.519 86.215 160.347 86.301 160.218 86.344C159.788 86.516 159.358 86.688 158.928 86.817L158.713 86.86C158.584 86.86 158.455 86.903 158.326 86.903C158.068 86.946 157.81 86.946 157.552 86.946C157.165 86.946 156.864 87.29 156.864 87.677C156.864 87.763 156.864 87.849 156.907 87.935C157.122 88.451 157.595 88.795 158.154 88.795C160.992 88.795 163.529 87.075 165.249 84.968C165.378 84.796 165.507 84.624 165.636 84.452C166.324 83.549 164.518 82.345 163.873 83.205Z" fill="#575757"/>
<path d="M159.53 80.5391C159.53 80.5391 157.767 83.2481 152.736 83.5491L159.53 80.5391Z" fill="white"/>
<path d="M158.455 80.539C158.068 81.055 157.595 81.485 157.036 81.829C155.66 82.732 154.069 83.248 152.435 83.377C152.306 83.377 151.575 83.377 151.704 83.592C151.747 83.678 152.134 83.678 152.177 83.678C152.435 83.721 152.736 83.721 152.994 83.721C155.574 83.549 158.455 82.947 160.261 80.969C160.39 80.84 160.476 80.711 160.605 80.582C160.648 80.496 159.616 80.41 159.53 80.41C159.272 80.41 159.014 80.41 158.756 80.453C158.67 80.41 158.541 80.453 158.455 80.539Z" fill="#575757"/>
<path d="M153.467 77.658C151.016 77.486 147.662 74.562 147.662 74.562L153.467 77.658Z" fill="white"/>
<path d="M154.198 77.357H154.069L153.854 77.314C153.682 77.271 153.553 77.228 153.381 77.185C153.08 77.099 152.736 76.97 152.435 76.798C151.79 76.497 151.188 76.153 150.629 75.766C149.941 75.336 149.296 74.82 148.694 74.304C148.608 74.218 148.264 74.261 148.178 74.261C147.92 74.261 147.619 74.304 147.361 74.39C147.232 74.433 146.458 74.648 146.673 74.82C147.318 75.379 148.006 75.895 148.737 76.368C149.941 77.185 151.317 77.873 152.779 78.002C153.295 78.045 153.811 77.916 154.284 77.701C154.37 77.658 154.585 77.572 154.542 77.443C154.499 77.314 154.241 77.357 154.198 77.357Z" fill="#575757"/>
<path d="M148.393 73.659L137.944 64.07L136.439 62.694C135.579 61.963 134.332 61.963 133.429 62.651C132.655 63.296 132.354 64.457 133.171 65.231L143.663 74.82L145.168 76.196C146.028 76.927 147.275 76.927 148.178 76.239C148.952 75.594 149.253 74.39 148.393 73.659Z" fill="#575757"/>
<path d="M90.3861 90.042L84.5381 77.959L139.191 78.346L133.386 90.042H90.3861Z" fill="white"/>
<path d="M91.4181 89.7411L86.3011 79.1631L85.5701 77.6581L84.5811 78.7761L89.9991 78.8191L103.071 78.9051L118.852 79.0341L132.483 79.1201L136.955 79.1631C137.643 79.1631 138.417 79.2491 139.105 79.1631H139.191L138.202 77.9591L133.085 88.1501L132.397 89.6121L133.3 89.1391H95.5891C93.8691 89.1391 92.1061 89.0531 90.3861 89.1391H90.3001C89.8271 89.1391 89.2251 89.4831 89.2681 89.9991C89.3111 90.5151 89.9131 90.7731 90.3861 90.7731H128.14C129.86 90.7731 131.623 90.8591 133.343 90.7731C133.386 90.7731 133.386 90.7731 133.429 90.7731C133.773 90.7731 134.117 90.6011 134.332 90.3001L139.449 80.1091L140.18 78.6471C140.567 77.9161 139.879 77.4431 139.191 77.4431L133.773 77.4001L120.701 77.3141L104.92 77.1851L91.2891 77.0991C89.0961 77.0991 86.8601 76.9701 84.6671 77.0561H84.5811C84.0651 77.0561 83.2911 77.5291 83.5921 78.1311L88.7091 88.7091L89.4401 90.1711C89.8271 91.2461 91.9341 90.7731 91.4181 89.7411Z" fill="#575757"/>
<path d="M94.815 120.744C94.815 120.744 87.978 94.643 83.979 88.408C83.979 88.408 126.764 79.98 139.621 89.612C139.621 89.612 125.947 105.866 125.56 120.529L94.815 120.744Z" fill="white"/>
<path d="M95.718 120.228C94.901 117.175 94.041 114.079 93.181 111.026C91.547 105.436 89.87 99.846 87.849 94.385C87.032 92.192 86.172 89.87 84.882 87.892L83.678 89.053C83.721 89.053 83.721 89.053 83.764 89.053C83.807 89.053 83.807 89.053 83.85 89.053C83.936 89.053 83.549 89.096 83.764 89.053L84.624 88.881C85.699 88.709 86.731 88.494 87.806 88.322C91.418 87.72 95.03 87.247 98.642 86.817C103.329 86.301 108.016 85.914 112.746 85.742C117.433 85.527 122.163 85.699 126.85 86.258C130.591 86.731 134.504 87.548 137.772 89.569C138.116 89.784 138.46 89.999 138.761 90.257V89.741C137.084 91.805 135.493 93.955 134.074 96.191C131.021 100.878 128.269 105.866 126.463 111.198C125.345 114.38 124.7 117.691 124.528 121.045L125.99 119.97L115.541 120.056L99.029 120.142H95.245C94.729 120.185 94.256 120.486 93.912 120.916C93.654 121.303 93.826 121.518 94.256 121.475L104.705 121.389L121.26 121.26H125.044C125.517 121.26 126.506 120.744 126.506 120.185C126.678 114.337 128.785 108.661 131.408 103.501C133.515 99.373 135.966 95.417 138.761 91.719C139.32 90.988 139.836 90.257 140.438 89.569C140.567 89.397 140.653 89.182 140.438 89.053C137.428 86.817 133.558 85.828 129.946 85.226C125.259 84.495 120.486 84.237 115.756 84.366C110.94 84.452 106.124 84.796 101.351 85.312C97.481 85.699 93.654 86.215 89.784 86.86C87.978 87.161 86.043 87.376 84.28 87.806H84.194C83.893 87.849 82.689 88.494 82.99 88.967C84.065 90.73 84.925 92.622 85.613 94.6C86.645 97.223 87.548 99.932 88.408 102.598C90.042 107.715 91.547 112.832 92.966 117.992C93.267 119.11 93.568 120.185 93.869 121.303C93.998 121.819 95.933 120.959 95.718 120.228Z" fill="#575757"/>
<path d="M78.7329 101.48L85.3549 91.246L87.3759 96.062C87.3759 96.062 105.264 93.654 106.253 96.062C107.242 98.47 97.6099 100.276 97.6099 100.276C97.6099 100.276 105.866 100.491 105.049 103.071C104.232 105.651 98.0399 105.092 98.0399 105.092C98.0399 105.092 103.888 105.479 102.039 107.887C100.233 110.295 87.9779 111.284 87.9779 111.284L85.1829 115.326C85.1829 115.326 78.9479 107.285 78.7329 101.48Z" fill="white"/>
<path d="M79.5501 102.168L85.3551 93.2241L86.1721 91.9341L84.5381 90.7731L86.5591 95.5891C86.7311 95.8901 86.9891 96.1911 87.2901 96.4061C87.5051 96.5351 87.8491 96.8361 88.1071 96.8361C91.8911 96.3201 95.7611 95.9331 99.5451 95.8041C101.609 95.7181 103.888 95.5891 105.866 96.1481C106.038 96.1911 105.866 96.1481 105.952 96.1911C106.038 96.2341 106.21 96.3631 105.995 96.1911C106.167 96.3201 105.823 96.0621 105.952 96.1481C105.78 95.9761 105.608 95.8041 105.436 95.6321C105.307 95.5031 105.436 95.5891 105.436 95.6321C105.436 95.6751 105.479 95.7611 105.479 95.8471C105.479 96.0191 105.436 96.1911 105.307 96.3201C104.791 97.1371 103.673 97.5671 102.856 97.9111C100.921 98.6851 98.9001 99.2441 96.8791 99.5881C96.5351 99.6311 97.1371 100.276 97.2231 100.362C97.5241 100.706 97.9111 100.964 98.3841 101.05C100.233 101.093 102.297 101.265 104.06 101.953C104.189 101.996 104.275 102.039 104.404 102.125C104.533 102.211 104.404 102.125 104.576 102.211C104.275 101.996 104.662 102.297 104.49 102.168C104.404 102.082 104.318 101.996 104.232 101.91C104.275 101.953 104.232 101.824 104.232 101.953C104.318 102.383 104.146 102.813 103.888 103.157C103.028 104.146 101.48 104.361 100.276 104.447C99.2871 104.533 98.2981 104.533 97.3091 104.447L98.8141 105.909C99.3301 105.952 99.8891 106.038 100.405 106.124C100.835 106.21 101.222 106.339 101.609 106.468C101.695 106.511 101.824 106.554 101.91 106.597C101.738 106.511 102.082 106.726 101.953 106.64C101.824 106.554 101.695 106.382 101.566 106.296C101.437 106.21 101.566 106.253 101.566 106.339C101.695 108.016 99.0721 108.661 97.8681 109.005C95.5891 109.607 93.3101 110.037 90.9881 110.295C90.1281 110.424 89.2681 110.51 88.3651 110.596C87.9781 110.596 87.6341 110.596 87.2901 110.682C87.0751 110.768 86.9461 111.112 86.8171 111.284L85.8711 112.66L84.4091 114.767L85.9571 115.799C83.6781 112.918 81.8291 109.693 80.5391 106.253C80.0661 104.963 79.7651 103.587 79.6791 102.211C79.6791 101.824 79.0771 101.394 78.7761 101.222C78.6901 101.136 77.9591 100.663 77.9591 101.007C78.0451 103.544 79.0771 106.038 80.2381 108.274C81.2701 110.252 82.4311 112.187 83.7211 114.036C83.9791 114.423 84.2371 114.767 84.5381 115.154C84.6671 115.326 85.8281 116.53 86.0861 116.186L87.4191 114.251L88.3651 112.918C88.4941 112.66 88.6661 112.402 88.8811 112.187C88.9671 112.187 89.0531 112.187 89.0961 112.187L89.9131 112.101C90.8591 112.015 91.8481 111.886 92.7941 111.757C94.2991 111.542 105.221 110.295 103.028 107.027C101.824 105.221 99.3731 104.705 97.3521 104.533C97.0081 104.533 97.6531 105.264 97.6961 105.307C97.9971 105.651 98.3841 105.909 98.8571 105.995C99.8461 106.081 100.835 106.081 101.824 105.995C103.114 105.866 104.92 105.608 105.737 104.49C106.683 103.157 105.221 101.867 104.146 101.222C102.899 100.491 101.437 100.19 100.018 100.018C99.0291 99.8891 97.9971 99.8031 96.9651 99.7601L98.4701 101.222C100.405 100.878 102.254 100.362 104.103 99.6741C105.092 99.2871 106.253 98.8571 106.941 98.0401C107.629 97.2231 107.027 96.3201 106.296 95.7181C104.662 94.3421 102.168 94.4281 100.147 94.4711C97.3521 94.4711 94.6001 94.6861 91.8051 94.9441C90.0851 95.1161 88.4081 95.2881 86.6881 95.5031L88.2361 96.7071L86.2151 91.8911C86.1291 91.6331 84.8391 90.3431 84.5811 90.7301L78.7761 99.6741L77.9591 100.964C77.6581 101.179 79.3781 102.469 79.5501 102.168Z" fill="#575757"/>
<path d="M92.5789 52.546C92.5789 52.546 87.7629 39.13 99.0719 34.013C110.381 28.896 125.216 37.625 126.119 52.546C127.022 67.467 108.833 69.445 108.833 69.445L92.5789 52.546Z" fill="white"/>
<path d="M93.3531 52.847C93.2241 52.503 93.1381 52.116 93.0521 51.772C92.9661 51.428 92.8371 50.955 92.7941 50.568C92.7081 50.095 92.6221 49.536 92.5361 49.149C92.1491 46.483 92.4071 43.774 93.3531 41.237C96.0191 34.615 104.146 32.293 110.596 33.927C117.562 35.69 122.98 41.194 124.657 48.16C125.517 51.557 125.603 55.255 124.227 58.523C123.109 61.017 121.26 63.167 118.938 64.672C115.799 66.822 112.144 67.94 108.403 68.542L108.188 68.585L109.177 69.058L103.673 63.339L94.9441 54.266L92.9231 52.159C92.6651 51.901 92.1491 51.428 91.7621 51.729C91.3751 52.03 91.8481 52.675 92.0631 52.89L96.9651 57.964L105.35 66.65L107.973 69.359L108.36 69.746C108.661 70.133 109.177 70.305 109.65 70.219C112.058 69.875 114.38 69.187 116.616 68.241C120.142 66.736 123.367 64.414 125.259 60.974C127.796 56.416 127.194 50.74 125.431 46.01C123.453 40.893 119.755 36.636 114.896 34.056C110.51 31.734 105.264 30.874 100.448 32.293C97.9111 33.024 95.6321 34.4 93.8261 36.292C92.3641 37.969 91.3751 39.99 90.9881 42.14C90.3861 45.322 90.6011 48.59 91.5041 51.643C91.5471 51.815 91.5901 51.987 91.6761 52.159C91.8481 52.675 92.1921 53.062 92.7081 53.277C93.1811 53.535 93.5251 53.32 93.3531 52.847Z" fill="#575757"/>
<path d="M93.0091 64.7581C88.7521 59.5981 92.5791 41.0651 92.5791 41.0651C95.5461 36.2921 111.327 39.2161 111.327 39.2161C109.134 43.9891 109.908 51.8151 109.908 51.8151C111.714 47.5581 116.745 49.3641 116.487 53.5351C116.229 57.7061 111.327 58.9531 111.327 58.9531C111.327 58.9531 112.746 67.8111 112.359 69.4451C111.972 71.0791 104.189 73.5301 100.061 68.8431C100.018 68.8001 96.7071 69.2301 93.0091 64.7581Z" fill="white"/>
<path d="M93.6109 64.3711C93.7829 64.5861 93.5249 64.1991 93.4389 64.1561C93.3529 64.0271 93.2669 63.8981 93.1809 63.7261C93.0519 63.4681 93.2669 63.8981 93.1379 63.6401C93.0949 63.5541 93.0519 63.4681 93.0519 63.4251C92.9659 63.2531 92.9229 63.0811 92.8369 62.9521C92.5789 62.2641 92.4069 61.5331 92.2779 60.8021C91.9769 59.0391 91.8909 57.2331 91.8909 55.4701C91.9339 51.9441 92.2779 48.4181 92.8369 44.9781C93.0089 43.9891 93.1809 42.9571 93.3529 41.9681C93.3529 41.8821 93.3959 41.7531 93.3959 41.6671C93.3959 41.6241 93.4389 41.4951 93.3959 41.5811C93.3529 41.6671 93.5679 41.4091 93.6109 41.3231C93.6969 41.1941 93.8259 41.1081 93.9119 40.9791C94.1269 40.8071 94.3419 40.6351 94.5999 40.5061C95.8469 39.7321 97.4379 39.4741 98.8999 39.3021C100.62 39.1301 102.34 39.0871 104.06 39.2161C105.78 39.3021 107.5 39.4741 109.22 39.6891C109.779 39.7751 110.338 39.8611 110.897 39.9471C110.553 39.9041 111.026 39.9901 111.155 39.9901C111.198 39.9901 111.284 40.0331 111.327 40.0761L110.295 38.7861C109.134 41.3231 108.833 44.2471 108.747 46.9991C108.661 48.5041 108.704 50.0521 108.833 51.5571C108.919 52.3311 110.338 53.1911 110.725 52.2881C111.198 51.2561 112.144 50.2671 113.262 50.2241C113.477 50.2241 113.692 50.2241 113.907 50.3101C114.122 50.3531 113.95 50.3101 114.122 50.3961L114.251 50.4821C114.509 50.6111 114.079 50.3531 114.337 50.5251C114.38 50.5681 114.638 50.7831 114.509 50.6541C114.595 50.7401 114.724 50.8691 114.81 50.9551C114.724 50.8691 114.896 51.0841 114.939 51.1271C115.025 51.2131 115.068 51.3421 115.111 51.4281C116.186 53.8361 114.423 56.2441 112.402 57.4051C112.187 57.5341 111.929 57.6631 111.714 57.7491L111.37 57.9211L111.241 57.9641C111.069 58.0501 110.854 58.0931 110.682 58.1361C110.424 58.1791 110.209 58.4371 110.252 58.6951C110.51 60.2861 110.725 61.8771 110.94 63.4681C111.069 64.6291 111.198 65.7901 111.284 66.9941C111.413 67.6821 111.413 68.4131 111.284 69.1011C111.327 68.9291 111.327 69.0581 111.241 69.1441C111.155 69.2301 111.155 69.2301 111.112 69.3161C111.069 69.4021 111.069 69.3591 111.069 69.3591C110.983 69.4021 110.897 69.4881 110.854 69.5311C110.51 69.7891 110.08 70.0041 109.693 70.1331C108.661 70.5201 107.543 70.7351 106.425 70.7351C105.178 70.7781 103.888 70.5631 102.727 70.0471C102.168 69.7891 101.609 69.4451 101.136 69.0151C100.577 68.4991 100.19 67.9401 99.3729 67.9831C99.6309 67.9831 99.4589 67.9831 99.3299 67.9831C99.1579 67.9831 99.0289 67.9831 98.8569 67.9831H98.7279C98.5559 67.9401 98.8569 67.9831 98.7279 67.9831L98.3839 67.8971C98.2549 67.8541 98.1259 67.8111 97.9969 67.8111C97.9109 67.7681 97.8249 67.7251 97.7389 67.7251C96.1049 67.0371 94.7289 65.7901 93.6109 64.3711C93.3099 64.0701 92.6649 63.7691 92.2349 64.0271C91.8049 64.2851 92.1059 64.8871 92.3209 65.1451C93.8259 66.9511 95.6749 68.4991 97.8679 69.2731C98.6849 69.6171 99.5879 69.7461 100.491 69.6601L99.3299 69.2301C102.297 72.5411 107.543 73.3581 111.542 71.4661C112.101 71.2511 112.617 70.8641 113.004 70.3481C113.262 69.8321 113.348 69.2731 113.262 68.6711C113.176 66.8221 113.004 65.0161 112.746 63.1671C112.574 61.8341 112.359 60.5011 112.187 59.1681L111.757 59.7271C113.778 59.2111 115.842 57.8351 116.745 55.9431C117.519 54.3951 117.476 52.5891 116.702 51.0411C115.928 49.6221 114.509 48.6331 112.875 48.4611C110.94 48.2891 109.521 49.6221 108.833 51.2991L110.725 52.0301C110.596 50.5681 110.553 49.0631 110.639 47.6011C110.725 44.9351 111.069 42.0971 112.144 39.6461C112.359 39.1301 111.499 38.4421 111.112 38.3991C108.919 38.0121 106.726 37.7541 104.49 37.5821C102.684 37.4531 100.835 37.4101 98.9859 37.5391C97.2659 37.6251 95.5459 37.9691 93.9119 38.5711C93.0089 38.9581 91.7189 39.6891 91.4609 40.7211C91.2459 41.4951 91.1599 42.3551 91.0309 43.1721C90.4289 46.6981 90.0849 50.2241 89.9559 53.7931C89.8699 55.9001 89.9559 58.0501 90.2569 60.1571C90.5579 61.9631 91.0739 63.7691 92.2779 65.2311C92.5359 65.5751 93.2239 65.8761 93.6109 65.6181C93.9979 65.3601 93.8689 64.6721 93.6109 64.3711Z" fill="#575757"/>
<path d="M97.7821 60.372C97.7821 60.372 87.8491 61.404 86.3011 56.201C84.7531 50.998 91.9341 48.848 97.3091 53.363" fill="white"/>
<path d="M97.4381 59.598C97.1801 59.641 96.9651 59.641 96.7071 59.641L95.8901 59.684H95.3741H95.0731C94.2131 59.684 93.3961 59.598 92.5791 59.469C92.3641 59.426 92.1491 59.426 91.9771 59.383C91.8481 59.34 91.9771 59.383 92.0201 59.383L91.8051 59.34L91.4611 59.254C91.0311 59.125 90.6011 58.996 90.1711 58.867C90.0421 58.824 90.1711 58.867 90.2141 58.867L90.0851 58.824L89.8271 58.695C89.6121 58.609 89.4401 58.523 89.2251 58.394C89.1821 58.351 89.0961 58.308 89.0531 58.308C88.9241 58.222 88.8811 58.222 88.7951 58.136C88.6231 58.007 88.4511 57.878 88.3221 57.749C88.4081 57.835 88.2361 57.62 88.1931 57.62L88.0211 57.405C87.8921 57.276 87.8061 57.147 87.7631 56.975C87.5481 56.588 87.4191 56.158 87.3331 55.728C87.0321 53.922 88.0641 52.46 89.7411 51.944C92.1491 51.213 94.8151 52.288 96.7071 53.879C97.1371 54.223 97.6961 54.309 98.2121 54.051C98.6421 53.75 98.4701 53.277 98.1261 52.976C95.8901 51.127 92.8801 49.923 89.9131 50.267C87.7631 50.525 85.5271 51.772 85.2261 54.094C84.5811 59.082 90.3431 60.888 94.2561 61.189C95.5891 61.318 96.9221 61.318 98.2981 61.189C98.7281 61.146 99.1581 60.802 98.9431 60.329C98.5131 59.77 97.9971 59.512 97.4381 59.598Z" fill="#575757"/>
<path d="M104.92 57.147C104.877 57.448 104.834 57.749 104.748 58.007C104.748 58.05 104.748 58.05 104.705 58.093C104.662 58.136 104.705 58.093 104.705 58.05C104.662 58.136 104.662 58.179 104.619 58.265C104.576 58.394 104.49 58.566 104.404 58.695C104.318 58.824 104.232 58.996 104.146 59.125C104.103 59.168 104.103 59.168 104.06 59.211L104.017 59.254C103.974 59.297 104.06 59.211 104.06 59.211C104.06 59.211 103.888 59.383 103.888 59.426C103.759 59.598 103.587 59.727 103.415 59.856C103.329 59.942 103.2 59.985 103.114 60.071C103.2 59.985 103.114 60.071 103.071 60.114L102.856 60.2C102.555 60.372 102.469 60.759 102.641 61.06C102.641 61.103 102.684 61.103 102.684 61.103C102.856 61.361 103.286 61.748 103.63 61.576C104.447 61.189 105.135 60.587 105.608 59.813C105.909 59.297 106.124 58.738 106.21 58.136C106.253 58.007 106.253 57.921 106.253 57.792C106.296 57.362 106.081 56.975 105.694 56.803C105.436 56.717 104.92 56.717 104.92 57.147Z" fill="#575757"/>
<path d="M103.802 46.87C104.232 46.999 104.49 47.429 104.404 47.902C104.404 47.945 104.361 47.988 104.361 48.031C103.974 48.891 102.985 48.418 103.028 47.601C103.028 47.214 103.329 46.913 103.716 46.87C103.759 46.87 103.802 46.87 103.802 46.87Z" fill="#575757"/>
<path d="M96.449 49.665C96.449 49.321 96.578 48.977 96.75 48.719C96.836 48.59 96.922 48.461 97.051 48.375C97.094 48.332 97.18 48.289 97.223 48.246C97.309 48.203 97.352 48.16 97.438 48.16H97.223H97.266L96.836 48.074C96.535 47.988 96.578 47.945 96.664 48.031L96.707 48.117C96.75 48.16 96.793 48.246 96.836 48.332C96.922 48.504 96.965 48.676 96.965 48.848C97.051 49.235 97.094 49.579 97.094 49.966C97.094 50.009 97.18 50.052 97.223 50.052C97.352 50.095 97.481 50.138 97.61 50.181C97.653 50.181 98.169 50.31 98.169 50.224C98.126 49.88 98.083 49.493 98.04 49.149C97.997 48.805 97.868 48.504 97.696 48.246C97.438 48.031 97.094 47.902 96.793 47.902C96.578 47.859 96.406 47.902 96.234 48.031C96.019 48.203 95.804 48.375 95.675 48.633C95.503 48.934 95.417 49.235 95.417 49.536C95.417 49.579 95.546 49.622 95.546 49.622C95.675 49.665 95.804 49.708 95.89 49.751C95.933 49.622 96.406 49.751 96.449 49.665Z" fill="#575757"/>
<path d="M138.803 54.7877C140.484 44.4264 133.448 34.6637 123.087 32.9821C112.725 31.3005 102.963 38.3368 101.281 48.6982C99.5995 59.0595 106.636 68.8222 116.997 70.5037C127.358 72.1853 137.121 65.149 138.803 54.7877Z" fill="white"/>
<path d="M137.041 52.2451C137.041 53.2341 136.955 54.2231 136.826 55.2121C136.697 56.0721 136.482 56.9751 136.181 57.7921C135.88 58.6951 135.536 59.5551 135.106 60.3721C135.02 60.5441 134.934 60.7591 134.805 60.9311L134.633 61.2321C134.59 61.3181 134.418 61.5761 134.59 61.2751C134.332 61.6621 134.074 62.0921 133.816 62.4791C133.558 62.8661 133.3 63.2101 132.999 63.5541C132.87 63.7261 132.741 63.8981 132.569 64.0271C132.397 64.1561 132.397 64.2421 132.311 64.3281C132.053 64.6291 132.569 64.0701 132.268 64.3711C131.623 65.0161 130.935 65.6181 130.204 66.1771C130.118 66.2631 130.032 66.3491 129.946 66.3921C130.333 66.1771 130.161 66.2631 130.032 66.3491L129.43 66.7361C129.043 66.9941 128.613 67.2521 128.226 67.4671L127.925 67.6391C127.581 67.8111 127.882 67.5531 128.011 67.5961C127.925 67.5531 127.452 67.8541 127.366 67.8971C126.936 68.0691 126.506 68.2841 126.033 68.4131L125.775 68.4991C125.56 68.5851 125.345 68.6281 125.13 68.6711C124.657 68.8001 124.141 68.9291 123.625 69.0151C123.453 69.0581 123.238 69.1011 123.023 69.1011C123.582 69.0581 122.808 69.1441 122.679 69.1441C122.206 69.1871 121.69 69.2301 121.174 69.2301C120.916 69.2301 120.658 69.2301 120.4 69.2301C120.4 69.2301 119.884 69.2301 120.185 69.2301C120.486 69.2301 119.97 69.2301 119.97 69.2301C119.497 69.1871 118.981 69.1441 118.508 69.1011C118.035 69.0581 117.605 68.9721 117.132 68.8431L116.487 68.7141C116.014 68.6281 116.788 68.8001 116.315 68.6711L115.885 68.5421C114.982 68.2841 114.122 67.9401 113.305 67.5531C112.918 67.3811 112.488 67.1661 112.101 66.9511C111.886 66.8221 111.671 66.7361 111.499 66.6071C111.542 66.6501 111.714 66.7361 111.456 66.5641L111.112 66.3061C109.564 65.2741 108.188 64.0271 107.027 62.5651C103.458 58.1361 102.168 52.2881 103.501 46.7411C103.458 46.9561 103.501 46.6981 103.501 46.6551C103.544 46.5261 103.544 46.4401 103.587 46.3111C103.63 46.0961 103.716 45.8811 103.759 45.7091C103.931 45.2361 104.103 44.7631 104.275 44.2901C104.447 43.8171 104.619 43.4731 104.834 43.0431C104.92 42.8281 105.049 42.6131 105.178 42.3981C105.221 42.3121 105.565 41.7531 105.393 42.0111C105.866 41.1941 106.425 40.4201 107.027 39.7321C107.156 39.5601 107.328 39.3881 107.5 39.2161C107.543 39.1301 107.629 39.0871 107.672 39.0011C107.457 39.1731 107.973 38.6571 107.672 39.0011C108.016 38.6571 108.36 38.3131 108.747 37.9691C109.134 37.6251 109.392 37.4101 109.736 37.1521C109.822 37.0661 109.908 37.0231 109.994 36.9371C110.209 36.7651 109.564 37.2381 109.951 36.9801C110.166 36.8511 110.338 36.7221 110.553 36.5931C110.94 36.3351 111.37 36.0771 111.757 35.8621L112.015 35.7331C112.058 35.7331 112.488 35.4751 112.144 35.6471C111.8 35.8191 112.23 35.6041 112.273 35.6041C112.402 35.5611 112.531 35.4751 112.66 35.4321C113.09 35.2601 113.477 35.0881 113.907 34.9161C114.122 34.8301 114.294 34.7441 114.509 34.7011L114.939 34.5721C115.369 34.4431 115.799 34.3571 116.229 34.2711C116.487 34.2711 116.702 34.2281 116.96 34.1421C116.659 34.2711 116.702 34.1851 116.874 34.1421L117.39 34.0991C117.863 34.0561 118.336 34.0131 118.809 34.0131H119.583H119.884C119.454 34.0131 119.927 34.0131 120.013 34.0131C121.002 34.0561 121.991 34.1851 122.937 34.4001C123.152 34.4431 123.41 34.4861 123.625 34.5721C123.324 34.4861 123.797 34.6151 123.926 34.6581C124.442 34.7871 124.915 34.9591 125.431 35.1741C126.248 35.5181 127.065 35.9051 127.882 36.3351C128.097 36.4641 128.312 36.5931 128.484 36.6791C128.269 36.5501 128.527 36.7221 128.57 36.7651L128.871 36.9371C129.258 37.1951 129.645 37.4531 129.989 37.7541C130.72 38.3131 131.408 38.9581 132.053 39.6461C133.257 40.9361 134.289 42.3981 135.063 43.9891C135.88 45.6231 136.439 47.3861 136.74 49.1921C136.955 50.2671 137.041 51.2561 137.041 52.2451C137.041 54.0941 141.126 52.8901 141.126 51.2991C141.126 42.8711 135.794 35.3891 127.882 32.5511C119.325 29.5411 109.521 32.4221 103.759 39.3451C98.3411 45.7951 97.4381 55.3411 101.867 62.5221C104.017 66.0481 107.199 68.8001 110.94 70.4771C115.025 72.2401 119.583 72.6701 123.926 71.7241C132.483 69.9611 139.535 63.0381 140.911 54.3521C141.083 53.3631 141.169 52.3311 141.169 51.2991C141.126 49.4071 137.041 50.6111 137.041 52.2451Z" fill="#575757"/>
<path d="M119.368 50.611C119.368 50.611 123.023 51.815 121.561 55.255C120.099 58.695 115.885 56.889 116.186 53.535C116.487 50.181 119.368 50.611 119.368 50.611Z" fill="#575757"/>
<path d="M73.573 108.145C75.723 106.253 77.701 104.146 79.507 101.953C79.765 101.609 79.163 101.05 78.905 100.921C78.647 100.792 78.002 100.362 77.744 100.706C75.938 102.942 73.917 105.006 71.81 106.898C71.681 106.984 71.81 107.285 71.853 107.371C71.982 107.586 72.154 107.801 72.369 107.93C72.713 108.145 73.229 108.446 73.573 108.145Z" fill="#575757"/>
<path d="M168.044 61.4471L161.766 66.1771C161.551 66.3061 161.035 66.8651 161.422 67.0801C161.809 67.2951 162.454 66.9081 162.712 66.6931L168.99 61.9631C169.205 61.7911 169.721 61.2751 169.334 61.0601C168.947 60.8451 168.302 61.2321 168.044 61.4471Z" fill="#575757"/>
<path d="M152.779 74.4331C152.822 74.7771 152.822 75.1211 152.865 75.4651C152.865 75.5511 152.865 75.5941 152.865 75.6801C152.865 75.4221 152.865 75.7661 152.865 75.8091C152.865 75.9811 152.865 76.1101 152.822 76.2821C152.779 76.4541 152.779 76.5831 152.736 76.7551C152.693 76.9271 152.736 76.8411 152.736 76.7551C152.736 76.7981 152.736 76.8411 152.693 76.8841C152.693 76.9701 152.65 77.0131 152.65 77.0991C152.607 77.2711 152.521 77.4001 152.435 77.5291C152.349 77.6581 152.521 77.4001 152.392 77.5721C152.349 77.6581 152.306 77.7441 152.22 77.7871C151.962 78.2601 152.048 78.8191 152.435 79.2061C152.693 79.5071 153.338 79.8081 153.639 79.3781C154.112 78.6901 154.413 77.9161 154.499 77.0991C154.542 76.2821 154.542 75.5081 154.456 74.6911C154.413 74.1321 154.026 73.7021 153.467 73.5731C152.994 73.4871 152.736 73.9601 152.779 74.4331Z" fill="#575757"/>
<path d="M41.28 89.268C37.539 99.287 37.281 110.338 39.431 120.744C41.581 131.021 46.053 140.653 51.686 149.468C54.868 154.413 58.351 159.186 62.049 163.701C62.35 164.002 62.737 164.26 63.167 164.432C63.253 164.475 63.984 164.733 63.941 164.604C57.362 156.52 51.385 147.92 46.999 138.46C42.527 128.828 39.818 118.379 39.99 107.758C40.076 101.781 41.151 95.89 43.172 90.3C43.301 89.999 41.366 89.139 41.28 89.268Z" fill="#575757"/>
<path d="M108.317 18.146C116.53 17.716 124.872 17.286 132.956 18.92C140.911 20.511 147.963 24.467 154.499 29.111C158.24 31.777 161.809 34.701 165.206 37.84C165.464 38.098 165.98 38.399 166.238 38.012C166.496 37.625 166.023 36.937 165.765 36.722C159.659 31.046 152.865 25.886 145.512 21.93C141.9 19.952 138.03 18.49 134.074 17.501C129.946 16.555 125.775 16.039 121.561 15.996C116.831 15.867 112.101 16.125 107.328 16.34C106.855 16.383 107.07 17.157 107.199 17.372C107.371 17.759 107.801 18.103 108.317 18.146Z" fill="#575757"/>
<path d="M184.943 85.613C185.416 89.182 185.545 92.751 185.373 96.32C185.33 97.051 187.437 97.395 187.48 96.836C187.652 93.181 187.523 89.483 187.05 85.871C186.964 85.183 184.857 84.839 184.943 85.613Z" fill="#575757"/>
</svg>
