<svg width="100" height="101" viewBox="0 0 100 101" fill="none" xmlns="http://www.w3.org/2000/svg">
<path d="M82.7 35.7L63.72 37.02C63.72 37.02 61.32 31.98 55.36 32.24C49.4 32.5 45.4 36.76 45.4 36.76L47.26 45.4L29.86 60.8C29.86 60.8 30.26 66.24 36.9 63.46C36.9 63.46 39.82 69.44 46.6 65.72C46.6 65.72 48.2 69.44 54.84 64.52C61.48 59.6 65.6 55.9 65.6 55.9L81.4 54.44C81.38 54.42 83.36 36.76 82.7 35.7Z" fill="white"/>
<path d="M83.12 35.46L80.72 35.62L75.18 36L69.02 36.42L64.76 36.72L64.28 36.76C64.24 36.76 64.2 36.76 64.16 36.76C64.12 36.76 64.14 36.76 64.14 36.78C64.08 36.74 64.02 36.56 63.98 36.5C63.84 36.26 63.7 36.04 63.54 35.82C62.36 34.12 60.62 32.88 58.64 32.32C55.7 31.5 52.46 32.3 49.78 33.6C48.04 34.42 46.44 35.52 45.06 36.86C45 36.92 44.94 36.96 44.94 37.06C44.96 37.26 45 37.44 45.06 37.62L45.58 40.08L46.7 45.32L46.78 45.64L46.82 45.58L43.7 48.34L37.1 54.18L31.1 59.5L29.58 60.84C29.52 60.9 29.4 60.98 29.38 61.06C29.38 61.24 29.4 61.44 29.48 61.6C29.66 62.46 30.12 63.22 30.8 63.78C31.98 64.72 33.62 64.6 35 64.24C35.58 64.08 36.14 63.88 36.68 63.66L36.44 63.72C36.8 64.42 37.3 65.06 37.9 65.58C39.12 66.72 40.78 67.32 42.46 67.18C43.94 67.08 45.34 66.5 46.62 65.8L46.14 65.98C46.36 66.42 46.7 66.76 47.12 66.98C48.3 67.62 49.76 67.3 50.94 66.86C53.6 65.84 55.86 63.94 58.1 62.22C59.98 60.78 61.82 59.28 63.66 57.76C64.44 57.1 65.22 56.44 65.98 55.76L65.16 56.18L70.5 55.68L79 54.9L80.96 54.72C81.14 54.68 81.32 54.62 81.46 54.5C81.56 54.46 81.8 54.34 81.8 54.22C82.02 52.22 82.24 50.2 82.44 48.2C82.76 44.9 83.1 41.58 83.24 38.24C83.26 37.64 83.28 37.02 83.26 36.42C83.26 36.14 83.28 35.74 83.14 35.5C83.08 35.4 82.2 35.88 82.26 35.98C82.38 36.18 82.38 36.52 82.38 36.76C82.4 37.26 82.38 37.76 82.38 38.28C82.34 39.78 82.22 41.28 82.1 42.78C81.84 46.02 81.52 49.28 81.18 52.52C81.1 53.26 81.02 53.98 80.94 54.72L81.8 54.24L76.26 54.76L67.7 55.56C67.14 55.62 66.56 55.62 66 55.72C65.58 55.78 65.24 56.1 64.94 56.36C64.58 56.68 64.22 56.98 63.86 57.3C62.4 58.48 60.9 59.7 59.4 60.9C58.32 61.76 57.24 62.6 56.14 63.42C55.02 64.26 53.92 65.14 52.7 65.82C51 66.78 48.36 67.52 47.08 65.56C47.06 65.54 47.04 65.5 47.04 65.48C47 65.4 46.58 65.64 46.56 65.66C44.76 66.64 42.6 67.08 40.64 66.28C39.46 65.78 38.46 64.96 37.74 63.9C37.58 63.68 37.46 63.46 37.34 63.24C37.32 63.2 37.12 63.3 37.1 63.3C35.56 63.94 33.52 64.48 32 63.5C31.2 62.96 30.66 62.14 30.44 61.22C30.38 61.02 30.34 60.8 30.32 60.6L30.28 60.66L32.02 59.12L36.18 55.44L41.2 51L45.54 47.16L46.98 45.88C47.2 45.68 47.46 45.5 47.66 45.28L47.68 45.26C47.7 45.24 47.72 45.22 47.72 45.2L46.1 37.64L45.88 36.58L45.84 36.64C46.36 36.1 46.92 35.62 47.54 35.2C48.92 34.2 50.46 33.44 52.1 33C54.1 32.46 56.28 32.32 58.28 32.98C59.7 33.46 60.98 34.32 62 35.44C62.54 36 62.98 36.64 63.32 37.32L63.34 37.34L65.22 37.2L69.74 36.88L75.2 36.48L79.96 36.14C80.72 36.08 81.5 36.06 82.26 35.98H82.3C82.5 35.94 82.7 35.86 82.86 35.74C82.9 35.68 83.18 35.44 83.12 35.46Z" fill="#C8303F"/>
<path d="M46.58 55.24C46.18 55.46 45.8 55.74 45.46 56.06C44.82 56.6 44.18 57.14 43.56 57.68C41.96 59.04 40.36 60.4 38.64 61.62C37.88 62.2 37.06 62.7 36.18 63.1C35.74 63.3 36.54 63.84 36.86 63.7C38.58 62.94 40.08 61.72 41.54 60.56C43.06 59.34 44.52 58.06 46.02 56.8C46.28 56.58 46.54 56.36 46.82 56.14C46.92 56.06 47 56 47.1 55.94L47.22 55.86C47.28 55.82 47.3 55.82 47.26 55.84C47.68 55.64 46.88 55.08 46.58 55.24Z" fill="#C8303F"/>
<path d="M52.38 59.9C50.92 61.44 49.42 62.94 47.86 64.36C47.36 64.82 46.84 65.26 46.3 65.66C46.18 65.74 46.06 65.92 46.24 65.98C46.42 66.04 46.74 65.88 46.9 65.76C47.98 64.94 49 64.04 49.96 63.08C50.86 62.22 51.74 61.32 52.62 60.42C52.8 60.24 52.98 60.04 53.16 59.86C53.3 59.72 53.22 59.6 53.04 59.6C52.78 59.62 52.56 59.72 52.38 59.9Z" fill="#C8303F"/>
<path d="M93.8 30.8C93.8 30.8 95.82 32.74 96 34.1C96.18 35.46 90 65.36 89.18 66.46C88.36 67.56 85.32 67.78 85.32 67.78L93.8 30.8Z" fill="white"/>
<path d="M93.32 30.86C93.86 31.38 94.34 31.94 94.76 32.54C95.1 33.02 95.52 33.66 95.5 34.28C95.44 34.94 95.36 35.6 95.22 36.24C95.02 37.46 94.8 38.66 94.56 39.88C94.26 41.46 93.96 43.04 93.64 44.62C93.28 46.4 92.92 48.16 92.56 49.94C92.2 51.72 91.82 53.5 91.42 55.3C91.08 56.92 90.72 58.54 90.34 60.14C90.04 61.42 89.76 62.68 89.44 63.96C89.26 64.7 89.08 65.44 88.82 66.16C88.8 66.22 88.76 66.3 88.74 66.36C88.62 66.54 88.46 66.7 88.26 66.82C87.84 67.06 87.4 67.24 86.94 67.34C86.74 67.4 86.52 67.44 86.3 67.48L85.98 67.54C85.9 67.56 86 67.54 85.92 67.54L85.76 67.56C85.62 67.58 85.5 67.6 85.36 67.6C85.3 67.6 85.02 67.62 85.3 67.6L85.8 67.72L86.02 66.74L86.64 64.04L87.54 60.08L88.66 55.22L89.88 49.92L91.1 44.56L92.26 39.54L93.22 35.32L93.92 32.28L94.14 31.34C94.18 31.18 94.22 31 94.26 30.84C94.26 30.82 94.26 30.8 94.28 30.78C94.3 30.66 93.34 30.56 93.28 30.82L93.06 31.8L92.44 34.5L91.52 38.48L90.4 43.36L89.18 48.66L87.96 54.02L86.8 59.04L85.82 63.26L85.12 66.3L84.9 67.24C84.86 67.4 84.82 67.58 84.78 67.74C84.78 67.76 84.78 67.78 84.76 67.8C84.74 67.92 85.24 67.92 85.26 67.92C85.94 67.86 86.62 67.76 87.3 67.6C87.8 67.48 88.3 67.32 88.78 67.1C89.12 66.96 89.4 66.74 89.62 66.46C89.72 66.28 89.78 66.1 89.84 65.9C89.94 65.56 90.04 65.2 90.14 64.86C90.44 63.74 90.7 62.6 90.96 61.48C91.32 59.94 91.66 58.38 92 56.84C92.38 55.06 92.76 53.28 93.14 51.5C93.52 49.68 93.9 47.86 94.26 46.04C94.6 44.38 94.94 42.7 95.26 41.04C95.52 39.7 95.78 38.36 96 37.02C96.14 36.2 96.3 35.38 96.38 34.56C96.42 34.32 96.4 34.08 96.36 33.84C96.1 32.86 95.36 32 94.68 31.26C94.52 31.1 94.38 30.92 94.2 30.78C94.02 30.64 93.74 30.68 93.58 30.7C93.62 30.68 93.22 30.74 93.32 30.86Z" fill="#C8303F"/>
<path d="M85.98 67.64C85.98 67.64 94.1 32.52 93.8 30.8C93.5 29.08 83.68 27.74 82.58 27.78C81.48 27.82 76.78 61.28 77.76 63.64C78.74 66 83.64 68.62 85.98 67.64Z" fill="white"/>
<path d="M86.48 67.68L86.78 66.36C87.04 65.18 87.32 64 87.58 62.82C87.96 61.12 88.36 59.42 88.74 57.7C89.2 55.7 89.64 53.7 90.08 51.7C90.54 49.62 91 47.52 91.46 45.44C91.88 43.48 92.3 41.54 92.72 39.58C93.06 37.96 93.38 36.36 93.7 34.74C93.9 33.7 94.1 32.66 94.24 31.62C94.28 31.38 94.3 31.14 94.3 30.9C94.26 30.38 93.68 30.08 93.28 29.86C92.44 29.46 91.56 29.14 90.66 28.94C89.56 28.66 88.46 28.42 87.34 28.22C86.32 28.04 85.32 27.88 84.28 27.76C83.68 27.66 83.08 27.62 82.48 27.6C82.12 27.62 82 27.76 81.88 28.06C81.76 28.38 81.66 28.72 81.58 29.08C81.26 30.3 81.04 31.54 80.8 32.78C80.48 34.56 80.18 36.36 79.9 38.16C79.58 40.24 79.26 42.32 78.98 44.42C78.68 46.56 78.4 48.68 78.16 50.82C77.92 52.76 77.7 54.7 77.52 56.66C77.38 58.16 77.24 59.64 77.18 61.14C77.16 61.64 77.14 62.14 77.16 62.64C77.16 62.96 77.2 63.28 77.26 63.58C77.38 63.92 77.56 64.24 77.8 64.52C78.2 65.02 78.64 65.46 79.14 65.84C80.24 66.68 81.48 67.32 82.8 67.72C83.94 68.06 85.26 68.24 86.4 67.78C86.62 67.7 86.32 67.54 86.24 67.52C86.02 67.44 85.78 67.44 85.56 67.52C85.36 67.6 85.14 67.64 84.92 67.66C84.88 67.66 84.7 67.66 84.6 67.66H84.46C84.38 67.66 84.3 67.64 84.24 67.64C83.68 67.56 83.12 67.4 82.58 67.18C81.34 66.7 80.22 65.98 79.28 65.06C78.88 64.68 78.56 64.24 78.32 63.76C78.3 63.7 78.28 63.66 78.26 63.6C78.24 63.54 78.26 63.58 78.26 63.58C78.24 63.52 78.24 63.48 78.22 63.42C78.18 63.06 78.16 62.72 78.16 62.36C78.16 61.12 78.26 59.86 78.36 58.62C78.5 56.84 78.68 55.08 78.88 53.32C79.12 51.26 79.36 49.2 79.64 47.14C79.92 45.04 80.22 42.94 80.52 40.84C80.8 38.92 81.1 37 81.42 35.1C81.68 33.6 81.94 32.12 82.26 30.62C82.4 29.78 82.62 28.94 82.92 28.14C82.86 28.3 82.96 28.48 83.12 28.54C83.28 28.6 83.46 28.5 83.52 28.34C83.58 28.18 83.48 28 83.32 27.94C83.16 27.88 83 27.96 82.94 28.1C82.96 28.08 82.96 28.06 82.98 28.04C83 28.02 83.02 27.98 83.04 27.96C83.06 27.94 83.02 27.96 82.96 27.98C82.94 27.98 82.68 28 82.8 28C82.82 28 82.84 28 82.84 28C82.94 28 82.7 28 82.8 28C83.06 28.02 83.34 28.04 83.6 28.06L84.16 28.12L84.46 28.16C84.5 28.16 84.62 28.18 84.52 28.16L84.72 28.18C86.8 28.44 88.84 28.84 90.86 29.4C91.08 29.46 91.32 29.54 91.54 29.62C91.76 29.7 91.86 29.74 92.08 29.82C92.38 29.94 92.68 30.08 92.96 30.28C93.22 30.48 93.36 30.64 93.36 30.98C93.3 31.76 93.18 32.54 93.02 33.32C92.76 34.74 92.48 36.14 92.2 37.54C91.84 39.38 91.44 41.2 91.04 43.02C90.6 45.04 90.16 47.08 89.72 49.1C89.28 51.12 88.82 53.16 88.36 55.18C87.96 57 87.54 58.84 87.12 60.66C86.8 62.08 86.48 63.5 86.16 64.92L85.6 67.32L85.52 67.64C85.44 67.82 86.42 67.98 86.48 67.68Z" fill="#C8303F"/>
<path d="M91.6 32.3C91.6 32.3 84.64 30.02 83.8 30.38C82.96 30.74 78.56 59.68 78.62 61.06C78.68 62.44 82.86 64.96 84.22 64.36C85.58 63.76 91.74 33.48 91.6 32.3Z" fill="#C8303F"/>
<path d="M91.82 32.04C90.68 31.66 89.54 31.32 88.38 30.98C87.52 30.74 86.66 30.5 85.78 30.3C85.18 30.16 84.5 29.98 83.88 30.06C83.56 30.06 83.28 30.28 83.16 30.58C83.06 30.84 82.98 31.1 82.92 31.38C82.66 32.38 82.46 33.4 82.26 34.42C81.96 35.9 81.7 37.4 81.44 38.88C81.14 40.62 80.86 42.36 80.56 44.1C80.26 45.9 79.98 47.7 79.7 49.52C79.44 51.18 79.2 52.84 78.96 54.5C78.76 55.82 78.58 57.12 78.4 58.44C78.3 59.22 78.18 60.02 78.12 60.8C78.08 61.12 78.14 61.42 78.3 61.7C78.74 62.48 79.56 63.06 80.3 63.52C81.12 64.04 82.06 64.52 83.02 64.68C83.56 64.78 84.36 64.84 84.74 64.38C84.9 64.18 85 63.96 85.1 63.72C85.26 63.36 85.38 62.98 85.5 62.62C85.86 61.5 86.18 60.34 86.48 59.2C86.88 57.68 87.24 56.14 87.6 54.6C88 52.86 88.4 51.1 88.78 49.36C89.16 47.58 89.54 45.8 89.92 44.02C90.26 42.38 90.58 40.76 90.9 39.12C91.16 37.82 91.4 36.5 91.64 35.2C91.78 34.38 91.94 33.56 92.04 32.74C92.06 32.58 92.08 32.44 92.06 32.28C92.02 31.88 91.02 31.98 91.06 32.38C91.06 32.54 91.06 32.7 91.02 32.84V32.88C91.02 32.94 91.02 32.82 91.02 32.86C91.02 32.9 91.02 32.92 91 32.96C91 33.04 90.98 33.12 90.96 33.2C90.94 33.38 90.9 33.56 90.88 33.74C90.7 34.8 90.52 35.86 90.32 36.92C90.04 38.38 89.76 39.86 89.46 41.32C89.12 43.02 88.78 44.7 88.42 46.4C88.04 48.16 87.66 49.92 87.28 51.66C86.92 53.3 86.52 54.96 86.12 56.6C85.78 57.98 85.44 59.34 85.06 60.7C84.8 61.62 84.54 62.56 84.2 63.46C84.14 63.6 84.1 63.74 84.02 63.88C84 63.94 83.96 63.98 83.94 64.04C83.92 64.06 83.92 64.08 83.9 64.1C83.92 64.06 83.94 64.04 83.9 64.1C83.86 64.16 83.86 64.16 83.84 64.2C83.78 64.3 83.92 64.16 83.84 64.2C83.76 64.24 83.96 64.14 83.92 64.16C83.88 64.18 83.92 64.16 83.94 64.16C83.92 64.18 83.88 64.18 83.84 64.18C83.94 64.16 83.86 64.18 83.8 64.18C83.74 64.18 83.7 64.18 83.78 64.18H83.66H83.54H83.46C83.48 64.18 83.5 64.18 83.46 64.18C82.56 63.98 81.7 63.62 80.94 63.1C80.28 62.66 79.48 62.12 79.14 61.38C79.06 61.16 79.04 60.92 79.08 60.7C79.1 60.38 79.14 60.08 79.18 59.76C79.3 58.74 79.44 57.68 79.6 56.6C79.82 55.1 80.04 53.6 80.26 52.1C80.52 50.36 80.78 48.64 81.06 46.92C81.34 45.16 81.62 43.38 81.92 41.62C82.18 40 82.46 38.4 82.76 36.78C83 35.5 83.24 34.22 83.5 32.96C83.64 32.22 83.82 31.48 84.06 30.78C84.08 30.74 84.1 30.7 84.1 30.66C84.1 30.62 84.18 30.56 84.1 30.64C84.12 30.62 84.12 30.6 84.14 30.58C84.08 30.64 84.02 30.68 83.94 30.7C83.86 30.74 83.9 30.72 83.94 30.7L83.9 30.72C84.02 30.68 83.84 30.72 83.92 30.72H84.1C84.16 30.72 84.22 30.74 84.3 30.74L84.4 30.76C84.48 30.76 84.32 30.74 84.42 30.76C84.78 30.82 85.14 30.9 85.48 30.98C87.12 31.36 88.74 31.86 90.36 32.36C90.68 32.46 91 32.56 91.32 32.66C91.56 32.74 91.82 32.66 92 32.48C92.18 32.22 92 32.1 91.82 32.04Z" fill="#C8303F"/>
<path d="M87.24 29.22H87.1C87.04 29.22 86.98 29.24 86.94 29.28C86.88 29.3 86.84 29.34 86.82 29.4C86.78 29.44 86.76 29.5 86.76 29.56C86.74 29.62 86.74 29.68 86.76 29.74L86.8 29.86C86.84 29.94 86.9 30 86.98 30.04L87.1 30.1C87.18 30.12 87.26 30.14 87.34 30.12H87.46C87.52 30.12 87.58 30.1 87.62 30.06C87.68 30.04 87.72 30 87.74 29.94C87.78 29.9 87.8 29.84 87.8 29.78C87.82 29.72 87.8 29.66 87.8 29.6L87.76 29.48C87.72 29.4 87.66 29.34 87.58 29.3L87.46 29.24C87.4 29.24 87.32 29.22 87.24 29.22Z" fill="#C8303F"/>
<path d="M84.04 60.32L73.24 59.76L73.28 33.22L89.18 33.58L84.04 60.32Z" fill="white"/>
<path d="M84.18 60.2L80.52 60L74.72 59.7L73.38 59.62L73.74 59.76V57.1V50.78V43.1V36.5V34.3C73.76 33.96 73.76 33.6 73.74 33.26C73.74 33.24 73.74 33.24 73.74 33.22L73.24 33.36L78.6 33.48L87.16 33.68L89.14 33.72L88.64 33.58L88.12 36.26L86.9 42.64L85.42 50.36L84.14 57.06L83.72 59.26L83.58 59.94C83.54 60.06 83.52 60.18 83.52 60.3C83.52 60.32 83.52 60.34 83.52 60.34C83.5 60.48 84.48 60.58 84.52 60.34L85.04 57.66L86.26 51.28L87.74 43.56L89.02 36.86L89.44 34.68L89.58 34C89.62 33.88 89.64 33.76 89.64 33.64C89.64 33.62 89.64 33.6 89.64 33.6C89.66 33.48 89.18 33.46 89.14 33.46L83.8 33.3L75.24 33.1L73.26 33.06C73.18 33.06 72.76 33.06 72.76 33.2V35.86V42.18L72.74 49.86V56.46V58.66V59.34C72.72 59.46 72.72 59.58 72.74 59.7C72.74 59.72 72.74 59.72 72.74 59.74C72.74 59.84 73.04 59.88 73.1 59.88L76.76 60.08L82.56 60.38L83.9 60.46C84.04 60.46 84.42 60.52 84.52 60.36C84.62 60.2 84.24 60.2 84.18 60.2Z" fill="#C8303F"/>
<path d="M79.12 35L78.96 37.28L78.56 42.72L78.08 49.34L77.66 55.04L77.52 56.92L77.48 57.52C77.46 57.62 77.46 57.72 77.46 57.82C77.46 57.84 77.46 57.84 77.46 57.86C77.46 58 78.44 58.12 78.44 58.08L78.6 55.8L79 50.36L79.48 43.74L79.9 38.04L80.04 36.16L80.08 35.56C80.1 35.46 80.1 35.36 80.1 35.26C80.1 35.24 80.1 35.24 80.1 35.22C80.1 35.08 79.12 34.96 79.12 35Z" fill="#C8303F"/>
<path d="M77 35.32C77 35.32 78.38 35.68 77.58 36.7C76.78 37.72 75.44 35.58 77 35.32Z" fill="white"/>
<path d="M76.72 35.7C76.76 35.72 76.8 35.72 76.84 35.74L76.76 35.7C76.94 35.76 77.1 35.86 77.24 35.98L77.18 35.92C77.26 36 77.32 36.08 77.36 36.18L77.34 36.1C77.36 36.16 77.38 36.24 77.38 36.32V36.24C77.38 36.3 77.36 36.36 77.36 36.42C77.34 36.48 77.4 36.3 77.36 36.4C77.36 36.42 77.36 36.42 77.34 36.44C77.32 36.48 77.3 36.5 77.3 36.54C77.26 36.6 77.36 36.44 77.32 36.5L77.28 36.56L77.2 36.66C77.16 36.72 77.3 36.56 77.24 36.6L77.22 36.64C77.16 36.7 77.14 36.68 77.26 36.62L77.2 36.66C77.14 36.7 77.34 36.58 77.28 36.62L77.26 36.64C77.18 36.68 77.38 36.6 77.34 36.62H77.32H77.28C77.24 36.64 77.42 36.6 77.36 36.6H77.3C77.24 36.6 77.36 36.6 77.36 36.6C77.34 36.6 77.34 36.6 77.32 36.6C77.28 36.6 77.24 36.58 77.2 36.56L77.28 36.6C77.18 36.56 77.1 36.5 77.02 36.44L77.08 36.5C76.96 36.38 76.88 36.26 76.82 36.1L76.86 36.18C76.82 36.06 76.78 35.94 76.78 35.82V35.9C76.78 35.86 76.78 35.82 76.78 35.78C76.78 35.76 76.78 35.74 76.8 35.72C76.74 35.72 76.74 35.7 76.72 35.7C76.74 35.7 76.7 35.8 76.72 35.76C76.74 35.72 76.76 35.7 76.76 35.66C76.76 35.66 76.7 35.76 76.72 35.7C76.76 35.66 76.84 35.6 76.7 35.74L76.74 35.7C76.82 35.64 76.62 35.78 76.7 35.74L76.76 35.7C76.82 35.66 76.64 35.76 76.68 35.74L76.7 35.72L76.78 35.68C76.84 35.66 76.66 35.72 76.72 35.7C76.8 35.68 76.86 35.68 76.92 35.66C77.04 35.62 77.16 35.56 77.26 35.46C77.34 35.38 77.4 35.28 77.42 35.18C77.44 35.1 77.4 35 77.32 34.96C77.22 34.92 77.12 34.92 77.02 34.94C76.46 35.04 75.84 35.46 75.8 36.06C75.78 36.48 75.96 36.86 76.28 37.12C76.44 37.26 76.66 37.32 76.86 37.32C77.18 37.3 77.48 37.18 77.7 36.94C77.82 36.82 77.92 36.7 78 36.56C78.1 36.4 78.16 36.24 78.2 36.06C78.24 35.84 78.18 35.6 78.04 35.42C77.82 35.16 77.52 34.98 77.2 34.92C77.08 34.9 76.98 34.92 76.88 34.98C76.76 35.04 76.66 35.12 76.58 35.22C76.52 35.3 76.48 35.4 76.5 35.5C76.54 35.6 76.62 35.68 76.72 35.7Z" fill="#C8303F"/>
<path d="M70.28 68.56C69.38 71.06 67.54 73.08 65.34 74.52C64.22 75.24 63.02 75.82 61.76 76.22C61.12 76.44 60.48 76.6 59.84 76.74C59.2 76.88 58.5 77.02 57.84 76.9C56.78 76.72 56.16 75.44 56.64 74.48C56.74 74.26 56.92 74.1 57.14 74C57.24 73.96 57.34 73.94 57.44 73.94C57.34 73.94 57.42 73.94 57.48 73.96C57.54 74 57.62 74.04 57.68 74.08C58.28 74.56 58.42 75.38 58.4 76.1C58.3 78.7 56.3 80.98 53.88 81.8C51.3 82.68 48.58 81.7 46.7 79.82C46.46 79.58 46.22 79.3 46 79.02C45.88 78.86 45.6 78.82 45.42 78.8C45.38 78.8 44.94 78.78 45.04 78.9C46.98 81.38 50.32 82.86 53.48 82.38C56.3 81.96 58.86 79.74 59.32 76.86C59.44 76.1 59.44 75.2 59 74.54C58.56 73.88 57.66 73.52 56.86 73.54C56.26 73.54 55.74 73.94 55.58 74.52C55.44 75.08 55.56 75.66 55.88 76.12C56.32 76.74 57.12 77.04 57.84 77.16C58.68 77.28 59.54 77.26 60.36 77.08C61.82 76.8 63.24 76.34 64.6 75.7C67.24 74.42 69.6 72.4 70.88 69.72C71.04 69.4 71.18 69.06 71.3 68.72C71.32 68.6 70.36 68.32 70.28 68.56Z" fill="white"/>
<path d="M44.48 76.16C44.5 76.18 44.56 76.24 44.5 76.18L44.44 76.14C44.42 76.12 44.38 76.08 44.36 76.04C44.34 76.02 44.34 76 44.32 76C44.34 76.02 44.36 76.06 44.34 76.02C44.32 75.98 44.28 75.94 44.26 75.92C44.24 75.88 44.22 75.84 44.2 75.8C44.2 75.78 44.18 75.76 44.18 75.74C44.14 75.66 44.2 75.8 44.18 75.74C44.14 75.66 44.12 75.58 44.1 75.5C44.08 75.42 44.06 75.34 44.06 75.26C44.06 75.3 44.06 75.28 44.06 75.24V75.18C44.06 75.14 44.06 75.1 44.06 75.06C44.06 74.98 44.06 74.9 44.08 74.82C44.08 74.78 44.1 74.74 44.1 74.7C44.1 74.66 44.1 74.72 44.1 74.68C44.1 74.64 44.12 74.64 44.12 74.62C44.2 74.4 44 74.2 43.8 74.12C43.7 74.06 43.56 74.04 43.44 74.04C43.36 74.06 43.24 74.08 43.22 74.18C43.08 74.6 43.08 75.04 43.2 75.46C43.34 75.92 43.62 76.32 43.98 76.62C44.08 76.7 44.2 76.74 44.34 76.76C44.44 76.78 44.54 76.76 44.62 76.7C44.8 76.5 44.64 76.28 44.48 76.16Z" fill="white"/>
<path d="M6.04 34.1C6.04 34.1 4.1 36.12 4 37.5C3.9 38.88 11.3 68.48 12.14 69.52C12.98 70.56 16.06 70.7 16.06 70.7L6.04 34.1Z" fill="#575757"/>
<path d="M5.62 33.84C5.1 34.38 4.64 34.98 4.24 35.6C3.92 36.12 3.52 36.78 3.58 37.42C3.66 38.1 3.78 38.76 3.94 39.42C4.2 40.64 4.48 41.88 4.76 43.1C5.14 44.7 5.52 46.32 5.92 47.92C6.36 49.72 6.8 51.52 7.26 53.3C7.72 55.1 8.16 56.88 8.64 58.66C9.06 60.26 9.48 61.88 9.92 63.48C10.26 64.7 10.6 65.94 10.96 67.16C11.14 67.84 11.36 68.5 11.62 69.14C11.88 69.7 12.56 70.04 13.08 70.28C13.98 70.66 14.92 70.86 15.88 70.92C16.08 70.94 16.26 70.96 16.44 70.96C16.48 70.96 16.48 70.94 16.46 70.92L16.2 69.94L15.46 67.26L14.4 63.34L13.08 58.52L11.64 53.26L10.2 47.98L8.84 43.02L7.7 38.84L6.88 35.84C6.76 35.36 6.64 34.88 6.48 34.42C6.48 34.4 6.46 34.38 6.46 34.36C6.42 34.2 6.1 34.06 5.96 33.98C5.92 33.96 5.56 33.8 5.6 33.9L5.86 34.84L6.56 37.4L7.6 41.18L8.86 45.82L10.26 50.96L11.68 56.16L13.02 61.08L14.2 65.3L15.08 68.5L15.56 70.26C15.56 70.32 15.58 70.38 15.6 70.44C15.64 70.52 15.56 70.44 15.64 70.44C14.94 70.38 14.24 70.3 13.56 70.16C13.32 70.1 13.1 70.04 12.88 69.96C12.8 69.94 12.7 69.88 12.68 69.88C12.62 69.86 12.62 69.82 12.66 69.88C12.62 69.84 12.58 69.8 12.54 69.76C12.52 69.74 12.58 69.82 12.54 69.76C12.52 69.74 12.5 69.7 12.5 69.66C12.4 69.42 12.3 69.18 12.24 68.92C11.92 67.98 11.64 67.02 11.38 66.06C10.98 64.62 10.58 63.18 10.2 61.74C9.74 60.02 9.3 58.3 8.86 56.58C8.4 54.76 7.94 52.94 7.48 51.12C7.04 49.38 6.62 47.66 6.2 45.92C5.86 44.48 5.52 43.02 5.18 41.58C4.96 40.6 4.74 39.62 4.56 38.64C4.52 38.38 4.46 38.14 4.44 37.88C4.44 37.76 4.44 37.62 4.48 37.5C4.62 36.98 4.84 36.48 5.16 36.04C5.56 35.44 6 34.88 6.5 34.36C6.54 34.3 5.76 33.7 5.62 33.84Z" fill="#575757"/>
<path d="M15.4 70.58C15.4 70.58 5.83999 35.82 6.03999 34.1C6.23999 32.38 16.04 30.62 17.12 30.62C18.2 30.62 24.28 63.86 23.42 66.24C22.56 68.62 17.78 71.46 15.4 70.58Z" fill="white"/>
<path d="M15.84 70.38C15.72 69.96 15.6 69.54 15.5 69.12C15.18 67.98 14.88 66.86 14.58 65.72C14.14 64.08 13.7 62.44 13.24 60.82C12.72 58.88 12.2 56.94 11.68 55C11.14 52.98 10.6 50.96 10.08 48.92C9.58 47 9.08 45.06 8.58 43.14C8.18 41.52 7.76 39.9 7.38 38.28C7.12 37.18 6.86 36.08 6.64 34.98C6.58 34.68 6.54 34.4 6.5 34.1C6.5 34.06 6.5 34.14 6.5 34.08C6.5 34.06 6.5 34.04 6.5 34.02C6.5 33.98 6.5 33.94 6.52 33.9C6.52 33.88 6.54 33.86 6.54 33.82C6.56 33.78 6.52 33.86 6.54 33.8C6.56 33.74 6.6 33.7 6.64 33.66C6.58 33.74 6.7 33.62 6.72 33.58C6.74 33.54 6.82 33.5 6.74 33.56L6.84 33.48L6.94 33.42C7.02 33.36 6.96 33.42 6.96 33.4C7.04 33.36 7.12 33.3 7.2 33.26L7.32 33.2C7.42 33.14 7.26 33.22 7.36 33.18C7.46 33.14 7.56 33.1 7.64 33.04C7.84 32.96 8.04 32.86 8.26 32.78C8.18 32.8 8.34 32.76 8.26 32.78L8.34 32.74L8.5 32.68L8.86 32.56C9.9 32.22 10.9 31.96 11.94 31.72C12.94 31.5 13.94 31.28 14.96 31.1C15.34 31.04 15.72 30.98 16.1 30.92L16.32 30.9L16.42 30.88C16.3 30.9 16.42 30.88 16.46 30.88C16.56 30.86 16.66 30.86 16.76 30.86C16.8 30.86 16.82 30.86 16.86 30.86C16.82 30.86 16.78 30.86 16.74 30.84L16.76 30.86C16.82 30.94 16.86 31.02 16.9 31.1C17.04 31.42 17.14 31.74 17.24 32.06C17.6 33.24 17.88 34.44 18.14 35.64C18.54 37.36 18.88 39.08 19.24 40.8C19.64 42.82 20.02 44.84 20.4 46.88C20.78 48.98 21.14 51.06 21.48 53.16C21.8 55.08 22.1 57 22.36 58.94C22.58 60.46 22.78 61.98 22.92 63.5C23 64.36 23.12 65.26 23 66.12C22.92 66.78 22.4 67.4 21.94 67.86C21.04 68.78 19.98 69.5 18.8 69.98C17.92 70.36 16.76 70.68 15.8 70.34C15.58 70.3 15.36 70.34 15.18 70.46C15.14 70.48 14.78 70.76 14.96 70.82C16.1 71.22 17.4 70.92 18.48 70.52C19.84 70.02 21.08 69.28 22.18 68.32C22.66 67.92 23.08 67.44 23.44 66.92C23.66 66.64 23.8 66.32 23.9 65.98C23.96 65.68 23.98 65.36 23.96 65.06C23.92 63.86 23.82 62.68 23.66 61.48C23.46 59.72 23.2 57.98 22.94 56.24C22.62 54.18 22.3 52.12 21.94 50.06C21.56 47.94 21.18 45.82 20.78 43.68C20.42 41.72 20.02 39.78 19.62 37.84C19.3 36.3 18.96 34.78 18.58 33.28C18.36 32.42 18.18 31.52 17.8 30.7C17.7 30.48 17.6 30.34 17.34 30.34C16.72 30.38 16.1 30.46 15.5 30.58C13.36 30.92 11.24 31.4 9.18 32.04C8.26 32.3 7.38 32.68 6.54 33.14C6.16 33.38 5.56 33.76 5.56 34.28C5.56 34.54 5.6 34.82 5.66 35.08C5.74 35.52 5.84 35.96 5.92 36.4C6.22 37.76 6.54 39.1 6.88 40.44C7.32 42.24 7.78 44.04 8.24 45.82C8.76 47.86 9.3 49.9 9.84 51.94C10.38 53.98 10.92 56.02 11.48 58.08C11.98 59.92 12.48 61.78 12.98 63.62C13.38 65.06 13.76 66.52 14.16 67.96C14.38 68.78 14.6 69.58 14.82 70.4C14.86 70.5 14.88 70.62 14.9 70.72C15 71.02 15.92 70.68 15.84 70.38Z" fill="#575757"/>
<path d="M8.34 35.52C8.34 35.52 15.2 32.94 16.06 33.28C16.92 33.62 22.48 62.3 22.48 63.7C22.48 65.1 18.4 67.78 17.02 67.24C15.64 66.7 8.22 36.7 8.34 35.52Z" fill="#575757"/>
<path d="M8.70002 35.82C9.78002 35.42 10.88 35.02 11.98 34.66C12.82 34.38 13.66 34.1 14.52 33.88C15.06 33.74 15.68 33.52 16.26 33.56C16.28 33.56 16.3 33.54 16.32 33.58C16.3 33.56 16.12 33.48 16.08 33.46C15.96 33.38 15.84 33.28 15.72 33.18C15.76 33.22 15.68 33.1 15.7 33.14C15.7 33.16 15.72 33.16 15.72 33.18C15.72 33.2 15.74 33.2 15.74 33.22V33.24C15.76 33.28 15.78 33.34 15.8 33.38C15.92 33.66 16 33.98 16.08 34.26C16.38 35.28 16.62 36.32 16.88 37.36C17.22 38.82 17.54 40.28 17.86 41.76C18.22 43.46 18.58 45.18 18.94 46.88C19.3 48.64 19.66 50.4 20 52.14C20.32 53.76 20.62 55.36 20.94 56.98C21.18 58.26 21.42 59.54 21.64 60.84C21.78 61.6 21.92 62.36 22 63.12C22.06 63.38 22.02 63.66 21.9 63.9C21.54 64.66 20.76 65.26 20.08 65.74C19.32 66.28 18.44 66.76 17.52 66.96C17.34 67 17.18 67.02 17 67.02C16.94 67.02 16.86 67.02 16.8 67C16.7 66.98 16.68 66.96 16.8 67.02C16.92 67.08 17.04 67.18 17.16 67.28C17.1 67.24 17.24 67.36 17.2 67.3C17.16 67.24 17.22 67.32 17.22 67.32L17.18 67.26C17.04 67.04 16.92 66.82 16.84 66.58C16.68 66.18 16.52 65.8 16.38 65.4C15.98 64.24 15.62 63.08 15.26 61.92C14.8 60.4 14.38 58.88 13.96 57.36C13.48 55.66 13.02 53.94 12.58 52.24C12.14 50.52 11.7 48.8 11.26 47.06C10.86 45.48 10.48 43.9 10.1 42.32C9.80002 41.06 9.50002 39.8 9.22002 38.54C9.06002 37.78 8.88002 37 8.76002 36.22C8.72002 36.08 8.72002 35.92 8.72002 35.78C8.72002 35.66 8.40001 35.46 8.32002 35.4C8.28001 35.38 7.90002 35.16 7.90002 35.24C7.90002 35.4 7.92002 35.58 7.94002 35.74C8.00002 36.06 8.06002 36.4 8.12002 36.72C8.34002 37.8 8.58002 38.88 8.84002 39.96C9.18002 41.44 9.54002 42.94 9.90002 44.42C10.32 46.14 10.76 47.88 11.2 49.6C11.66 51.38 12.12 53.14 12.6 54.9C13.04 56.54 13.5 58.18 13.98 59.82C14.36 61.16 14.78 62.52 15.2 63.84C15.46 64.7 15.78 65.56 16.16 66.38C16.26 66.62 16.4 66.84 16.56 67.04C17 67.54 17.68 67.74 18.32 67.56C19.24 67.36 20.12 66.86 20.9 66.34C21.6 65.86 22.38 65.26 22.74 64.48C22.98 63.96 22.78 63.28 22.7 62.74C22.52 61.66 22.32 60.58 22.14 59.5C21.86 57.98 21.58 56.48 21.28 54.96C20.94 53.2 20.6 51.44 20.24 49.68C19.88 47.9 19.52 46.12 19.14 44.34C18.8 42.72 18.44 41.1 18.08 39.5C17.8 38.24 17.5 37 17.18 35.76C17.04 35.08 16.82 34.4 16.56 33.76C16.36 33.36 15.98 33.06 15.54 33C14.98 32.94 14.36 33.16 13.82 33.3C12.16 33.74 10.52 34.32 8.90002 34.9C8.58002 35.02 8.24002 35.14 7.92002 35.26C7.78002 35.3 8.08002 35.54 8.12002 35.58C8.24002 35.6 8.56002 35.88 8.70002 35.82Z" fill="#575757"/>
<path d="M47.76 44.48L35.48 36.78L18.98 37.02L18.18 60.92L29.28 60.22" fill="white"/>
<path d="M48.2 44.48L43.5 41.54L36.76 37.3L36.04 36.84C35.78 36.7 35.5 36.64 35.22 36.66C34.56 36.66 33.92 36.68 33.26 36.68L24.88 36.8C22.86 36.82 20.86 36.84 18.84 36.88H18.74C18.7 36.88 18.48 36.88 18.48 36.94L18.4 39.34L18.2 45.06L17.98 51.96L17.78 57.92L17.72 59.9L17.7 60.52C17.68 60.62 17.68 60.74 17.7 60.84C17.7 60.86 17.7 60.86 17.7 60.88C17.7 61.06 18.42 61.06 18.54 61.06L22.3 60.82L28.28 60.44L29.66 60.36C29.84 60.34 29.84 60.26 29.68 60.2C29.46 60.12 29.22 60.1 28.98 60.12L25.22 60.36L19.2 60.72L17.84 60.8L18.68 60.98L18.76 58.6L18.96 52.88L19.2 45.98L19.4 40.02L19.46 38.06L19.48 37.44C19.5 37.34 19.5 37.22 19.48 37.12C19.48 37.1 19.48 37.1 19.48 37.08L19.22 37.14L24.82 37.06L33.7 36.94L35.74 36.92L35.06 36.8L39.22 39.4L45.82 43.54L47.34 44.48C47.56 44.58 47.78 44.62 48.02 44.6C48.08 44.6 48.36 44.58 48.2 44.48Z" fill="#575757"/>
<path d="M16.76 36.82L35.48 36.78C35.48 36.78 41.72 30.82 47 31.62C52.28 32.42 63.68 47.18 61.78 50.42C59.88 53.66 49.02 45.04 49.02 45.04C49.02 45.04 44.04 51.42 35.74 48.4" fill="white"/>
<path d="M16.68 37.1L20.96 37.08L29.36 37.06L35.16 37.04C35.42 37.04 35.66 37.06 35.88 36.88C36.06 36.74 36.2 36.58 36.38 36.44C37.42 35.54 38.52 34.72 39.68 34C41.22 33.04 42.9 32.22 44.68 31.92C45.1 31.84 45.52 31.82 45.96 31.8C46.16 31.8 46.38 31.82 46.58 31.84C46.68 31.84 46.76 31.86 46.86 31.88L46.94 31.9C46.96 31.9 46.86 31.88 46.96 31.9C47.42 32 47.86 32.16 48.26 32.38C49.4 32.98 50.44 33.74 51.4 34.6C52.58 35.64 53.7 36.76 54.74 37.94C56.82 40.28 58.74 42.84 60.2 45.62C60.72 46.62 61.22 47.66 61.44 48.78C61.52 49.14 61.54 49.52 61.5 49.9C61.48 50.06 61.44 50.22 61.36 50.36C61.34 50.42 61.38 50.32 61.36 50.36L61.34 50.4C61.32 50.44 61.3 50.48 61.26 50.52C61.22 50.56 61.2 50.6 61.16 50.64C61.22 50.56 61.12 50.68 61.1 50.7L61 50.78C61.12 50.7 61 50.78 60.96 50.8C60.84 50.86 60.98 50.8 60.94 50.82L60.8 50.88C60.7 50.92 60.92 50.86 60.82 50.88L60.74 50.9C60.7 50.92 60.64 50.92 60.6 50.92C60.78 50.9 60.6 50.92 60.56 50.92H60.38C60.28 50.92 60.48 50.92 60.38 50.92H60.32C60.26 50.92 60.2 50.92 60.12 50.9C60 50.88 59.88 50.86 59.74 50.84C59.84 50.86 59.66 50.82 59.64 50.82L59.46 50.78C59.3 50.74 59.16 50.7 59.02 50.66C57.78 50.24 56.58 49.68 55.46 48.98C53.48 47.82 51.58 46.52 49.76 45.12L49.44 44.88C49.22 44.7 48.74 44.86 48.6 45.04C48.56 45.1 48.52 45.14 48.46 45.2C48.4 45.26 48.34 45.32 48.3 45.38C48.26 45.44 48.24 45.46 48.2 45.48L48.14 45.54L48.12 45.56C47.64 46.04 47.1 46.5 46.54 46.9C44.88 48.1 42.9 48.82 40.86 48.96C39.24 49.02 37.62 48.76 36.08 48.2C35.84 48.14 35.58 48.18 35.38 48.34C35.22 48.48 35.26 48.64 35.46 48.7C38.2 49.68 41.18 49.82 43.96 48.88C45.74 48.26 47.36 47.28 48.7 45.98C48.98 45.72 49.24 45.44 49.48 45.14L48.64 45.3C49.4 45.9 50.18 46.46 50.96 47.02C52.54 48.16 54.18 49.18 55.9 50.08C56.72 50.52 57.58 50.88 58.46 51.16C59.2 51.42 59.98 51.5 60.76 51.42C61.42 51.32 62.04 50.98 62.34 50.36C62.56 49.9 62.54 49.34 62.46 48.84C62.32 48.12 62.1 47.4 61.8 46.74C61.42 45.88 60.98 45.04 60.5 44.22C59.34 42.3 58.04 40.46 56.58 38.76C55.16 37.04 53.6 35.44 51.9 33.98C50.66 32.94 49.24 31.84 47.64 31.46C46.44 31.18 45.16 31.3 43.98 31.58C42.66 31.92 41.4 32.42 40.2 33.08C38.46 34.02 36.86 35.16 35.38 36.48C35.3 36.56 35.22 36.62 35.14 36.7L35.6 36.54H33.74L29.26 36.56H23.86L19.18 36.58C18.42 36.58 17.66 36.56 16.9 36.58H16.86C16.68 36.58 16.34 36.68 16.3 36.88C16.26 37.08 16.56 37.14 16.7 37.14L16.68 37.1Z" fill="#575757"/>
<path d="M66.04 57.6C66.04 57.6 68.46 53.14 70.64 53.94C72.82 54.74 70.4 63.54 65.7 63.26C61 62.98 66.04 57.6 66.04 57.6Z" fill="white"/>
<path d="M66.5 57.42C66.8 56.86 67.16 56.32 67.56 55.82C67.88 55.38 68.24 54.98 68.64 54.62C68.74 54.52 68.84 54.44 68.96 54.36L69.06 54.28C69.08 54.26 69.22 54.18 69.18 54.2C69.2 54.18 69.36 54.1 69.28 54.16C69.3 54.14 69.32 54.14 69.34 54.14C69.26 54.16 69.42 54.12 69.34 54.14C69.42 54.1 69.5 54.08 69.58 54.08C71.34 53.86 71.04 56.44 70.82 57.46C70.6 58.46 70.24 59.42 69.74 60.3C69.28 61.12 68.64 61.98 67.88 62.5C67.84 62.54 67.78 62.56 67.72 62.6L67.64 62.64L67.48 62.72C67.4 62.76 67.56 62.68 67.48 62.72L67.38 62.76L67.3 62.8H67.32L67.16 62.86C67.08 62.88 67.22 62.84 67.14 62.86L67.08 62.88C67 62.9 66.96 62.92 66.92 62.92C66.42 63.02 65.9 63 65.4 62.9C64.98 62.84 64.62 62.62 64.36 62.3C64.18 62.02 64.1 61.66 64.16 61.34C64.26 60.5 64.74 59.72 65.2 59.04C65.56 58.52 65.96 58.02 66.38 57.54C66.4 57.52 66.42 57.48 66.46 57.46C66.62 57.3 66.28 57.36 66.22 57.36C66 57.42 65.78 57.52 65.62 57.68C65.26 58.06 64.92 58.48 64.6 58.92C64.06 59.66 63.5 60.48 63.3 61.38C63.2 61.76 63.2 62.16 63.34 62.52C63.54 62.88 63.86 63.16 64.26 63.28C65.38 63.66 66.62 63.46 67.66 62.96C69.72 61.96 71 59.82 71.6 57.66C71.92 56.5 72.46 53.76 70.62 53.6C70 53.54 69.36 53.8 68.84 54.1C68.3 54.42 67.8 54.82 67.36 55.28C66.7 55.98 66.14 56.76 65.66 57.6L65.58 57.76C65.5 57.9 65.94 57.78 65.96 57.76C66.18 57.72 66.36 57.6 66.5 57.42Z" fill="#575757"/>
<path d="M61.6 57.74C61.6 57.74 60.68 55.18 58.3 56.92C55.92 58.66 54.82 64.8 54.82 64.8L51.9 66.72C51.9 66.72 56.74 68.54 59.12 67.44C61.5 66.34 61.5 64.7 61.5 64.7C61.5 64.7 65.88 66.7 67.34 63.24C68.8 59.78 67.44 51 64.5 52C61.58 53.02 61.6 57.74 61.6 57.74Z" fill="white"/>
<path d="M62.1 57.84C62 57.56 61.84 57.3 61.66 57.08C61.22 56.54 60.58 56.32 59.88 56.24C58.22 56.04 57.06 57.38 56.34 58.68C55.64 60.02 55.12 61.42 54.76 62.88C54.64 63.36 54.52 63.86 54.4 64.36C54.38 64.48 54.36 64.58 54.34 64.7C54.34 64.72 54.34 64.74 54.36 64.72C54.34 64.76 54.28 64.78 54.24 64.8L51.44 66.64C51.36 66.68 51.54 66.74 51.56 66.74C52.92 67.24 54.34 67.6 55.78 67.8C56.78 67.94 57.82 68.02 58.82 67.82C59.84 67.6 60.76 67.04 61.42 66.22C61.72 65.84 62.02 65.32 62.02 64.8L61.1 64.68C61.62 64.9 62.16 65.08 62.7 65.18C63.7 65.4 64.82 65.52 65.82 65.22C68.06 64.56 68.42 61.92 68.46 59.92C68.48 58.74 68.4 57.56 68.18 56.4C68.02 55.36 67.7 54.36 67.24 53.42C66.88 52.72 66.38 52.14 65.6 51.92C65.14 51.78 64.64 51.76 64.16 51.86C63.66 52.02 63.2 52.3 62.84 52.68C61.62 53.9 61.22 55.86 61.18 57.52C61.18 57.56 61.18 57.6 61.18 57.64C61.12 57.82 62.12 57.9 62.1 57.84C62.1 56.44 62.42 55.06 63.06 53.84C63.5 53.06 64.24 52.22 65.18 52.06C65.24 52.04 65.28 52.04 65.34 52.04C65.28 52.02 65.2 52.02 65.12 52.02C65.08 52.02 64.94 51.96 65.02 52C65.02 52 65.12 52.04 65.16 52.06C65.22 52.1 65.28 52.14 65.34 52.18C65.6 52.4 65.84 52.66 66.02 52.96C66.48 53.78 66.82 54.66 67 55.58C67.24 56.64 67.38 57.72 67.42 58.82C67.48 59.86 67.4 60.88 67.22 61.9C67.02 62.88 66.66 63.88 65.86 64.5C65.5 64.78 65.06 64.98 64.6 65.08C64.38 65.12 64.16 65.16 63.94 65.16C63.84 65.16 63.74 65.16 63.64 65.16H63.54C63.52 65.16 63.36 65.14 63.44 65.16C63.38 65.16 63.34 65.14 63.28 65.14C63.22 65.14 63.3 65.14 63.3 65.14L63.22 65.12C63.2 65.12 63.06 65.1 63.12 65.1H63L62.86 65.06L62.82 65.04L62.56 64.96L62.42 64.92L62.24 64.86L62.08 64.8C62.02 64.78 62.14 64.82 62.08 64.8L62.02 64.78L61.92 64.74C61.84 64.7 61 64.5 61 64.62C60.98 65 60.86 65.36 60.64 65.68C60.1 66.52 59.32 67.14 58.38 67.46C57.58 67.74 56.7 67.74 55.88 67.64C55.08 67.54 54.3 67.38 53.52 67.14C53.12 67.02 52.68 66.9 52.24 66.74L52.36 66.84L54.8 65.24C54.94 65.14 55.24 65.02 55.3 64.86C55.34 64.76 55.36 64.64 55.38 64.52C55.42 64.32 55.46 64.12 55.5 63.94C55.8 62.64 56.2 61.38 56.7 60.14C57.24 58.86 57.94 57.46 59.22 56.76C59.42 56.64 59.64 56.56 59.86 56.5C59.94 56.48 60.04 56.46 60.12 56.46C60.3 56.44 60.02 56.42 60 56.44C59.94 56.4 59.98 56.46 60 56.44C60.02 56.46 60.06 56.46 60.08 56.48C60.14 56.5 60.18 56.54 60.24 56.58C60.36 56.66 60.46 56.76 60.56 56.86C60.8 57.1 60.98 57.4 61.1 57.7C61.14 57.82 61.48 57.84 61.58 57.86C61.62 57.84 62.12 57.88 62.1 57.84Z" fill="#575757"/>
<path d="M61.14 57.46C61.14 59.5 61.1 61.56 60.94 63.6C60.92 64.14 60.84 64.66 60.74 65.18C60.68 65.48 61.6 65.24 61.68 64.94C61.92 63.88 61.92 62.74 61.98 61.66C62.04 60.44 62.06 59.22 62.08 58C62.08 57.74 62.08 57.48 62.08 57.22C62.06 56.88 61.12 57.16 61.14 57.46Z" fill="#575757"/>
<path d="M12.16 32.96H12.3C12.36 32.96 12.42 32.96 12.46 32.94C12.52 32.94 12.58 32.92 12.64 32.9C12.7 32.88 12.76 32.86 12.82 32.82C12.86 32.8 12.92 32.76 12.96 32.72L13.02 32.66C13.04 32.62 13.06 32.58 13.04 32.54L13 32.5C12.96 32.48 12.9 32.46 12.84 32.46H12.7C12.64 32.46 12.58 32.46 12.54 32.48C12.48 32.5 12.42 32.5 12.36 32.54C12.3 32.56 12.24 32.58 12.18 32.62C12.14 32.64 12.08 32.68 12.04 32.72L11.98 32.78C11.96 32.82 11.94 32.86 11.94 32.9L11.98 32.94C12.04 32.96 12.1 32.98 12.16 32.96Z" fill="#575757"/>
<path d="M17.02 63.2L27.8 62.18L26.66 35.66L10.8 36.68L17.02 63.2Z" fill="white"/>
<path d="M16.64 63.48L20.28 63.14L26.06 62.6L27.4 62.48C27.58 62.44 27.74 62.34 27.88 62.22C27.96 62.16 28.2 62.02 28.2 61.9L28.08 59.26L27.8 52.94L27.48 45.26L27.2 38.66L27.1 36.46L27.08 35.78C27.1 35.66 27.08 35.54 27.06 35.42C27.06 35.4 27.06 35.4 27.06 35.38H27.04L21.68 35.72L13.14 36.28L11.18 36.4C11 36.44 10.84 36.54 10.7 36.66C10.64 36.7 10.36 36.86 10.38 36.98L11 39.62L12.48 45.94L14.28 53.6L15.84 60.24L16.36 62.42L16.52 63.1C16.54 63.22 16.56 63.34 16.6 63.46C16.6 63.48 16.62 63.5 16.62 63.5C16.64 63.56 17.04 63.3 17.08 63.28C17.16 63.24 17.48 63.04 17.44 62.92L16.82 60.28L15.34 53.96L13.54 46.3L11.98 39.66L11.48 37.48C11.4 37.14 11.34 36.78 11.24 36.44L11.22 36.4L10.42 36.98L13.1 36.8L18.86 36.42L24.36 36.06L25.94 35.96C26.04 35.94 26.16 35.94 26.26 35.94C26.28 35.94 26.26 35.92 26.26 35.98C26.24 36.74 26.32 37.5 26.36 38.26L26.56 42.98L26.82 48.98L27.08 54.98L27.28 59.86L27.38 62.36V62.48L28.18 61.9L24.54 62.24L18.76 62.78L17.4 62.9C17.2 62.96 17.02 63.06 16.86 63.2C16.84 63.24 16.56 63.5 16.64 63.48Z" fill="#575757"/>
<path d="M20.02 37.54L20.28 39.82L20.9 45.24L21.66 51.82L22.3 57.5C22.4 58.42 22.48 59.36 22.62 60.28V60.32C22.64 60.52 22.86 60.7 23.02 60.8C23.06 60.82 23.44 61.04 23.42 60.86L23.16 58.58L22.54 53.16L21.78 46.56L21.14 40.9C21.04 39.98 20.96 39.04 20.82 38.12C20.82 38.1 20.82 38.1 20.82 38.08C20.8 37.88 20.58 37.7 20.42 37.6C20.38 37.58 20.02 37.36 20.02 37.54Z" fill="#575757"/>
<path d="M23.04 37.92C23.04 37.92 21.68 38.34 22.52 39.34C23.36 40.34 24.6 38.12 23.04 37.92Z" fill="white"/>
<path d="M22.86 37.7C22.52 37.8 22.22 37.98 21.98 38.24C21.82 38.4 21.74 38.62 21.74 38.84C21.76 39.12 21.9 39.36 22.1 39.56C22.54 40 23.24 39.94 23.72 39.6C24.06 39.36 24.26 38.98 24.26 38.58C24.26 38.38 24.2 38.18 24.06 38.04C23.84 37.82 23.54 37.68 23.22 37.66C23.12 37.64 22.98 37.66 22.86 37.7C22.74 37.74 22.66 37.8 22.58 37.88C22.54 37.94 22.52 38.02 22.56 38.08C22.62 38.14 22.72 38.18 22.82 38.2L22.9 38.22C22.96 38.24 22.78 38.2 22.86 38.22H22.88C22.92 38.24 22.98 38.24 23.02 38.26C23.06 38.28 22.92 38.22 22.98 38.24L23 38.26L23.06 38.28C23.1 38.3 23.12 38.32 23.16 38.34L23.1 38.3C23.16 38.36 23.22 38.42 23.26 38.5L23.22 38.44C23.28 38.56 23.3 38.68 23.28 38.8V38.7C23.26 38.84 23.22 39 23.16 39.12L23.2 39.04C23.14 39.12 23.08 39.22 23.02 39.28C23.12 39.18 23.06 39.24 23.04 39.26L22.98 39.3C22.9 39.36 23.08 39.24 23 39.28C22.98 39.3 22.88 39.34 23 39.3C23.12 39.26 23.02 39.3 22.98 39.3C22.92 39.32 23.14 39.26 23.06 39.28H23.02C22.96 39.3 23.18 39.26 23.1 39.28C23.08 39.28 23.08 39.28 23.06 39.28C23.06 39.28 23.22 39.28 23.14 39.28H23.1C23.02 39.28 23.22 39.3 23.16 39.3H23.14L23.1 39.28C23.06 39.26 23.2 39.32 23.14 39.3C23.1 39.28 23.04 39.24 23 39.22L23.06 39.28C22.92 39.16 22.82 39.02 22.74 38.86L22.78 38.92C22.72 38.82 22.7 38.7 22.72 38.58V38.66C22.72 38.58 22.76 38.5 22.78 38.42L22.74 38.5C22.76 38.46 22.8 38.42 22.82 38.38C22.84 38.36 22.86 38.34 22.88 38.32C22.88 38.32 22.8 38.4 22.84 38.36L22.86 38.34C22.9 38.3 22.94 38.28 22.98 38.26C23.06 38.2 22.88 38.32 22.96 38.28L23.02 38.24L23.12 38.18L23.16 38.16C23.18 38.16 23.02 38.22 23.08 38.2H23.1C23.12 38.18 23.16 38.18 23.18 38.18C23.28 38.14 23.38 38.08 23.46 38C23.5 37.94 23.52 37.86 23.48 37.8C23.36 37.6 23.04 37.66 22.86 37.7Z" fill="#575757"/>
<path d="M28.42 30.5C28.72 28.34 30.62 26.86 32.2 25.6C34.04 24.14 36 22.82 38.06 21.66C39.92 20.62 41.94 19.52 44.12 19.34C45.04 19.28 45.98 19.42 46.72 19.98C47.44 20.58 47.94 21.4 48.14 22.32C48.66 24.58 47.36 26.8 45.44 27.96L46.24 28.22C45.36 27.42 46.34 26.06 46.94 25.42C47.44 24.92 47.98 24.46 48.54 24.04L50.34 22.56C52.46 20.82 54.86 18.9 57.74 18.94C58.94 18.92 60.08 19.42 60.86 20.32C61.64 21.22 62.06 22.36 62.04 23.56C62 24.74 61.52 25.88 60.72 26.74C60.52 26.96 60.28 27.16 60.04 27.34C59.78 27.56 59.48 27.72 59.16 27.8L59.08 27.82C58.96 27.82 59.02 27.84 59.22 27.9C59.2 27.86 59.18 27.84 59.14 27.82C59.08 27.72 59.02 27.6 59 27.46C58.96 27.18 59.06 26.9 59.22 26.68C59.62 26.16 60.36 25.96 61 26.02C61.58 26.1 62.1 26.38 62.5 26.8C63.58 27.84 63.98 29.42 64.36 30.84C64.42 31.04 64.7 31.16 64.88 31.2C64.96 31.22 65.34 31.32 65.3 31.12C64.9 29.64 64.48 28.1 63.4 26.96C62.46 25.96 60.88 25.2 59.48 25.56C58.86 25.72 58.18 26.14 58.08 26.82C57.98 27.5 58.56 28.08 59.18 28.28C59.94 28.52 60.64 28.04 61.2 27.56C61.72 27.1 62.14 26.56 62.44 25.94C63.04 24.72 63.1 23.28 62.62 22.02C62.1 20.7 61.08 19.62 59.8 19.02C58.34 18.36 56.7 18.24 55.16 18.68C53.58 19.1 52.18 19.98 50.9 20.96C49.52 22.02 48.18 23.16 46.84 24.28C46.28 24.7 45.8 25.22 45.4 25.8C45.1 26.28 44.82 26.9 44.98 27.48C45.06 27.76 45.22 28.02 45.46 28.22C45.62 28.36 46.04 28.62 46.26 28.48C48.04 27.4 49.32 25.42 49.12 23.26C49.02 22.24 48.62 21.3 47.94 20.52C47.16 19.68 46.14 19.12 45.02 18.92C42.78 18.52 40.54 19.42 38.6 20.42C36.38 21.56 34.26 22.88 32.28 24.38C31.18 25.16 30.16 26.04 29.2 26.98C28.36 27.86 27.62 28.88 27.46 30.1C27.46 30.42 28.4 30.7 28.42 30.5Z" fill="#575757"/>
<path d="M18.38 28.94C18.36 28.68 18.4 28.42 18.48 28.18L18.46 28.26C18.5 28.14 18.56 28 18.62 27.88C18.74 27.68 18.5 27.48 18.32 27.44C18.2 27.4 18.06 27.4 17.94 27.44C17.84 27.46 17.74 27.52 17.7 27.62C17.5 28 17.4 28.42 17.42 28.84C17.42 28.94 17.46 29.02 17.54 29.08C17.74 29.24 18.02 29.26 18.24 29.16C18.3 29.12 18.4 29.04 18.38 28.94Z" fill="#575757"/>
<path d="M19.62 30.5C20.12 30.48 20.6 30.24 20.9 29.86C20.96 29.76 20.98 29.64 20.96 29.54C20.94 29.4 20.86 29.3 20.76 29.2C20.68 29.12 20.56 29.06 20.44 29.06C20.32 29.06 20.22 29.12 20.16 29.2C20.12 29.24 20.1 29.28 20.06 29.32L20.14 29.24C20.04 29.34 19.92 29.42 19.78 29.5L19.88 29.46C19.76 29.52 19.62 29.56 19.48 29.58L19.58 29.56C19.54 29.56 19.48 29.58 19.44 29.58C19.32 29.58 19.22 29.64 19.16 29.72C19.1 29.82 19.08 29.94 19.1 30.04C19.12 30.18 19.2 30.3 19.3 30.38C19.38 30.44 19.5 30.5 19.62 30.5Z" fill="#575757"/>
</svg>
