<svg width="150" height="150" viewBox="0 0 150 150" fill="none" xmlns="http://www.w3.org/2000/svg">
<path d="M37.08 45.18L39.21 42.15L41.19 45.03C41.19 45 36.69 45.63 37.08 45.18Z" fill="white"/>
<path d="M39.21 42.12C39.21 42.12 53.61 34.41 53.88 34.59C54.15 34.77 54.96 36.66 54.96 37.05C54.96 37.44 41.46 44.97 41.19 44.97C40.92 44.97 39.6 44.43 39.21 42.12Z" fill="white"/>
<path d="M80.22 15.6C80.22 15.6 79.23 18.9 76.95 19.86C74.67 20.82 69.99 21.99 70.5 24.42C71.01 26.85 74.4 26.28 76.14 25.05C76.14 25.05 78.3 31.14 82.5 31.17C86.7 31.2 87.87 29.49 89.19 31.77C89.19 31.77 95.34 33.93 93.75 29.22C93.51 28.5 91.26 19.02 84.66 18.66C84.66 18.69 81 18.66 80.22 15.6Z" fill="white"/>
<path d="M79.68 15.12C79.38 16.14 78.87 17.1 78.18 17.94C77.7 18.57 77.04 19.08 76.32 19.38C75.6 19.68 74.85 19.92 74.13 20.22C73.35 20.49 72.6 20.85 71.88 21.24C71.25 21.54 70.71 22.02 70.29 22.59C69.39 23.97 70.56 25.74 71.85 26.4C73.38 27.18 75.39 26.58 76.71 25.65L75.66 24.72C76.05 25.8 76.59 26.82 77.22 27.78C78.33 29.43 79.89 31.14 81.9 31.65C83.07 31.95 84.36 31.77 85.53 31.59C86.34 31.47 87.21 31.17 88.05 31.2C88.17 31.2 88.29 31.23 88.41 31.26C88.47 31.26 88.5 31.29 88.56 31.32C88.59 31.32 88.68 31.38 88.56 31.32C88.59 31.32 88.71 31.44 88.59 31.35C88.65 31.38 88.59 31.38 88.56 31.32C88.65 31.47 88.59 31.35 88.68 31.47C88.89 31.86 89.19 32.16 89.58 32.37C89.85 32.46 90.12 32.55 90.39 32.61C91.47 32.88 92.91 33.15 93.9 32.52C95.04 31.8 94.5 30.27 94.2 29.25C93.3 26.22 91.98 23.16 89.73 20.88C88.32 19.44 86.55 18.33 84.48 18.15C84.06 18.12 83.64 18.09 83.22 18C82.86 17.94 82.5 17.82 82.17 17.67C81.99 17.58 81.84 17.49 81.66 17.4C81.57 17.34 81.48 17.28 81.42 17.22C81.48 17.28 81.39 17.19 81.39 17.19C81.27 17.07 81.42 17.22 81.3 17.1C81.24 17.04 81.21 17.01 81.18 16.95C81.12 16.89 81.09 16.8 81.03 16.74C80.91 16.5 80.82 16.26 80.73 15.99C80.61 15.66 80.37 15.39 80.07 15.18C79.95 15.09 79.56 14.88 79.65 15.21C80.28 17.58 82.56 19.11 84.93 19.26C86.46 19.32 87.93 19.92 89.07 20.97C89.43 21.33 89.79 21.69 90.09 22.11C91.26 23.64 92.16 25.62 92.79 27.54C92.94 27.99 93.06 28.44 93.21 28.89C93.48 29.73 93.72 30.84 92.88 31.41C92.19 31.86 91.2 31.77 90.42 31.65C89.88 31.56 89.34 31.44 88.83 31.26L89.61 31.95C89.01 30.96 88.11 30 86.88 30.06C86.37 30.09 85.86 30.18 85.35 30.3C84.6 30.45 83.82 30.54 83.04 30.6C82.29 30.69 81.54 30.63 80.79 30.42C80.28 30.24 79.83 29.97 79.41 29.64C78.99 29.28 78.6 28.89 78.3 28.44C78 28.02 77.73 27.6 77.49 27.15C77.28 26.73 77.07 26.31 76.86 25.89C76.8 25.77 76.74 25.62 76.68 25.5C76.62 25.32 76.68 25.53 76.65 25.44C76.53 25.17 76.38 24.93 76.14 24.75C76.02 24.66 75.75 24.39 75.6 24.51C74.52 25.26 72.96 25.8 71.64 25.44C71.52 25.41 71.4 25.35 71.28 25.32C71.22 25.29 71.19 25.26 71.16 25.26C71.22 25.26 71.22 25.38 71.19 25.26C71.16 25.23 71.16 25.17 71.13 25.11C71.07 24.96 71.04 24.81 71.01 24.66C70.98 24.09 71.22 23.55 71.64 23.19C72.66 22.17 74.19 21.66 75.51 21.15C76.14 20.91 76.8 20.7 77.4 20.43C78.09 20.13 78.72 19.65 79.17 19.02C79.86 18.15 80.4 17.16 80.7 16.08C80.88 15.69 79.77 14.79 79.68 15.12Z" fill="#575757"/>
<path d="M93.66 23.61C93.66 23.61 97.14 23.79 97.29 21.9C97.44 20.01 95.43 20.88 95.43 20.88C95.43 20.88 97.11 16.71 93.6 16.77C93.6 16.77 95.82 13.41 93.06 11.31C90.3 9.21004 86.28 11.76 86.28 11.76C86.28 11.76 85.56 7.77004 82.23 8.97004C78.9 10.17 80.25 12.42 80.25 12.42C80.25 12.42 78.12 13.17 78.33 14.55C78.54 15.93 80.31 16.14 80.31 16.14C80.31 16.14 81.75 19.92 84.63 18.72L88.53 23.04C88.17 24.3 88.5 25.68 89.4 26.67C90.93 28.23 94.35 26.13 93.66 23.61Z" fill="#575757"/>
<path d="M93.27 24.03C94.44 24.12 95.64 23.88 96.72 23.37C97.38 23.04 97.95 22.47 98.04 21.69C98.13 20.91 97.77 20.31 96.99 20.22C96.42 20.19 95.85 20.28 95.34 20.52L96.15 20.76C96.45 20.04 96.6 19.26 96.6 18.48C96.6 17.94 96.42 17.4 96.06 16.95C95.58 16.41 94.77 16.26 94.08 16.26L94.35 16.62C95.19 15.33 95.58 13.44 94.8 12.06C93.42 9.60002 90.33 9.69002 88.02 10.53C87.33 10.77 86.67 11.07 86.04 11.46L87.06 11.43C86.85 10.32 86.19 9.09002 85.14 8.55002C84.09 8.01002 82.77 8.31002 81.72 8.79002C80.7 9.24002 79.62 9.99002 79.38 11.16C79.29 11.67 79.38 12.21 79.62 12.66L80.19 12.06C79.2 12.42 77.76 13.26 77.7 14.43C77.64 15.69 78.93 16.41 80.01 16.53L79.71 16.38C80.01 17.1 80.43 17.73 80.94 18.27C81.99 19.38 83.46 19.53 84.84 18.99L84.06 19.02L87.99 23.34L87.93 23.16C87.51 24.51 87.96 26.4 89.16 27.21C90.6 28.17 92.76 27.18 93.75 25.98C94.38 25.26 94.62 24.24 94.41 23.31C94.29 22.86 92.88 23.37 93.03 23.88C93.24 24.78 92.94 25.74 92.19 26.34C92.1 26.43 91.98 26.49 91.86 26.55C91.65 26.67 91.98 26.49 91.74 26.61C91.71 26.61 91.5 26.7 91.65 26.67C91.44 26.76 91.2 26.79 90.96 26.73C90.72 26.67 90.48 26.58 90.3 26.4C89.7 25.83 89.31 25.08 89.25 24.27C89.22 23.97 89.22 23.7 89.25 23.4C89.28 23.22 89.34 23.01 89.34 22.83C89.34 22.65 89.19 22.53 89.07 22.38L87.06 20.16L85.38 18.3C85.23 18.12 84.78 18.27 84.6 18.33C84.15 18.51 83.64 18.48 83.22 18.27C82.77 18.06 82.35 17.73 82.05 17.34C81.66 16.86 81.33 16.35 81.12 15.78C81.09 15.66 80.91 15.63 80.82 15.63C80.73 15.63 80.91 15.66 80.85 15.63C80.79 15.6 80.7 15.6 80.64 15.57C80.43 15.51 80.22 15.45 80.04 15.36C79.53 15.12 79.17 14.64 79.11 14.07C79.14 13.59 79.41 13.17 79.83 12.93C79.74 12.99 79.86 12.93 79.89 12.9L80.04 12.81L80.19 12.72C80.01 12.81 80.16 12.72 80.19 12.72C80.28 12.69 80.34 12.66 80.43 12.63C80.58 12.57 81.15 12.27 81 12.03C80.43 11.07 80.85 9.99002 81.78 9.48002C82.5 9.09002 83.28 8.88002 84 9.30002C84.57 9.66002 84.99 10.17 85.23 10.8C85.41 11.16 85.53 11.52 85.62 11.91C85.68 12.27 86.52 11.94 86.64 11.88C86.76 11.82 86.88 11.73 87 11.67L87.36 11.46L87.48 11.4L87.81 11.25C88.65 10.89 89.58 10.71 90.48 10.74C91.65 10.83 92.7 11.46 93.33 12.45C93.78 13.26 93.9 14.25 93.63 15.15C93.51 15.69 93.27 16.2 92.97 16.68C92.85 16.89 93.06 17.04 93.24 17.04C93.81 17.04 94.41 17.16 94.8 17.64C95.07 18.03 95.19 18.48 95.16 18.93C95.16 19.38 95.07 19.83 94.95 20.28C94.92 20.43 94.86 20.58 94.8 20.73C94.74 20.88 94.77 20.79 94.8 20.76L94.77 20.82C94.59 21.3 95.34 21.18 95.58 21.06C95.61 21.06 95.67 21.03 95.7 21.03C95.79 20.97 95.49 21.09 95.67 21.03L95.79 21C95.97 20.94 95.73 21 95.85 21C95.91 21 96 20.97 96.06 20.97C95.91 20.97 96.12 20.97 96.15 20.97C96.06 20.97 96.21 20.97 96.21 21C96.75 21.21 96.69 22.17 96.39 22.53C96.39 22.56 96.24 22.68 96.3 22.62C96.27 22.65 96.24 22.68 96.21 22.71C96.27 22.68 96.27 22.68 96.21 22.71L96.09 22.77L95.88 22.86H95.91L95.79 22.89C95.7 22.92 95.61 22.95 95.52 22.95C95.43 22.95 95.43 22.98 95.49 22.95L95.37 22.98L95.13 23.01C94.98 23.04 94.83 23.04 94.68 23.04C94.65 23.04 94.41 23.04 94.59 23.04H94.44C94.32 23.04 94.2 23.04 94.11 23.04C93.75 23.04 93.39 23.16 93.12 23.43C92.88 23.79 92.94 24.03 93.27 24.03Z" fill="#575757"/>
<path d="M84.3 19.53C84.3 19.53 84.21 16.77 86.25 16.89C88.29 17.01 90.27 22.89 86.82 23.43" fill="white"/>
<path d="M85.05 19.44C85.05 19.26 85.05 19.11 85.08 18.93C85.11 18.6 85.17 18.27 85.32 17.97C85.38 17.82 85.44 17.7 85.56 17.58C85.5 17.64 85.68 17.43 85.56 17.58C85.62 17.52 85.62 17.52 85.68 17.49C85.62 17.55 85.83 17.37 85.68 17.49L85.77 17.46C85.68 17.49 85.68 17.49 85.74 17.46C85.74 17.46 85.95 17.4 85.83 17.43C85.71 17.46 85.95 17.43 85.92 17.43C86.16 17.4 85.77 17.43 86.04 17.43C86.07 17.43 86.1 17.43 86.13 17.43C86.01 17.37 86.25 17.43 86.13 17.43C86.16 17.43 86.19 17.46 86.22 17.46C86.25 17.46 86.37 17.52 86.22 17.46L86.34 17.52C86.4 17.55 86.46 17.61 86.52 17.64C86.58 17.67 86.73 17.79 86.64 17.73C86.79 17.85 86.91 18 87.03 18.15C87.27 18.45 87.48 18.81 87.63 19.17C87.96 19.92 88.11 20.73 88.02 21.54C88.02 21.72 87.96 21.9 87.9 22.08C87.87 22.17 87.81 22.26 87.78 22.35C87.78 22.32 87.84 22.26 87.78 22.35C87.78 22.38 87.69 22.47 87.66 22.53C87.57 22.62 87.48 22.71 87.36 22.77L87.27 22.83C87.15 22.89 87.39 22.8 87.21 22.86C87.15 22.86 87.12 22.89 87.06 22.92C86.97 22.95 86.97 22.95 87.06 22.92L86.94 22.95C86.64 23.01 86.19 23.19 86.16 23.58C86.13 23.97 86.55 24.09 86.85 24.03C87.99 23.85 89.01 23.19 89.34 22.02C89.61 21.03 89.52 19.98 89.16 19.05C88.86 18.18 88.32 17.25 87.51 16.74C86.46 16.14 85.11 16.38 84.33 17.34C83.85 18.03 83.61 18.84 83.64 19.68C83.67 20.43 85.14 20.16 85.11 19.5L85.05 19.44Z" fill="#575757"/>
<path d="M78.51 20.31C78.27 20.46 78.21 20.79 78.36 21C78.36 21.03 78.39 21.03 78.42 21.06C78.78 21.48 79.32 21.06 79.11 20.58C79.05 20.34 78.81 20.22 78.57 20.28C78.54 20.28 78.54 20.28 78.51 20.31Z" fill="#575757"/>
<path d="M79.62 24.9C79.62 24.99 79.62 25.0801 79.62 25.1401C79.62 25.2301 79.62 25.3201 79.59 25.4401C79.59 25.4701 79.56 25.65 79.59 25.53C79.59 25.59 79.56 25.65 79.56 25.71C79.5 25.98 79.41 26.25 79.29 26.52C79.29 26.5501 79.26 26.58 79.23 26.61L79.2 26.67C79.17 26.7301 79.23 26.61 79.2 26.67C79.17 26.7301 79.11 26.82 79.05 26.88C78.96 27 78.84 27.1201 78.72 27.2401L78.6 27.33C78.57 27.36 78.66 27.3 78.6 27.33L78.54 27.3901C78.45 27.4501 78.36 27.5101 78.27 27.5401C78.18 27.6001 78.06 27.63 77.94 27.66L77.88 27.6901C77.82 27.7201 77.97 27.6601 77.85 27.6901L77.64 27.75C77.04 27.87 77.67 28.77 78.12 28.68C78.93 28.53 79.65 28.02 80.07 27.3C80.34 26.79 80.49 26.22 80.52 25.65C80.52 25.53 80.52 25.4101 80.52 25.2901C80.49 25.0201 80.28 24.7801 80.01 24.6901C79.89 24.6301 79.59 24.66 79.62 24.9Z" fill="#575757"/>
<path d="M121.65 113.82C121.65 113.82 123 124.92 122.73 124.92C122.46 124.92 118.5 124.8 118.5 124.8L117.84 121.08L115.92 125.16L102.72 124.41C102.72 124.41 102.3 123.06 105.27 121.56C108.24 120.06 113.01 117.99 113.01 117.99L113.1 112.5L121.65 113.82Z" fill="#575757"/>
<path d="M121.47 113.76C121.71 115.77 121.95 117.75 122.16 119.76C122.31 121.02 122.43 122.31 122.52 123.57C122.55 123.93 122.58 124.29 122.58 124.65C122.58 124.95 122.46 124.83 122.16 124.83L118.35 124.71L118.68 124.86L118.02 121.14C118.02 121.08 117.69 120.96 117.66 120.99L116.01 124.5C115.95 124.71 115.86 124.89 115.74 125.07C115.71 125.1 115.77 125.07 115.74 125.07C115.71 125.07 115.68 125.07 115.65 125.07C115.29 125.07 114.93 125.04 114.6 125.01L105.33 124.5L102.57 124.35L102.9 124.47C102.87 124.17 102.93 123.87 103.08 123.6C103.56 122.67 104.61 122.07 105.54 121.62C107.55 120.6 109.62 119.67 111.66 118.77C112.17 118.53 112.68 118.32 113.19 118.08L113.25 115.35L113.28 113.43V112.8C113.28 112.77 113.28 112.5 113.25 112.53C113.19 112.56 113.22 112.56 113.25 112.53C113.28 112.53 113.34 112.53 113.37 112.56L113.82 112.62L115.29 112.86L119.22 113.46L121.77 113.85C121.92 113.88 121.59 113.73 121.53 113.7L114.06 112.53L113.01 112.38H112.95L112.89 115.14L112.86 117.03V117.66C112.86 117.69 112.86 117.9 112.86 117.9C112.86 117.9 112.65 117.99 112.59 118.02L111.93 118.32C111.21 118.65 110.49 118.95 109.77 119.28C108.87 119.7 107.97 120.12 107.04 120.54C106.14 120.93 105.27 121.38 104.43 121.86C103.74 122.28 102.96 122.82 102.63 123.6C102.51 123.84 102.48 124.08 102.54 124.32C102.57 124.38 102.78 124.44 102.87 124.44L107.34 124.68L114.42 125.07L116.07 125.16H116.1L118.02 121.08L117.66 120.93L118.32 124.65C118.32 124.74 118.59 124.8 118.65 124.8L122.1 124.92C122.25 124.92 122.82 125.04 122.91 124.89C123 124.74 122.91 124.26 122.91 124.11C122.76 121.47 122.4 118.86 122.1 116.25C122.01 115.44 121.92 114.63 121.8 113.82L121.47 113.76Z" fill="#575757"/>
<path d="M102 71.04C102 71.04 110.91 115.62 111.3 116.28C111.69 116.94 123.15 115.53 123.96 114.45C124.77 113.37 114.9 63.63 114.9 63.63L102 71.04Z" fill="white"/>
<path d="M101.28 71.07L101.61 72.75L102.51 77.19C102.93 79.32 103.38 81.45 103.8 83.61C104.31 86.13 104.82 88.62 105.33 91.14C105.87 93.72 106.38 96.33 106.92 98.91C107.43 101.31 107.91 103.74 108.42 106.14C108.81 108.09 109.23 110.04 109.65 111.99C109.92 113.19 110.16 114.39 110.43 115.59C110.46 115.83 110.52 116.07 110.61 116.31C110.88 116.94 111.87 116.91 112.44 116.94C113.52 116.94 114.6 116.88 115.68 116.76C117.09 116.61 118.47 116.43 119.88 116.19C121.02 116.01 122.16 115.77 123.24 115.44C123.69 115.29 124.62 115.08 124.77 114.51C124.8 114.27 124.8 114.03 124.77 113.79C124.74 113.28 124.68 112.8 124.62 112.29C124.44 110.76 124.17 109.26 123.93 107.73C123.6 105.63 123.21 103.53 122.85 101.43C122.4 98.97 121.95 96.48 121.5 94.02C121.02 91.41 120.54 88.8 120.03 86.19C119.55 83.67 119.07 81.15 118.59 78.63C118.17 76.41 117.72 74.16 117.3 71.94C116.97 70.23 116.64 68.55 116.31 66.84C116.13 65.91 115.95 64.95 115.74 64.02L115.68 63.66C115.59 63.24 114.75 63.15 114.45 63.33L110.1 65.82L103.14 69.81L101.55 70.74C100.74 71.19 102 71.79 102.51 71.49L106.86 69L113.82 65.01L115.41 64.11L114.18 63.78C114.27 64.26 114.36 64.77 114.48 65.25L115.26 69.27C115.65 71.22 116.04 73.17 116.4 75.15C116.85 77.52 117.3 79.89 117.78 82.26C118.26 84.84 118.77 87.42 119.25 89.97C119.73 92.52 120.21 95.04 120.66 97.59C121.08 99.9 121.5 102.21 121.89 104.49C122.22 106.35 122.52 108.21 122.82 110.07C122.94 110.76 123.03 111.45 123.12 112.14C123.15 112.41 123.18 112.71 123.21 112.98C123.21 112.89 123.21 113.07 123.21 112.98V113.07C123.21 113.13 123.21 113.19 123.24 113.25L123.27 113.55C123.3 113.82 123.27 114.09 123.3 114.36C123.3 114.45 123.27 114.42 123.3 114.33L123.27 114.36C123.3 114.3 123.33 114.3 123.24 114.39C123.15 114.48 123.33 114.36 123.18 114.42L122.97 114.51L122.73 114.6L122.61 114.63C122.52 114.66 122.7 114.6 122.58 114.63C120.21 115.35 117.69 115.65 115.32 115.89C114.27 116.01 113.19 116.07 112.14 116.07C111.96 116.07 112.26 116.07 112.14 116.07H112.02L111.81 116.04C111.78 116.04 111.75 116.04 111.72 116.04C111.6 116.04 111.9 116.07 111.81 116.07C111.63 116.04 111.9 116.1 111.84 116.07C111.99 116.13 112.11 116.43 112.05 116.19C111.84 115.38 111.66 114.54 111.48 113.73C111.12 112.08 110.76 110.4 110.43 108.75C109.98 106.53 109.5 104.31 109.05 102.09C108.54 99.57 108.03 97.05 107.52 94.53C107.01 91.98 106.5 89.4 105.96 86.85C105.48 84.54 105.03 82.26 104.58 79.95C104.22 78.15 103.86 76.35 103.5 74.55C103.29 73.53 103.08 72.51 102.9 71.49C102.87 71.37 102.84 71.22 102.81 71.1C102.63 70.44 101.13 70.41 101.28 71.07Z" fill="#575757"/>
<path d="M97.59 93.06C97.59 93.06 98.94 104.16 98.67 104.16C98.4 104.16 94.44 104.04 94.44 104.04L93.78 100.32L91.86 104.4L78.66 103.65C78.66 103.65 78.24 102.3 81.21 100.8C84.18 99.3 88.95 97.23 88.95 97.23L89.07 91.71L97.59 93.06Z" fill="#575757"/>
<path d="M97.41 93C97.65 95.01 97.89 96.99 98.1 99C98.25 100.26 98.37 101.55 98.46 102.81C98.49 103.17 98.52 103.53 98.52 103.89C98.52 104.19 98.4 104.1 98.1 104.07C96.84 104.04 95.55 104.01 94.29 103.95L94.62 104.1L93.96 100.38C93.96 100.32 93.63 100.2 93.6 100.23L91.95 103.74C91.89 103.95 91.8 104.13 91.68 104.28C91.65 104.31 91.71 104.28 91.68 104.31C91.65 104.34 91.62 104.31 91.59 104.31C91.23 104.31 90.87 104.28 90.54 104.25L81.27 103.74L78.51 103.59L78.84 103.71C78.81 103.41 78.87 103.11 79.02 102.84C79.5 101.91 80.55 101.31 81.48 100.86C83.49 99.84 85.56 98.91 87.6 98.01C88.11 97.77 88.62 97.56 89.13 97.35L89.19 94.62L89.22 92.7V92.07C89.22 92.04 89.22 91.77 89.19 91.8C89.13 91.83 89.16 91.83 89.19 91.8C89.22 91.8 89.28 91.8 89.31 91.83L89.76 91.89L91.23 92.13L95.16 92.73L97.71 93.12C97.8 93.15 97.5 93 97.41 93L89.94 91.83L88.89 91.68H88.83L88.77 94.44L88.74 96.33V96.96C88.74 97.05 88.74 97.11 88.74 97.2C88.71 97.26 88.53 97.29 88.47 97.32L87.81 97.62C87.09 97.95 86.37 98.25 85.65 98.58C84.75 99 83.82 99.42 82.92 99.84C82.02 100.26 81.12 100.65 80.31 101.16C79.62 101.58 78.84 102.12 78.54 102.9C78.42 103.14 78.39 103.38 78.45 103.65C78.48 103.71 78.69 103.77 78.75 103.77L83.22 104.01L90.33 104.4L91.98 104.49H92.01L93.96 100.41L93.6 100.26L94.26 103.98C94.26 104.04 94.53 104.13 94.59 104.13L98.04 104.25C98.19 104.25 98.76 104.37 98.85 104.22C98.94 104.07 98.85 103.59 98.85 103.44C98.7 100.8 98.34 98.19 98.04 95.58C97.95 94.77 97.86 93.96 97.74 93.15C97.74 93.03 97.41 93 97.41 93Z" fill="#575757"/>
<path d="M96.81 59.7C96.81 59.7 83.55 63.9 81.84 66.57C80.13 69.24 86.43 95.25 86.43 95.25C86.43 95.25 99.69 95.52 100.17 94.74C100.65 93.96 95.16 75.09 95.16 75.09C95.16 75.09 116.01 69.39 116.01 64.23C116.01 59.07 112.11 50.97 112.11 50.97L96.81 59.7Z" fill="white"/>
<path d="M96.39 59.1C93.54 60 90.72 61.02 87.99 62.16C86.16 62.91 84.33 63.7201 82.65 64.8301C82.08 65.1601 81.57 65.6101 81.18 66.1501C81 66.48 80.88 66.8401 80.85 67.2301C80.76 68.5201 80.79 69.78 80.97 71.07C81.15 72.87 81.45 74.67 81.75 76.4401C82.44 80.4 83.25 84.3601 84.12 88.2601C84.63 90.5401 85.14 92.79 85.68 95.04L85.71 95.1601C85.8 95.5501 86.1 95.8201 86.49 95.8501C88.65 95.8801 90.81 95.9101 92.94 95.8801C94.53 95.8801 96.12 95.8501 97.71 95.7601C98.28 95.7301 98.85 95.7001 99.42 95.6101C99.78 95.5801 100.14 95.49 100.47 95.34C101.1 95.01 100.83 94.1101 100.74 93.54C100.53 92.4 100.26 91.2901 99.96 90.1501C99.18 87.0301 98.34 83.94 97.47 80.85C97.11 79.56 96.75 78.3001 96.39 77.0101C96.21 76.3501 96.06 75.6601 95.82 75.0301C95.82 75.0001 95.79 74.9701 95.79 74.9401L95.34 75.6901C96.72 75.33 98.07 74.88 99.42 74.46C102.21 73.56 105 72.5701 107.67 71.43C110.19 70.35 112.86 69.1501 114.93 67.2901C115.65 66.6601 116.34 65.85 116.58 64.92C116.73 64.26 116.64 63.51 116.55 62.85C116.43 61.89 116.25 60.9 116.01 59.97C115.23 56.88 114.15 53.9101 112.77 51.0301L112.71 50.8801C112.53 50.5201 112.02 50.19 111.63 50.4L106.44 53.37L98.22 58.05L96.39 59.1C95.61 59.55 96.57 60.63 97.23 60.27L102.42 57.3L110.64 52.62L112.53 51.54L111.45 51.06C112.59 53.43 113.55 55.89 114.3 58.4401C114.9 60.2401 115.23 62.1001 115.32 63.9901V64.17C115.32 64.17 115.32 64.02 115.32 64.11V64.2301C115.32 64.3201 115.29 64.4101 115.26 64.5301C115.26 64.5601 115.23 64.62 115.23 64.6501C115.2 64.7701 115.26 64.5601 115.23 64.6501C115.2 64.74 115.14 64.83 115.11 64.92C115.02 65.1 114.9 65.28 114.78 65.46L114.69 65.5801C114.78 65.4901 114.69 65.58 114.66 65.61C114.57 65.7 114.48 65.79 114.39 65.91C113.58 66.69 112.68 67.3801 111.69 67.9501C110.43 68.67 109.14 69.3301 107.82 69.93C105.12 71.1 102.36 72.15 99.57 73.05C99 73.23 98.43 73.41 97.86 73.59L97.47 73.71L97.29 73.77L97.2 73.8H97.23L96.57 74.01C96.06 74.16 95.55 74.31 95.04 74.46L94.98 74.49C94.68 74.5501 94.5 74.85 94.56 75.12C94.56 75.15 94.56 75.18 94.59 75.21C95.04 76.77 95.49 78.33 95.94 79.89C96.78 82.86 97.62 85.8901 98.37 88.8001C98.7 90.0601 99 91.2901 99.27 92.5501C99.36 92.9701 99.45 93.42 99.51 93.84C99.54 93.99 99.54 94.14 99.57 94.29C99.57 94.35 99.57 94.41 99.57 94.44C99.6 94.59 99.6 94.2901 99.57 94.4101C99.54 94.5301 99.6 94.3201 99.6 94.3501C99.57 94.4101 99.72 94.2001 99.66 94.2601C99.6 94.3201 99.78 94.1401 99.72 94.2301C99.72 94.2601 99.51 94.3201 99.63 94.2601C99.75 94.2001 99.54 94.29 99.48 94.29C99.03 94.38 98.55 94.4401 98.1 94.4701C97.38 94.5301 96.93 94.5301 96.24 94.5601C95.46 94.5901 94.68 94.59 93.9 94.62C91.47 94.6501 89.01 94.56 86.58 94.59H86.43L87.21 95.2801C86.76 93.4501 86.34 91.5901 85.92 89.7301C85.05 85.8901 84.24 82.0501 83.55 78.1801C83.22 76.3201 82.89 74.46 82.65 72.57C82.44 71.16 82.32 69.7501 82.32 68.3401V68.25C82.32 68.16 82.32 68.4001 82.32 68.2801C82.32 68.2201 82.32 68.16 82.32 68.1C82.32 67.98 82.32 67.8601 82.35 67.7401C82.38 67.5601 82.41 67.38 82.44 67.17C82.44 67.14 82.47 67.1101 82.47 67.0501C82.5 66.93 82.41 67.2001 82.47 67.0801C82.5 67.0201 82.53 66.9601 82.56 66.9C82.59 66.84 82.62 66.81 82.68 66.75C82.56 66.9 82.71 66.7201 82.74 66.6901C82.83 66.5701 82.95 66.4801 83.07 66.3901C83.64 65.9101 84.27 65.49 84.93 65.16C85.8 64.68 86.67 64.26 87.57 63.87C90.69 62.52 93.9 61.32 97.14 60.3L97.32 60.2401C97.68 60.1201 97.68 59.64 97.5 59.4C97.17 59.1 96.75 58.98 96.39 59.1Z" fill="#575757"/>
<path d="M57.54 45.45C57.54 45.45 51.27 39.9 48.3 39.24C45.33 38.58 42.75 38.91 42.51 39.51C42.27 40.11 43.29 40.38 44.55 40.59C45.81 40.8 47.04 41.04 47.04 41.04C47.04 41.04 39.66 44.28 43.32 44.37C43.32 44.37 40.83 46.44 44.61 45.75C44.61 45.75 43.47 46.92 45.18 46.89C46.89 46.86 48.66 46.71 48.66 46.71C48.66 46.71 49.23 50.64 54.87 48.48C54.9 48.42 56.13 46.02 57.54 45.45Z" fill="white"/>
<path d="M58.26 45.33C56.43 43.68 54.45 42.18 52.41 40.8C51.06 39.93 49.71 39.15 48.09 38.88C46.86 38.64 45.6 38.55 44.34 38.64C43.59 38.7 42.54 38.76 41.94 39.27C41.07 39.99 42.81 40.5 43.26 40.59C44.34 40.83 45.42 40.95 46.5 41.19L46.47 40.89C45.63 41.25 44.79 41.67 43.98 42.09C43.41 42.39 42.84 42.72 42.3 43.08C42.03 43.26 41.52 43.62 41.52 43.98C41.52 44.55 42.75 44.55 43.11 44.55L42.57 44.31C42.24 44.58 41.82 45 41.76 45.42C41.73 45.78 42.12 45.93 42.39 45.99C43.23 46.17 44.13 46.02 44.97 45.87L43.86 45.69C43.68 45.87 43.56 46.08 43.5 46.32C43.38 46.83 44.01 47.01 44.4 47.04C45.33 47.13 46.29 47.1 47.22 47.01C47.76 46.98 48.33 46.92 48.87 46.89L47.91 46.74C48.09 47.61 48.6 48.36 49.38 48.81C50.25 49.32 51.33 49.41 52.29 49.32C53.04 49.26 53.76 49.11 54.48 48.9C54.66 48.84 54.87 48.78 55.05 48.72C55.26 48.69 55.44 48.6 55.59 48.48C55.62 48.42 55.68 48.36 55.71 48.27C56.28 47.25 57.06 46.02 58.17 45.54C58.47 45.39 57.99 45.27 57.9 45.27C57.54 45.21 57.21 45.27 56.88 45.39C55.89 45.81 55.17 46.77 54.63 47.64C54.48 47.88 54.36 48.18 54.18 48.42C54.15 48.45 54.15 48.45 54.21 48.42C54.33 48.33 54.09 48.45 54.06 48.45C53.88 48.51 53.73 48.57 53.55 48.63C53.25 48.72 52.95 48.81 52.65 48.84C52.44 48.87 52.26 48.9 52.05 48.9H51.87C51.9 48.9 51.69 48.87 51.63 48.87C51.33 48.81 51.03 48.72 50.76 48.54C50.31 48.27 49.95 47.88 49.74 47.43C49.62 47.19 49.53 46.92 49.47 46.65C49.44 46.38 48.63 46.47 48.51 46.5H48.42H48.36L47.55 46.56C47.19 46.59 46.83 46.59 46.47 46.62C46.08 46.65 45.69 46.68 45.3 46.65C44.76 46.56 45.18 45.96 45.39 45.75C45.51 45.63 45.15 45.54 45.12 45.54C44.85 45.51 44.55 45.51 44.28 45.57C44.1 45.6 43.95 45.63 43.77 45.63H43.65C43.62 45.63 43.44 45.63 43.56 45.63C43.5 45.63 43.47 45.63 43.53 45.63C43.35 45.6 43.59 45.66 43.5 45.63C43.41 45.6 43.47 45.63 43.41 45.6C43.32 45.48 43.29 45.3 43.38 45.18C43.56 44.85 43.8 44.58 44.1 44.37C44.31 44.19 43.56 44.13 43.56 44.13H43.44C43.44 44.13 43.56 44.13 43.47 44.13C43.41 44.13 43.35 44.13 43.29 44.1C43.44 44.13 43.26 44.1 43.23 44.07C43.32 44.1 43.23 44.07 43.2 44.04C43.23 44.07 43.14 44.04 43.14 43.98C43.14 44.01 43.14 43.89 43.14 43.86C43.2 43.59 43.62 43.32 43.86 43.14C44.82 42.51 45.84 41.94 46.92 41.49C47.13 41.4 47.31 41.31 47.52 41.22C47.58 41.19 47.88 41.04 47.64 41.16C47.85 41.07 47.94 40.92 47.61 40.86C46.8 40.71 45.99 40.56 45.18 40.41C44.85 40.35 42.93 40.17 43.32 39.48C43.53 39.12 44.31 39.12 44.7 39.09C45.78 39.06 46.83 39.15 47.88 39.42C49.11 39.72 50.31 40.5 51.36 41.22C52.62 42.06 53.82 42.99 54.99 43.92C55.65 44.46 56.28 45 56.91 45.54C57.12 45.72 57.57 45.69 57.84 45.66C57.84 45.63 58.44 45.51 58.26 45.33Z" fill="#575757"/>
<path d="M47.43 42.2401C45.93 42.7801 44.46 43.3201 42.93 43.7401C42.6 43.8301 42.69 44.3101 42.84 44.5201C43.02 44.7901 43.38 45.0601 43.71 44.9701C45.24 44.5501 46.71 44.0101 48.21 43.4701C48.87 43.2301 48.03 42.0001 47.43 42.2401Z" fill="#575757"/>
<path d="M48.24 44.01C46.95 44.31 45.66 44.64 44.4 45.03C44.25 45.06 44.13 45.15 44.07 45.3C44.01 45.48 44.01 45.66 44.07 45.81C44.16 46.08 44.49 46.56 44.85 46.44C46.11 46.05 47.4 45.72 48.69 45.42C48.99 45.33 49.14 45 49.05 44.7C49.05 44.67 49.05 44.67 49.02 44.64C48.93 44.37 48.6 43.92 48.24 44.01Z" fill="#575757"/>
<path d="M88.8 44.64C88.8 44.64 89.13 60.24 93.78 60.9C98.43 61.56 114.66 58.83 114.33 52.17C114 45.51 99.78 24.78 91.38 28.35C82.98 31.92 78 42.24 74.25 43.77C70.5 45.3 56.94 41.04 54.72 43.26C52.5 45.48 52.5 51.81 55.92 53.37C59.34 54.93 76.98 53.19 80.91 52.35C84.84 51.51 88.8 44.64 88.8 44.64Z" fill="#575757"/>
<path d="M88.11 44.4C88.14 45.96 88.26 47.55 88.44 49.11C88.74 51.93 89.16 54.78 90.18 57.45C90.57 58.56 91.2 59.55 92.04 60.36C92.91 61.14 93.96 61.3801 95.1 61.44C97.89 61.56 100.74 61.14 103.44 60.5401C106.44 59.88 109.56 58.92 112.08 57.18C113.1 56.5201 113.97 55.62 114.57 54.54C115.02 53.61 115.14 52.56 114.9 51.54C114.45 49.05 113.19 46.65 111.96 44.46C110.31 41.55 108.39 38.79 106.23 36.24C104.16 33.78 101.82 31.44 99.09 29.7C96.99 28.35 94.32 27.15 91.77 27.69C91.08 27.87 90.39 28.14 89.76 28.47C88.86 28.92 87.99 29.46 87.18 30.03C85.56 31.2 84.06 32.55 82.68 33.99C81.36 35.37 80.13 36.81 78.93 38.28C77.94 39.48 76.95 40.71 75.81 41.79C75.06 42.54 74.19 43.3201 73.2 43.5301C72 43.8001 70.71 43.71 69.45 43.59C66.09 43.32 62.79 42.63 59.46 42.3C58.17 42.18 56.82 42.06 55.53 42.27C55.08 42.33 54.66 42.48 54.3 42.72C53.82 43.11 53.43 43.65 53.19 44.22C51.87 47.04 52.26 51.3 54.96 53.19C55.95 53.88 57.09 54.12 58.26 54.27C59.61 54.42 60.96 54.48 62.31 54.45C65.79 54.45 69.24 54.21 72.72 53.91C75.45 53.67 78.21 53.4 80.91 52.92C84.09 52.35 86.37 49.59 88.14 47.07C88.62 46.41 89.07 45.69 89.49 45C89.7 44.64 88.38 43.95 88.14 44.37C86.91 46.59 85.32 48.57 83.43 50.25C82.8 50.82 82.11 51.27 81.36 51.66C80.88 51.87 80.37 52.0201 79.83 52.08C78.72 52.29 77.61 52.44 76.5 52.56C73.29 52.95 70.05 53.25 66.84 53.43C63.87 53.6101 60.81 53.76 57.84 53.46L57.6 53.4C57.57 53.4 57.39 53.37 57.51 53.4L57.12 53.34C56.91 53.31 56.7 53.28 56.46 53.22L56.31 53.19C56.19 53.16 56.46 53.25 56.31 53.19L56.04 53.1C55.89 53.07 56.1 53.13 56.07 53.13L55.89 53.04C55.8 52.98 55.68 52.92 55.59 52.86C54.42 51.96 53.97 50.31 53.85 48.9C53.73 47.37 53.97 45.75 54.75 44.43C54.96 44.01 55.32 43.65 55.74 43.41C56.16 43.26 56.58 43.17 57.03 43.14C58.35 43.08 59.67 43.14 60.99 43.32C62.61 43.5 64.23 43.7701 65.85 43.9801C67.47 44.1901 69.06 44.43 70.68 44.55C71.88 44.64 73.17 44.7 74.34 44.37C75.36 44.1 76.2 43.38 76.95 42.66C78.03 41.58 79.05 40.44 79.98 39.24C82.38 36.36 84.84 33.48 87.84 31.2C88.62 30.6 89.46 30.06 90.33 29.58C90.99 29.19 91.71 28.86 92.46 28.62C92.94 28.47 93.42 28.41 93.93 28.44C94.05 28.44 94.2 28.44 94.32 28.47L94.5 28.5C94.53 28.5 94.62 28.5 94.5 28.5L94.65 28.53L95.01 28.59L95.22 28.65L95.4 28.68C95.91 28.83 96.42 29.01 96.9 29.25C97.05 29.31 97.17 29.37 97.32 29.46L97.53 29.58L97.56 29.61L97.65 29.67C97.95 29.82 98.22 30 98.49 30.18C99.69 30.99 100.83 31.89 101.85 32.88C104.19 35.1 106.29 37.59 108.12 40.26C109.83 42.69 111.3 45.3 112.5 48.03C113.25 49.8 114.12 52.05 113.22 53.91C112.68 54.93 111.87 55.83 110.88 56.46C109.68 57.27 108.42 57.9 107.07 58.41C104.19 59.49 101.16 60.18 98.1 60.51C96.9 60.66 95.7 60.72 94.5 60.69C94.26 60.69 94.05 60.66 93.81 60.66L93.63 60.6301C93.51 60.6301 93.75 60.66 93.63 60.6301C93.51 60.6 93.42 60.6 93.33 60.57C93.21 60.54 93.36 60.57 93.33 60.57L93.18 60.51C93.09 60.48 93.33 60.6 93.18 60.51C93.15 60.48 93.03 60.39 93.12 60.48C93.21 60.57 93.09 60.45 93.06 60.42L92.94 60.3C92.82 60.21 92.97 60.3601 92.88 60.24C92.16 59.4 91.65 58.44 91.32 57.39C90.87 56.1 90.54 54.7801 90.33 53.43C89.91 51.03 89.64 48.63 89.55 46.2C89.52 45.81 89.52 45.39 89.49 45C89.46 44.43 88.08 43.92 88.11 44.4Z" fill="#575757"/>
<path d="M36.24 54.48C36.24 54.48 19.74 55.44 19.86 54.84C19.98 54.24 35.88 45 35.88 45L36.24 54.48Z" fill="white"/>
<path d="M130.77 140.85H24.03C22.59 140.85 21.15 140.85 19.71 140.85H19.53C19.26 140.85 18.72 140.94 18.66 141.27C18.6 141.6 18.99 141.75 19.26 141.75H125.97C127.41 141.75 128.85 141.75 130.29 141.75H130.47C130.74 141.75 131.25 141.66 131.34 141.33C131.43 141 131.04 140.85 130.77 140.85Z" fill="white"/>
<path d="M35.34 45.42L35.49 51.78L35.7 61.98L35.76 64.32C35.79 64.77 36.15 65.13 36.6 65.13L50.46 65.31L52.41 65.34L51.57 64.53L51.75 71.22L52.05 81.81L52.11 84.27C52.14 84.72 52.53 85.08 52.98 85.08L59.19 85.32L69.12 85.71L71.4 85.8L70.53 84.99L70.65 91.44L70.86 101.79L70.89 104.16C70.92 104.61 71.28 104.97 71.76 104.97L79.11 105.09L90.87 105.3L93.57 105.33L92.7 104.52L92.76 111.33L92.85 122.1L92.88 124.62C92.91 125.07 93.27 125.43 93.75 125.43L101.91 125.61L114.93 125.91L117.93 125.97L117.06 125.16L117.39 138.66L117.42 140.61C117.45 141.36 118.77 141.81 118.74 140.88L118.41 127.38L118.38 125.43C118.35 124.98 117.99 124.62 117.51 124.62L109.35 124.44L96.33 124.14L93.33 124.08L94.2 124.89L94.14 118.08L94.05 107.31L94.02 104.79C93.99 104.34 93.6 103.98 93.15 103.98L85.8 103.86L74.04 103.65L71.34 103.59L72.21 104.4L72.09 97.95L71.91 87.6L71.88 85.23C71.85 84.78 71.49 84.42 71.01 84.42L64.8 84.18L54.87 83.79L52.59 83.7L53.46 84.51L53.28 77.82L52.98 67.23L52.92 64.77C52.89 64.32 52.53 63.96 52.05 63.96L38.19 63.81L36.24 63.78L37.08 64.59L36.93 58.23L36.72 48.03L36.66 45.69C36.63 44.94 35.31 44.49 35.34 45.42Z" fill="white"/>
<path d="M32.64 42.9L30.63 40.62C30.54 40.47 30.39 40.38 30.21 40.35C30.06 40.32 29.94 40.35 29.85 40.47C29.67 40.8 29.73 41.19 29.97 41.46L31.98 43.74C32.07 43.89 32.22 43.98 32.4 44.04C32.55 44.07 32.67 44.04 32.79 43.92C32.94 43.56 32.91 43.17 32.64 42.9Z" fill="white"/>
<path d="M35.04 42.3V39.03C35.04 38.91 34.86 38.79 34.77 38.73C34.59 38.67 34.41 38.64 34.23 38.67C33.93 38.73 33.57 38.88 33.57 39.24V42.51C33.57 42.63 33.75 42.75 33.84 42.81C34.02 42.87 34.2 42.9 34.38 42.87C34.68 42.81 35.04 42.66 35.04 42.3Z" fill="white"/>
</svg>
