<svg width="150" height="151" viewBox="0 0 150 151" fill="none" xmlns="http://www.w3.org/2000/svg">
<path d="M56.91 72.89C56.91 72.89 79.56 75.59 84.24 70.04C84.24 70.04 81.12 53.57 77.76 51.29C71.73 47.21 61.77 50.42 60.18 54.59C57 63.17 56.91 72.89 56.91 72.89Z" fill="white"/>
<path d="M56.88 73.1C58.23 73.25 59.55 73.37 60.9 73.46C63.84 73.67 66.81 73.79 69.78 73.76C72.99 73.73 76.2 73.55 79.35 72.86C80.64 72.59 81.87 72.17 83.04 71.6C83.52 71.36 83.97 71.06 84.39 70.73C84.57 70.58 84.96 70.31 84.96 70.04C84.93 69.8 84.9 69.59 84.84 69.38C84.75 68.96 84.66 68.51 84.57 68.09C84.3 66.8 84 65.51 83.7 64.25C82.95 61.16 82.11 58.04 80.88 55.1C80.43 53.99 79.92 52.85 79.14 51.92C78.75 51.47 78.27 51.11 77.76 50.84C76.86 50.33 75.9 49.94 74.91 49.7C70.89 48.65 66.63 49.13 62.97 51.05C61.65 51.77 60.36 52.73 59.67 54.08C59.13 55.13 58.83 56.33 58.5 57.47C58.14 58.73 57.81 60.02 57.54 61.31C56.79 64.91 56.34 68.54 56.22 72.23C56.22 72.41 56.22 72.62 56.22 72.8C56.22 73.13 57.69 73.25 57.72 73.01C57.78 70.46 57.99 67.94 58.38 65.42C58.71 63.02 59.22 60.62 59.85 58.25C60.18 57.02 60.57 55.79 61.02 54.62C61.29 54.02 61.68 53.45 62.16 53C63.33 51.83 64.89 51.02 66.45 50.48C68.22 49.85 70.11 49.58 72 49.67C73.83 49.73 75.63 50.3 77.13 51.35C77.88 51.89 78.39 52.88 78.81 53.72C80.16 56.42 80.97 59.39 81.72 62.3C82.32 64.64 82.86 66.98 83.34 69.32C83.4 69.5 83.43 69.71 83.46 69.92C83.43 70.1 82.98 70.46 82.8 70.58C81.9 71.24 80.88 71.75 79.8 72.05C77.01 72.92 74.04 73.16 71.13 73.28C68.13 73.4 65.25 73.31 62.25 73.16C61.14 73.1 60.03 73.01 58.92 72.92L58.29 72.86L58.02 72.83H57.9C57.93 72.83 58.08 72.86 57.9 72.83L57.18 72.77L56.94 72.74C56.82 72.74 56.19 72.62 56.16 72.86C56.13 73.1 56.79 73.1 56.88 73.1Z" fill="#575757"/>
<path d="M61.8 61.19C65.28 59.72 69.54 57.68 70.74 53.75C71.01 52.85 69.63 52.58 69.36 53.39C68.28 56.93 64.29 58.67 61.17 59.99C60.81 60.11 60.63 60.5 60.78 60.86C60.93 61.22 61.29 61.4 61.65 61.25C61.71 61.25 61.74 61.22 61.8 61.19Z" fill="#575757"/>
<path d="M60.75 59.96C63.36 58.01 66.18 55.91 67.44 52.79C67.59 52.49 67.5 52.1 67.17 51.95C67.14 51.95 67.14 51.92 67.11 51.92C66.72 51.77 66.3 51.92 66.12 52.28C64.95 55.16 62.37 57.11 59.94 58.91C59.61 59.09 59.52 59.51 59.7 59.81V59.84C59.97 60.14 60.42 60.17 60.75 59.96Z" fill="#575757"/>
<path d="M81.06 68.39C83.82 64.58 77.94 54.95 77.94 54.95C76.08 54.86 72.84 53.57 72.84 53.57C74.52 58.94 68.28 61.37 68.28 61.37C66.54 58.58 63.21 60.14 63.81 63.02C64.41 65.9 67.26 65.84 67.26 65.84C67.26 65.84 66.81 73.22 67.23 74.36C67.23 74.36 72.42 77 74.82 72.41C74.82 72.41 79.17 71 81.06 68.39Z" fill="white"/>
<path d="M81.54 68.96C82.38 67.76 82.47 66.29 82.29 64.88C82.05 63.26 81.63 61.64 80.97 60.14C80.43 58.79 79.8 57.47 79.11 56.21C78.75 55.55 78.33 54.41 77.46 54.32C75.84 54.2 74.19 53.57 72.69 52.97C72.54 52.88 72.33 52.94 72.27 53.09C72.24 53.18 72.21 53.27 72.24 53.36C72.78 54.95 72.48 56.72 71.46 58.04C71.04 58.61 70.53 59.09 69.96 59.51C69.72 59.69 69.45 59.87 69.18 60.05C69 60.17 68.7 60.35 68.58 60.38C68.34 60.5 68.1 60.62 67.83 60.74L68.67 61.22C68.04 60.23 67.02 59.3 65.76 59.24C64.8 59.21 63.93 59.69 63.45 60.53C62.88 61.52 63.06 62.84 63.51 63.83C63.99 64.85 64.8 65.63 65.85 66.08C66.36 66.29 66.9 66.41 67.47 66.41L66.6 65.45C66.45 67.79 66.33 70.13 66.42 72.5C66.42 73.01 66.48 73.52 66.57 74.03C66.72 74.6 67.11 74.84 67.59 75.05C68.61 75.5 69.72 75.71 70.83 75.71C71.67 75.71 72.51 75.5 73.26 75.08C74.16 74.54 74.88 73.76 75.33 72.83L75.15 72.98C75.99 72.71 76.83 72.35 77.61 71.93C79.11 71.21 80.55 70.28 81.54 68.96C81.9 68.48 80.85 67.4 80.55 67.85C79.08 69.83 76.71 70.91 74.49 71.78C74.37 71.84 74.25 71.93 74.19 72.05C73.98 72.41 73.77 72.74 73.5 73.04C73.08 73.52 72.57 73.91 71.97 74.15C70.98 74.54 69.87 74.6 68.82 74.36C68.4 74.27 68.01 74.15 67.62 74C67.5 73.94 67.38 73.88 67.23 73.85C67.08 73.82 67.41 73.94 67.23 73.85L67.74 74.42C67.71 74.33 67.77 74.6 67.74 74.45C67.74 74.42 67.71 74.36 67.71 74.33C67.68 74.24 67.68 74.15 67.68 74.03C67.68 73.94 67.65 73.85 67.65 73.76C67.65 73.61 67.62 73.46 67.62 73.31C67.59 72.62 67.59 71.93 67.62 71.21C67.65 69.83 67.71 68.48 67.77 67.1C67.8 66.8 67.8 66.5 67.83 66.17C67.86 65.78 67.38 65.18 66.96 65.21C66.87 65.21 66.78 65.21 66.69 65.21C66.6 65.21 66.51 65.18 66.42 65.18C66.33 65.18 66.21 65.15 66.12 65.12C66 65.09 65.85 65.03 65.73 65C65.61 64.94 65.46 64.88 65.37 64.82C65.25 64.76 65.16 64.67 65.07 64.58C64.98 64.49 64.89 64.4 64.8 64.28C63.96 63.14 64.2 61.01 65.85 60.59C66.72 60.38 67.38 60.83 67.83 61.52C67.98 61.73 68.37 62.12 68.67 62C70.8 61.16 72.96 59.36 73.56 57.08C73.83 55.97 73.8 54.83 73.44 53.75L72.99 54.14C73.62 54.38 74.25 54.62 74.88 54.8C75.96 55.19 77.07 55.43 78.21 55.55L77.49 55.04C77.67 55.34 77.85 55.67 78.03 55.97L78.15 56.21L78.24 56.36C78.36 56.54 78.45 56.75 78.54 56.96C78.75 57.38 78.99 57.83 79.17 58.28C80.1 60.29 81 62.48 81.15 64.73C81.21 65.75 81.15 66.92 80.52 67.79C80.22 68.33 81.24 69.38 81.54 68.96Z" fill="#575757"/>
<path d="M78.57 58.28C78.9 58.28 79.17 58.52 79.2 58.85C79.2 58.88 79.2 58.91 79.2 58.94C79.14 59.6 78.3 59.51 78.18 58.94C78.09 58.67 78.21 58.37 78.48 58.28C78.51 58.28 78.54 58.28 78.57 58.28Z" fill="#575757"/>
<path d="M63.72 66.62C63.6 68.54 63.42 70.49 63.18 72.41C63.09 72.98 64.32 73.79 64.41 73.01C64.65 71.09 64.83 69.17 64.95 67.22C64.92 66.86 64.68 66.53 64.35 66.38C64.08 66.26 63.72 66.26 63.72 66.62Z" fill="#575757"/>
<path d="M59.25 64.82C60.09 64.91 60.96 64.85 61.8 64.61C62.67 64.4 63.51 64.07 64.29 63.59C64.47 63.47 63.81 63.35 63.78 63.35C63.6 63.32 63.39 63.32 63.21 63.32C63.09 63.32 62.97 63.32 62.85 63.38C62.19 63.8 61.5 64.1 60.75 64.28C60.57 64.34 60.39 64.37 60.21 64.4L59.97 64.46L59.85 64.49H59.82L59.61 64.52H59.52H59.49C59.61 64.52 59.28 64.52 59.46 64.52C59.49 64.52 59.58 64.52 59.46 64.52H59.61C59.76 64.55 59.82 64.55 59.73 64.55C59.55 64.52 59.34 64.52 59.16 64.52C59.1 64.52 58.86 64.52 58.8 64.58C58.59 64.7 59.19 64.79 59.25 64.82Z" fill="#575757"/>
<path d="M79.32 67.07C79.32 67.04 79.35 67.01 79.35 66.95L79.29 67.1C79.35 66.98 79.44 66.83 79.53 66.74L79.41 66.86C79.5 66.77 79.59 66.68 79.71 66.62L79.56 66.71L79.65 66.65C79.74 66.62 79.8 66.56 79.86 66.5C79.98 66.38 80.01 66.2 79.98 66.05C79.98 65.96 79.92 65.9 79.86 65.81C79.74 65.66 79.59 65.54 79.38 65.51C79.2 65.45 78.99 65.48 78.81 65.54C78.69 65.6 78.57 65.69 78.45 65.78C78.33 65.87 78.24 65.96 78.15 66.08C78 66.26 77.91 66.47 77.85 66.68C77.82 66.77 77.82 66.83 77.85 66.92C77.85 67.01 77.91 67.07 77.97 67.16C78.03 67.25 78.09 67.31 78.18 67.34C78.27 67.4 78.36 67.43 78.45 67.46C78.63 67.52 78.84 67.49 79.02 67.43L79.17 67.34C79.23 67.28 79.29 67.19 79.32 67.07Z" fill="#575757"/>
<path d="M120.57 65.69C120.57 65.69 111.42 88.43 87.72 90.08L89.22 76.79C89.22 76.79 102.6 74.54 112.02 60.41L120.57 65.69Z" fill="#575757"/>
<path d="M119.88 65.9C119.58 66.65 119.19 67.4 118.8 68.12C117.81 69.98 116.7 71.78 115.47 73.49C113.76 75.89 111.81 78.14 109.65 80.15C107.13 82.55 104.25 84.56 101.16 86.15C97.62 87.95 93.78 89.09 89.82 89.54C89.25 89.6 88.68 89.66 88.11 89.69L88.38 89.84L88.89 85.34L89.7 78.2L89.88 76.55L88.92 77.09C90.81 76.73 92.64 76.13 94.41 75.35C98.64 73.58 102.54 71.12 105.93 68.03C108.48 65.72 110.73 63.11 112.65 60.23L111.36 60.68L118.86 65.3L119.91 65.93C120.15 66.08 120.63 65.87 120.84 65.75C120.93 65.69 121.44 65.42 121.2 65.27L113.7 60.65L112.65 59.99C112.35 59.81 111.54 60.17 111.36 60.44C108.33 65.03 104.4 68.93 99.78 71.93C98.88 72.5 98.04 73.01 97.11 73.49C96.69 73.7 96.27 73.91 95.85 74.12C95.67 74.21 95.46 74.3 95.25 74.39L95.07 74.45L94.71 74.6C94.02 74.9 93.3 75.17 92.58 75.44L92.46 75.47L92.25 75.53C92.1 75.59 91.95 75.65 91.77 75.68C91.5 75.77 91.23 75.86 90.96 75.92L90.24 76.1C90.12 76.13 90.42 76.07 90.24 76.1L90.12 76.13L89.88 76.19C89.73 76.22 89.58 76.25 89.43 76.28C89.22 76.31 88.5 76.55 88.47 76.82L87.96 81.29L87.15 88.46L86.97 90.11C86.94 90.26 87.12 90.26 87.24 90.26C91.62 89.96 95.91 88.91 99.9 87.11C103.35 85.55 106.59 83.51 109.47 81.05C111.87 78.98 114.06 76.64 115.98 74.09C117.39 72.23 118.68 70.25 119.79 68.18C120.15 67.55 120.48 66.89 120.78 66.26C120.96 65.96 121.08 65.66 121.2 65.33V65.3C121.29 65.03 120.66 65.18 120.6 65.21C120.39 65.48 119.97 65.63 119.88 65.9Z" fill="#575757"/>
<path d="M48.6 98.3C48.6 98.3 57.45 75.77 65.31 71.69C73.17 67.61 77.1 76.22 79.17 82.91C81.24 89.6 81.6 106.46 81.6 106.46L48.6 98.3Z" fill="#575757"/>
<path d="M49.2 98.7801C49.53 97.91 49.92 97.04 50.28 96.17C51.21 94.04 52.17 91.9101 53.19 89.8101C54.48 87.1701 55.83 84.59 57.33 82.1C58.74 79.67 60.36 77.39 62.19 75.26C63.9 73.37 65.91 71.75 68.46 71.3C69.75 71.06 71.07 71.27 72.24 71.9C72.78 72.2 73.26 72.59 73.68 73.04C74.16 73.55 74.61 74.09 75 74.69C75.87 76.01 76.59 77.39 77.19 78.8601C77.76 80.2701 78.27 81.71 78.69 83.15C79.44 85.82 79.77 88.64 80.07 91.4C80.4 94.43 80.61 97.46 80.76 100.49C80.85 102.29 80.94 104.09 80.97 105.86C80.97 105.95 80.97 106.04 80.97 106.13L81.33 105.98L78.03 105.17L70.14 103.22L60.6 100.85L52.35 98.8101C51.03 98.4801 49.68 98.12 48.36 97.82H48.3C48 97.76 47.88 97.9401 48.03 98.18C48.21 98.51 48.51 98.72 48.87 98.84L52.14 99.65L60.03 101.63L69.57 103.97L77.82 106.01C79.14 106.34 80.49 106.7 81.81 107H81.87C81.99 107.03 82.23 107.03 82.23 106.88C82.2 105.56 82.14 104.21 82.08 102.89C81.96 99.95 81.78 97.04 81.51 94.1C81.3 91.07 80.88 88.04 80.25 85.07C79.53 82.1 78.48 79.22 77.07 76.52C75.6 73.85 73.44 71.12 70.35 70.34C67.59 69.65 64.77 70.88 62.7 72.68C60.69 74.42 59.07 76.61 57.63 78.83C55.98 81.38 54.45 83.99 53.1 86.69C51.9 89.03 50.79 91.37 49.74 93.77C49.17 95.06 48.6 96.35 48.09 97.67L48.03 97.85C47.82 98.33 49.08 99.1101 49.2 98.7801Z" fill="#575757"/>
<path d="M62.73 85.9101C62.73 85.9101 74.25 99.92 85.05 98.8701C95.85 97.82 95.85 76.0401 95.85 76.0401L84.6 71.2401L78 85.2801" fill="#575757"/>
<path d="M62.19 86C64.11 88.28 66.21 90.35 68.49 92.27C72.42 95.57 77.1 98.69 82.29 99.38C84.36 99.65 86.55 99.53 88.44 98.51C90.03 97.64 91.26 96.29 92.22 94.76C94.29 91.46 95.25 87.5 95.85 83.69C96.24 81.32 96.45 78.89 96.48 76.49C96.48 76.46 96.48 76.4 96.48 76.37C96.45 76.01 96.24 75.71 95.91 75.59L86.04 71.39L84.63 70.79C84.48 70.73 84.06 70.58 83.94 70.82L81.69 75.56L78.15 83.09L77.34 84.83C77.19 85.13 77.46 85.43 77.7 85.61C77.85 85.73 78.42 86 78.57 85.7L80.82 80.96L84.36 73.43L85.17 71.69H84.48L94.35 75.89L95.76 76.49L95.19 75.71C95.16 77.66 95.04 79.61 94.77 81.53C94.32 85.22 93.54 89 91.86 92.36C91.08 93.92 90.09 95.45 88.71 96.59C87.3 97.73 85.56 98.36 83.76 98.36C78.78 98.45 74.13 95.6 70.38 92.66C68.7 91.34 67.11 89.93 65.64 88.43C64.83 87.59 64.02 86.75 63.27 85.85C63.36 85.94 63.36 85.97 63.27 85.85C63.06 85.61 62.7 85.31 62.34 85.37C61.98 85.43 62.01 85.76 62.19 86Z" fill="#575757"/>
<path d="M103.44 67.43C107.731 67.43 111.21 63.9513 111.21 59.66C111.21 55.3688 107.731 51.89 103.44 51.89C99.1487 51.89 95.67 55.3688 95.67 59.66C95.67 63.9513 99.1487 67.43 103.44 67.43Z" fill="white"/>
<path d="M110.52 59.93C110.28 63.05 108.21 65.72 105.27 66.71C103.86 67.19 102.3 67.22 100.89 66.77C99.6 66.29 98.49 65.42 97.74 64.28C95.94 61.67 95.94 58.22 97.71 55.58C99.39 53.09 102.57 51.68 105.54 52.37C108.78 53.15 110.73 56.69 110.52 59.93C110.49 60.32 111.87 60.68 111.9 60.5C112.14 56.96 110.01 53.87 106.86 52.4C103.71 50.93 99.87 51.26 97.32 53.78C94.89 56.21 94.29 59.96 95.88 63.02C97.53 66.11 101.22 68.03 104.67 67.73C108.51 67.4 111.57 64.34 111.9 60.5C111.9 60.11 110.52 59.75 110.52 59.93Z" fill="#C8303F"/>
<path d="M119.13 68.45C123.421 68.45 126.9 64.9713 126.9 60.68C126.9 56.3888 123.421 52.91 119.13 52.91C114.839 52.91 111.36 56.3888 111.36 60.68C111.36 64.9713 114.839 68.45 119.13 68.45Z" fill="white"/>
<path d="M126.15 61.2501C125.91 64.1601 123.87 66.8301 121.02 67.6401C118.17 68.4201 115.11 67.3101 113.43 64.8801C111.69 62.3601 111.69 59.0001 113.46 56.4801C115.17 54.0801 118.2 52.9701 121.05 53.7501C124.29 54.6501 126.36 57.9201 126.15 61.2501C126.09 62.0001 127.59 62.0301 127.65 61.2801C127.86 57.7701 125.88 54.5001 122.67 53.0901C119.34 51.6501 115.47 52.4001 112.92 54.9801C110.49 57.5301 109.95 61.3401 111.54 64.4601C113.25 67.6401 116.73 69.4401 120.33 68.9601C124.29 68.4201 127.32 65.2101 127.68 61.2501C127.71 60.5001 126.21 60.4701 126.15 61.2501Z" fill="#C8303F"/>
<path d="M86.82 61.5201L77.52 60.6801C77.52 60.6801 76.17 59.3001 77.91 57.4101L89.97 56.9301L86.82 61.5201Z" fill="#C8303F"/>
<path d="M86.19 66.5C86.19 66.5 84.15 64.37 85.35 60.53C86.55 56.69 88.53 56.99 88.68 57.59C88.68 57.59 89.43 55.13 90.9 55.19C92.37 55.25 92.52 55.82 92.52 55.82C92.52 55.82 94.08 53.96 95.55 55.19C97.02 56.42 95.1 58.43 95.37 60.86C95.64 63.29 98.07 64.1 97.92 67.43C97.77 70.76 95.82 76.01 95.82 76.01C95.82 76.01 84.63 72.38 84.57 71.84C84.51 71.3 86.19 66.5 86.19 66.5Z" fill="white"/>
<path d="M86.73 66.26C86.67 66.2 86.61 66.14 86.58 66.05C86.55 65.96 86.46 65.9 86.4 65.81C86.31 65.69 86.4 65.84 86.37 65.75L86.25 65.57C85.89 64.85 85.68 64.07 85.65 63.29C85.62 62.06 85.89 60.86 86.43 59.75C86.61 59.33 86.88 58.91 87.18 58.55C87.3 58.43 87.42 58.31 87.54 58.22L87.72 58.1L87.81 58.04C87.9 57.98 87.69 58.1 87.84 58.04L88.02 57.95L88.11 57.92C88.02 57.92 88.23 57.89 88.11 57.92L88.29 57.89C88.14 57.92 88.23 57.86 88.29 57.89C88.11 57.83 88.35 57.92 88.29 57.89C88.38 57.92 88.11 57.8 88.2 57.86C88.29 57.92 88.29 57.95 88.11 57.8C88.23 57.89 88.02 57.68 88.08 57.74L88.02 57.59C88.14 58.16 89.19 58.64 89.43 57.89L89.46 57.83C89.4 57.98 89.46 57.86 89.49 57.8C89.55 57.62 89.64 57.47 89.7 57.29C89.88 56.87 90.15 56.51 90.45 56.18C90.6 56.03 90.78 55.94 90.96 55.88C91.2 55.85 91.44 55.88 91.65 55.94C91.71 55.97 91.8 55.97 91.86 56C91.92 56.03 92.07 56.06 91.89 56C91.92 56 91.95 56.03 91.98 56.06C91.83 55.91 91.92 56.03 91.95 56.06C91.98 56.09 91.89 56 91.89 56C91.89 56 91.95 56.09 91.89 55.97C91.83 55.85 91.92 56.15 91.83 55.82C91.89 56.09 92.1 56.3 92.37 56.42C92.55 56.51 92.94 56.57 93.09 56.39C93.42 55.97 93.84 55.67 94.32 55.49C94.95 55.31 95.4 55.76 95.4 56.36C95.4 57.29 94.95 58.19 94.77 59.09C94.56 60.05 94.62 61.04 94.95 61.97C95.52 63.47 96.81 64.49 97.14 66.08C97.29 67.04 97.26 68.03 97.05 68.96C96.87 69.95 96.66 70.91 96.42 71.87C96.06 73.19 95.67 74.51 95.22 75.71L95.97 75.53C93.81 74.84 91.68 74.12 89.55 73.37C88.26 72.92 86.94 72.44 85.68 71.93C85.59 71.9 85.53 71.87 85.65 71.93L85.5 71.87L85.23 71.75L85.05 71.66C84.9 71.6 85.2 71.81 85.08 71.66C85.17 71.75 85.23 71.84 85.29 71.96C85.29 71.99 85.29 72.14 85.32 72.08C85.35 71.99 85.35 71.87 85.38 71.78C85.44 71.48 85.53 71.18 85.62 70.91C85.86 70.04 86.16 69.17 86.43 68.33C86.55 67.97 86.67 67.61 86.79 67.28C86.82 67.22 86.79 67.31 86.79 67.31L86.82 67.19L86.85 67.07L86.88 66.95C86.97 66.62 86.82 66.26 86.49 66.11C86.28 65.99 85.68 65.87 85.56 66.23C85.14 67.46 84.72 68.72 84.33 69.98C84.12 70.55 83.97 71.12 83.88 71.72C83.85 72.23 84.3 72.53 84.72 72.74C85.92 73.31 87.12 73.79 88.38 74.18C89.91 74.75 91.47 75.26 93.03 75.8C93.93 76.1 94.86 76.4 95.76 76.7C95.97 76.76 96.39 76.79 96.51 76.52C96.96 75.32 97.35 74.12 97.68 72.89C97.98 71.87 98.22 70.82 98.4 69.77C98.64 68.72 98.67 67.64 98.58 66.59C98.4 65.63 98.04 64.73 97.5 63.95C97.05 63.26 96.57 62.69 96.27 61.94C95.88 61.01 96.06 59.96 96.33 59C96.57 58.13 96.99 57.17 96.78 56.24C96.42 54.98 95.19 54.17 93.87 54.35C93.12 54.5 92.46 54.92 91.98 55.49L93.24 56.06C93.06 55.58 92.67 55.19 92.16 55.04C91.44 54.74 90.48 54.59 89.76 54.98C88.83 55.46 88.29 56.54 87.99 57.53L89.4 57.83C89.22 57.11 88.44 56.75 87.75 56.81C86.94 56.87 86.28 57.44 85.83 58.07C85.02 59.24 84.51 60.59 84.36 62C84.21 63.14 84.36 64.31 84.81 65.42C85.02 65.96 85.29 66.44 85.68 66.89C85.92 67.19 86.31 67.31 86.67 67.22C86.91 67.1 87 66.8 86.88 66.59C86.82 66.35 86.79 66.32 86.73 66.26Z" fill="#575757"/>
<path d="M89.37 61.58C89.34 61.49 89.31 61.37 89.28 61.28C89.25 61.16 89.22 61.04 89.19 60.92C89.16 60.8 89.19 60.95 89.19 60.89L89.16 60.77C89.16 60.68 89.13 60.59 89.13 60.53C89.01 59.66 89.1 58.76 89.37 57.95C89.46 57.65 89.13 57.38 88.89 57.26C88.74 57.2 88.14 56.93 88.05 57.23C87.75 58.13 87.66 59.09 87.78 60.02C87.84 60.44 87.93 60.86 88.08 61.25C88.26 61.58 88.56 61.79 88.92 61.85C89.1 61.91 89.49 61.88 89.37 61.58Z" fill="#575757"/>
<path d="M91.8 55.76C91.47 56.33 91.23 56.96 91.05 57.59C90.66 58.79 90.69 60.11 91.14 61.31C91.29 61.61 91.68 61.76 91.98 61.64C92.22 61.58 92.73 61.28 92.58 60.95C91.92 59.33 92.28 57.41 93.18 55.97C93.36 55.67 93.03 55.37 92.73 55.34C92.37 55.28 92.01 55.43 91.8 55.76Z" fill="#575757"/>
<path d="M105.48 57.7701C105.48 57.7701 107.16 58.4601 106.35 60.0501C105.54 61.6401 103.62 60.6201 103.89 59.0601C104.16 57.5001 105.48 57.7701 105.48 57.7701Z" fill="#575757"/>
<path d="M121.44 59.21C121.44 59.21 123.12 59.93 122.31 61.49C121.5 63.05 119.58 62.06 119.85 60.5C120.12 58.94 121.44 59.21 121.44 59.21Z" fill="#575757"/>
<path d="M76.65 60.23C77.94 60.44 79.26 60.44 80.55 60.26C84.96 59.75 85.86 61.07 84.81 62.27C83.76 63.47 77.85 64.49 77.85 64.49" fill="white"/>
<path d="M76.86 60.77C78.21 60.98 79.56 61.01 80.91 60.83C81.81 60.71 82.71 60.68 83.61 60.77C83.88 60.8 84.12 60.86 84.39 60.95L84.54 61.01C84.39 60.95 84.54 61.01 84.57 61.04C84.48 60.92 84.69 61.16 84.57 61.04C84.51 60.98 84.66 61.16 84.57 61.04C84.39 60.89 84.54 61.01 84.54 61.01C84.39 60.89 84.57 60.95 84.54 61.01C84.51 61.07 84.54 60.98 84.54 60.98C84.54 61.01 84.54 61.04 84.54 61.07C84.54 61.19 84.54 60.95 84.54 61.1C84.54 61.13 84.54 61.16 84.51 61.22C84.48 61.28 84.48 61.37 84.45 61.43C84.27 61.76 83.97 62.03 83.64 62.18C82.56 62.75 81.3 63.05 80.1 63.35C79.23 63.56 78.33 63.74 77.46 63.92C76.74 64.04 77.67 65.15 78.18 65.06C79.02 64.91 79.83 64.73 80.67 64.55C81.99 64.22 83.4 63.92 84.6 63.29C85.38 62.87 86.1 62.06 85.68 61.13C85.05 59.75 83.13 59.57 81.81 59.57C80.01 59.6 78.18 60.02 76.38 59.66C76.05 59.6 75.9 59.84 75.99 60.11C76.2 60.47 76.5 60.71 76.86 60.77Z" fill="#575757"/>
<path d="M74.34 59.51C74.49 59.48 74.61 59.48 74.76 59.51L74.67 59.48C74.82 59.51 74.97 59.54 75.09 59.6L74.97 59.54L75.06 59.6C75.12 59.63 75.27 59.72 75.36 59.63C75.45 59.54 75.42 59.42 75.39 59.33C75.33 59.15 75.24 59 75.12 58.85C75 58.7 74.88 58.58 74.73 58.49C74.37 58.28 73.98 58.19 73.56 58.22C73.44 58.22 73.41 58.34 73.44 58.43C73.44 58.49 73.47 58.58 73.5 58.64C73.53 58.73 73.56 58.79 73.62 58.88C73.71 59.06 73.86 59.18 74.01 59.3C74.07 59.45 74.19 59.48 74.34 59.51Z" fill="#575757"/>
<path d="M120.81 49.07L121.56 48.14C121.59 48.11 121.62 48.08 121.59 48.02C121.59 47.99 121.59 47.96 121.53 47.93C121.47 47.9 121.44 47.9 121.38 47.9C121.32 47.9 121.23 47.9 121.17 47.93C120.99 47.99 120.81 48.05 120.63 48.14C120.48 48.2 120.36 48.32 120.27 48.41L119.52 49.34C119.49 49.37 119.46 49.4 119.49 49.46C119.49 49.49 119.49 49.52 119.55 49.55C119.61 49.58 119.64 49.58 119.7 49.58C119.76 49.58 119.85 49.58 119.91 49.55C120.09 49.49 120.27 49.43 120.45 49.34C120.57 49.28 120.69 49.16 120.81 49.07Z" fill="#575757"/>
<path d="M122.67 50.09L125.7 48.05C125.76 48.02 125.79 47.93 125.73 47.87C125.67 47.81 125.43 47.84 125.37 47.84C125.01 47.87 124.68 47.99 124.41 48.17L121.38 50.21C121.32 50.24 121.29 50.33 121.35 50.39C121.41 50.45 121.65 50.42 121.71 50.42C122.04 50.39 122.37 50.27 122.67 50.09Z" fill="#575757"/>
<path d="M12.99 124.01C12.99 124.01 17.64 103.31 47.19 93.44C76.74 83.57 94.2 124.01 94.2 124.01H12.99Z" fill="white"/>
<path d="M13.65 124.28C13.89 123.26 14.25 122.27 14.67 121.31L14.82 120.98L14.91 120.8C14.94 120.74 15.03 120.53 14.94 120.74C15.06 120.47 15.18 120.2 15.3 119.96C15.57 119.36 15.87 118.79 16.17 118.22C16.92 116.84 17.76 115.49 18.66 114.2C21.09 110.78 23.97 107.69 27.21 105.02C31.62 101.42 36.54 98.48 41.79 96.29C46.71 94.19 51.9 92.42 57.3 92.63C61.53 92.81 65.67 93.92 69.39 95.93C71.22 96.89 72.96 98.03 74.61 99.26C75.42 99.89 76.2 100.52 76.98 101.18C77.76 101.84 78.39 102.44 79.17 103.22C81.93 105.95 84.42 108.95 86.64 112.13C86.91 112.49 87.15 112.85 87.39 113.24L87.45 113.36C87.36 113.24 87.45 113.33 87.45 113.36C87.51 113.45 87.57 113.54 87.63 113.63L87.99 114.17C88.44 114.86 88.89 115.55 89.31 116.24C90.03 117.41 90.75 118.61 91.41 119.84C92.16 121.22 92.88 122.63 93.54 124.07L93.63 124.25L94.08 123.26H16.11C15.06 123.26 14.01 123.23 12.96 123.26C12.9 123.26 12.87 123.26 12.81 123.26C12.42 123.26 12.21 123.74 12.3 124.07C12.39 124.46 12.75 124.7 13.14 124.7H91.05C92.1 124.7 93.15 124.73 94.2 124.7H94.35C94.86 124.7 94.95 124.07 94.8 123.71C94.35 122.69 93.84 121.67 93.33 120.68C92.01 118.16 90.57 115.7 89.01 113.33C86.91 110.12 84.57 107.09 81.96 104.27C79.14 101.15 75.93 98.42 72.39 96.14C68.7 93.83 64.62 92.12 60.3 91.49C58.05 91.16 55.74 91.1 53.46 91.34C50.88 91.64 48.3 92.21 45.87 93.11C39.96 95.12 34.35 97.97 29.22 101.54C25.41 104.24 21.99 107.45 19.05 111.08C17.04 113.57 15.33 116.27 13.98 119.15C13.29 120.56 12.72 122.03 12.3 123.56C12.27 123.62 12.27 123.68 12.24 123.77C12.15 124.16 12.36 124.55 12.72 124.7C13.05 124.85 13.41 124.7 13.56 124.37C13.65 124.34 13.65 124.31 13.65 124.28Z" fill="#C8303F"/>
<path d="M9.32999 124.82H12L18.57 124.79L28.08 124.76L39.63 124.73L52.23 124.7L64.92 124.67L76.8 124.64L86.91 124.61L94.26 124.58H97.95H98.19C98.58 124.58 98.91 124.34 99.03 123.98C99.09 123.68 98.88 123.41 98.58 123.38C98.55 123.38 98.49 123.38 98.43 123.38H95.79L89.22 123.41L79.71 123.44L68.16 123.47L55.56 123.5L42.87 123.53L30.99 123.56L20.88 123.59L13.53 123.62H9.83999H9.59999C9.20999 123.62 8.87999 123.86 8.75999 124.22C8.69999 124.52 8.90999 124.79 9.20999 124.82C9.23999 124.82 9.26999 124.82 9.32999 124.82Z" fill="#C8303F"/>
<path d="M22.11 96.32C22.11 96.32 19.56 103.31 16.98 102.92C14.4 102.53 12.96 101.12 14.1 98.9C15.24 96.68 22.65 93.32 22.11 96.32Z" fill="white"/>
<path d="M21.45 96.02C21.45 96.05 21.42 96.05 21.42 96.08C21.42 96.11 21.39 96.14 21.39 96.17C21.39 96.2 21.42 96.08 21.39 96.2C21.3 96.44 21.18 96.68 21.09 96.92C20.79 97.64 20.43 98.36 20.07 99.08C19.65 99.86 19.17 100.61 18.6 101.3C18.15 101.81 17.61 102.35 16.95 102.41C17.04 102.41 16.89 102.41 16.83 102.41C16.74 102.41 16.65 102.38 16.56 102.38C16.29 102.32 15.99 102.26 15.72 102.17C15.48 102.11 15.27 101.99 15.06 101.87C14.91 101.78 14.79 101.66 14.67 101.51C14.16 100.85 14.37 99.83 14.82 99.14C15.24 98.57 15.78 98.06 16.38 97.7C17.13 97.19 17.94 96.74 18.78 96.38C19.2 96.2 19.62 96.05 20.04 95.93C20.25 95.87 20.46 95.81 20.67 95.78L20.97 95.75C21.03 95.75 21.06 95.75 21.12 95.75C21.21 95.75 21.3 95.75 21.36 95.75C21.57 95.75 21.33 95.75 21.48 95.75C21.51 95.75 21.54 95.75 21.57 95.78C21.66 95.81 21.42 95.72 21.54 95.78C21.66 95.84 21.48 95.75 21.42 95.69C21.54 95.81 21.39 95.63 21.36 95.6C21.36 95.63 21.39 95.63 21.39 95.66C21.36 95.69 21.39 95.63 21.39 95.66C21.48 95.75 21.48 95.87 21.45 96.02C21.36 96.59 22.68 97.25 22.8 96.59C22.95 95.66 22.38 94.94 21.51 94.64C20.76 94.4 19.89 94.58 19.14 94.79C17.28 95.33 15.33 96.35 14.01 97.76C13.29 98.48 12.96 99.5 13.11 100.49C13.35 101.75 14.52 102.62 15.66 103.04C16.68 103.4 17.79 103.67 18.75 103.07C19.53 102.53 20.16 101.84 20.64 101.03C21.54 99.65 22.26 98.15 22.83 96.59C22.98 96.08 21.69 95.36 21.45 96.02Z" fill="#575757"/>
<path d="M22.05 93.65C22.05 93.65 16.68 90.47 13.89 92.12C11.1 93.77 11.61 97.49 16.35 96.83C21.09 96.17 22.53 94.64 22.05 93.65Z" fill="white"/>
<path d="M21.78 93.05C20.61 92.36 19.35 91.82 18.06 91.43C16.23 90.89 14.04 90.68 12.63 92.21C12.09 92.75 11.79 93.47 11.79 94.22C11.79 95.15 12.36 96.05 13.05 96.68C13.77 97.28 14.7 97.61 15.63 97.58C17.01 97.55 18.36 97.31 19.68 96.89C20.94 96.5 23.22 95.63 22.47 93.92C22.29 93.59 22.08 93.17 21.78 93.05C21.51 92.96 21.63 93.32 21.69 93.44C21.69 93.47 21.66 93.41 21.66 93.35C21.66 93.38 21.66 93.44 21.69 93.47C21.69 93.53 21.69 93.62 21.66 93.68C21.6 93.89 21.48 94.07 21.33 94.22C20.82 94.73 20.19 95.09 19.5 95.3C18.33 95.72 17.13 96.02 15.87 96.17C14.94 96.29 13.89 96.29 13.05 95.87C12.9 95.81 12.78 95.72 12.66 95.6C12.75 95.69 12.54 95.48 12.63 95.57C12.66 95.6 12.75 95.72 12.69 95.63C12.63 95.54 12.75 95.75 12.69 95.63C12.69 95.66 12.75 95.72 12.69 95.63C12.69 95.6 12.66 95.54 12.66 95.51C12.63 95.36 12.63 95.21 12.63 95.06C12.69 94.37 13.02 93.74 13.5 93.29C14.85 91.97 16.77 92.09 18.48 92.57C19.83 92.93 21.09 93.5 22.29 94.19C22.56 94.37 22.41 93.89 22.38 93.8C22.29 93.53 22.05 93.26 21.78 93.05Z" fill="#575757"/>
<path d="M23.4 92.27C23.4 92.27 18.78 85.67 16.77 85.94C14.76 86.21 13.92 87.74 14.88 89.78C15.84 91.82 21.15 93.92 22.44 93.38C23.73 92.84 23.4 92.27 23.4 92.27Z" fill="white"/>
<path d="M24.09 92.24C23.37 91.22 22.59 90.23 21.78 89.27C21.15 88.52 20.46 87.8 19.74 87.14C19.14 86.54 18.42 86.06 17.61 85.76C16.56 85.43 15.42 85.64 14.55 86.33C13.65 87.05 13.59 88.28 13.95 89.3C14.31 90.32 15 90.98 15.84 91.58C16.83 92.24 17.91 92.81 19.05 93.2C20.07 93.59 21.24 93.95 22.35 93.86C22.95 93.83 23.49 93.56 23.91 93.14C24.12 92.93 24.21 92.63 24.12 92.36C23.91 92.09 23.61 91.94 23.28 91.94C23.16 91.94 22.53 91.97 22.68 92.24C22.71 92.27 22.71 92.36 22.71 92.3C22.71 92.42 22.65 92.54 22.59 92.63C22.41 92.81 22.2 92.96 21.96 93.05C21.93 93.05 21.72 93.14 21.9 93.08L21.81 93.11C21.66 93.17 21.84 93.11 21.72 93.11H21.6C21.51 93.11 21.72 93.11 21.63 93.11L21.39 93.08C21.21 93.08 21.45 93.11 21.27 93.08L20.94 93.02C20.55 92.93 20.16 92.81 19.77 92.69C18.87 92.39 18 91.97 17.19 91.43C16.53 91.01 15.84 90.5 15.54 89.75C15.15 88.85 15 87.74 15.72 86.96C16.05 86.63 16.47 86.42 16.92 86.33C17.01 86.3 17.1 86.3 17.13 86.3C17.13 86.3 16.95 86.27 17.07 86.3C17.13 86.3 17.19 86.33 17.01 86.3C17.19 86.33 16.92 86.3 17.04 86.3C17.07 86.3 17.1 86.33 17.13 86.33C17.04 86.3 17.25 86.36 17.13 86.33C17.4 86.45 17.64 86.6 17.85 86.78C18.15 87.02 18.45 87.26 18.72 87.53C19.35 88.13 19.92 88.76 20.49 89.45C21.27 90.38 22.05 91.37 22.74 92.36C22.92 92.63 23.43 92.72 23.73 92.69C23.97 92.63 24.27 92.51 24.09 92.24Z" fill="#575757"/>
<path d="M24.72 91.52C24.72 91.52 25.77 82.28 22.95 81.71C20.13 81.14 18.54 82.94 19.32 85.88C20.1 88.82 22.86 91.94 23.7 92.03C24.54 92.12 24.72 91.52 24.72 91.52Z" fill="white"/>
<path d="M25.29 91.88C25.41 90.74 25.47 89.63 25.5 88.49C25.53 86.69 25.5 84.65 24.75 82.97C24.39 82.19 23.85 81.44 23.04 81.14C21.99 80.75 20.79 80.87 19.83 81.44C18.93 82.04 18.57 83.12 18.6 84.17C18.63 85.67 19.26 87.11 19.98 88.37C20.7 89.72 21.63 90.92 22.77 91.91C23.13 92.21 23.55 92.57 24.03 92.6C24.51 92.63 25.11 92.45 25.32 91.97C25.53 91.49 24.48 90.44 24.24 90.98C24.06 91.22 23.76 91.34 23.46 91.31C23.43 91.31 23.34 91.31 23.49 91.31L23.43 91.28C23.43 91.28 23.28 91.19 23.46 91.28L23.37 91.22C23.34 91.19 23.16 91.07 23.28 91.16C23.19 91.1 23.1 91.01 23.01 90.92C22.65 90.59 22.32 90.23 22.02 89.84C21.66 89.36 21.3 88.85 21 88.34C20.1 86.81 18.84 83.93 20.73 82.58C21.09 82.34 21.51 82.22 21.96 82.19C22.2 82.16 22.44 82.16 22.65 82.19C22.77 82.19 22.92 82.22 23.04 82.25C23.1 82.25 23.19 82.28 23.28 82.28C23.19 82.25 23.37 82.28 23.28 82.28C23.31 82.28 23.49 82.37 23.4 82.34C23.31 82.31 23.58 82.46 23.43 82.37C23.28 82.28 23.49 82.43 23.52 82.46C23.37 82.34 23.49 82.43 23.55 82.52C23.67 82.64 23.49 82.4 23.58 82.58L23.67 82.76C23.67 82.79 23.73 82.88 23.67 82.73C23.67 82.76 23.7 82.79 23.73 82.82C23.76 82.91 23.79 83 23.85 83.09C23.91 83.18 23.91 83.24 23.94 83.33L23.97 83.45C23.94 83.36 23.97 83.45 23.97 83.48C24.03 83.69 24.06 83.9 24.12 84.08C24.21 84.47 24.24 84.89 24.3 85.31C24.39 86.12 24.42 86.93 24.39 87.74C24.39 88.85 24.33 89.99 24.21 91.1C24.21 91.46 24.42 91.82 24.75 92C24.93 92.15 25.26 92.21 25.29 91.88Z" fill="#575757"/>
<path d="M26.01 91.55C26.01 91.55 31.59 86.36 30.93 84.62C30.27 82.88 27.93 82.31 26.76 83.09C25.59 83.87 23.82 91.01 24.75 91.49C25.68 91.97 26.01 91.55 26.01 91.55Z" fill="white"/>
<path d="M26.46 92.12C27.48 91.19 28.41 90.17 29.31 89.12C29.97 88.37 30.57 87.56 31.08 86.69C31.47 85.97 31.74 85.16 31.44 84.35C30.9 83.12 29.76 82.25 28.44 82.07C27.54 81.92 26.46 82.1 25.92 82.88C25.44 83.6 25.11 84.41 24.87 85.25C24.54 86.3 24.27 87.35 24.06 88.43C23.91 89.33 23.7 90.35 23.94 91.25C24.06 91.76 24.45 92.18 24.96 92.33C25.41 92.48 26.13 92.57 26.46 92.12C26.67 91.82 26.64 91.4 26.37 91.1C26.19 90.86 25.74 90.65 25.5 90.98C25.44 91.04 25.47 91.01 25.5 90.98C25.62 90.89 25.38 91.01 25.47 91.01C25.26 91.01 25.08 90.95 24.9 90.86C24.72 90.8 25.02 90.98 25.05 91.01L25.02 90.98C25.02 90.98 25.14 91.16 25.08 91.07C25.02 90.98 25.14 91.1 25.11 91.16L25.08 91.04V91.01L25.11 91.13C25.11 91.1 25.11 91.04 25.11 91.01C25.11 90.86 25.08 90.74 25.08 90.59C25.08 90.56 25.08 90.29 25.08 90.44C25.08 90.35 25.08 90.26 25.11 90.17C25.14 89.75 25.2 89.36 25.29 88.94C25.59 87.29 26.01 85.61 26.82 84.14C26.85 84.11 26.94 83.93 26.85 84.08C26.88 84.02 26.91 83.99 26.94 83.93C26.97 83.87 27 83.84 27.03 83.81C27.06 83.78 27.06 83.78 27.09 83.75C27.12 83.72 26.97 83.81 27.06 83.78C27.42 83.57 27.84 83.48 28.26 83.51C28.71 83.54 29.13 83.66 29.49 83.87C29.67 83.99 29.85 84.11 30 84.29C30.12 84.44 30.21 84.59 30.3 84.77C30.3 84.8 30.3 84.83 30.33 84.83C30.36 84.92 30.27 84.65 30.33 84.77C30.33 84.83 30.33 84.98 30.33 84.8C30.33 84.86 30.33 84.92 30.3 84.98C30.27 85.04 30.21 85.25 30.27 85.1C30.15 85.43 30 85.73 29.82 86.03C29.37 86.75 28.86 87.41 28.32 88.04C27.42 89.09 26.49 90.08 25.5 91.01C24.99 91.49 25.86 92.69 26.46 92.12Z" fill="#575757"/>
<path d="M25.8 94.91C25.8 94.91 22.26 97.37 21.6 96.53C20.94 95.69 21.3 92.48 24.06 91.34C26.82 90.2 26.97 92.63 25.8 94.91Z" fill="white"/>
<path d="M25.47 94.22C24.84 94.67 24.18 95.06 23.49 95.42C23.25 95.54 23.01 95.66 22.74 95.75C22.62 95.78 22.5 95.84 22.38 95.87L22.2 95.93C22.11 95.96 22.17 95.93 22.2 95.93L22.11 95.96C22.02 95.99 21.93 95.99 21.84 95.99H21.72C21.9 95.99 21.75 95.99 21.69 95.96C21.69 95.96 21.84 96.02 21.75 95.99C21.66 95.96 21.72 95.96 21.78 96.02C21.78 96.02 21.9 96.17 21.87 96.11C21.78 95.99 21.96 96.29 21.9 96.17L21.87 96.11C21.81 95.99 21.9 96.2 21.9 96.2C21.87 96.11 21.84 96.02 21.84 95.93C21.84 95.87 21.81 95.81 21.81 95.75C21.81 95.69 21.81 95.63 21.81 95.57C21.81 95.39 21.81 95.63 21.81 95.51C21.81 95.39 21.84 95.24 21.87 95.12C21.96 94.61 22.14 94.1 22.41 93.65C22.77 93.08 23.25 92.63 23.82 92.3C24.15 92.09 24.54 91.94 24.9 91.85C25.05 91.82 25.17 91.79 25.32 91.79H25.5H25.59C25.47 91.79 25.62 91.79 25.65 91.79C25.68 91.79 25.86 91.85 25.77 91.82C25.68 91.79 25.86 91.88 25.89 91.88C25.92 91.88 25.77 91.79 25.86 91.85C25.89 91.88 25.95 91.97 25.89 91.85C25.95 92 25.86 91.79 25.86 91.79L25.89 91.88C25.95 92 25.86 91.73 25.89 91.82C25.92 91.91 25.92 91.97 25.95 92.03C25.89 91.82 25.95 92.06 25.95 92.12C25.95 92.18 25.95 92.39 25.95 92.24C25.89 92.99 25.68 93.74 25.29 94.4C25.02 94.94 25.92 96.08 26.28 95.36C26.94 94.04 27.54 92 26.31 90.8C25.74 90.23 24.93 90.26 24.21 90.47C23.37 90.71 22.65 91.16 22.05 91.79C21.09 92.84 20.64 94.22 20.79 95.63C20.88 96.26 21.12 96.98 21.72 97.28C22.23 97.52 22.8 97.31 23.28 97.13C24.27 96.74 25.2 96.23 26.07 95.6C26.31 95.36 26.37 95 26.19 94.7C26.13 94.49 25.77 94.04 25.47 94.22Z" fill="#575757"/>
<path d="M29.91 108.05C29.91 107.45 29.85 106.85 29.67 106.25C29.46 105.26 29.25 104.27 28.98 103.31C28.47 101.18 27.81 99.05 27.06 96.98C26.82 96.32 26.52 95.51 25.98 95.03C25.77 94.85 25.32 94.58 25.05 94.76C24.78 94.94 24.99 95.33 25.17 95.51C25.29 95.6 25.11 95.42 25.14 95.48C25.17 95.51 25.2 95.57 25.23 95.6L25.26 95.66C25.32 95.78 25.2 95.51 25.26 95.63L25.35 95.81C25.5 96.11 25.65 96.44 25.77 96.74C26.13 97.61 26.4 98.51 26.7 99.41C27.3 101.42 27.87 103.43 28.29 105.5C28.38 105.92 28.47 106.34 28.53 106.76C28.56 106.91 28.56 107.06 28.59 107.21C28.59 107.27 28.59 107.33 28.59 107.39C28.59 107.45 28.59 107.3 28.59 107.42C28.62 107.78 28.83 108.08 29.16 108.2C29.37 108.29 29.88 108.41 29.91 108.05Z" fill="#575757"/>
<path d="M23.52 94.52C23.85 94.52 23.91 94.22 23.76 93.98C23.52 93.68 23.16 93.53 22.8 93.53C22.47 93.53 22.41 93.83 22.56 94.07C22.8 94.37 23.16 94.52 23.52 94.52Z" fill="#575757"/>
<path d="M24.39 92.81C24.45 92.84 24.54 92.72 24.48 92.66C24.42 92.66 24.36 92.69 24.33 92.72" fill="white"/>
<path d="M24.69 93.44C24.72 93.44 24.75 93.44 24.78 93.44H24.81L24.84 93.41C24.87 93.38 24.87 93.38 24.9 93.35V93.32C24.9 93.29 24.9 93.26 24.9 93.23C24.9 93.23 24.9 93.23 24.9 93.2C24.9 93.17 24.9 93.11 24.87 93.08C24.87 93.02 24.84 92.99 24.81 92.93L24.75 92.78L24.66 92.6C24.63 92.54 24.6 92.48 24.54 92.42L24.42 92.27C24.39 92.24 24.36 92.18 24.3 92.15C24.24 92.09 24.18 92.06 24.12 92.03H24.09H24C23.97 92.03 23.91 92.06 23.88 92.09C23.85 92.12 23.82 92.15 23.82 92.18C23.82 92.24 23.82 92.3 23.82 92.36C23.85 92.45 23.88 92.51 23.91 92.6C23.94 92.69 24 92.78 24.03 92.87L24.15 93.02C24.21 93.11 24.3 93.2 24.39 93.26L24.48 93.32C24.51 93.35 24.57 93.35 24.63 93.35C24.66 93.32 24.72 93.32 24.75 93.29H24.69H24.72L24.42 93.08L24.3 92.93L24.18 92.75L24.09 92.57L24.03 92.42L23.97 92.27L23.94 92.15V92.18V92.09C23.94 92.12 23.94 92.12 23.91 92.15L23.94 92.09C23.91 92.12 23.91 92.12 23.88 92.12H23.94H23.91C23.88 92.12 23.85 92.12 23.82 92.15C23.79 92.18 23.79 92.24 23.79 92.27C23.79 92.33 23.82 92.42 23.82 92.48C23.85 92.57 23.88 92.63 23.91 92.72L24 92.9C24.06 93.02 24.15 93.11 24.24 93.2L24.36 93.32C24.42 93.38 24.48 93.41 24.54 93.44H24.69Z" fill="#575757"/>
<path d="M24.54 94.79C25.44 94.79 25.05 93.38 24.3 93.38C23.4 93.38 23.79 94.79 24.54 94.79Z" fill="#575757"/>
<path d="M28.2 100.19C28.11 99.23 28.26 98.24 28.68 97.37C28.8 97.01 29.07 96.68 29.4 96.5C29.88 96.32 30.39 96.5 30.69 96.89C30.96 97.31 31.05 97.79 30.93 98.27C30.81 98.75 30.6 99.17 30.3 99.56C30.06 99.89 29.82 100.22 29.52 100.52C29.25 100.82 28.86 101.12 28.5 100.97" fill="white"/>
<path d="M28.89 100.22C28.83 99.41 28.92 98.63 29.22 97.88C29.28 97.7 29.37 97.52 29.49 97.37C29.43 97.46 29.58 97.28 29.61 97.25C29.67 97.19 29.67 97.19 29.61 97.22C29.64 97.19 29.67 97.16 29.73 97.16C29.79 97.16 29.82 97.13 29.73 97.16L29.85 97.13C29.67 97.16 30.03 97.19 29.85 97.13C29.88 97.13 29.94 97.16 29.97 97.16C29.88 97.13 29.88 97.13 29.97 97.16L30.09 97.22C30 97.16 30.03 97.16 30.09 97.22C30.15 97.28 30.18 97.28 30.09 97.22C30.12 97.25 30.15 97.31 30.18 97.34V97.37C30.21 97.4 30.21 97.46 30.24 97.52C30.27 97.61 30.27 97.61 30.24 97.55C30.24 97.61 30.24 97.64 30.24 97.7C30.24 97.76 30.24 97.79 30.24 97.85C30.24 97.79 30.24 97.82 30.24 97.88C30.18 98.24 30.03 98.6 29.82 98.9C29.61 99.23 29.37 99.56 29.1 99.83C28.98 99.98 28.83 100.13 28.68 100.28C28.74 100.22 28.56 100.34 28.53 100.37C28.56 100.34 28.59 100.34 28.62 100.37H28.59C28.26 100.25 27.9 100.43 27.78 100.76C27.78 100.79 27.78 100.79 27.75 100.82C27.69 101.21 27.93 101.6 28.32 101.72C29.34 102.02 30.06 101.09 30.6 100.37C31.14 99.65 31.65 98.81 31.62 97.85C31.62 96.89 30.96 96.05 30.03 95.81C29.58 95.69 29.1 95.78 28.74 96.05C28.41 96.35 28.14 96.71 27.99 97.13C27.57 98.09 27.42 99.14 27.51 100.19C27.54 100.58 27.87 100.91 28.26 100.94C28.59 100.97 28.89 100.7 28.92 100.34C28.92 100.28 28.92 100.25 28.89 100.22Z" fill="#575757"/>
<path d="M53.43 124.46C58.5 119.75 63.72 115.19 69.06 110.75C70.59 109.49 72.12 108.23 73.65 107C73.98 106.73 73.2 105.5 72.99 105.65C67.59 110 62.31 114.47 57.12 119.09C55.65 120.41 54.21 121.73 52.74 123.08C52.47 123.41 53.28 124.61 53.43 124.46Z" fill="#575757"/>
<path d="M52.17 92.87C52.11 94.01 52.05 95.18 51.99 96.32C51.87 98.66 51.75 101 51.6 103.31C51.45 106.07 51.3 108.8 51.15 111.53L50.76 118.79C50.7 120.14 50.61 121.49 50.55 122.81V122.96C50.52 123.47 51.93 124.01 51.93 123.41C51.99 122.27 52.05 121.1 52.11 119.96C52.23 117.62 52.35 115.28 52.5 112.97C52.65 110.21 52.8 107.48 52.95 104.75C53.07 102.32 53.22 99.92 53.34 97.49C53.4 96.14 53.49 94.79 53.55 93.47C53.55 93.41 53.55 93.35 53.55 93.32C53.58 92.81 52.2 92.27 52.17 92.87Z" fill="#575757"/>
<path d="M33.96 100.82L47.1 111.53L50.82 114.56C51 114.71 51.42 114.47 51.57 114.38C51.63 114.35 52.29 113.99 52.17 113.9L39.06 103.19L35.34 100.16C35.16 100.01 34.74 100.25 34.59 100.34C34.56 100.4 33.9 100.76 33.96 100.82Z" fill="white"/>
<path d="M23.34 114.08C27.15 116.27 30.87 118.7 34.44 121.28C35.55 122.09 36.66 122.93 37.74 123.8C37.98 123.98 38.43 124.19 38.73 124.07C39.03 123.95 38.82 123.71 38.64 123.56C35.1 120.77 31.38 118.19 27.54 115.82C26.34 115.07 25.14 114.35 23.91 113.66C23.7 113.54 23.19 113.33 22.98 113.51C22.77 113.69 23.19 113.99 23.34 114.08Z" fill="#575757"/>
<path d="M35.76 111.86C35.13 115.25 34.86 118.7 34.98 122.18C35.01 122.72 36.36 122.18 36.36 121.67C36.24 118.22 36.51 114.77 37.14 111.35C37.2 111.02 36.6 111.14 36.48 111.2C36.12 111.29 35.85 111.53 35.76 111.86Z" fill="#575757"/>
<path d="M94.05 123.8C94.2 123.05 94.5 122.36 94.92 121.73C95.31 121.1 95.88 120.56 96.54 120.2L96.75 120.14C96.57 120.02 96.51 120.02 96.6 120.08L96.66 120.14C96.72 120.26 96.84 120.38 96.93 120.5C97.11 120.8 97.23 121.16 97.26 121.52C97.32 122.3 97.02 123.08 96.45 123.62L97.62 124.16C97.32 123.71 97.59 123.05 97.89 122.69C98.22 122.27 98.67 121.94 99.18 121.79C99.87 121.55 101.01 121.49 101.52 122.06C101.76 122.33 102.06 122.54 102.42 122.63C102.66 122.69 102.81 122.57 102.6 122.33C101.55 121.19 99.96 120.47 98.4 120.8C97.05 121.07 95.58 122.51 96.54 123.89C96.69 124.1 97.44 124.7 97.71 124.43C99.33 122.81 98.37 120.23 96.39 119.39C95.94 119.18 95.43 119.24 95.04 119.54C94.65 119.81 94.32 120.14 93.99 120.47C93.36 121.22 92.91 122.15 92.73 123.14C92.7 123.47 93.96 124.16 94.05 123.8Z" fill="#575757"/>
<path d="M26.13 42.71C26.13 42.71 27.78 36.23 38.28 33.17C48.78 30.11 54.99 42.71 54.99 42.71H26.13Z" fill="white"/>
<path d="M26.85 42.89C26.88 42.8 26.91 42.74 26.91 42.65C26.91 42.56 26.97 42.47 26.94 42.59C26.91 42.71 26.97 42.56 26.97 42.5C27.03 42.38 27.06 42.26 27.12 42.14C27.27 41.81 27.45 41.48 27.63 41.18C27.75 41 27.87 40.79 27.99 40.61C28.05 40.49 28.14 40.4 28.2 40.31L28.29 40.16L28.38 40.04C28.35 40.1 28.47 39.95 28.47 39.92L28.59 39.77C28.68 39.65 28.8 39.53 28.89 39.41C29.1 39.17 29.31 38.96 29.52 38.75C30.03 38.24 30.57 37.76 31.14 37.34C32.61 36.23 34.23 35.36 35.94 34.67C37.68 33.95 39.54 33.35 41.4 33.32C42.15 33.29 42.9 33.38 43.65 33.53C44.01 33.62 44.37 33.71 44.7 33.83C44.88 33.89 45.03 33.95 45.18 34.01C45.27 34.04 45.36 34.07 45.45 34.1C45.48 34.1 45.54 34.13 45.45 34.1L45.63 34.19C46.29 34.49 46.92 34.82 47.52 35.21C47.67 35.3 47.79 35.39 47.94 35.48C48.15 35.63 48.12 35.6 48.3 35.75C48.57 35.96 48.84 36.17 49.11 36.38C49.62 36.8 50.1 37.28 50.58 37.76C50.82 38 51.03 38.24 51.24 38.48C51.45 38.72 51.51 38.78 51.75 39.08C52.71 40.28 53.58 41.57 54.3 42.92C54.36 43.04 54.3 42.92 54.27 42.83L54.9 41.99H29.64C28.47 41.99 27.3 41.96 26.13 41.99H26.07C25.11 41.99 25.29 43.37 26.16 43.37H51.45C52.62 43.37 53.79 43.4 54.96 43.37H55.02C55.41 43.37 55.89 42.98 55.65 42.53C55.02 41.3 54.27 40.1 53.43 39.02C51.72 36.77 49.65 34.73 47.13 33.41C45.69 32.66 44.13 32.18 42.54 32C40.65 31.82 38.82 32.18 37.05 32.75C33.63 33.89 30.27 35.66 27.84 38.39C27.15 39.17 26.55 40.04 26.04 40.94C25.77 41.39 25.56 41.9 25.41 42.41C25.41 42.44 25.41 42.44 25.41 42.47C25.2 43.34 26.61 43.76 26.85 42.89Z" fill="#C8303F"/>
<path d="M24.9 43.4H28.17L35.67 43.37L44.64 43.34L52.47 43.31C53.79 43.31 55.08 43.31 56.4 43.31H56.49C56.82 43.31 57.21 43.13 57.21 42.74C57.15 42.35 56.85 42.08 56.46 42.05H53.19L45.69 42.0801L36.72 42.11L28.92 42.14C27.6 42.14 26.31 42.14 24.99 42.14H24.9C24.54 42.14 24.18 42.32 24.18 42.71C24.21 43.1 24.51 43.37 24.9 43.4Z" fill="#C8303F"/>
<path d="M40.98 43.1C43.32 41.21 45.72 39.38 48.18 37.64C48.48 37.43 47.4 36.44 46.98 36.71C44.52 38.45 42.12 40.28 39.78 42.17C39.48 42.44 40.56 43.43 40.98 43.1Z" fill="#575757"/>
<path d="M39.57 33.2C39.45 35.9 39.24 38.6 39.06 41.33C39.03 41.75 39 42.2 39 42.62C38.97 42.98 39.48 43.04 39.75 42.98C40.11 42.92 40.38 42.62 40.44 42.26C40.56 39.56 40.77 36.86 40.95 34.16C40.98 33.74 41.01 33.29 41.04 32.87C41.07 32.51 40.56 32.45 40.29 32.51C39.9 32.57 39.63 32.84 39.57 33.2Z" fill="#575757"/>
<path d="M33.18 35.72L39.15 40.01C39.27 40.1 39.75 39.77 39.84 39.71C40.05 39.59 40.26 39.44 40.47 39.26L34.47 35C34.35 34.91 33.87 35.24 33.78 35.3C33.57 35.42 33.36 35.57 33.18 35.72Z" fill="#575757"/>
<path d="M110.22 96.83C110.22 96.83 111.87 90.35 122.37 87.26C132.87 84.17 139.08 96.83 139.08 96.83H110.22Z" fill="white"/>
<path d="M110.94 97.01C110.97 96.92 111 96.86 111 96.77C111 96.68 111.06 96.59 111.03 96.71L111.06 96.62C111.12 96.5 111.15 96.38 111.21 96.26C111.36 95.93 111.54 95.6 111.72 95.3C111.84 95.12 111.96 94.91 112.08 94.73L112.29 94.43C112.32 94.37 112.35 94.34 112.38 94.28C112.41 94.22 112.53 94.1 112.47 94.13L112.56 94.01L112.68 93.86C112.77 93.74 112.89 93.62 112.98 93.5C113.19 93.26 113.4 93.05 113.61 92.84C114.12 92.33 114.66 91.85 115.23 91.43C116.7 90.35 118.29 89.45 120 88.76C121.74 88.04 123.6 87.44 125.46 87.41C126.21 87.38 126.96 87.47 127.71 87.62C128.07 87.71 128.43 87.8 128.76 87.92C128.91 87.98 129.09 88.04 129.24 88.1L129.51 88.19L129.69 88.28C130.35 88.58 130.98 88.91 131.58 89.3C131.73 89.39 131.85 89.48 132 89.57C132.21 89.72 132.18 89.69 132.36 89.84C132.63 90.05 132.9 90.26 133.14 90.47C133.65 90.89 134.13 91.37 134.61 91.85C134.85 92.09 135.06 92.33 135.27 92.57C135.48 92.81 135.54 92.87 135.78 93.17C136.74 94.37 137.61 95.66 138.33 97.01C138.39 97.16 138.33 97.01 138.3 96.92L138.93 96.08H113.64C112.47 96.08 111.3 96.05 110.13 96.08H110.07C109.11 96.08 109.29 97.46 110.16 97.46H135.45C136.62 97.46 137.79 97.49 138.96 97.46H139.02C139.41 97.46 139.89 97.07 139.65 96.62C139.02 95.39 138.27 94.22 137.43 93.11C135.72 90.86 133.65 88.82 131.13 87.5C129.69 86.75 128.13 86.27 126.54 86.12C124.65 85.94 122.82 86.3 121.05 86.87C117.63 88.01 114.27 89.78 111.84 92.51C111.15 93.29 110.55 94.16 110.04 95.06C109.77 95.51 109.56 96.02 109.44 96.53L109.41 96.59C109.29 97.46 110.7 97.88 110.94 97.01Z" fill="#C8303F"/>
<path d="M109.23 97.49H112.5L120 97.46L128.97 97.43L136.77 97.4C138.09 97.4 139.38 97.43 140.7 97.4H140.79C141.03 97.4 141.21 97.25 141.24 97.01C141.24 96.95 141.24 96.86 141.21 96.8C141.06 96.44 140.7 96.23 140.31 96.2H137.04L129.54 96.23L120.57 96.26L112.77 96.29C111.45 96.29 110.16 96.26 108.84 96.29H108.75C108.51 96.29 108.33 96.44 108.3 96.68C108.3 96.74 108.3 96.83 108.33 96.89C108.48 97.25 108.84 97.46 109.23 97.49Z" fill="#C8303F"/>
<path d="M125.07 97.22C127.41 95.33 129.81 93.5 132.27 91.76C132.57 91.55 131.52 90.56 131.07 90.83C128.61 92.57 126.21 94.4 123.87 96.29C123.57 96.53 124.68 97.52 125.07 97.22Z" fill="#575757"/>
<path d="M123.69 87.32C123.57 90.02 123.36 92.72 123.18 95.42C123.15 95.84 123.12 96.29 123.09 96.71C123.06 97.07 123.57 97.13 123.84 97.07C124.2 97.01 124.47 96.71 124.53 96.35C124.65 93.65 124.86 90.95 125.04 88.25C125.07 87.83 125.1 87.38 125.13 86.96C125.16 86.6 124.65 86.54 124.38 86.6C124.02 86.69 123.72 86.96 123.69 87.32Z" fill="#575757"/>
<path d="M117.27 89.84L123.24 94.13C123.36 94.22 123.84 93.89 123.93 93.83C124.14 93.71 124.35 93.56 124.53 93.38L118.56 89.09C118.44 89 117.96 89.33 117.87 89.39C117.66 89.54 117.45 89.69 117.27 89.84Z" fill="#575757"/>
<path d="M46.98 30.29C46.92 30.29 46.98 30.29 46.98 30.32C46.95 30.29 46.95 30.26 46.92 30.2C46.86 30.02 46.8 29.87 46.74 29.72C46.59 29.33 46.56 28.91 46.62 28.52C46.74 27.98 47.31 27.29 47.94 27.44C48.39 27.53 48.45 28.34 48.51 28.73C48.57 29.12 48.87 30.8 48.09 30.71L48.78 31.88C49.35 31.16 50.07 30.53 50.88 30.08C51.27 29.84 51.69 29.66 52.11 29.51C52.29 29.45 52.62 29.3 52.8 29.36C52.74 29.33 52.86 29.48 52.86 29.48C52.92 29.57 52.98 29.66 53.01 29.72C53.22 30.11 53.31 30.56 53.31 31.01C53.31 31.49 52.92 31.61 52.47 31.67C52.05 31.73 51.6 31.7 51.21 31.58C51 31.52 50.82 31.43 50.64 31.34C50.55 31.28 50.49 31.25 50.4 31.19C50.37 31.16 50.34 31.16 50.34 31.13C50.19 30.98 50.22 31.04 50.4 31.31L50.34 31.58V31.55L49.8 31.49C50.34 31.82 50.55 32.39 50.7 32.96C50.79 33.29 50.82 33.62 50.85 33.98C50.88 34.25 50.97 34.7 50.76 34.94C50.31 35.42 49.83 34.04 49.77 33.8C49.53 32.99 49.5 32.12 49.68 31.31L48.63 31.01C48.81 31.58 48.72 32.21 48.36 32.72C48.18 33.02 47.91 33.26 47.61 33.41C47.46 33.5 47.31 33.56 47.13 33.59C47.04 33.62 46.95 33.59 46.86 33.56C46.92 33.59 46.89 33.56 46.86 33.53C46.44 32.96 46.41 32.18 46.83 31.58C47.16 31.13 47.94 30.77 48.45 31.1C48.69 31.25 49.05 31.28 49.14 30.95C49.17 30.59 48.99 30.23 48.69 30.02C47.7 29.39 46.41 29.66 45.75 30.62C45.03 31.7 45.39 33.23 46.14 34.19C46.56 34.73 47.16 35.09 47.88 34.91C48.42 34.76 48.9 34.46 49.23 34.01C49.95 33.11 50.1 31.88 49.62 30.83C49.5 30.5 48.69 29.9 48.57 30.53C48.3 31.79 48.42 33.11 48.93 34.31C49.14 34.88 49.47 35.39 49.89 35.84C50.31 36.23 50.94 36.59 51.48 36.29C52.44 35.81 52.05 34.13 51.87 33.29C51.63 32.15 51.06 31.07 50.07 30.41C49.92 30.32 49.68 30.2 49.53 30.35C49.02 30.8 49.41 31.52 49.8 31.94C50.19 32.36 50.67 32.66 51.21 32.87C52.08 33.2 53.55 33.35 54.24 32.57C54.63 32.12 54.54 31.43 54.45 30.92C54.33 30.29 54.12 29.69 53.76 29.15C53.43 28.61 52.95 28.07 52.26 28.07C51.69 28.13 51.15 28.28 50.67 28.58C49.53 29.12 48.54 29.9 47.79 30.89C47.49 31.28 48.09 32.03 48.48 32.06C50.1 32.21 49.83 29.99 49.68 29C49.5 27.83 48.99 26.3 47.64 26.12C46.38 25.94 45.54 27.11 45.51 28.22C45.51 28.94 45.66 29.66 45.99 30.32C46.26 30.92 46.71 31.55 47.43 31.61C48.12 31.7 47.58 30.35 46.98 30.29Z" fill="#575757"/>
</svg>
