<svg width="100" height="101" viewBox="0 0 100 101" fill="none" xmlns="http://www.w3.org/2000/svg">
<path d="M59.48 80.6051C59.48 80.6051 60.14 85.9852 60.28 85.9651C60.42 85.9452 62.58 85.5051 62.58 85.5051L62.22 83.3651L63.68 85.5451L70.84 83.8851C70.84 83.8851 70.94 83.0651 69.16 82.4851C67.38 81.9051 64.56 81.1451 64.56 81.1451L63.96 77.9651L59.48 80.6051Z" fill="#575757"/>
<path d="M59.3799 80.5451C59.5199 81.6451 59.6599 82.7451 59.8199 83.8451C59.8999 84.4451 59.9799 85.0451 60.1199 85.6451C60.1399 85.7651 60.1599 85.8651 60.2399 85.9451C60.3999 86.0451 60.5799 85.9651 60.7399 85.9451C61.3999 85.8051 62.0599 85.6851 62.7199 85.5451L62.3599 83.4051L62.1399 83.3251L63.5999 85.5051C63.6599 85.5651 63.7399 85.5851 63.8199 85.5851L70.0799 84.1451L70.9799 83.9451C70.9799 83.7651 70.9199 83.6051 70.8199 83.4651C70.5399 83.0451 70.0199 82.8051 69.5799 82.6051C68.9399 82.3451 68.2399 82.1651 67.5799 81.9651C66.9199 81.7651 66.2599 81.5851 65.5999 81.3851L64.5599 81.1051L64.7399 81.1851L64.1399 78.0251C64.0799 77.9651 63.9999 77.9251 63.9199 77.9251L59.9799 80.2251L59.3999 80.5651C59.3999 80.5651 59.5799 80.6851 59.6199 80.6651L63.5599 78.3651L64.1399 78.0251L63.9199 77.9251L64.5199 81.0851C64.5199 81.1251 64.6599 81.1651 64.6799 81.1651C65.8199 81.4651 66.9599 81.7851 68.0799 82.1451C68.8799 82.3851 69.8599 82.5651 70.4599 83.1851C70.5999 83.3251 70.6999 83.4851 70.7399 83.6651C70.7599 83.7251 70.7599 83.7651 70.7599 83.8251C70.7399 83.8451 70.6199 83.8451 70.5999 83.8651L70.2199 83.9451L68.9799 84.2451L65.6999 85.0051L63.5999 85.4851L63.8199 85.5651L62.3599 83.3851C62.2799 83.3451 62.2199 83.3251 62.1399 83.3051L62.4999 85.2851C62.5199 85.3851 62.5399 85.3851 62.4799 85.4051C62.3399 85.4451 62.1999 85.4851 62.0599 85.4851L60.7399 85.7451C60.5799 85.7651 60.4399 85.7851 60.2999 85.8451C60.1599 85.9051 60.4599 85.8651 60.4399 85.9251C60.4399 85.8851 60.4199 85.8651 60.4199 85.8451C60.3599 85.5851 60.2999 85.3251 60.2799 85.0651C60.1399 84.1851 60.0199 83.3051 59.8999 82.4451C59.8199 81.8251 59.7399 81.2251 59.6599 80.6051C59.5999 80.5851 59.3799 80.5651 59.3799 80.5451Z" fill="#575757"/>
<path d="M56.18 69.9451L58.4 82.7251C58.4 82.7251 66.04 79.8251 66.72 79.0451C67.4 78.2651 60.84 59.4651 60.84 59.4651L56.18 69.9451Z" fill="#575757"/>
<path d="M55.7199 69.8451L56.4599 74.1451L57.6599 81.0251L57.9399 82.6251C57.9799 82.8651 58.5999 83.0251 58.7999 82.9451C60.7799 82.1851 62.7599 81.4051 64.6999 80.5451C65.2599 80.3051 65.8199 80.0451 66.3599 79.7651C66.6199 79.6251 66.9799 79.4651 67.1799 79.2251C67.2599 79.0851 67.2799 78.9051 67.2399 78.7451C67.2199 78.4651 67.1599 78.1851 67.0999 77.9051C66.6599 75.7451 65.9599 73.6451 65.2999 71.5451C64.4999 68.9851 63.6599 66.4251 62.7999 63.8851C62.4799 62.9451 62.1599 62.0051 61.8399 61.0651C61.6799 60.5851 61.5399 60.1051 61.3399 59.6451C61.3399 59.6251 61.3199 59.6051 61.3199 59.5851C61.2399 59.3651 60.4999 59.0651 60.3599 59.3451L58.7799 62.9051L56.2799 68.5251L55.6999 69.8251C55.5999 70.0451 56.5399 70.4051 56.6599 70.1251L58.2399 66.5651L60.7399 60.9451L61.3199 59.6451L60.3599 59.4051C60.7599 60.5651 61.1599 61.7251 61.5599 62.9051C62.3999 65.3651 63.2199 67.8451 63.9999 70.3251C64.7199 72.5651 65.4399 74.8251 65.9799 77.1051C66.0599 77.4651 66.1399 77.8051 66.1999 78.1651C66.2199 78.2851 66.2399 78.4251 66.2599 78.5451C66.2799 78.6251 66.2799 78.7051 66.2599 78.7651C66.2599 78.8051 66.2599 78.8251 66.2399 78.8651C66.2199 78.9051 66.1999 78.9451 66.2199 78.9051C66.2399 78.8651 66.1599 78.9651 66.1399 78.9851C66.0799 79.0251 65.9999 79.0851 65.9399 79.1251C65.5399 79.3651 65.1199 79.6051 64.6799 79.7851C62.5399 80.7851 60.3399 81.6451 58.1399 82.4851L57.9999 82.5451L58.8599 82.8651L58.1199 78.5651L56.9199 71.6851L56.6399 70.0851C56.6199 69.7651 55.6599 69.5651 55.7199 69.8451Z" fill="#575757"/>
<path d="M82.8399 60.3651L22.1199 91.3051L16.3199 79.9051L78.7199 48.1251L82.8399 60.3651Z" fill="white"/>
<path d="M82.6599 60.2451L81.0399 61.0651L76.6199 63.3251L70.0999 66.6451L62.1199 70.7251L53.3999 75.1651L44.5399 79.6651L36.3199 83.8451L29.3999 87.3851L24.3999 89.9251C23.6199 90.3251 22.7999 90.7051 22.0399 91.1251L21.9399 91.1851L22.5999 91.1251L20.6199 87.2651L17.4999 81.1251L16.7799 79.7251L16.4999 80.0251L18.1799 79.1651L22.7199 76.8451L29.4599 73.4251L37.6399 69.2651L46.5999 64.6851L55.6599 60.0851L64.0999 55.7851L71.2399 52.1651L76.3799 49.5451C77.1799 49.1251 77.9999 48.7451 78.7999 48.3051L78.8999 48.2451L78.2399 48.3051L79.6399 52.4451L81.8599 59.0451L82.3599 60.5451C82.4399 60.7851 83.3799 60.4451 83.2999 60.1851L81.8999 56.0451L79.6799 49.4451L79.1799 47.9451C79.1199 47.7451 78.5999 47.9651 78.5199 48.0051L76.8399 48.8651L72.2999 51.1851L65.5599 54.6051L57.3599 58.7651L48.3999 63.3451L39.3399 67.9451L30.8999 72.2451L23.7999 75.8651L18.6599 78.4851C17.8599 78.9051 17.0399 79.3051 16.2399 79.7251L16.1399 79.7851C16.0799 79.8251 15.7999 79.9651 15.8599 80.0851L17.8199 83.9651L20.9399 90.1051L21.6599 91.5051C21.7599 91.7051 22.1999 91.5051 22.3199 91.4451L23.9399 90.6251L28.3599 88.3851L34.8999 85.0651L42.8599 81.0051L51.5799 76.5651L60.4199 72.0651L68.6399 67.8851L75.5799 64.3451L80.5799 61.8051C81.3599 61.4051 82.1599 61.0051 82.9399 60.6051L83.0399 60.5651C83.1399 60.5251 83.4199 60.3651 83.2799 60.2251C83.1399 60.0851 82.7599 60.2051 82.6599 60.2451Z" fill="#C0C0C0"/>
<path d="M67.92 50.1651C69.2 50.2451 70.48 50.3651 71.76 50.5051C74.36 50.7651 76.96 51.0851 79.52 51.5251C80.86 51.7451 82.18 52.0451 83.5 52.4251L82.78 52.2051C83.26 52.3451 83.74 52.5251 84.2 52.7251L83.36 52.3451C83.46 52.3851 83.58 52.4451 83.68 52.5051C84.18 52.7651 82.66 51.9051 82.9 52.0651L83.04 52.1451C83.52 52.4451 81.82 51.3051 82.18 51.5651L82.24 51.6051C82.56 51.8451 82.94 52.2851 81.38 50.9251C81.82 51.3051 80.38 49.9251 80.78 50.3651L80.16 49.6651C80.2 49.7051 80.24 49.7451 80.26 49.7851L79.84 49.1651C79.88 49.2251 79.92 49.3051 79.94 49.3851L79.74 48.8851C79.96 49.4851 79.92 50.1851 79.88 50.8051C79.84 51.8251 79.7 52.8651 79.56 53.8851C79.46 54.5851 79.34 55.2851 79.22 55.9851L79.28 55.6251C78.8 58.3651 78.22 61.0651 77.6 63.7851C77.14 65.8451 76.64 67.9051 76.12 69.9451C76.02 70.3251 75.92 70.7251 75.82 71.1051C75.72 71.3051 75.74 71.5251 75.86 71.7051C75.96 72.0251 76.14 72.3251 76.38 72.5651C77.06 73.3851 77.86 74.1251 78.74 74.7251C79.6 75.3451 80.52 75.9651 81.52 76.3251L82.24 76.5451C82.52 76.6651 82.86 76.6051 83.1 76.4051C83.24 75.8251 83.4 75.2451 83.54 74.6851C83.9 73.2451 84.24 71.8051 84.58 70.3451C85.02 68.4851 85.42 66.6251 85.8 64.7651C86.2 62.8251 86.58 60.8651 86.88 58.9051C87.1 57.5051 87.3 56.0851 87.28 54.6851C87.28 54.2851 87.24 53.8851 87.12 53.4851C86.82 52.6251 86.3 51.9651 85.66 51.3251C84.7 50.3851 83.64 49.5451 82.5 48.8251C80.58 47.6051 78.46 46.9051 76.26 46.4051C74.44 45.9851 72.58 45.7051 70.72 45.4451C68.96 45.2051 67.22 45.0051 65.44 44.8451C64.46 44.7451 63.48 44.6651 62.5 44.5851H62.36C62.14 44.4651 61.86 44.4851 61.66 44.6451C61.46 44.7051 61.38 44.8451 61.44 45.0851C61.5 45.3851 61.64 45.6651 61.84 45.9051C62.08 46.2651 62.36 46.6051 62.68 46.9051C63.5 47.7251 64.42 48.4451 65.4 49.0451L66.34 49.5851C66.84 49.8451 67.36 50.0451 67.9 50.1851L67.92 50.1651Z" fill="white"/>
<path d="M41.18 74.4052C41.18 74.4052 36.6 77.0652 36.68 77.1852C36.76 77.3052 38.06 79.2052 38.06 79.2052L39.84 78.0652L38.48 80.2652L42.98 86.4652C42.98 86.4652 43.76 86.2652 43.54 84.3452C43.32 82.4252 42.82 79.4652 42.82 79.4652L45.44 77.7052L41.18 74.4052Z" fill="#575757"/>
<path d="M41.0799 74.3451C40.1799 74.8651 39.2999 75.3851 38.3999 75.9251C37.8799 76.2451 37.3599 76.5451 36.8399 76.9051C36.7799 76.9451 36.5599 77.0651 36.5599 77.1251C36.5599 77.1851 36.7799 77.4651 36.8399 77.5451L37.9599 79.1651C37.9799 79.2051 38.1399 79.2651 38.1999 79.2451L39.9799 78.1051L39.7399 78.0051L38.3799 80.2051L42.3199 85.6251L42.8799 86.4051C42.9399 86.4651 43.0199 86.4851 43.0999 86.4851C43.4999 86.3651 43.6399 85.7651 43.6799 85.4051C43.7199 84.8251 43.6799 84.2651 43.5799 83.6851C43.4999 83.1051 43.4199 82.5451 43.3399 81.9851C43.2599 81.4651 43.1799 80.9251 43.0999 80.4051C43.0199 80.1251 42.9799 79.8451 42.9599 79.5451C42.9599 79.4251 43.0399 79.4251 43.1399 79.3451L43.9399 78.8051L45.5599 77.7251C45.5599 77.7251 45.5599 77.7051 45.5399 77.7051L41.8199 74.8251L41.2799 74.4051C41.2399 74.3851 41.0399 74.3451 41.0799 74.3451L43.1799 75.9851L44.6199 77.1051L45.1199 77.5051C45.1399 77.5251 45.3399 77.6451 45.3399 77.6851C45.2599 77.7251 45.1599 77.7851 45.0799 77.8451L44.3999 78.3051L42.9199 79.3051C42.8599 79.3451 42.7199 79.4051 42.6999 79.4651C42.6999 79.5051 42.6999 79.5651 42.7199 79.6051C42.7399 79.7251 42.7599 79.8451 42.7799 79.9651C42.9199 80.7651 43.0399 81.5651 43.1599 82.3651C43.2399 82.8851 43.3199 83.4251 43.3799 83.9651C43.4599 84.4851 43.4799 85.0051 43.4199 85.5251C43.3799 85.8251 43.2199 86.3651 42.8599 86.4851L43.0799 86.5651L40.6799 83.2651L39.1399 81.1451L38.6799 80.5251C38.5799 80.4051 38.5599 80.4251 38.6399 80.2851L39.9199 78.1851C39.9399 78.1651 39.7199 78.0651 39.6799 78.0851L37.8999 79.2251L38.1399 79.3051C37.8199 78.8451 37.4999 78.3851 37.1999 77.9251L36.9399 77.5451C36.8999 77.5051 36.7799 77.3651 36.7799 77.3051C36.7799 77.2451 36.8999 77.1651 36.9599 77.1251C37.9799 76.3851 39.1199 75.7651 40.1999 75.1251L41.2599 74.5051C41.2999 74.4651 41.1199 74.3251 41.0799 74.3451Z" fill="#575757"/>
<path d="M26.08 65.2652C26.08 65.2652 26.96 71.6252 30.5 72.0652C32.16 72.2852 45.38 69.4452 45.38 69.4452L39.68 73.8052C39.68 73.8052 44.5 80.9252 45.52 80.5852C46.54 80.2452 61.98 68.3252 60.52 63.5452C58.58 57.1452 37.92 60.7052 37.92 60.7052L26.08 65.2652Z" fill="#575757"/>
<path d="M25.64 65.4651C25.84 66.8051 26.22 68.1051 26.8 69.3451C27.52 70.9051 28.84 72.5451 30.72 72.4651C31.4 72.4251 32.06 72.3451 32.72 72.2451C33.66 72.1051 34.58 71.9451 35.52 71.7851C37.6 71.4051 39.66 71.0051 41.72 70.5851C42.5 70.4251 43.28 70.2651 44.08 70.1051C44.4799 70.0451 44.8799 69.9451 45.28 69.8451H45.34L45.22 69.2051L40.22 73.0251L39.52 73.5651C39.38 73.6651 39.16 73.9051 39.28 74.1051C40.58 76.0451 41.96 77.9851 43.54 79.7051C43.88 80.1251 44.3 80.4851 44.74 80.8051C45.02 81.0051 45.4 81.0451 45.7 80.8851C46.34 80.5651 46.94 80.0851 47.52 79.6451C49.82 77.9051 52.02 76.0251 54.12 74.0451C55.3 72.9251 56.44 71.7651 57.52 70.5451C58.5 69.4651 59.38 68.2851 60.12 67.0451C60.66 66.1051 61.14 65.0451 61.1 63.9451C61.06 62.9851 60.4799 62.1251 59.7599 61.5251C58.86 60.7851 57.72 60.3451 56.62 60.0651C55.24 59.7251 53.84 59.5051 52.42 59.4251C49.44 59.2251 46.46 59.3651 43.5 59.6451C41.72 59.8051 39.92 60.0251 38.16 60.3251C37.8 60.4051 37.46 60.5251 37.14 60.6851L33.76 61.9851L26.54 64.7851L26.08 64.9651C25.84 65.0051 25.6 65.2451 25.64 65.4651C25.7 65.6851 25.98 65.6451 26.16 65.5851L31.68 63.4451C33.76 62.6451 35.84 61.8451 37.92 61.0451C38.06 60.9851 37.94 61.0651 37.88 61.0451C37.9 61.0451 37.96 61.0251 37.98 61.0251L38.62 60.9251L39.1 60.8451C38.96 60.8651 39.12 60.8451 39.16 60.8451L39.28 60.8251L39.62 60.7851C40.12 60.7251 40.6 60.6651 41.1 60.5851C43.84 60.2451 46.6199 60.0651 49.3799 60.0651C50.84 60.0651 52.2999 60.1451 53.76 60.3251C55.02 60.4651 56.26 60.7651 57.44 61.2251C58.36 61.6251 59.22 62.1451 59.7599 62.9851C60 63.3251 60.1399 63.7451 60.18 64.1651C60.18 64.2051 60.18 64.2651 60.18 64.3051C60.18 64.4051 60.18 64.2251 60.18 64.3251V64.4051C60.18 64.5051 60.16 64.6251 60.16 64.7251C60.16 64.8251 60.12 64.9451 60.1 65.0451C60.08 65.1051 60.0799 65.1651 60.0599 65.2251C60.0599 65.2451 60.06 65.2651 60.04 65.2851C60.06 65.1851 60.02 65.3251 60.02 65.3451C59.84 65.8651 59.6199 66.3651 59.36 66.8451C59.3999 66.7851 59.2999 66.9651 59.2799 66.9851C59.26 67.0051 59.2 67.1051 59.18 67.1651C59.1 67.3051 59 67.4651 58.9 67.6051C58.7 67.8851 58.52 68.1651 58.3 68.4451C57.4 69.6451 56.44 70.7651 55.38 71.8251C54.26 72.9851 53.08 74.1051 51.86 75.1851C51.2999 75.6851 50.7199 76.1851 50.1399 76.6651C49.86 76.9051 49.58 77.1251 49.3 77.3651L49.2 77.4451L49 77.6051L48.62 77.9051C47.82 78.5451 47.02 79.1651 46.18 79.7451C46.0399 79.8451 45.92 79.9251 45.78 80.0051L45.62 80.1051C45.54 80.1651 45.46 80.1651 45.6 80.1251C45.56 80.1451 45.54 80.1451 45.5 80.1651C45.4 80.2251 45.7 80.1251 45.6 80.1451C45.66 80.1651 45.72 80.1451 45.6 80.1451C45.5 80.1051 45.6 80.1451 45.58 80.1451C45.5 80.1051 45.42 80.0651 45.34 80.0051C44.92 79.6851 44.54 79.3251 44.2 78.9051C43.72 78.3651 43.26 77.8051 42.82 77.2251C42 76.1851 41.24 75.1051 40.48 74.0251C40.36 73.8451 40.22 73.6651 40.1 73.4651L39.86 74.0051L44.86 70.1851L45.56 69.6451C45.68 69.5451 45.88 69.3651 45.82 69.1851C45.76 69.0051 45.58 68.9851 45.42 69.0251C44.46 69.2251 43.5 69.4251 42.56 69.6251C40.58 70.0251 38.58 70.4251 36.58 70.8051C35.6 70.9851 34.64 71.1651 33.66 71.3251L33.02 71.4251L32.72 71.4651H32.66L32.5 71.4851C32.18 71.5251 31.86 71.5651 31.52 71.6051C31.3 71.6251 31.06 71.6451 30.84 71.6451C30.8 71.6451 30.76 71.6451 30.72 71.6451C30.68 71.6451 30.84 71.6651 30.76 71.6451C30.68 71.6251 30.62 71.6251 30.54 71.6051C30.32 71.5651 30.12 71.5051 29.92 71.4051C29.04 70.9851 28.42 70.2051 27.96 69.3851C27.2 68.0451 26.84 66.5851 26.54 65.0851C26.54 65.0651 26.52 65.0251 26.52 65.0051C26.48 64.6051 25.58 65.0651 25.64 65.4651Z" fill="#575757"/>
<path d="M57.52 37.1251C57.52 37.1251 68.4 33.5251 68.62 34.5051C68.84 35.4851 66.32 36.7651 66.32 36.7651C66.32 36.7651 67.8 37.4051 66.7 38.7451C66.7 38.7451 67.66 39.0851 66.66 40.1051C65.66 41.1251 64.68 40.6051 64.68 40.6051C64.68 40.6051 63.48 41.1851 62.58 40.6451C62.58 40.6451 61.34 41.9451 59.56 41.9251L57.52 37.1251Z" fill="white"/>
<path d="M57.8 37.2851C59.5 36.7251 61.02 36.2451 62.78 35.7451C64.02 35.3851 65.26 35.0451 66.5 34.7851L66.86 34.7051L67.04 34.6651C66.92 34.6851 67.12 34.6451 67.04 34.6651L67.14 34.6451C67.34 34.6051 67.56 34.5851 67.78 34.5651L67.9 34.5451C67.96 34.5451 67.78 34.5451 67.92 34.5451H68.04C68.1 34.5451 68.22 34.5651 68.06 34.5451C68.08 34.5451 68.12 34.5451 68.14 34.5451C68.24 34.5651 68.04 34.5251 68.12 34.5451C68.14 34.5451 68.2 34.5451 68.14 34.5451C68.04 34.5451 68.18 34.5451 68.16 34.5651C68.12 34.6251 68.12 34.4851 68.14 34.5451L68.16 34.5651C68.16 34.5651 68.14 34.5451 68.14 34.5251C68.14 34.5451 68.16 34.5851 68.16 34.6051C68.16 34.7451 68.12 34.8651 68.06 34.9851C67.86 35.3051 67.62 35.5651 67.32 35.7851C66.9 36.1051 66.44 36.4051 65.98 36.6451C65.88 36.6851 65.78 36.8451 65.94 36.9051C66.14 36.9851 66.32 37.1251 66.46 37.3051C66.8 37.7451 66.6 38.2651 66.28 38.6651C66.18 38.7851 66.26 38.8651 66.38 38.9051C66.24 38.8451 66.34 38.8851 66.38 38.9051C66.42 38.9251 66.46 38.9651 66.5 38.9851C66.62 39.1051 66.66 39.2651 66.62 39.4251C66.54 39.7651 66.22 40.0651 65.96 40.2651C65.84 40.3451 65.72 40.4251 65.58 40.4651C65.52 40.4851 65.48 40.4851 65.42 40.4851C65.48 40.4851 65.38 40.4851 65.4 40.4851C65.34 40.4851 65.26 40.4651 65.2 40.4451C65.18 40.4451 65.14 40.4251 65.12 40.4251H65.14C64.98 40.3651 64.8 40.3451 64.62 40.3851C64.56 40.4051 64.2 40.5251 64.42 40.4451L64.36 40.4651C63.96 40.6251 63.5 40.7451 63.02 40.4651C62.74 40.3451 62.4 40.3851 62.1599 40.5651C61.5199 41.2651 60.62 41.6851 59.68 41.7051L60.08 41.8651L58.3 37.6651L58.04 37.0451C57.9 36.7251 56.96 36.9451 57.04 37.1651L58.82 41.3651L59.08 41.9851C59.14 42.1251 59.32 42.1451 59.46 42.1451C60.74 42.1451 62.14 41.6451 63.02 40.7051L62.1599 40.8051C63.0199 41.2851 64.18 41.1251 65.04 40.7051L64.26 40.7651C65.14 41.2051 66.3 40.8851 66.98 40.2451C67.3 39.9451 67.76 39.4451 67.54 38.9651C67.42 38.7651 67.24 38.6051 67.02 38.5451L67.12 38.7851C67.5 38.3051 67.76 37.7251 67.4 37.1651C67.22 36.9251 67 36.7251 66.72 36.6051L66.68 36.8651C67.12 36.6251 67.56 36.3651 67.96 36.0651C68.42 35.7251 69.18 35.1651 69.12 34.5051C69.08 34.1451 68.62 34.1251 68.32 34.1051C67.9 34.1051 67.46 34.1451 67.04 34.2251C64.42 34.6651 61.86 35.5051 59.34 36.2851C58.64 36.5051 57.94 36.7251 57.24 36.9451C57.1 36.9851 56.92 37.1451 57.1 37.2651C57.28 37.3851 57.6 37.3451 57.8 37.2851Z" fill="#575757"/>
<path d="M63.02 36.5651L62.78 37.5851C62.76 37.7251 62.82 37.8651 62.94 37.9451C62.84 37.8451 63 37.9851 62.94 37.9451C63 38.0051 63.06 38.0651 63.14 38.1251C63.32 38.3051 63.5 38.4851 63.68 38.6651C63.78 38.7851 63.86 38.8851 63.96 39.0051C64.12 39.2251 64.26 39.4651 64.36 39.7251C64.38 39.7651 64.38 39.7851 64.4 39.8251C64.44 39.9251 64.4 39.7451 64.4 39.8651C64.42 39.9251 64.42 40.0051 64.42 40.0651C64.42 40.1051 64.42 40.1251 64.42 40.1651C64.42 40.0651 64.42 40.1651 64.42 40.1851C64.42 40.2051 64.36 40.3651 64.4 40.2651C64.38 40.2851 64.36 40.3251 64.36 40.3451C64.36 40.3651 64.28 40.4451 64.34 40.3651C64.32 40.4051 64.16 40.5051 64.26 40.4451C64.22 40.4651 64.04 40.5251 64.18 40.4851L64 40.5251C64.14 40.4851 63.94 40.5251 63.9 40.5251H63.8C63.94 40.5251 63.82 40.5251 63.78 40.5251C63.64 40.5051 63.5 40.4851 63.36 40.4651H63.32L63.2 40.4251C63.12 40.4051 63.02 40.3651 62.94 40.3451C62.78 40.2851 62.64 40.2251 62.48 40.1651C62.42 40.1451 62.36 40.1051 62.28 40.0851L62.16 40.0251L62.08 39.9851C62.12 40.0051 62.12 40.0051 62.08 39.9851C61.72 39.8051 61.36 39.6051 61.02 39.3851C60.8 39.2451 60.52 39.2651 60.32 39.4451C60.18 39.5651 60.16 39.7651 60.28 39.9051C60.3 39.9251 60.34 39.9651 60.36 39.9851C60.68 40.2051 61.02 40.3851 61.38 40.5651C62.04 40.9051 62.76 41.2051 63.5 41.2851C64.24 41.3651 65.08 41.1251 65.32 40.3451C65.52 39.6651 65.06 38.9651 64.68 38.4651C64.36 38.0651 63.98 37.6851 63.58 37.3451L63.74 37.7051L63.98 36.7051C64.14 36.1851 63.16 36.1051 63.02 36.5651Z" fill="#575757"/>
<path d="M65.88 36.5452L63.42 37.4252L63.06 37.5452C62.9 37.6052 63.28 37.8252 63.32 37.8452C63.48 37.9252 63.74 38.0652 63.92 37.9852L66.38 37.1052L66.74 36.9852C66.9 36.9252 66.52 36.7052 66.48 36.6852C66.32 36.6252 66.06 36.4852 65.88 36.5452Z" fill="#575757"/>
<path d="M66.48 38.4251L65.26 38.9251L65.08 39.0051C64.96 39.0451 64.88 39.1251 64.82 39.2251C64.78 39.3051 64.78 39.4251 64.82 39.5051C64.98 39.6851 65.24 39.7451 65.48 39.6451L66.72 39.1451L66.9 39.0651C67.02 39.0251 67.1 38.9451 67.16 38.8451C67.2 38.7651 67.2 38.6451 67.16 38.5651C66.98 38.3851 66.72 38.3251 66.48 38.4251Z" fill="#575757"/>
<path d="M32.66 46.2051L57.52 37.1251C57.52 37.1251 59.9 42.6451 60 43.1651C60.1 43.6851 37.72 54.7251 37.72 54.7251L32.66 46.2051Z" fill="white"/>
<path d="M32.9199 46.4852L35.3999 45.5852L41.3399 43.4252L48.5199 40.8052L54.7199 38.5452L56.7599 37.8052C57.0799 37.6852 57.4199 37.5852 57.7399 37.4452L57.7799 37.4252L57.0399 37.2252C57.4399 38.1652 57.8599 39.1252 58.2599 40.0652C58.5399 40.7452 58.8199 41.4252 59.0999 42.1052C59.1999 42.3452 59.2999 42.6052 59.3999 42.8452C59.4199 42.9252 59.4599 43.0052 59.4799 43.0852L59.4999 43.1852C59.5199 43.2452 59.4999 43.2852 59.4999 43.1652C59.4999 43.1052 59.5999 42.9852 59.4999 43.0852C59.4599 43.1252 59.5999 43.0252 59.5399 43.0452C59.5199 43.0452 59.5199 43.0652 59.4999 43.0652C59.4799 43.0652 59.4199 43.1252 59.3999 43.1452C59.1799 43.3052 58.9599 43.4252 58.7199 43.5652C57.9199 44.0252 57.0999 44.4652 56.2999 44.9052C53.8799 46.2052 51.4199 47.4452 48.9599 48.7052C46.4599 49.9852 43.9399 51.2452 41.4199 52.5052L38.7399 53.8452C38.2999 54.0652 37.8599 54.2652 37.4399 54.4852L37.3799 54.5052L38.2199 54.6452L36.5199 51.7852L33.7999 47.1852L33.1799 46.1052C33.0399 45.9052 32.7999 45.8252 32.5599 45.8852C32.4199 45.9052 32.0799 46.0652 32.1999 46.2852L33.8999 49.1652L36.6199 53.7652L37.2399 54.8252C37.4199 55.1052 37.7999 55.1052 38.0799 54.9652C39.1999 54.4052 40.3199 53.8452 41.4399 53.3052C43.9199 52.0652 46.3799 50.8252 48.8399 49.5852C51.3799 48.3052 53.8999 47.0052 56.4199 45.6852C57.2999 45.2252 58.1999 44.7452 59.0799 44.2452C59.3599 44.0852 59.6399 43.9252 59.9199 43.7452C60.0999 43.6452 60.2599 43.5252 60.3999 43.3852C60.5999 43.1652 60.4599 42.9252 60.3799 42.6852C60.1599 42.1052 59.9199 41.5252 59.6799 40.9652C59.1599 39.7252 58.6399 38.5052 58.1199 37.2652C58.0799 37.1852 58.0599 37.1052 58.0199 37.0452C57.9199 36.7852 57.4999 36.7652 57.2799 36.8452L54.7999 37.7452L48.8599 39.9252L41.6799 42.5452L35.4799 44.8052C34.4799 45.1652 33.4599 45.5252 32.4599 45.9052L32.4199 45.9252C32.2399 45.9852 32.0999 46.1852 32.2399 46.3652C32.4199 46.5252 32.6799 46.5652 32.9199 46.4852Z" fill="#575757"/>
<path d="M25.18 65.5652C25.18 65.5652 23.94 45.5252 31.66 45.6652C39.38 45.8052 44.92 58.3252 44.92 58.3252C44.92 58.3252 28.38 65.1852 25.18 65.5652Z" fill="white"/>
<path d="M25.66 65.6851C25.64 65.2051 25.62 64.7451 25.6 64.2651C25.58 63.0851 25.58 61.8851 25.62 60.7051C25.66 59.1451 25.78 57.5851 25.96 56.0251C26.14 54.4251 26.46 52.8451 26.9 51.2851C27.3 49.9651 27.82 48.6451 28.68 47.5651C29.04 47.1051 29.48 46.7051 29.98 46.3851C30.44 46.1051 30.98 45.9251 31.52 45.8851C31.58 45.8851 31.62 45.8851 31.68 45.8851C31.76 45.8851 31.86 45.8851 31.94 45.8851C32.16 45.8851 32.36 45.9051 32.58 45.9251C32.78 45.9451 32.96 45.9851 33.16 46.0251C33.26 46.0451 33.36 46.0651 33.46 46.1051L33.64 46.1451L33.72 46.1651H33.74C34.58 46.4451 35.38 46.8451 36.1 47.3451C37.68 48.4251 39.04 49.8251 40.22 51.3251C41.28 52.6651 42.24 54.0851 43.08 55.5851C43.56 56.4051 44 57.2451 44.4 58.1051L44.46 58.2251L44.54 58.1051C43.98 58.3251 43.44 58.5651 42.88 58.7851C41.52 59.3451 40.16 59.8851 38.78 60.4451C37.04 61.1451 35.3 61.8251 33.54 62.4851C31.88 63.1051 30.22 63.7251 28.54 64.3051C27.88 64.5251 27.22 64.7451 26.54 64.9451C26.26 65.0251 26 65.1051 25.72 65.1651L25.38 65.2451L25.24 65.2851C25.18 65.3051 25.22 65.2851 25.22 65.2851L25.14 65.3051C25.06 65.3251 24.98 65.3251 24.88 65.3451C24.7 65.3651 24.66 65.4851 24.82 65.6051C25.02 65.7451 25.26 65.8051 25.5 65.7851C26.6 65.6451 27.68 65.2651 28.74 64.9251C30.38 64.3851 32.02 63.7851 33.64 63.1651C35.4 62.5051 37.16 61.8251 38.92 61.1251C40.36 60.5451 41.82 59.9651 43.26 59.3851C43.94 59.1051 44.66 58.8651 45.3 58.5451L45.32 58.5251C45.36 58.5051 45.44 58.4651 45.4 58.4051C45.12 57.7651 44.8 57.1651 44.46 56.5451C43.68 55.1051 42.82 53.7251 41.86 52.3851C40.72 50.7851 39.38 49.3251 37.86 48.0651C36.32 46.8251 34.5 45.8451 32.54 45.5451C31.14 45.3251 29.76 45.4851 28.62 46.3851C27.58 47.2051 26.92 48.4451 26.44 49.6451C25.88 51.1451 25.46 52.6851 25.24 54.2651C24.98 55.8851 24.82 57.5251 24.74 59.1451C24.66 60.5051 24.64 61.8451 24.66 63.2051C24.66 63.9051 24.68 64.6251 24.72 65.3251V65.4251C24.72 65.7451 25.68 65.8851 25.66 65.6851Z" fill="#575757"/>
<path d="M49.12 61.5851C49.12 61.5851 61.58 62.6651 62.66 61.9851C63.74 61.3051 63.36 60.7451 63.36 60.7451C63.36 60.7451 65.46 60.6251 64 59.3451C64 59.3451 65.84 59.3651 64.64 58.2451C63.44 57.1251 62.6 56.9251 62.6 56.9251L63.72 56.3651C63.72 56.3651 62.48 55.3051 59.7 55.7251C56.92 56.1451 51.16 56.7251 51.16 56.7251C51.16 56.7251 48.8 60.6851 49.12 61.5851Z" fill="white"/>
<path d="M49.4999 61.8652C51.6999 62.0452 53.9199 62.2052 56.1399 62.3252C57.6799 62.4052 59.2399 62.4852 60.7799 62.4852C61.3199 62.4852 61.8399 62.4652 62.3799 62.4252C62.8399 62.4052 63.2799 62.2052 63.5799 61.8652C63.7199 61.7252 63.8199 61.5252 63.8399 61.3252C63.8199 61.2252 63.7999 61.1252 63.7799 61.0252C63.7799 60.9852 63.7399 61.0452 63.7599 61.0252C63.7799 61.0252 63.8199 61.0252 63.8399 61.0252C63.9599 61.0052 64.0799 60.9852 64.1999 60.9652C64.4399 60.9052 64.7799 60.8052 64.8999 60.5452C65.0599 60.1452 64.5799 59.7252 64.3199 59.5052L64.3999 59.6252C64.6599 59.6252 64.9199 59.5852 65.1599 59.5052C65.5999 59.3252 65.4999 58.9652 65.2399 58.6652C64.6399 58.0252 63.9599 57.4852 63.1799 57.0652C62.8799 56.8652 62.5599 56.7252 62.2199 56.6252L63.0199 57.2052L64.1399 56.6452C64.1599 56.6252 63.9599 56.4652 63.9599 56.4652C63.0199 55.6852 61.7999 55.3452 60.5799 55.3452C59.6999 55.3452 58.8399 55.5052 57.9599 55.6252C57.0799 55.7452 56.2599 55.8252 55.4199 55.9252C54.0199 56.0852 52.6199 56.2452 51.2199 56.3852C51.0599 56.4052 50.7999 56.3652 50.6999 56.4852C50.5999 56.6252 50.5199 56.7652 50.4599 56.9052C50.3199 57.1452 50.1999 57.3852 50.0599 57.6252C49.6999 58.3052 49.3599 59.0052 49.0599 59.7252C48.8799 60.1652 48.5599 60.8252 48.6999 61.3252C48.7399 61.4852 49.0599 61.6252 49.1799 61.7052C49.2199 61.7252 49.5399 61.9052 49.5199 61.8452C49.3999 61.4452 49.6599 60.8652 49.7999 60.5052C50.0399 59.8852 50.3199 59.2852 50.6199 58.7052C50.8599 58.2252 51.1199 57.7652 51.3799 57.2852C51.4199 57.1852 51.4799 57.0852 51.5399 57.0052C51.4999 57.0252 51.5599 56.9852 51.5399 57.0052C51.5799 57.0052 51.6199 56.9852 51.6599 56.9852C54.3799 56.7052 57.1199 56.4252 59.8399 56.0252C60.8399 55.8852 61.8399 55.8252 62.8199 56.0852C63.0799 56.1652 63.3599 56.2452 63.5999 56.3652C63.6999 56.4252 63.5599 56.3452 63.6599 56.3852C63.7599 56.4252 63.5599 56.3252 63.6399 56.3652C63.7199 56.4052 63.5199 56.2852 63.5799 56.3252C63.5999 56.3452 63.4399 56.2252 63.4599 56.2252L63.2799 56.0452L62.1599 56.6052C62.1199 56.6252 62.4799 56.9052 62.4799 56.9052C62.6199 57.0252 62.7799 57.1252 62.9599 57.1852C63.1599 57.2452 63.3399 57.3252 63.4999 57.4252C63.6999 57.5452 63.8999 57.7052 64.0799 57.8652C64.2999 58.0252 64.4799 58.2252 64.5799 58.4652C64.7599 58.9652 63.8999 59.0452 63.5799 59.0452C63.4999 59.0452 63.6399 59.1652 63.6599 59.1652C64.0199 59.4852 64.2799 59.9652 63.7599 60.2452C63.4999 60.3652 63.2199 60.4452 62.9399 60.4452C62.9199 60.4452 62.8999 60.4452 62.9199 60.4652C63.2199 60.9452 62.5399 61.5252 62.1799 61.7052C61.9399 61.8052 61.6599 61.8452 61.3999 61.8452C60.3599 61.9052 59.2999 61.9252 58.2599 61.8652C55.6799 61.7852 53.0999 61.6052 50.5199 61.4052C49.8999 61.3652 49.2999 61.3052 48.6799 61.2652C48.5999 61.2652 48.8999 61.5052 48.9199 61.5252C49.0999 61.6652 49.3199 61.8652 49.4999 61.8652Z" fill="#575757"/>
<path d="M60.0399 60.3051L62.7599 60.9851L63.1399 61.0851C63.3799 61.1451 63.6399 61.0651 63.7999 60.8651C63.9199 60.6651 63.7599 60.4851 63.5599 60.4451L60.8399 59.7651L60.4599 59.6651C60.2199 59.6051 59.9599 59.6851 59.7999 59.8851C59.6799 60.0651 59.8399 60.2451 60.0399 60.3051Z" fill="#575757"/>
<path d="M61 58.6452C61.04 58.6452 61.06 58.6452 61.1 58.6652C61.08 58.6652 60.98 58.6452 61.06 58.6652L61.14 58.6851C61.24 58.7051 61.34 58.7452 61.44 58.7652C61.7 58.8452 61.94 58.9252 62.2 59.0252L62.6 59.1851C62.66 59.2051 62.72 59.2251 62.62 59.1851C62.66 59.1851 62.68 59.2052 62.72 59.2252L62.92 59.3051C63.14 59.3851 63.34 59.4652 63.56 59.5652L63.86 59.6851C64.06 59.7651 64.36 59.8051 64.46 59.5851C64.56 59.3651 64.36 59.1252 64.18 59.0452C63.32 58.6852 62.46 58.3452 61.58 58.0652C61.34 57.9852 61.1 57.9251 60.84 57.9051C60.62 57.8851 60.42 58.0252 60.46 58.2652C60.52 58.4652 60.74 58.6452 61 58.6452Z" fill="#575757"/>
<path d="M61.04 56.8251H61.06C61.18 56.8451 60.96 56.8051 61.04 56.8251C61.12 56.8451 61.24 56.8451 61.34 56.8651C61.48 56.8851 61.62 56.9251 61.76 56.9451L61.86 56.9651H61.9L62.18 57.0451L62.44 57.1251L62.52 57.1451L62.64 57.1851C62.74 57.2251 62.84 57.2651 62.94 57.2851L63.02 57.3251C62.98 57.3051 62.98 57.3051 63.02 57.3251L63.16 57.3851C63.48 57.5251 63.78 57.7451 64.04 57.9851C64.22 58.1251 64.44 58.2251 64.68 58.2251C64.78 58.2251 65.06 58.2251 64.9 58.0651C64.24 57.3651 63.24 57.0051 62.34 56.7451C61.78 56.5851 61.2 56.4651 60.62 56.4051C60.52 56.3851 60.26 56.4051 60.38 56.5651C60.5 56.7251 60.86 56.8051 61.04 56.8251Z" fill="#575757"/>
<path d="M54.88 56.2251C54.88 56.2251 52.8 58.4651 52.9 61.6051C52.9 61.6051 53.54 62.0451 53.98 61.8851C54.42 61.7251 54.68 57.5051 57.18 56.0451C57.18 56.0451 55.9 55.8851 54.88 56.2251Z" fill="#575757"/>
<path d="M54.48 56.1651C54.04 56.6451 53.68 57.2051 53.38 57.7851C53.08 58.3451 52.86 58.9251 52.68 59.5051C52.58 59.8451 52.5 60.2051 52.46 60.5651C52.44 60.7451 52.42 60.9251 52.42 61.1051C52.4 61.3051 52.4 61.5051 52.42 61.7051C52.46 61.8651 52.76 61.9851 52.9 62.0451C53.22 62.1851 53.58 62.2251 53.92 62.1451C54.26 62.0851 54.54 61.8251 54.64 61.4851C54.94 60.6851 55.08 59.8651 55.38 59.0651C55.8 57.9451 56.42 56.8051 57.48 56.1851C57.68 56.0651 57.74 55.8251 57.46 55.7851C56.56 55.6651 55.66 55.7251 54.8 56.0051C54.66 56.0451 54.34 56.2051 54.4 56.4051C54.46 56.6051 54.82 56.5251 54.96 56.4851C55.58 56.3051 56.24 56.2451 56.9 56.3451L56.88 55.9451C55.76 56.6051 55.06 57.7451 54.58 58.9251C54.22 59.8251 54.02 60.7651 53.7 61.6651C53.68 61.7051 53.66 61.7651 53.64 61.8051C53.64 61.8251 53.6 61.8451 53.6 61.8651C53.6 61.7851 53.82 61.7051 53.88 61.6851C54.06 61.6251 53.9 61.6651 53.82 61.6251C53.74 61.6051 53.66 61.5651 53.58 61.5251C53.52 61.5051 53.46 61.4651 53.4 61.4251C53.38 61.4051 53.36 61.4051 53.34 61.3851C53.34 61.3851 53.38 61.4251 53.36 61.3851L53.4 61.5051C53.38 60.1851 53.7 58.8651 54.32 57.7051C54.52 57.3251 54.76 56.9651 55 56.6051C55.04 56.5451 55.08 56.4851 55.14 56.4251L55.18 56.3651C55.24 56.2851 55.16 56.3851 55.18 56.3451C55.2 56.3051 55.24 56.2851 55.26 56.2451C55.4 56.1051 55.36 55.9451 55.16 55.9051C54.92 55.9051 54.66 55.9851 54.48 56.1651Z" fill="#575757"/>
<path d="M55.1175 60.3779C56.1002 60.0427 56.657 59.0676 56.361 58.1998C56.0651 57.3321 55.0285 56.9003 54.0458 57.2355C53.063 57.5706 52.5063 58.5458 52.8022 59.4135C53.0981 60.2813 54.1347 60.713 55.1175 60.3779Z" fill="#C8303F"/>
<path d="M55.88 58.2051C56.06 58.8251 55.84 59.4851 55.34 59.8851C55.1 60.1051 54.8 60.2251 54.48 60.2851C54.42 60.2851 54.38 60.2851 54.32 60.2851C54.3 60.2851 54.2 60.2851 54.28 60.2851H54.2C54.3 60.3051 54.16 60.2651 54.14 60.2651C54.2 60.2851 54.12 60.2651 54.12 60.2651C54.06 60.2451 53.98 60.2051 53.92 60.1651C53.38 59.8451 53.12 59.2051 53.28 58.6051C53.44 57.9651 53.96 57.4851 54.6 57.3251C54.66 57.3051 54.76 57.3051 54.8 57.3051H54.9C55.04 57.3051 54.82 57.2851 54.96 57.3051C55.1 57.3251 54.86 57.2851 55.02 57.3051C55.12 57.3251 55 57.2851 55.08 57.3251C55.16 57.3451 55.22 57.3851 55.28 57.4251C55.56 57.6051 55.78 57.8851 55.88 58.2051C55.98 58.4651 56.94 58.4851 56.86 58.2051C56.54 57.3051 55.52 56.9251 54.64 56.9051C53.76 56.8851 52.82 57.3051 52.42 58.1251C52.06 58.8651 52.28 59.7451 52.96 60.2051C53.8 60.7651 54.88 60.8451 55.8 60.4251C56.64 60.0251 57.16 59.1051 56.86 58.1851C56.76 57.9451 55.78 57.9251 55.88 58.2051Z" fill="#C8303F"/>
<path d="M33.6 50.6051C33.6 50.6051 39.38 54.9651 41.98 55.5251C44.58 56.0851 52.58 55.7251 52.58 55.7251C52.58 55.7251 51.26 61.6451 49.92 62.1651C48.58 62.6851 38.08 63.4251 36.2 63.1051C34.32 62.7851 26.9 57.4651 26.9 57.4651" fill="white"/>
<path d="M33.5 50.7451C34.28 51.3251 35.06 51.8851 35.88 52.4251C37.34 53.4451 38.86 54.3651 40.46 55.1651C41.08 55.4851 41.74 55.7251 42.42 55.8651C43.08 55.9851 43.74 56.0451 44.42 56.0851C46.14 56.1851 47.86 56.1651 49.6 56.1451C50.7 56.1251 51.78 56.1051 52.88 56.0451L52.16 55.4851C52 56.2251 51.8 56.9651 51.58 57.7051C51.24 58.8851 50.86 60.1251 50.2 61.1851C50.02 61.4851 49.8 61.7851 49.44 61.9051C49.14 62.0051 48.82 62.0651 48.5 62.1051C47.38 62.2851 46.22 62.3851 45.08 62.4851C42.48 62.7051 39.86 62.9051 37.26 62.8651C36.88 62.8651 36.5 62.8651 36.12 62.8051C36.06 62.8051 36 62.7851 35.94 62.7851C35.84 62.7651 35.94 62.7851 35.9 62.7851L35.78 62.7451C35.7 62.7251 35.62 62.6851 35.54 62.6651C35.46 62.6451 35.54 62.6651 35.56 62.6651L35.48 62.6451L35.3 62.5651C34.84 62.3651 34.4 62.1451 33.98 61.8851C33.42 61.5651 32.88 61.2451 32.34 60.9051C31.22 60.2051 30.2 59.5251 29.08 58.7651C28.42 58.3251 27.78 57.8651 27.12 57.4051L27.02 57.3251C26.94 57.2651 26.62 57.0451 26.52 57.1651C26.42 57.2851 26.76 57.5451 26.82 57.5851C28.36 58.6851 29.92 59.7451 31.52 60.7651C32.62 61.4651 33.74 62.1651 34.9 62.7651C35.3 62.9851 35.74 63.1651 36.18 63.3051C36.5 63.3851 36.82 63.4451 37.14 63.4451C38.24 63.5051 39.32 63.4651 40.42 63.4251C41.84 63.3651 43.28 63.2851 44.7 63.1651C45.98 63.0651 47.24 62.9651 48.52 62.7851C48.94 62.7251 49.38 62.6651 49.8 62.5851C50.08 62.5451 50.36 62.4251 50.58 62.2651C50.94 61.9051 51.2 61.4851 51.38 61.0051C51.66 60.4051 51.88 59.7851 52.08 59.1651C52.4 58.1651 52.68 57.1451 52.92 56.1251L52.96 55.9451C52.98 55.8251 52.76 55.6451 52.7 55.6051C52.58 55.4851 52.42 55.4051 52.24 55.3851C49.68 55.5051 47.1 55.5451 44.54 55.4651C43.8 55.4451 43.08 55.4051 42.34 55.3051C41.78 55.2451 41.22 55.0851 40.7 54.8651C39.2 54.2251 37.76 53.3051 36.44 52.4051C35.5 51.7651 34.56 51.1251 33.66 50.4451C33.58 50.3851 33.24 50.1651 33.16 50.2851C33.08 50.4051 33.42 50.7051 33.5 50.7451Z" fill="#575757"/>
<path d="M32.96 48.3451C32.96 48.3451 30.66 50.8051 27.2 51.3451C23.74 51.8851 20.58 49.3851 17.04 49.9651C13.5 50.5451 11.4 52.0451 11.4 52.0451C11.4 52.0451 9.89997 55.3451 10.24 55.6251C10.58 55.9051 13.38 56.4651 13.74 56.3451C14.1 56.2251 14.96 54.3451 18.36 53.8251C21.76 53.3051 26.72 54.0851 30.02 52.7851C33.32 51.4851 34.22 48.2851 34.22 48.2851L34.6 46.7451L32.56 46.1851L31.56 47.9451L32.96 48.3451Z" fill="#C8303F"/>
<path d="M29.9 33.2251C29.9 33.2251 31.94 34.5251 33.58 33.9851C35.22 33.4451 38.24 31.9251 39.08 33.4651C39.92 35.0051 37.88 36.2251 36.4 36.3851C36.4 36.3851 38.04 40.6051 35.84 42.5451C33.64 44.4851 32.5 44.5851 32.84 46.3851C32.84 46.3851 29.08 46.8051 29 46.6451C28.74 46.1651 25.66 40.1051 28.98 36.8851C28.96 36.8851 30.9 35.2051 29.9 33.2251Z" fill="white"/>
<path d="M29.4799 33.3651C30.0999 33.7451 30.7799 34.0251 31.4799 34.2051C32.0799 34.3651 32.6999 34.3851 33.3199 34.3051C33.7999 34.2051 34.2599 34.0651 34.6999 33.8651C35.5999 33.5251 36.5999 33.1051 37.5399 33.0451C37.6799 33.0251 37.8399 33.0451 37.9799 33.0651C38.1399 33.1051 38.2999 33.1851 38.4199 33.3051C38.6999 33.6051 38.8199 34.0251 38.7399 34.4451C38.6399 34.9451 38.2199 35.3451 37.7999 35.6051C37.3599 35.8851 36.8799 36.0651 36.3599 36.1251C36.1999 36.1451 35.7999 36.2051 35.8999 36.4651L35.9199 36.5451C35.9199 36.5651 35.9399 36.5651 35.9399 36.5851C35.9599 36.6251 35.9799 36.6851 35.9799 36.7251C36.0599 36.9851 36.1399 37.2451 36.1999 37.4851C36.3999 38.2651 36.4799 39.0451 36.4599 39.8451C36.4199 40.6851 36.1799 41.5651 35.5999 42.2051C34.8799 42.9851 33.9199 43.5251 33.1199 44.2051C32.8199 44.4451 32.5599 44.7451 32.3999 45.1051C32.2599 45.5251 32.2399 45.9651 32.3199 46.3851L32.7999 46.1251C31.8199 46.2251 30.8599 46.3251 29.8799 46.3851C29.7599 46.3851 29.6199 46.4051 29.4999 46.4051H29.3399C29.1799 46.4051 29.4199 46.4051 29.2999 46.4051C29.2599 46.4051 29.2399 46.4051 29.1999 46.4051C29.1399 46.4051 29.3199 46.4251 29.2399 46.4051C29.3999 46.4451 29.4599 46.6051 29.3999 46.4251C29.2599 46.0851 29.0799 45.7451 28.9199 45.3851C27.8599 42.8251 27.1199 39.1651 29.3399 36.9851C30.3999 35.9451 31.0599 34.5251 30.3599 33.0851C30.2199 32.8051 29.2399 32.9451 29.3999 33.2851C29.9999 34.5451 29.4399 35.8651 28.4999 36.7651C27.2799 37.9251 26.8399 39.5851 26.9199 41.2251C27.0199 42.6851 27.3399 44.1251 27.9199 45.4651C28.0799 45.8451 28.2399 46.2251 28.4199 46.5851C28.5999 46.9451 29.0999 46.8851 29.4399 46.8851C30.5599 46.8451 31.6799 46.7251 32.8199 46.6051C32.9399 46.5851 33.3399 46.5251 33.2999 46.3251C33.1999 45.9651 33.2199 45.5651 33.3199 45.2051C33.4399 44.9051 33.6599 44.6451 33.8999 44.4451C34.7199 43.7251 35.6999 43.1851 36.4399 42.3851C37.6199 41.1051 37.5599 39.1851 37.2199 37.5851C37.1199 37.1251 36.9799 36.6851 36.8199 36.2451L36.3599 36.5851C37.4399 36.4651 38.6399 36.0251 39.3199 35.1651C39.6399 34.8051 39.7799 34.3051 39.6799 33.8251C39.5799 33.3651 39.2799 32.9651 38.8399 32.7451C37.8799 32.2851 36.6399 32.6251 35.6599 32.9251C35.1199 33.0851 34.5999 33.2851 34.0799 33.4851C33.6399 33.6451 33.1999 33.8451 32.7399 33.8651C32.1599 33.8451 31.5799 33.7051 31.0399 33.4651C30.7599 33.3451 30.4999 33.2251 30.2599 33.0651C30.0399 32.9451 29.7999 32.9451 29.5799 33.0251C29.4999 33.0651 29.2799 33.2451 29.4799 33.3651Z" fill="#575757"/>
<path d="M26.44 43.6051C26.44 43.6051 24.68 45.2851 23.72 44.3651C22.76 43.4451 24.24 42.9651 24.24 42.9651C24.24 42.9651 21.44 41.5251 23.32 39.9451C23.32 39.9451 20.62 39.1851 21.1 36.8051C21.58 34.4251 24.9 33.9451 24.9 33.9451C24.9 33.9451 23.46 31.5051 25.76 30.6251C28.06 29.7451 28.38 31.5451 28.38 31.5451C28.38 31.5451 29.86 30.9651 30.36 31.8051C30.86 32.6451 30.02 33.5451 30.02 33.5451C30.02 33.5451 30.98 36.2051 28.92 36.8851L28.82 40.9651C29.58 41.4851 30.04 42.3451 30.02 43.2651C30 44.8051 27.22 45.2451 26.44 43.6051Z" fill="#575757"/>
<path d="M26.04 43.3251C25.84 43.5251 25.62 43.6851 25.38 43.8451C25.02 44.0851 24.56 44.3651 24.12 44.3451C24.08 44.3451 24.04 44.3451 24.02 44.3251C24.06 44.3451 24.06 44.3451 24 44.3251C24.02 44.3251 24.04 44.3451 24.06 44.3451C24.1 44.3851 24.02 44.3051 24.02 44.2851C23.98 44.2451 23.94 44.1851 23.9 44.1251C23.82 43.9651 23.86 43.7651 23.98 43.6451C24.16 43.4451 24.4 43.3051 24.64 43.2451C24.88 43.1651 24.38 42.8051 24.34 42.7851L24.24 42.7251C24.2 42.7051 24.08 42.6251 24.22 42.7051C24.18 42.6651 24.12 42.6451 24.08 42.6051C23.86 42.4651 23.66 42.3051 23.48 42.0851C23.28 41.8651 23.16 41.5851 23.12 41.2851C23.1 40.8451 23.4 40.4851 23.72 40.2051C23.98 39.9851 23.34 39.6851 23.18 39.6451C23.08 39.6251 23.22 39.6651 23.2 39.6451C23.14 39.6251 23.06 39.5851 22.98 39.5651L22.84 39.5051C22.72 39.4451 22.9 39.5451 22.78 39.4851L22.6 39.3851L22.52 39.3451C22.44 39.3051 22.6 39.4051 22.48 39.3251C22.24 39.1851 22.04 39.0051 21.88 38.7851C21.66 38.5051 21.52 38.1851 21.48 37.8451C21.24 36.1851 22.64 35.0451 24.04 34.5251C24.42 34.3851 24.8 34.2851 25.2 34.2051C25.26 34.2051 25.32 34.1651 25.34 34.0851C25.34 34.0451 25.34 34.0251 25.32 34.0051C24.98 33.4051 24.76 32.6051 24.98 31.9251C25.2 31.2451 25.84 30.9051 26.5 30.7451C26.8 30.6451 27.12 30.6251 27.42 30.6651C27.44 30.6651 27.6 30.7051 27.52 30.6851C27.54 30.6851 27.58 30.7051 27.6 30.7251C27.58 30.7251 27.5 30.6851 27.58 30.7251C27.66 30.7651 27.58 30.7251 27.56 30.7251C27.58 30.7451 27.6 30.7451 27.62 30.7651C27.52 30.6851 27.66 30.8051 27.68 30.8251C27.62 30.7651 27.72 30.8651 27.72 30.8851C27.72 30.9051 27.74 30.9251 27.76 30.9251C27.8 30.9851 27.74 30.9051 27.76 30.9451C27.8 31.0051 27.84 31.0851 27.86 31.1651L27.9 31.2651C27.92 31.3251 27.9 31.2851 27.9 31.2851C27.9 31.2851 27.92 31.3251 27.92 31.3451C27.96 31.6451 28.5 31.9051 28.76 31.8051C28.92 31.7451 29.08 31.7051 29.24 31.6851C29.38 31.6651 29.54 31.6451 29.68 31.6451C29.76 31.6451 29.82 31.6651 29.88 31.6651C29.94 31.6651 29.88 31.6851 29.84 31.6251C29.86 31.6851 29.92 31.7251 29.96 31.7851C30.02 31.8851 30.04 32.0051 30.04 32.1051C30.06 32.3051 30.02 32.5051 29.94 32.6851C29.84 32.9051 29.72 33.1251 29.56 33.3051C29.54 33.3451 29.54 33.3851 29.56 33.4251C29.6 33.5451 29.64 33.6651 29.66 33.8051C29.74 34.1251 29.76 34.4451 29.76 34.7651C29.74 35.6251 29.32 36.3251 28.48 36.6051C28.44 36.6251 28.42 36.6651 28.42 36.7051L28.34 40.5251C28.34 40.6051 28.34 40.6651 28.34 40.7451C28.34 40.7851 28.36 40.8251 28.38 40.8651C28.44 40.9651 28.52 41.0251 28.62 41.0851C28.8 41.2051 28.54 41.0251 28.58 41.0651C28.62 41.1051 28.64 41.1051 28.66 41.1251C28.68 41.1451 28.74 41.1851 28.68 41.1451C28.62 41.1051 28.72 41.1651 28.72 41.1851C28.86 41.3051 28.98 41.4451 29.08 41.5851C29.62 42.3051 29.78 43.4851 28.92 44.0251C28.54 44.2651 28.08 44.3651 27.62 44.3051C27.52 44.2851 27.44 44.2651 27.34 44.2451C27.3 44.2251 27.26 44.2051 27.22 44.1851C27.32 44.2251 27.1 44.1051 27.2 44.1651C27.14 44.1251 27.08 44.0851 27.02 44.0251C26.94 43.9251 26.86 43.8251 26.8 43.7051C26.68 43.5051 26.48 43.3651 26.24 43.3051C26.12 43.2851 25.84 43.2651 25.94 43.4851C26.54 44.6851 28.1 45.2051 29.32 44.7851C29.82 44.6251 30.22 44.2451 30.38 43.7651C30.56 43.0851 30.3 42.3251 29.94 41.7651C29.66 41.3651 29.3 41.0251 28.88 40.7651L29.22 41.1251L29.32 37.0451L29.26 37.1451C30.16 36.8451 30.62 36.0651 30.64 35.1451C30.66 34.6251 30.56 34.1251 30.4 33.6451V33.7651C30.64 33.5051 30.8 33.2051 30.88 32.8651C31 32.2851 30.76 31.7051 30.26 31.3851C29.56 30.9051 28.68 30.9451 27.92 31.2451L28.76 31.7051C28.58 30.7251 27.52 30.0651 26.58 30.0651C25.76 30.0651 24.8 30.3651 24.28 31.0451C23.94 31.5251 23.84 32.1451 23.98 32.7251C24.06 33.1251 24.18 33.4851 24.38 33.8451L24.48 33.6451C23.34 33.8051 22.14 34.3051 21.34 35.1451C20.7 35.7851 20.42 36.6851 20.54 37.5851C20.68 38.4051 21.22 39.0451 21.88 39.5251C22.34 39.8451 22.84 40.0851 23.36 40.2451L22.82 39.6851C22.46 40.0051 22.12 40.4051 22.12 40.9051C22.14 41.3051 22.3 41.7051 22.58 42.0051C22.98 42.4851 23.48 42.8851 24.04 43.1651L23.74 42.6851C23.5 42.7651 23.3 42.8851 23.1 43.0451C22.74 43.3851 22.8 43.8051 23.08 44.1651C23.46 44.6651 24.06 44.9451 24.68 44.9251C25.14 44.8851 25.58 44.7051 25.98 44.4451C26.24 44.2851 26.5 44.0851 26.72 43.8651C27.1 43.6451 26.26 43.1451 26.04 43.3251Z" fill="#575757"/>
<path d="M32.96 34.9451C33.16 34.9251 33.34 35.0451 33.36 35.2451C33.36 35.2651 33.36 35.2851 33.36 35.2851C33.36 35.6851 32.88 35.6851 32.76 35.3451C32.68 35.2051 32.76 35.0251 32.9 34.9451C32.92 34.9451 32.94 34.9451 32.96 34.9451Z" fill="#575757"/>
<path d="M33.9799 38.4051C34.1999 38.6851 34.4599 38.9051 34.7799 39.0851C35.0399 39.2251 35.3399 39.3251 35.6199 39.3251C36.0399 39.3251 36.4399 39.2051 36.7999 38.9851C36.8799 38.9451 36.9599 38.8851 37.0399 38.8251C37.0599 38.8051 37.1599 38.7251 37.1599 38.7051C37.1599 38.6251 36.9199 38.7651 36.8999 38.7651C36.6399 38.8851 36.3599 38.9451 36.0599 38.9051C35.7799 38.8651 35.5199 38.7651 35.2799 38.6251C35.0199 38.4651 34.7999 38.2651 34.5999 38.0251C34.5599 37.9051 33.9399 38.3251 33.9799 38.4051Z" fill="#575757"/>
<path d="M25.86 44.1651C25.86 44.1651 26.76 34.0051 30.86 32.4451C30.86 32.4451 31.92 32.8851 31.8 33.6251C31.68 34.3651 27.32 44.5251 26.7 44.5651C26.36 44.6251 26.02 44.4651 25.86 44.1651Z" fill="#C8303F"/>
<path d="M30.26 37.9851C30.26 37.9851 28.74 36.2651 27.64 37.2451C26.54 38.2251 27.88 41.7051 30.04 40.3651" fill="white"/>
<path d="M30.72 37.8051C30.38 37.4251 29.98 37.1251 29.54 36.8851C29.14 36.6651 28.66 36.5851 28.2 36.6651C27.76 36.7251 27.36 36.9651 27.08 37.3051C26.72 37.7651 26.72 38.4451 26.84 38.9851C26.98 39.6251 27.32 40.1851 27.82 40.5851C28.58 41.1451 29.58 41.0051 30.34 40.5451C30.5 40.4451 30.62 40.2451 30.44 40.1251C30.22 40.0251 29.96 40.0451 29.76 40.1651C29.72 40.1851 29.68 40.2051 29.64 40.2251L29.6 40.2451C29.62 40.2451 29.7 40.2051 29.62 40.2451C29.58 40.2651 29.42 40.2851 29.4 40.3251C29.4 40.3051 29.52 40.3051 29.44 40.3051H29.4C29.36 40.3251 29.34 40.3251 29.3 40.3251C29.28 40.3251 29.22 40.3451 29.2 40.3251C29.18 40.3051 29.32 40.3451 29.24 40.3251H29.2C29.16 40.3251 29.14 40.3051 29.1 40.3051C29.02 40.3051 29.18 40.3251 29.08 40.3051L28.98 40.2851L28.9 40.2651C28.82 40.2251 28.94 40.2851 28.88 40.2651C28.82 40.2251 28.76 40.2051 28.7 40.1651C28.66 40.1251 28.6 40.1051 28.56 40.0651C28.52 40.0251 28.58 40.0851 28.54 40.0451L28.46 39.9651C28.38 39.8651 28.28 39.7651 28.22 39.6651C28.18 39.6051 28.14 39.5451 28.12 39.4851C28.1 39.4651 28.1 39.4451 28.08 39.4051C28.06 39.3651 28.06 39.3651 28.06 39.3451C28.06 39.3251 28.08 39.3851 28.06 39.3451C28 39.2251 27.96 39.0851 27.92 38.9451C27.84 38.6851 27.8 38.4251 27.8 38.1651C27.8 38.2251 27.8 38.1451 27.8 38.1251C27.8 38.1051 27.8 38.0651 27.8 38.0451C27.8 37.9851 27.82 37.9051 27.82 37.8451C27.82 37.7851 27.84 37.7251 27.86 37.6851L27.88 37.6251C27.88 37.6051 27.88 37.6051 27.9 37.5851C27.9 37.6051 27.88 37.6451 27.9 37.6051C27.92 37.5651 27.94 37.5051 27.98 37.4651L28.02 37.4051C28.08 37.3251 27.98 37.4251 28.02 37.3851C28.06 37.3451 28.06 37.3451 28.08 37.3251C28.1 37.3051 28.1 37.3051 28.12 37.2851C28.06 37.3251 28.1 37.3051 28.12 37.2851C28.14 37.2651 28.24 37.2051 28.18 37.2451C28.12 37.2851 28.24 37.2051 28.26 37.2251C28.28 37.2451 28.14 37.2451 28.22 37.2451L28.26 37.2251C28.38 37.2051 28.18 37.2251 28.28 37.2251H28.32C28.38 37.2051 28.24 37.2051 28.3 37.2251L28.42 37.2451H28.46H28.44C28.48 37.2451 28.52 37.2651 28.56 37.2651L28.66 37.3051L28.7 37.3251L28.74 37.3451C28.7 37.3251 28.74 37.3451 28.76 37.3451L28.84 37.3851L28.96 37.4451C29.04 37.4851 29.1 37.5251 29.16 37.5651C29.28 37.6451 29.42 37.7451 29.54 37.8451L29.56 37.8651L29.62 37.9251C29.66 37.9651 29.7 37.9851 29.72 38.0251C29.74 38.0651 29.78 38.0851 29.8 38.1251C29.96 38.3051 30.24 38.2651 30.44 38.1851C30.58 38.1651 30.86 37.9851 30.72 37.8051Z" fill="#575757"/>
<path d="M54.28 38.8251C54.9 40.6051 55.52 42.4051 56.1 44.2051C56.18 44.4451 56.42 44.6251 56.68 44.6251C56.86 44.6251 57.02 44.4651 57.02 44.2851C57.02 44.2451 57.02 44.2051 57 44.1851C56.4 42.3851 55.8 40.5851 55.18 38.8051C55.1 38.5651 54.86 38.3851 54.62 38.3851C54.44 38.3851 54.28 38.5251 54.28 38.7251C54.26 38.7451 54.26 38.7851 54.28 38.8251Z" fill="#575757"/>
<path d="M55.92 39.0451C55.94 39.1051 55.94 39.1651 55.98 39.2251C56.02 39.3051 56.06 39.3851 56.1 39.4451L56.16 39.4851C56.2 39.5051 56.24 39.5251 56.3 39.5251C56.34 39.5451 56.38 39.5451 56.42 39.5451C56.48 39.5451 56.56 39.5451 56.62 39.5251C56.7 39.5051 56.78 39.4851 56.86 39.4451C56.9 39.4251 56.96 39.3851 56.98 39.3651C57.02 39.3451 57.04 39.3051 57.06 39.2651C57.08 39.2251 57.08 39.1851 57.08 39.1451C57.08 39.1251 57.08 39.1051 57.08 39.0851C57.08 39.0651 57.06 39.0451 57.06 39.0251C57.04 38.9851 57.02 38.9451 57 38.9051C56.98 38.8851 56.98 38.8651 56.96 38.8651C56.92 38.8251 56.88 38.8051 56.84 38.7851C56.8 38.7651 56.74 38.7451 56.7 38.7251C56.6 38.7051 56.52 38.6851 56.42 38.6851C56.36 38.6851 56.28 38.7051 56.22 38.7051C56.16 38.7251 56.1 38.7451 56.04 38.7651C56 38.7851 55.94 38.8251 55.92 38.8451C55.88 38.8651 55.86 38.9051 55.84 38.9451V39.0251C55.86 39.0651 55.88 39.1251 55.92 39.1451L56 39.1851C56.08 39.2051 56.16 39.2251 56.22 39.2051H56.24H56.12H56.16L56.06 39.1851L56.1 39.2051L56.02 39.1651C56.04 39.1851 56.06 39.1851 56.08 39.2051L56.02 39.1451C56.06 39.1651 56.08 39.2051 56.1 39.2451L56.08 39.1851C56.1 39.2251 56.1 39.2651 56.1 39.3051V39.2251C56.1 39.2451 56.1 39.2651 56.08 39.2851L57.04 39.1251C57 39.0851 56.98 39.0251 56.94 38.9851L56.96 39.0451C56.94 38.9851 56.92 38.9051 56.9 38.8451C56.9 38.8051 56.88 38.7851 56.84 38.7651C56.8 38.7251 56.76 38.7051 56.72 38.7051C56.66 38.6851 56.62 38.6851 56.56 38.6851C56.5 38.6851 56.42 38.6851 56.36 38.7051L56.24 38.7451C56.16 38.7651 56.1 38.8051 56.04 38.8451C55.98 38.8851 55.92 38.9451 55.92 39.0451Z" fill="#575757"/>
<path d="M47.32 61.6251C48.08 59.9051 48.64 58.0851 49 56.2251C49.04 56.0051 48.66 56.0451 48.54 56.0651C48.32 56.1051 48.14 56.2651 48.06 56.4851C47.7 58.2851 47.16 60.0451 46.42 61.7051C46.32 61.9051 46.58 61.9851 46.74 61.9651C47 61.9851 47.2 61.8451 47.32 61.6251Z" fill="#575757"/>
<path d="M49.5399 57.3051C49.5599 57.3251 49.6199 57.3451 49.6399 57.3651C49.6799 57.3851 49.7199 57.4051 49.7799 57.4251C49.9199 57.4651 50.0799 57.4651 50.2199 57.4251H50.2399C50.2799 57.4051 50.3199 57.4051 50.3399 57.3851H50.3599C50.3999 57.3651 50.4199 57.3451 50.4599 57.3051L50.4799 57.2651L50.5199 57.2251V57.2051C50.5399 57.1651 50.5399 57.1451 50.5399 57.1051C50.5399 57.0651 50.5399 57.0451 50.5199 57.0051C50.4999 56.9651 50.4999 56.9451 50.4799 56.9051C50.4599 56.8651 50.4199 56.8451 50.3999 56.8051L50.3799 56.7851C50.3399 56.7651 50.3199 56.7451 50.2799 56.7251H50.2599C50.2199 56.7051 50.1799 56.6851 50.1399 56.6851H50.1199C50.0199 56.6651 49.9399 56.6451 49.8399 56.6651C49.7999 56.6651 49.7399 56.6851 49.6999 56.6851C49.6599 56.7051 49.6199 56.7051 49.5799 56.7251H49.5599C49.5199 56.7451 49.4799 56.7851 49.4399 56.8251C49.3999 56.8651 49.3799 56.9051 49.3799 56.9451C49.3799 56.9851 49.3799 57.0451 49.3999 57.0851C49.4199 57.1251 49.4599 57.1651 49.4999 57.2051L49.5999 57.2651C49.6799 57.3051 49.7599 57.3251 49.8399 57.3451H49.9799C50.0599 57.3451 50.1399 57.3251 50.1999 57.2851H50.2199L50.1199 57.3251H50.1399L50.0199 57.3451H49.9199L49.7799 57.3251H49.7999L49.6799 57.2851H49.6999L49.5999 57.2251L49.6199 57.2451L49.5999 57.1251L49.6199 57.1451L49.5799 57.0651V57.0851L49.5599 56.9851C49.5599 56.9851 49.5599 56.9851 49.5599 57.0051L49.5999 56.9251C49.5999 56.9251 49.5999 56.9451 49.5799 56.9451L49.6399 56.8651L49.6199 56.8851L49.6999 56.8251L49.6799 56.8451L49.7799 56.8051H49.7599L49.8799 56.7851H49.9799L50.0999 56.8051H50.0799L50.1999 56.8451H50.1799L50.2799 56.9051C50.2399 56.8651 50.1799 56.8451 50.1199 56.8251C50.0599 56.8051 49.9999 56.7851 49.9399 56.7851C49.8799 56.7851 49.7999 56.7851 49.7399 56.7851C49.6799 56.7851 49.6199 56.8051 49.5799 56.8451L49.4999 56.9051C49.4599 56.9451 49.4199 57.0051 49.4199 57.0651L49.4399 57.1651C49.4599 57.2251 49.4999 57.2651 49.5399 57.3051Z" fill="#575757"/>
<path d="M10.66 78.0051C13.04 76.5651 15.38 75.0651 17.7 73.5451C18.48 73.0451 19.26 72.5251 20.02 71.9851C20.18 71.8851 19.76 71.7451 19.7 71.7251C19.52 71.6851 19.24 71.6251 19.08 71.7251C16.36 73.5851 13.58 75.3451 10.78 77.0851C10.42 77.3051 10.08 77.5251 9.71997 77.7451C9.55997 77.8451 9.97997 78.0051 10.02 78.0051C10.24 78.0851 10.46 78.0851 10.66 78.0051Z" fill="#C0C0C0"/>
<path d="M13.2999 69.6451L19.2399 65.6851C19.3999 65.5651 19.1199 65.5651 19.0399 65.5651C18.7999 65.5451 18.5799 65.5851 18.3599 65.6851L12.4199 69.6451C12.2599 69.7651 12.5399 69.7651 12.6199 69.7651C12.8599 69.7851 13.0799 69.7451 13.2999 69.6451Z" fill="#C0C0C0"/>
<path d="M7.89997 89.2451C9.33997 87.9251 10.88 86.7451 12.54 85.6851C12.7 85.5851 12.66 85.4451 12.48 85.4051C12.24 85.3651 12 85.4251 11.8 85.5651C10.1 86.6451 8.49997 87.8651 7.01997 89.2251C6.85997 89.3851 7.15997 89.4451 7.25997 89.4451C7.47997 89.4851 7.69997 89.4051 7.89997 89.2451Z" fill="#C0C0C0"/>
<path d="M5.29996 75.8251C5.81996 75.5651 6.29996 75.2251 6.77996 74.9051C7.45996 74.4651 8.13996 74.0451 8.83996 73.6051C9.03996 73.4851 8.89996 73.2651 8.75996 73.1651C8.55996 73.0251 8.29996 73.0051 8.05996 73.1051C7.37996 73.5251 6.67996 73.9651 5.99996 74.4051C5.51996 74.7051 5.01996 75.0451 4.51996 75.3251C4.31996 75.4251 4.45996 75.6651 4.59996 75.7651C4.81996 75.9051 5.07996 75.9251 5.29996 75.8251Z" fill="#C0C0C0"/>
<path d="M76.24 13.2049C76.24 13.2049 68.8 17.4849 70.54 26.8649C72.28 36.2449 81.74 39.5049 88.48 35.5449C95.22 31.5849 96.34 23.3049 93.84 17.7049C91.34 12.1049 81.2 9.72494 76.24 13.2049Z" fill="#C8303F"/>
<path d="M82.4 37.4049C80.68 37.4049 78.98 37.0449 77.4 36.3249C73.68 34.6249 71.18 31.2849 70.36 26.9049C68.62 17.6449 75.84 13.2049 76.14 13.0249C78.62 11.2849 82.6 10.8849 86.5 11.9649C90.1 12.9649 92.92 15.0649 94.06 17.6049C95.38 20.6449 95.66 24.0449 94.86 27.2649C94.02 30.8049 91.76 33.8649 88.62 35.6849C86.72 36.8049 84.58 37.4049 82.4 37.4049ZM82.2 11.7649C79.92 11.7649 77.86 12.3049 76.36 13.3649H76.34C76.26 13.4049 69.04 17.6849 70.74 26.8249C71.54 31.0649 73.96 34.3049 77.56 35.9449C81.04 37.5249 85.08 37.3049 88.38 35.3449C94.88 31.5049 96.18 23.3849 93.66 17.7449C92.58 15.3449 89.86 13.3249 86.36 12.3449C85.02 11.9649 83.62 11.7649 82.2 11.7649Z" fill="#C8303F"/>
<path d="M76.7799 15.1849C76.7799 15.1849 70.6599 18.7049 72.0999 26.4249C73.5399 34.1449 81.2999 36.8249 86.8599 33.5649C92.4199 30.3049 93.3199 23.5049 91.2799 18.8849C89.2399 14.2649 80.8599 12.3249 76.7799 15.1849Z" fill="white"/>
<path d="M77.32 18.185C77.32 18.185 73.2 20.565 74.16 25.765C75.12 30.965 80.36 32.785 84.1 30.565C87.84 28.345 88.46 23.785 87.08 20.665C85.7 17.545 80.06 16.265 77.32 18.185Z" fill="#C8303F"/>
<path d="M80.72 31.685C79.76 31.685 78.8 31.485 77.92 31.085C75.86 30.145 74.42 28.225 73.96 25.805C73 20.625 76.98 18.145 77.2 18.005C78.6 17.025 80.82 16.805 83.02 17.405C85.04 17.965 86.62 19.145 87.26 20.585C88.7 23.825 87.96 28.525 84.2 30.745C83.14 31.365 81.94 31.685 80.72 31.685ZM80.62 17.485C79.38 17.485 78.26 17.785 77.44 18.345H77.42C77.26 18.445 73.42 20.725 74.36 25.705C74.8 28.025 76.12 29.805 78.1 30.705C80 31.565 82.22 31.445 84.02 30.365C87.58 28.265 88.28 23.805 86.92 20.725C86.34 19.405 84.84 18.305 82.94 17.765C82.16 17.585 81.4 17.485 80.62 17.485Z" fill="#C8303F"/>
<path d="M78.8399 21.4849C77.7399 22.2049 77.1799 23.5249 77.4599 24.8049C77.8799 27.0849 80.1799 27.8849 81.8199 26.9049C83.4599 25.9249 83.7399 23.9249 83.1199 22.5649C82.4999 21.2049 80.0399 20.6449 78.8399 21.4849Z" fill="white"/>
<path d="M79.4199 22.985C78.9599 23.285 78.7199 23.845 78.8399 24.385C78.9399 25.045 79.5399 25.525 80.1999 25.425C80.3599 25.405 80.5199 25.345 80.6599 25.265C81.2799 24.885 81.4999 24.105 81.1999 23.445C80.9399 22.885 79.9199 22.645 79.4199 22.985Z" fill="#C8303F"/>
<path d="M80.0399 25.6249C79.8399 25.6249 79.6399 25.5849 79.4599 25.5049C79.0199 25.3049 78.7199 24.8849 78.6399 24.4249C78.4999 23.8049 78.7799 23.1649 79.2999 22.8249C79.6599 22.6049 80.0999 22.565 80.4999 22.685C80.8799 22.765 81.1999 23.0049 81.3799 23.3649C81.7199 24.1049 81.4399 25.0049 80.7599 25.4249C80.5399 25.5649 80.2999 25.6249 80.0399 25.6249ZM79.5199 23.1649C79.1199 23.4249 78.9399 23.8849 79.0399 24.3449C79.0999 24.7049 79.3199 25.0049 79.6399 25.1449C79.9399 25.2849 80.2999 25.2649 80.5799 25.1049C81.0999 24.7649 81.2999 24.1049 81.0399 23.5449C80.8999 23.3049 80.6799 23.1449 80.4199 23.1049C80.0999 22.9849 79.7999 23.0049 79.5199 23.1649Z" fill="#C8303F"/>
<path d="M68.54 15.125C69.3 15.385 70.04 15.685 70.8 15.945C71.04 16.045 71.32 16.045 71.58 15.985C71.8 15.925 72 15.765 72.12 15.565C72.22 15.365 72.22 15.125 72.12 14.925C72 14.705 71.82 14.545 71.6 14.445C70.84 14.185 70.1 13.885 69.34 13.625C69.1 13.525 68.82 13.525 68.56 13.585C68.34 13.645 68.14 13.805 68.02 14.005C67.92 14.205 67.92 14.445 68.02 14.645C68.12 14.865 68.32 15.045 68.54 15.125Z" fill="#575757"/>
<path d="M73.2 13.605L72.7 11.445C72.68 11.325 72.48 11.145 72.4 11.085C72.2 10.905 72 10.765 71.78 10.625C71.62 10.505 71.42 10.425 71.24 10.365C71.18 10.345 71.04 10.325 71.06 10.445L71.56 12.605C71.58 12.725 71.78 12.905 71.86 12.965C72.06 13.145 72.26 13.285 72.48 13.425C72.64 13.545 72.84 13.625 73.02 13.685C73.1 13.705 73.22 13.725 73.2 13.605Z" fill="#575757"/>
</svg>
