<svg viewBox="0 0 600 600" height="600" width="600" xmlns="http://www.w3.org/2000/svg"><g transform="matrix(3,0,0,3,0,0)"><path d="M159.285,112.79a4.336,4.336,0,0,0,3.74-2.586c.275-.935-.715-1.265-1.046-.22a3.74,3.74,0,0,1-2.969,2.091C158.79,112.13,158.35,112.808,159.285,112.79Z" fill="#191919"></path><path d="M160.935,104.869c-.324-1.212-1.981-.11-.99,1.045C160.22,106.244,161.272,106.132,160.935,104.869Z" fill="#191919"></path><path d="M158.57,99.754c-.771.217-.77,1.1.219,1.1a7.315,7.315,0,0,1,3.246.5.328.328,0,0,0,.329-.55A4.711,4.711,0,0,0,158.57,99.754Z" fill="#191919"></path><path d="M155.6,102.5a3.3,3.3,0,0,0-2.42-.33c-.5.165-.44.715.055.77a4.921,4.921,0,0,1,1.87.44C155.764,103.659,155.926,102.783,155.6,102.5Z" fill="#191919"></path><path d="M156.479,106.3a16.479,16.479,0,0,0-.055,3.686c.221,1.43,3.465.385,2.971-.385-.275-.44-1.375.5-2.091.165a17.033,17.033,0,0,1-.219-3.466A.3.3,0,1,0,156.479,106.3Z" fill="#191919"></path><path d="M155.379,106.684c.823-.5.056-2.2-.659-1.65C154.169,105.364,154.386,107.285,155.379,106.684Z" fill="#191919"></path><path d="M149.824,111.14c.77,2.53,2.64,5.83,4.785,7.37.99.715,1.485,0,.5-.935a15.4,15.4,0,0,1-4.62-6.711A.359.359,0,0,0,149.824,111.14Z" fill="#191919"></path><path d="M167.7,113.78c.269-.227.055-.66-.275-.5-3.08,1.32-5.225,6.105-3.74,9.516.22.44.825.275.715-.221C163.575,118.345,164.662,116.342,167.7,113.78Z" fill="#191919"></path><path d="M149.329,114.825a10.714,10.714,0,0,0,5.445,6.38c.715.33,1.43-.22.33-.935a12.278,12.278,0,0,1-5.115-5.665C149.714,114.165,149.207,114.333,149.329,114.825Z" fill="#191919"></path><path d="M151.694,111.03a12.433,12.433,0,0,0,5.885,5.83c3.575,1.595,4.291-.88,7.371-2.915.33-.22.164-.66-.221-.55-2.75.66-3.025,4.29-6.875,2.42a15.181,15.181,0,0,1-5.5-5.225A.4.4,0,0,0,151.694,111.03Z" fill="#191919"></path><path d="M156.479,125.5c.276.439.991.055.77-.385-1.045-2.806-5.225-3.411-6.71-5.886-.275-.44-.77,0-.6.44C151.474,122.58,154.614,122.522,156.479,125.5Z" fill="#191919"></path><path d="M151.309,102.449a32.677,32.677,0,0,0,1.595,7.921c.11.385.825.22.715-.22a31.735,31.735,0,0,1-1.375-11.5,2.986,2.986,0,0,0,3.905-2.035c1.486,2.2,5.886,1.98,7.261,0-.385,3.025,3.135,8.36,3.85,7.37.33-.5.66-1.045,1.265-1.21,2.255-.715,2.64,3.575,1.265,4.18-.6.275-1.815-.5-1.1,1.43a72.209,72.209,0,0,1,2.42,7.7c.11.495.715.275.715-.22a42.769,42.769,0,0,0-2.2-7.811,2.28,2.28,0,0,0,1.98-2.035,4.1,4.1,0,0,0,1.541-6.71c2.97-2.97,2.42-7.866-2.146-7.811a4.679,4.679,0,0,0-6.821-5.445c-1.65-4.455-8.415-3.135-8.58.825-4.29-3.52-9.846,1.98-6.546,6.215C145.314,93.153,144.984,102.064,151.309,102.449Z" fill="#191919"></path><path d="M158.845,128.576a2.426,2.426,0,0,0,4.235-1.65,19.734,19.734,0,0,0,2.64-1.265,5.322,5.322,0,0,0-.825-2.09,12.271,12.271,0,0,0-2.475.935,2.385,2.385,0,0,0-4.236,1.65c-.55.33-1.155.715-1.375.88a3.667,3.667,0,0,0,.6,2.145C157.854,129.016,158.4,128.8,158.845,128.576Zm.494-2.42c.174-1.925,2.7-1.705,2.476.715C161.65,128.851,159.131,128.467,159.339,126.156Z" fill="#191919"></path><path d="M146.8,147.167c-.165-2.75-.275-9.241.44-11.661.11-.44.66-.55.6.385a94.743,94.743,0,0,0,.11,11.221,77.078,77.078,0,0,1,12.431.605c-1.761-4.62-4.236-18.976-4.511-20.846s-4.015-3.136-6-5.061c-4.62,1.65-11.056,6.821-16.061,13.861a80.647,80.647,0,0,1,4.51,12.431A76.651,76.651,0,0,1,146.8,147.167Z" fill="#191919"></path><path d="M172.705,117.08c-2.255,2.365-4.18,3.52-7.59,3.575.715,4.9,5.006,12.046,8.746,17.272a16.275,16.275,0,0,0,1.264-3.906c.111-.77.6-.495.6-.055a16.027,16.027,0,0,1-1.1,5.061c4.511,6.16,10.4,12.1,12.6,19.581,2.475-3.135,12.156-20.3,5.446-31.682C188.712,120.05,180.076,116.53,172.705,117.08Z" fill="#191919"></path><path d="M180.791,166.8c3.906.055,5.72.055,9.02.055,1.706-4.235,3.466-12.54,4.071-19.416C190.361,158.828,185.026,164.218,180.791,166.8Z" fill="#191919"></path><path d="M165.775,163.393a108.37,108.37,0,0,0-18.371,3.355c3.575-.055,16.446-.165,20.956-.055A7.256,7.256,0,0,1,165.775,163.393Z" fill="#191919"></path><path d="M164.9,162.018c.661-.1.55-1.1-.11-.99-15.911,2.233-18.554,4.139-25.357,4.73-.935.055-1.7,1.045-.44,1.045,4.071,0,10.781-2.09,15.181-2.915C158.02,163.118,161.051,162.613,164.9,162.018Z" fill="#191919"></path><path d="M140.308,148.817c-2.422.484-1.815,1.265-.935,1.045,6.271-1.32,14.741-1.045,21.012,0,.605.11.88-.825.275-.935C154.444,147.882,146.518,147.578,140.308,148.817Z" fill="#191919"></path><path d="M179.031,147.387c.273.223.825-.11.6-.5a132.573,132.573,0,0,1-13.806-19.856c-.22-.385-.88,0-.715.385C167.205,131.6,175.428,144.45,179.031,147.387Z" fill="#191919"></path><path d="M185.851,159.048c.22-.55-.5-.99-.77-.5-1.65,2.915-3.63,5.83-6.82,7.26-3.245,1.485-6.821,1.045-9.186-1.76-5.115-6.05-8.855-25.3-10.231-34.047-.11-.55-.88-.33-.77.22,1.155,8.36,4.9,28.052,10.341,34.487C172.582,169.674,181.376,168.446,185.851,159.048Z" fill="#191919"></path><path d="M103.841,137.1c.385-.218.11-.66-.33-.6-1.98.385-3.3.935-3.906,2.916a11.447,11.447,0,0,0-.44,5.61c.11.5.825.385.88-.11.055-2.145-.275-2.585.44-4.95C101.09,137.761,102.084,138.1,103.841,137.1Z" fill="#191919"></path><path d="M104.556,128.686a22.024,22.024,0,0,0,.11,3.575c.055.44.825.385.88,0a26.738,26.738,0,0,0-.165-3.575C105.325,128.3,104.565,128.3,104.556,128.686Z" fill="#191919"></path><path d="M108.736,128.246c1.469-.8,3.8-2.365,4.785-4.291.275-.55.221-.715-.165-1.21a6.594,6.594,0,0,0-1.7-1.375c-.659-.33-.715-.11-1.209.22-3.246,2.255-8.2,1.815-11.607.055-.275-.165-1.045.275-.33.66,4.236,2.146,8.8,2.531,12.706-.22a8.431,8.431,0,0,1,1.706,1.43,13,13,0,0,1-5.116,4.291c-.77-.935-1.54-1.815-2.31-2.75-1.161-1.289-1.637,1.031-3.521,2.915a37.054,37.054,0,0,1-5.445-3.3c.55-.551,1.045-1.1,1.595-1.651.33-.275-.11-.825-.5-.6a10.325,10.325,0,0,0-1.595,1.43,1.136,1.136,0,0,0,.11,1.6c.88.825,5.335,3.685,6.051,3.355,1.21-.6,1.87-2.2,2.695-3.19.77.77,1.815,2.31,2.42,2.915C107.691,128.961,108.347,128.458,108.736,128.246Z" fill="#191919"></path><path d="M114.567,106.134a8.861,8.861,0,0,0,.219-2.585c-.11-.935-.989-.99-.935.055.11,1.375-.384,2.97-.219,3.3.385.936,1.76-.6,2.419.386.935,1.54-1.1,4.455-2.365,3.685-.329-.22-.6-.055-.825.66a13.69,13.69,0,0,1-1.32,2.75c-2.97,4.345-8.965,5.445-12.265,1.7a11.127,11.127,0,0,1-2.2-5.17.714.714,0,0,0-1.1-.55c-1.155.88-2.2-.44-2.31-2.09-.165-2.256,1.21-2.421,2.2-1.651a.378.378,0,0,0,.605-.385c-.055-.5-.33-3.3-.33-3.905-.055-.55-.715-.33-.715.165.055.99.11,2.035.22,2.97a2.072,2.072,0,0,0-2.97,1.7c-.44,2.971,1.65,5.281,3.575,4.181.55,2.42,1.485,4.895,3.521,6.38-.111.99-.165,1.98-.275,2.97-.055.88.55.99.77.55a26.871,26.871,0,0,0,.275-3.025,8.533,8.533,0,0,0,8.635-.44c.055.99,0,2.035.11,3.025a.446.446,0,1,0,.88-.11c-.165-1.65-.055-2.695-.11-3.52a10.208,10.208,0,0,0,3.466-5.17,2.231,2.231,0,0,0,1.925-.44C118.032,109.82,117.811,105.144,114.567,106.134Z" fill="#191919"></path><path d="M100.871,101.294a3.943,3.943,0,0,0-2.971,1.265c-.33.33-.11,1.045.55.715a4.761,4.761,0,0,1,2.421-.88C101.861,102.284,101.7,101.353,100.871,101.294Z" fill="#191919"></path><path d="M114.236,135.781a7.677,7.677,0,0,0-4.565-6.16c-.6-.22-.66.385-.22.6,2.805,1.485,3.905,4.345,4.016,7.371.109,2.475-1.046,6.325,1.869,7.7.5.22.881-.6.385-.825C113.246,143.317,114.818,139.525,114.236,135.781Z" fill="#191919"></path><path d="M101.585,130.556c.269-.335-.055-.77-.44-.5a14.663,14.663,0,0,0-4.51,6.93c-.385,1.431-.275,2.916-.605,4.291-.385,1.595-1.76,2.2-3.025,3.08-.44.275-.055,1.045.44.825a6.661,6.661,0,0,0,3.025-2.475c1.155-1.98,0-4.455,2.365-8.581A30.093,30.093,0,0,1,101.585,130.556Z" fill="#191919"></path><path d="M98.285,142.492c.189-1.7.055-3.466.99-5.006a5.4,5.4,0,0,1,3.741-2.365c.66-.11.6-.77,0-.77a5.546,5.546,0,0,0-4.4,2.42,9.157,9.157,0,0,0-1.045,5.666C97.57,142.822,98.236,142.932,98.285,142.492Z" fill="#191919"></path><path d="M105,142c-.2,1.433.11,22.716.165,23.871,0,.605.99.55.99-.055,0-6.1-.275-17.106-.385-23.761C105.711,141.722,105.057,141.557,105,142Z" fill="#191919"></path><path d="M110.881,152.117a4.054,4.054,0,0,1-2.53-2.915c-.605-2.915,2.42-5.72.88-8.745a2.878,2.878,0,0,0-3.081-1.6.3.3,0,1,0,0,.605,2.64,2.64,0,0,1,2.531,2.861c0,1.595-.88,3.08-1.21,4.62a5.027,5.027,0,0,0,3.08,6.05C111.156,153.272,111.484,152.345,110.881,152.117Z" fill="#191919"></path><path d="M92.565,145.682c-.058-.44,0-1.925-.77-1.7a11.683,11.683,0,0,0-1.98.55c-.88.385-1.32,1.375-.11,1.045.55-.165,1.155-.33,1.7-.5a16.533,16.533,0,0,0,4.07,9.626,65.11,65.11,0,0,1-10.4,7.26c-1.045.605-.77,1.54.11,1.045a53.059,53.059,0,0,0,11.056-7.7c.165-.165.385-.385.165-.715C94.435,151.512,93.036,149.26,92.565,145.682Z" fill="#191919"></path><path d="M139.373,157.948c-.609-5.775-4.73-17.051-7.04-22.057-3.521-7.535-9.076-10.285-16.886-11.991a.394.394,0,0,0-.166.771c6.766,2.365,11.771,3.245,15.457,10.23,2.64,5.006,8.47,20.352,7.645,26.237-.66,4.565-3.08,4.345-6.27,4.565-5.721.385-15.511-7.26-19.582-11,2.75-1.926,4.511-6.326,5.006-9.406a59.676,59.676,0,0,1,12.6,5.06c.551.275.991-.44.441-.715a57.712,57.712,0,0,0-7.921-3.685,7.852,7.852,0,0,0-1.65-3.575c-.44-.385-.66.11-.495.385a10.562,10.562,0,0,1,1.21,2.805,24.464,24.464,0,0,0-4.015-1.155c-1.045-.165-1.045,0-1.21.88-1.816,8.746-5.941,8.525-4.786,9.791,4.071,4.565,13.861,11.44,20.242,11.55C137.943,166.8,140.029,164.164,139.373,157.948Z" fill="#191919"></path><path d="M111.431,140.457a4.147,4.147,0,0,0-2.8-3.576,12.549,12.549,0,0,0-2.86-.22c-.441,0-.441.55-.055.661,1.595.44,2.915-.166,4.07,1.485,1.265,1.76.55,3.465.77,4.51a.452.452,0,0,0,.825.055A8.446,8.446,0,0,0,111.431,140.457Z" fill="#191919"></path><path d="M104.336,138.532a4.651,4.651,0,0,0-2.861,2.585c-2.31,4.84,4.016,8.415-5.115,11.771a.454.454,0,0,0,.22.88,9.606,9.606,0,0,0,3.96-1.981c5.116-4.29-2.2-8.415,4.071-12.65C104.941,138.862,104.777,138.428,104.336,138.532Z" fill="#191919"></path><path d="M99.55,106.189c.708.614,1.6-1.32.661-1.815C99.385,103.934,99.05,105.755,99.55,106.189Z" fill="#191919"></path><path d="M110.661,136.551c1.417,1.336,1.32,3.3,1.375,5.116,0,.44.66.385.77,0,.275-1.98.055-4.346-1.485-5.831-1.65-1.54-4.18-1.76-6.27-1.43a.337.337,0,1,0,.11.66C107.031,135.066,109.161,135.137,110.661,136.551Z" fill="#191919"></path><path d="M91.85,104.814c.494.441,1.045-.33.605-.77-3.19-3.19-3.19-8.031-.99-11.771,6.325-10.891,25.137-8.69,29.042,2.53a8.773,8.773,0,0,1-3.025,10.176c-.33.275-.055.88.385.66,4.4-2.2,5.17-7.975,3.355-12.1-5.39-12.266-26.347-12.926-31.462,0C88.22,97.334,88.71,102.014,91.85,104.814Z" fill="#191919"></path><path d="M93.555,101.514c3.351.374,7.481-1.98,9.131-4.84a.375.375,0,0,0-.605-.44c-2.475,3.025-4.731,4.015-8.526,4.455A.418.418,0,0,0,93.555,101.514Z" fill="#191919"></path><path d="M104.116,109.985c.386-.274.385-.66,0-.825-.275-.11-1.76.275-1.87,0-.22-.55.605-2.916.77-4.071.11-.825-.275-.825-.66-.165s-1.6,4.016-1.046,5.006C101.861,110.755,103.568,110.372,104.116,109.985Z" fill="#191919"></path><path d="M81.839,133.031c3.35-4.679,7.041-6.6,12.541-8.305.55-.165.385-1.045-.165-.88-6.325,1.87-9.571,3.63-13.421,8.965C80.244,133.471,81.288,133.8,81.839,133.031Z" fill="#191919"></path><path d="M116,102.009a.367.367,0,0,0-.055-.715c-3.411-.055-7.536-.55-10.121-3.025-2.42-2.31-3.63-6.326-3.8-9.571-.055-.55-.88-.6-.825-.055.055,3.41,1.6,7.866,4.07,10.231S112.636,102.525,116,102.009Z" fill="#191919"></path><path d="M102.631,113.12c1.783.947,4.015.385,4.62-1.32.11-.385-.33-.715-.605-.385-1.6,1.87-2.97,1.1-3.8,1.155C102.411,112.515,102.305,112.947,102.631,113.12Z" fill="#191919"></path><path d="M109.726,103.824c-.416-1.2-2.75-2.53-3.85-2.145-.44.165-.605,1.045,0,1.155a6.256,6.256,0,0,1,3.3,1.485C109.451,104.539,109.88,104.268,109.726,103.824Z" fill="#191919"></path><path d="M106.206,106.574c1.047-.208.99-2.145.165-1.925C105.6,104.814,105.327,106.749,106.206,106.574Z" fill="#191919"></path><path d="M136.568,71.812c.551-.162,1.1-.33,1.65-.5-.33,1.375-.715,2.75-1.045,4.125-.55,1.98.22,2.145.66,1.43,1.375-2.145,2.805-4.345,4.29-6.435,2.036-2.915,2.53-2.64-1.21-2.53.66-1.266,1.32-2.531,1.925-3.8s-3.465.165-3.85.495a.371.371,0,0,0,.33.66c.44-.11,1.375-.55,2.42-.77l-1.815,3.631c-.11.275,0,.605.33.605.715,0,1.485-.055,2.2-.055-1.375,1.98-2.75,4.015-4.125,5.995l1.155-3.96a.461.461,0,0,0-.55-.605c-.55.165-1.155.385-1.7.55.33-1.595.77-3.19,1.155-4.841.11-.44-.55-.55-.715-.165a41.163,41.163,0,0,0-1.54,5.5C135.963,71.482,136.184,71.924,136.568,71.812Z" fill="#191919"></path><path d="M70.123,113.4c.276.22.716,0,.551-.33-.386-1.1-.716-2.2.11-3.355a3.106,3.106,0,0,1,2.97-1.211.417.417,0,0,0,.22-.77c-1.54-.715-4.566.605-4.566,3.521A2.7,2.7,0,0,0,70.123,113.4Z" fill="#191919"></path><path d="M68.033,119.885a.468.468,0,0,0,.935,0,8.057,8.057,0,0,0-.22-3.025c-.55-1.925-2.365-2.64-2.31-4.565.055-1.155.275-2.31.33-3.41a.36.36,0,0,0-.715-.055c-.22,1.1-.44,2.2-.55,3.3-.22,2.42,1.43,3.08,2.09,4.62A5.619,5.619,0,0,1,68.033,119.885Z" fill="#191919"></path><path d="M68.638,99.369l.825,8.085c.055.33.66.33.715-.055.275-2.035-.44-6.05-.88-8.2C69.243,98.874,68.583,98.984,68.638,99.369Z" fill="#191919"></path><path d="M74.194,114.22c.214.443.77.11.66-.275-.165-.935-.55-2.035,1.265-2.035,1.485,0,1.7,1.32,1.65,2.53-.11,2.255-2.035,4.18-2.035,6.215a.475.475,0,0,0,.935.11c.55-2.255.77-2.035,1.54-3.905a5.96,5.96,0,0,0,.275-4.455C77.384,109.93,72.444,110.611,74.194,114.22Z" fill="#191919"></path><path d="M71.719,111.36a3.9,3.9,0,0,0,.44,2.365.335.335,0,0,0,.6-.275c-.22-1.155-.44-2.53.66-3.135a3.4,3.4,0,0,1,3.245-.165c.385.22.715-.385.44-.66C76.174,108.335,72.049,108.775,71.719,111.36Z" fill="#191919"></path><path d="M46.857,102.119c-.33.055-.66.11-.935.165-.495-1.54-1.98-3.135-3.795-2.475-1.925.715-1.981,2.805-1.87,3.74-1.6.165-3.246.385-4.841.55a.391.391,0,0,0,.055.77c1.65-.11,3.3-.22,4.951-.275.968,4.949,6.559,3.606,5.775-1.32.275-.055.55-.055.77-.11.611,4.28,5.587,4.412,5.115-.66.44,0,1.375-.22.935-.88-.22-.33-.715-.11-1.045-.055C51.092,97.939,47.022,98.379,46.857,102.119Zm-5.72,1.87c-.165-1.265.11-2.585.935-3.08,1.375-.88,2.75.495,3.19,2.255C46.172,107.375,41.671,108.267,41.137,103.989Zm8.965,1.43c-2.02.7-3.377-3.889-1.595-5.225C50.874,98.341,52.424,104.61,50.1,105.419Z" fill="#191919"></path><path d="M46.967,108.335c-1.265.11-1.155.66-.33.77.55.055,1.43-.055,1.7-.55.44-.77-.165-2.036-.935-2.751-.55-.55-.825-.055-.6.22C47.3,106.794,48.507,108.06,46.967,108.335Z" fill="#191919"></path><path d="M50.982,106.849c-.052-.55-.6-.55-.6,0,.11,3.741-.275,9.736-5.61,10.176-2.091.165-4.346-.825-6.161-1.87-.33-.22-.77.33-.385.605a11.435,11.435,0,0,0,6.216,2.145c.11.88.33,1.815.44,2.695.275,1.705.935.88.825.33-.11-1.045-.275-2.09-.44-3.08C50.432,117.025,51.389,111.138,50.982,106.849Z" fill="#191919"></path><path d="M43.447,113.285a2.4,2.4,0,0,0,3.3-1.375c.385-.825.165-.99-.55-.99a4.6,4.6,0,0,1-3.741-1.485C41.55,108.679,41.328,112.478,43.447,113.285Zm2.64-1.54c-.88,1.7-3.521.88-3.575-1.1A5.975,5.975,0,0,0,46.087,111.745Z" fill="#191919"></path><path d="M43.282,103.824c-.115.329.054,1.21.605,1.1.44-.055.44-.66.275-1.045C43.942,103.329,43.493,103.216,43.282,103.824Z" fill="#191919"></path><path d="M49.387,102.834c-.118.383.055,1.375.6,1.155.275-.11.385-.385.33-.88C50.212,102.5,49.593,102.17,49.387,102.834Z" fill="#191919"></path><path d="M39.816,100.579a5.255,5.255,0,0,1,3.246-1.76.557.557,0,0,0-.055-1.1,4.51,4.51,0,0,0-3.356,1.54C38.441,100.579,39.477,100.955,39.816,100.579Z" fill="#191919"></path><path d="M25.185,99.864a9.015,9.015,0,0,0,4.731,8.415c.275,1.595,1.32,3.466,3.3,3.466a64.558,64.558,0,0,1,1.155,8.91.386.386,0,1,0,.77,0,48.043,48.043,0,0,0-.935-8.525c-.11-.495-.11-1.486-.66-1.431-1.1.11-2.2-.825-2.53-2.585-.385-1.87.66-3.41,2.145-2.7.22.11.385-.055.495-.165,2.145-2.09,4.84-5.94,4.84-10.176,2.86,1.266,9.736,1.761,12.871.715-.22-4.18-4.235-10.615-13.146-9.735C28.266,87.048,25.283,94.638,25.185,99.864Z" fill="#191919"></path><path d="M48.067,98.159a3.68,3.68,0,0,1,2.145,0c.55.165.495-.385.055-.77a3.209,3.209,0,0,0-2.475-.22C46.967,97.554,47.25,98.508,48.067,98.159Z" fill="#191919"></path><path d="M27.055,90.623a6.2,6.2,0,0,1,3.081-3.08C28.981,78.962,16.99,77.972,13.3,86.5s3.741,12.6,5.281,15.731c1.485,3.135,2.365,7.976,1.375,9.9-.99,1.87.22,1.98,1.595-.6,1.1-2.09,3.08-8.2,1.485-13.256C21.335,93.043,25.57,90.238,27.055,90.623Z" fill="#191919"></path><path d="M83.764,134.351c-6.985-.106-18.536-.385-24.861.165-4.951.44-6.161,1.98-7.316,6.271-1.65,6.27-4.29,16.776-5.17,22.771a186.494,186.494,0,0,0-19.912.77c-2.475.33-2.64,2.145-1.87,2.915.385.385.88-.165.6-.55a.847.847,0,0,1,.33-1.155c1.375-.935,18.042-1.1,20.407-1.1.88,0,1.155-.11,1.375-1.045,1.65-7.755,3.8-16.666,5.775-23.981.6-2.366,2.42-3.631,5.336-3.851,7.37-.605,17.766-.275,25.576-.165,2.751.055,4.4,1.155,4.181,4.236-.275,4.125-3.906,16.776-5.226,21.451a22.493,22.493,0,0,1-1.925,5.28c-.33.55.495,1.156.825.6a36.567,36.567,0,0,0,2.365-6.435c1.76-6.16,4.236-15.071,5.006-20.516C89.6,136.276,87.505,134.408,83.764,134.351Z" fill="#191919"></path><path d="M68.748,147.552c-.223.328.165.825.55.55a2.233,2.233,0,0,1,2.751-.055c.715.66.88,2.035-.44,4.4-1.651,3.026-3.906,3.466-4.9,2.256-1.21-1.485-.055-4.511,1.1-5.721.275-.33-.22-.825-.5-.55-2.42,2.2-2.86,5.446-1.485,6.931,2.2,2.42,5.391.44,6.6-2.145.715-1.541,1.815-3.631.825-5.226A2.684,2.684,0,0,0,68.748,147.552Z" fill="#191919"></path><path d="M75.349,79.953c1.271-.816-.385-2.971-1.7-1.651C72.544,79.348,74.309,80.62,75.349,79.953Z" fill="#191919"></path><path d="M61.928,80.887c1.434.539,2.53-1.045,1.65-1.87C62.368,77.862,60.283,80.269,61.928,80.887Z" fill="#191919"></path><path d="M68.033,80.558c1.926.6,2.64-1.87.77-2.31C67.593,77.973,66.439,80.06,68.033,80.558Z" fill="#191919"></path><path d="M141.078,90.348c-.269-.553-.934-.385-.88.11.221,1.7,3.63,1.98,4.621.11,1.759-3.41-3.8-4.4-4.51-2.2-.275.825.439.77.825.165.494-.825,3.739-.5,2.86,1.485C143.609,91.008,141.529,91.278,141.078,90.348Z" fill="#c8102e"></path><path d="M131.673,78.853c-.055,3.025,3.135,4.125,5.555,4.62,8.856,1.815,12.871-2.915,11.771-6.216a.314.314,0,1,0-.6.165c.33,4.016-4.346,5.5-7.591,5.556-2.53.055-9.515-1.265-8.03-5.116.275-.66-.22-1.045-.6-.66-2.255,2.366-5.666,1.706-7.316-1.155-1.76-3.08-.825-7.425,3.025-6.93a.478.478,0,0,0,.165-.935c-3.245-1.32-3.8-6.381.11-8.746,3.741-2.255,6.876-.99,9.406,1.98.44.55.99.44,1.045-.66.275-2.86,3.905-4.51,6.491-3.85a5.434,5.434,0,0,1,3.465,6.93c-.165.5.33.661.715.551,3.41-.881,7.04,2.86,7.37,6.105.55,5.28-4.18,5.445-7.04,4.84-.55-.11-.44.5,0,.66,4.125,1.375,8.415-.55,7.92-5.5-.33-3.63-4.125-7.591-7.975-6.986a6.491,6.491,0,0,0-2.365-6.545c-3.521-2.585-8.746-.33-9.461,3.245a7.6,7.6,0,0,0-9.516-1.925c-3.74,1.925-5.5,6.931-1.979,9.791-2.586.605-3.741,3.19-3.411,5.83C123.642,78.633,128.427,81.108,131.673,78.853Z" fill="#c8102e"></path><path d="M191.3,168.674c-46.994-.483-124.517-1.4-183.6,1.265-.385,0-.33,1.21.055,1.21,56.813-1.437,108.743-2.541,183.6-.88C191.847,170.269,191.791,168.679,191.3,168.674Z" fill="#c8102e"></path><path d="M63.853,133.2c2.75,0,8.141,0,11.826-.055a91.319,91.319,0,0,0,1.7-11.386c-2.915.385-8.416.11-10.836-.825A79.038,79.038,0,0,1,63.853,133.2Z" fill="#c8102e"></path><path d="M23.1,166.8a3.084,3.084,0,0,1,1.65-3.465c1.485-.715,16.722-.825,20.3-.99.165-.88.66-3.245,1.375-6.325a149.873,149.873,0,0,0-27.337-2.915c-.825,0-.495-.771,0-.771,1.32-.055,2.64-.055,3.96-.055a49.857,49.857,0,0,1,4.511-11.55c.22-.385.715-.165.55.22a65.665,65.665,0,0,0-4.071,11.385,151.332,151.332,0,0,1,22.662,2.586c1.21-5.226,2.86-11.936,4.4-16.446,1.32-4.016,3.41-5.006,6.216-5.171,1.375-.055,3.135-.11,5.5-.055.22-.66.44-1.32.66-2.145-2.695-4.4-8.471-8.306-16.336-8.911-2.695,3.191-10.231,2.861-14.356-1.045-2.42.275-10.4,2.035-15.181,7.426-6.711,7.7-15.841,25.357-11.441,34.652C8.354,167.959,20.62,167.078,23.1,166.8Z" fill="#c8102e"></path><path d="M98.89,37.985c.169-1.375-.77-8.361-1.485-9.021a.368.368,0,0,0-.605.11c-.22.495,1.1,8.03,1.265,8.911A.423.423,0,0,0,98.89,37.985Z" fill="#c8102e"></path><path d="M106.646,66.036a.535.535,0,0,0-.5-.77c-.935,0-2.2,1.816-6.821,1.155-.5-.055-.825.661-.33.881C101.916,68.4,106.2,67.08,106.646,66.036Z" fill="#c8102e"></path><path d="M112.256,56.356a39.2,39.2,0,0,0,6.216,2.915.452.452,0,0,0,.385-.77,35.38,35.38,0,0,0-6.216-2.86A.406.406,0,0,0,112.256,56.356Z" fill="#c8102e"></path><path d="M101.751,68.512a.463.463,0,0,0-.275.88c1.375.77,3.8-.11,2.86-.935C103.9,68.072,103.234,68.8,101.751,68.512Z" fill="#c8102e"></path><path d="M111.046,43.43c.821-.34,5.226-5.5,5.941-6.49.275-.385-.33-.77-.66-.495A70.79,70.79,0,0,0,111.156,42C110.111,43.155,110.659,43.59,111.046,43.43Z" fill="#c8102e"></path><path d="M97.185,60.811a.461.461,0,0,0,.88-.22c-.385-2.42-2.585-3.8-3.8-5.775-2.53-4.126.825-8.856,5.115-9.956,3.521-.935,7.481.33,8.416,4.565.825,3.631-.825,6.271-1.98,9.571-.22.715.5.935.825.275,1.485-2.8,2.915-6.16,2.475-9.351-.77-5.115-5.06-7.37-9.846-6.215-4.18,1.045-7.755,4.675-7.04,9.241C92.84,56.686,96.118,57.719,97.185,60.811Z" fill="#c8102e"></path><path d="M98.4,64.991a8.809,8.809,0,0,0,7.7-.88c.495-.385.275-1.21-.44-.935-2.915,1.045-4.07,1.32-6.931.935C98.23,64.056,97.9,64.776,98.4,64.991Z" fill="#c8102e"></path><path d="M83.269,60.976c-.383.5,0,1.155,1.1.385a35.282,35.282,0,0,0,4.346-3.19.4.4,0,0,0-.44-.66A34.45,34.45,0,0,0,83.269,60.976Z" fill="#c8102e"></path><path d="M87.4,46.29a.4.4,0,0,0,.33-.715,55.842,55.842,0,0,0-6.876-3.8.436.436,0,0,0-.385.77A55.6,55.6,0,0,0,87.4,46.29Z" fill="#c8102e"></path><path d="M98.4,62.9c1.826.573,6.436-.33,7.426-1.1.66-.55.055-1.32-.77-.99a16.258,16.258,0,0,1-6.436,1.045C97.625,61.8,97.465,62.61,98.4,62.9Z" fill="#c8102e"></path><path d="M102.851,59.711a38.365,38.365,0,0,1,.77-8.636.368.368,0,0,0-.715-.165,27.826,27.826,0,0,0-.77,8.8A.358.358,0,1,0,102.851,59.711Z" fill="#c8102e"></path><path d="M101.531,50.581a17.739,17.739,0,0,1-4.456.6.463.463,0,0,0-.385.715,78.9,78.9,0,0,1,2.971,7.81c.165.5.66.385.55-.11a34.36,34.36,0,0,0-2.421-7.535,14.421,14.421,0,0,0,4.016-.77A.383.383,0,0,0,101.531,50.581Z" fill="#c8102e"></path><path d="M61.653,88.918a18.958,18.958,0,0,1-5.445,14.3c-1.045,1.045-.165,1.265.88.88,4.95-1.925,9.4-7.59,10.67-12.651.22-.88-.55-.825-.66-.275a18.864,18.864,0,0,1-9.35,11.716,19.484,19.484,0,0,0,4.9-13.806c-.055-.825-.165-.88-1.155-1.045-8.471-1.32-11.606-13.476,1.76-18.371,11.936-4.346,21.122,3.74,19.031,11.881-1.54,6.105-8.03,7.04-13.366,7.04-.715,0-.66.88.055.88,5.5.11,11.771-.66,13.806-6.16,4.4-11.716-7.92-18.1-18.316-15.181C47.627,72.967,51.862,88.533,61.653,88.918Z" fill="#c8102e"></path></g></svg>